<?xml version="1.0" encoding="UTF-8"?>
<svg xmlns="http://www.w3.org/2000/svg" xmlns:xlink="http://www.w3.org/1999/xlink" width="55px" height="55px" viewBox="0 0 55 55" version="1.1">
<g id="surface1">
<path style=" stroke:none;fill-rule:nonzero;fill:rgb(100%,100%,100%);fill-opacity:1;" d="M 50.070312 11.410156 L 31.152344 1.21875 C 28.902344 0 26.101562 0 23.851562 1.21875 L 4.929688 11.410156 C 2.652344 12.65625 1.269531 14.898438 1.28125 17.3125 L 1.28125 37.695312 C 1.269531 40.109375 2.65625 42.347656 4.929688 43.59375 L 23.847656 53.785156 C 26.097656 55 28.898438 55 31.148438 53.785156 L 50.066406 43.59375 C 52.34375 42.347656 53.730469 40.105469 53.71875 37.691406 L 53.71875 17.3125 C 53.730469 14.898438 52.347656 12.660156 50.070312 11.414062 Z M 50.070312 11.410156 "/>
<path style=" stroke:none;fill-rule:nonzero;fill:rgb(18.431373%,22.745098%,24.313725%);fill-opacity:1;" d="M 50.070312 11.410156 L 31.152344 1.21875 C 28.902344 0 26.101562 0 23.851562 1.21875 L 4.929688 11.410156 C 2.652344 12.65625 1.269531 14.898438 1.28125 17.3125 L 1.28125 37.695312 C 1.269531 40.109375 2.65625 42.347656 4.929688 43.59375 L 23.847656 53.785156 C 26.097656 55 28.898438 55 31.148438 53.785156 L 50.066406 43.59375 C 52.34375 42.347656 53.730469 40.105469 53.71875 37.691406 L 53.71875 17.3125 C 53.730469 14.898438 52.347656 12.660156 50.070312 11.414062 Z M 24.511719 52.742188 L 5.59375 42.550781 C 3.722656 41.523438 2.582031 39.679688 2.589844 37.695312 L 2.589844 17.3125 C 2.582031 15.328125 3.722656 13.484375 5.59375 12.457031 L 24.511719 2.261719 C 26.351562 1.265625 28.648438 1.265625 30.488281 2.261719 L 49.390625 12.457031 C 50.949219 13.3125 52.011719 14.75 52.296875 16.382812 C 51.667969 15.167969 50.253906 14.835938 48.605469 15.695312 L 30.722656 25.746094 C 28.492188 26.925781 26.847656 28.257812 26.84375 30.699219 L 26.84375 50.714844 C 26.84375 52.175781 27.492188 53.121094 28.492188 53.402344 C 28.164062 53.457031 27.832031 53.484375 27.5 53.488281 C 26.445312 53.488281 25.414062 53.230469 24.511719 52.742188 Z M 24.511719 52.742188 "/>
<path style=" stroke:none;fill-rule:nonzero;fill:rgb(22.745098%,69.411765%,29.019608%);fill-opacity:1;" d="M 45.109375 39.667969 L 40.398438 42.226562 C 40.273438 42.269531 40.1875 42.378906 40.183594 42.503906 L 40.183594 43.628906 C 40.183594 43.765625 40.285156 43.820312 40.410156 43.753906 L 45.195312 41.113281 C 45.3125 41.035156 45.367188 40.902344 45.339844 40.769531 L 45.339844 39.785156 C 45.335938 39.65625 45.226562 39.601562 45.109375 39.667969 Z M 45.109375 39.667969 "/>
<path style=" stroke:none;fill-rule:nonzero;fill:rgb(100%,100%,100%);fill-opacity:1;" d="M 35.082031 30.25 C 35.230469 30.179688 35.355469 30.25 35.359375 30.445312 L 35.375 31.9375 C 35.941406 31.703125 36.574219 31.632812 37.1875 31.738281 C 37.304688 31.765625 37.355469 31.910156 37.308594 32.082031 L 36.949219 33.390625 C 36.921875 33.492188 36.863281 33.582031 36.785156 33.652344 C 36.757812 33.679688 36.726562 33.699219 36.691406 33.714844 C 36.648438 33.738281 36.597656 33.742188 36.550781 33.734375 C 35.953125 33.617188 35.328125 33.707031 34.804688 33.992188 C 34.035156 34.304688 33.535156 34.988281 33.511719 35.753906 C 33.511719 36.441406 33.890625 36.628906 35.214844 36.652344 C 36.960938 36.679688 37.71875 37.371094 37.734375 38.96875 C 37.695312 40.636719 36.847656 42.207031 35.417969 43.257812 L 35.449219 44.722656 C 35.445312 44.902344 35.339844 45.070312 35.171875 45.167969 L 34.21875 45.667969 C 34.066406 45.734375 33.941406 45.667969 33.9375 45.472656 L 33.9375 44.035156 C 33.117188 44.34375 32.289062 44.414062 31.757812 44.222656 C 31.660156 44.1875 31.613281 44.054688 31.65625 43.898438 L 32 42.574219 C 32.027344 42.472656 32.085938 42.375 32.171875 42.300781 C 32.199219 42.277344 32.230469 42.257812 32.261719 42.242188 C 32.3125 42.222656 32.367188 42.222656 32.417969 42.242188 C 33.09375 42.40625 33.8125 42.324219 34.421875 42.011719 C 35.300781 41.628906 35.871094 40.832031 35.902344 39.949219 C 35.902344 39.207031 35.453125 38.898438 34.386719 38.890625 C 33.011719 38.890625 31.734375 38.648438 31.710938 36.828125 C 31.742188 35.234375 32.554688 33.738281 33.929688 32.75 L 33.859375 31.25 C 33.859375 31.066406 33.964844 30.894531 34.136719 30.796875 Z M 35.082031 30.25 "/>
</g>
</svg>
