<?xml version="1.0" encoding="UTF-8"?>
<svg xmlns="http://www.w3.org/2000/svg" xmlns:xlink="http://www.w3.org/1999/xlink" width="55px" height="55px" viewBox="0 0 55 55" version="1.1">
<g id="surface1">
<path style=" stroke:none;fill-rule:nonzero;fill:rgb(100%,80.784314%,32.941176%);fill-opacity:1;" d="M 33.945312 8.019531 L 0 8.019531 L 0 42.394531 L 25.207031 42.394531 L 34.375 46.980469 L 34.375 42.394531 L 41.25 42.394531 L 41.25 14.894531 Z M 33.945312 8.019531 "/>
<path style=" stroke:none;fill-rule:nonzero;fill:rgb(90.196078%,91.372549%,92.941176%);fill-opacity:1;" d="M 51.9375 36.09375 L 48.894531 36.09375 L 45.832031 45.640625 L 50.417969 48.699219 L 55 45.640625 Z M 51.9375 36.09375 "/>
<path style=" stroke:none;fill-rule:nonzero;fill:rgb(39.607843%,42.745098%,47.058824%);fill-opacity:1;" d="M 50.417969 6.300781 C 47.886719 6.300781 45.832031 8.351562 45.832031 10.886719 L 45.832031 40.675781 L 55 40.675781 L 55 10.886719 C 55 8.351562 52.949219 6.300781 50.417969 6.300781 Z M 50.417969 6.300781 "/>
<path style=" stroke:none;fill-rule:nonzero;fill:rgb(39.607843%,42.745098%,47.058824%);fill-opacity:1;" d="M 34.375 33.367188 L 6.875 33.367188 C 6.242188 33.367188 5.730469 32.855469 5.730469 32.222656 C 5.730469 31.589844 6.242188 31.078125 6.875 31.078125 L 34.375 31.078125 C 35.007812 31.078125 35.519531 31.589844 35.519531 32.222656 C 35.519531 32.855469 35.007812 33.367188 34.375 33.367188 Z M 34.375 33.367188 "/>
<path style=" stroke:none;fill-rule:nonzero;fill:rgb(39.607843%,42.745098%,47.058824%);fill-opacity:1;" d="M 34.375 26.492188 L 6.875 26.492188 C 6.242188 26.492188 5.730469 25.980469 5.730469 25.347656 C 5.730469 24.714844 6.242188 24.203125 6.875 24.203125 L 34.375 24.203125 C 35.007812 24.203125 35.519531 24.714844 35.519531 25.347656 C 35.519531 25.980469 35.007812 26.492188 34.375 26.492188 Z M 34.375 26.492188 "/>
<path style=" stroke:none;fill-rule:nonzero;fill:rgb(39.607843%,42.745098%,47.058824%);fill-opacity:1;" d="M 21.769531 19.617188 L 6.875 19.617188 C 6.242188 19.617188 5.730469 19.105469 5.730469 18.472656 C 5.730469 17.839844 6.242188 17.328125 6.875 17.328125 L 21.769531 17.328125 C 22.402344 17.328125 22.917969 17.839844 22.917969 18.472656 C 22.917969 19.105469 22.402344 19.617188 21.769531 19.617188 Z M 21.769531 19.617188 "/>
<path style=" stroke:none;fill-rule:nonzero;fill:rgb(96.470588%,73.333333%,25.882353%);fill-opacity:1;" d="M 33.945312 8.019531 L 33.945312 14.894531 L 41.25 14.894531 Z M 33.945312 8.019531 "/>
</g>
</svg>
