<?xml version="1.0" encoding="UTF-8"?>
<svg xmlns="http://www.w3.org/2000/svg" xmlns:xlink="http://www.w3.org/1999/xlink" width="55px" height="55px" viewBox="0 0 55 55" version="1.1">
<g id="surface1">
<path style=" stroke:none;fill-rule:nonzero;fill:rgb(94.117647%,25.882353%,30.196078%);fill-opacity:1;" d="M 45.257812 49.757812 C 43.261719 48.6875 42.117188 47.496094 41.867188 46.195312 C 41.621094 44.9375 42.183594 43.535156 43.585938 41.910156 C 46.933594 38.066406 48.78125 33.128906 48.78125 28.003906 C 48.78125 16.324219 39.273438 6.816406 27.59375 6.816406 L 27.402344 6.816406 C 15.722656 6.816406 6.21875 16.324219 6.21875 28.003906 C 6.214844 33.117188 8.058594 38.054688 11.414062 41.910156 C 12.828125 43.546875 13.375 44.890625 13.140625 46.140625 C 12.898438 47.4375 11.753906 48.65625 9.738281 49.757812 C 6.644531 47.179688 3.910156 43.738281 2.226562 40.285156 C 1.320312 38.410156 0.605469 36.429688 0.132812 34.402344 C -0.355469 32.316406 -0.609375 30.164062 -0.609375 28.007812 C -0.617188 24.261719 0.132812 20.554688 1.589844 17.105469 C 3 13.777344 5.039062 10.753906 7.601562 8.203125 C 10.152344 5.644531 13.175781 3.605469 16.5 2.203125 C 19.957031 0.738281 23.625 0 27.402344 0 L 27.59375 0 C 31.339844 -0.0078125 35.046875 0.742188 38.496094 2.203125 C 41.832031 3.613281 44.828125 5.632812 47.398438 8.203125 C 49.957031 10.753906 51.992188 13.777344 53.402344 17.101562 C 54.859375 20.550781 55.609375 24.261719 55.601562 28.003906 C 55.601562 30.160156 55.355469 32.304688 54.867188 34.402344 C 54.394531 36.429688 53.691406 38.410156 52.773438 40.28125 C 51.085938 43.738281 48.355469 47.179688 45.257812 49.757812 M 34.925781 55 C 34.597656 54.792969 33.488281 53.96875 32.402344 52.464844 C 31.363281 51.03125 30.140625 48.652344 30.203125 45.464844 C 30.246094 43.542969 30.628906 41.675781 31.359375 39.910156 C 32.074219 38.164062 33.097656 36.5625 34.40625 35.152344 L 34.414062 35.140625 L 34.703125 34.804688 C 35.195312 34.234375 35.707031 33.644531 36.113281 32.949219 C 36.605469 32.125 36.96875 31.230469 37.195312 30.292969 C 37.53125 28.871094 37.546875 27.394531 37.25 25.964844 C 36.972656 24.65625 36.425781 23.390625 35.644531 22.300781 C 34.890625 21.242188 33.914062 20.320312 32.8125 19.632812 C 31.652344 18.910156 30.355469 18.4375 29 18.246094 C 28.539062 18.179688 28.074219 18.144531 27.605469 18.144531 L 27.40625 18.144531 C 26.941406 18.144531 26.472656 18.179688 26.011719 18.246094 C 24.660156 18.4375 23.363281 18.910156 22.203125 19.632812 C 21.101562 20.320312 20.121094 21.242188 19.367188 22.300781 C 18.589844 23.398438 18.042969 24.644531 17.761719 25.964844 C 17.464844 27.394531 17.484375 28.871094 17.820312 30.292969 C 18.035156 31.199219 18.398438 32.101562 18.898438 32.949219 C 19.308594 33.644531 19.816406 34.234375 20.3125 34.804688 L 20.601562 35.140625 L 20.605469 35.152344 C 21.902344 36.539062 22.9375 38.152344 23.65625 39.910156 C 24.378906 41.675781 24.761719 43.535156 24.808594 45.464844 C 24.875 48.652344 23.652344 51.03125 22.613281 52.464844 C 21.527344 53.96875 20.414062 54.792969 20.089844 55 L 18.46875 54.511719 C 16.851562 53.96875 15.289062 53.28125 13.800781 52.453125 C 16.375 51.066406 17.984375 48.382812 17.988281 45.457031 C 17.988281 43.515625 17.234375 41.65625 15.75 39.9375 C 15.726562 39.910156 15.703125 39.890625 15.6875 39.871094 L 15.242188 39.382812 L 14.046875 37.988281 C 12.691406 36.167969 11.71875 34.089844 11.191406 31.878906 C 10.625 29.476562 10.59375 26.980469 11.097656 24.5625 C 11.574219 22.332031 12.5 20.21875 13.816406 18.355469 C 15.101562 16.554688 16.726562 15.023438 18.601562 13.851562 C 20.550781 12.636719 22.785156 11.824219 25.058594 11.5 C 25.835938 11.386719 26.621094 11.332031 27.410156 11.335938 L 27.621094 11.335938 C 28.40625 11.332031 29.191406 11.386719 29.96875 11.5 C 32.261719 11.828125 34.460938 12.628906 36.429688 13.851562 C 38.289062 15.011719 39.945312 16.570312 41.214844 18.355469 C 42.523438 20.203125 43.464844 22.351562 43.933594 24.566406 C 44.4375 26.980469 44.40625 29.480469 43.839844 31.882812 C 43.3125 34.089844 42.339844 36.167969 40.980469 37.988281 C 40.617188 38.480469 40.214844 38.917969 39.785156 39.386719 L 39.355469 39.859375 C 39.351562 39.863281 39.347656 39.867188 39.34375 39.871094 C 39.324219 39.886719 39.300781 39.910156 39.28125 39.941406 C 37.773438 41.753906 37.039062 43.550781 37.039062 45.464844 C 37.039062 48.394531 38.667969 51.082031 41.230469 52.460938 C 39.742188 53.289062 38.179688 53.976562 36.5625 54.519531 L 34.9375 55.007812 M 27.5 33.800781 C 24.449219 33.800781 21.96875 31.320312 21.96875 28.273438 C 21.96875 25.222656 24.449219 22.742188 27.5 22.742188 C 30.546875 22.742188 33.027344 25.222656 33.027344 28.273438 C 33.023438 31.324219 30.550781 33.796875 27.5 33.800781 "/>
</g>
</svg>
