<?xml version="1.0" encoding="UTF-8"?>
<svg xmlns="http://www.w3.org/2000/svg" xmlns:xlink="http://www.w3.org/1999/xlink" width="55px" height="55px" viewBox="0 0 55 55" version="1.1">
<g id="surface1">
<path style=" stroke:none;fill-rule:nonzero;fill:rgb(8.235294%,12.156863%,20.392157%);fill-opacity:1;" d="M 33.566406 15.761719 C 31.578125 16.222656 29.542969 16.453125 27.5 16.449219 C 25.457031 16.449219 23.421875 16.21875 21.433594 15.761719 C 23.058594 13.195312 25.109375 10.925781 27.5 9.039062 C 29.886719 10.925781 31.9375 13.199219 33.566406 15.761719 Z M 51.855469 0.980469 C 49.367188 0.328125 46.804688 -0.00390625 44.230469 0 C 38.277344 -0.00390625 32.453125 1.746094 27.5 5.035156 C 22.546875 1.746094 16.722656 -0.0078125 10.769531 0 C 8.179688 -0.0078125 5.597656 0.324219 3.09375 0.980469 C 2.046875 1.242188 1.011719 1.5625 0 1.941406 C -0.0351562 1.988281 -0.0351562 2.050781 0 2.097656 C 0.433594 3.019531 0.910156 3.921875 1.433594 4.796875 C 1.476562 4.824219 1.53125 4.824219 1.574219 4.796875 C 2.597656 4.425781 3.640625 4.117188 4.703125 3.867188 C 11.546875 2.316406 18.730469 3.476562 24.734375 7.097656 C 22.136719 9.28125 19.929688 11.886719 18.199219 14.796875 C 17.855469 15.347656 17.5625 15.914062 17.25 16.515625 C 16.9375 17.117188 16.871094 17.289062 16.679688 17.703125 C 16.488281 18.117188 16.144531 18.941406 15.917969 19.558594 C 11.71875 30.785156 14.632812 43.417969 23.335938 51.699219 C 23.785156 52.128906 24.25 52.542969 24.734375 52.953125 C 25.21875 53.367188 25.496094 53.589844 25.890625 53.882812 C 26.289062 54.175781 26.914062 54.640625 27.429688 54.984375 C 27.472656 55.011719 27.527344 55.011719 27.570312 54.984375 C 28.085938 54.621094 28.605469 54.261719 29.109375 53.882812 C 29.609375 53.503906 29.886719 53.28125 30.265625 52.953125 C 30.644531 52.628906 31.214844 52.128906 31.664062 51.699219 C 37.609375 46.039062 40.96875 38.210938 40.964844 30.027344 C 40.96875 26.453125 40.332031 22.910156 39.082031 19.558594 C 38.839844 18.921875 38.578125 18.304688 38.300781 17.6875 C 38.027344 17.066406 37.921875 16.878906 37.730469 16.5 C 37.542969 16.121094 37.128906 15.367188 36.78125 14.78125 C 35.050781 11.871094 32.84375 9.265625 30.25 7.082031 C 36.265625 3.480469 43.457031 2.34375 50.296875 3.917969 C 51.359375 4.167969 52.402344 4.476562 53.425781 4.847656 C 53.46875 4.875 53.523438 4.875 53.566406 4.847656 C 54.070312 3.976562 54.542969 3.082031 54.980469 2.164062 C 55.019531 2.121094 55.019531 2.054688 54.980469 2.011719 C 53.960938 1.609375 52.914062 1.265625 51.855469 0.980469 Z M 51.855469 0.980469 "/>
<path style=" stroke:none;fill-rule:nonzero;fill:rgb(20.392157%,52.156863%,25.098039%);fill-opacity:1;" d="M 37.714844 30.027344 C 37.726562 36.859375 35.097656 43.4375 30.371094 48.398438 C 29.546875 45.796875 29.128906 43.085938 29.125 40.355469 C 29.113281 33.523438 31.742188 26.945312 36.46875 21.984375 C 37.292969 24.585938 37.714844 27.296875 37.714844 30.027344 "/>
<path style=" stroke:none;fill-rule:nonzero;fill:rgb(49.019608%,73.72549%,25.882353%);fill-opacity:1;" d="M 25.925781 40.355469 C 25.925781 43.085938 25.507812 45.796875 24.683594 48.398438 C 17.972656 41.351562 15.636719 31.238281 18.582031 21.984375 C 23.308594 26.945312 25.9375 33.523438 25.925781 40.355469 "/>
</g>
</svg>
