<?xml version="1.0" encoding="UTF-8"?>
<svg xmlns="http://www.w3.org/2000/svg" xmlns:xlink="http://www.w3.org/1999/xlink" width="40px" height="40px" viewBox="0 0 40 40" version="1.1">
<g id="surface1">
<path style=" stroke:none;fill-rule:nonzero;fill:rgb(13.72549%,58.431373%,92.54902%);fill-opacity:1;" d="M 39.605469 16.539062 C 39.496094 16.453125 38.484375 15.699219 36.347656 15.699219 C 35.785156 15.703125 35.222656 15.75 34.667969 15.84375 C 34.253906 13.046875 31.984375 11.734375 31.878906 11.671875 L 31.304688 11.347656 L 30.929688 11.882812 C 30.457031 12.605469 30.039062 13.351562 29.835938 14.1875 C 29.453125 15.78125 29.6875 17.28125 30.507812 18.5625 C 29.515625 19.105469 27.820312 19.15625 27.5 19.167969 L 1.316406 19.167969 C 0.628906 19.167969 0.0703125 19.714844 0.0664062 20.394531 C 0.0351562 22.671875 0.363281 25.023438 1.15625 27.160156 C 2.0625 29.507812 3.414062 31.238281 5.171875 32.296875 C 7.140625 33.488281 10.335938 34.167969 13.964844 34.167969 C 15.601562 34.171875 17.234375 34.027344 18.847656 33.730469 C 21.085938 33.324219 23.238281 32.550781 25.21875 31.445312 C 26.851562 30.515625 28.316406 29.328125 29.566406 27.933594 C 31.65625 25.601562 32.898438 23.007812 33.824219 20.699219 C 33.949219 20.699219 34.070312 20.699219 34.191406 20.699219 C 36.476562 20.699219 37.882812 19.796875 38.65625 19.039062 C 39.171875 18.558594 39.574219 17.972656 39.835938 17.320312 L 40 16.847656 Z M 39.605469 16.539062 "/>
<path style=" stroke:none;fill-rule:nonzero;fill:rgb(13.72549%,58.431373%,92.54902%);fill-opacity:1;" d="M 6.667969 18.332031 L 4.167969 18.332031 C 3.707031 18.332031 3.332031 17.960938 3.332031 17.5 L 3.332031 15 C 3.332031 14.539062 3.707031 14.167969 4.167969 14.167969 L 6.667969 14.167969 C 7.125 14.167969 7.5 14.539062 7.5 15 L 7.5 17.5 C 7.5 17.960938 7.125 18.332031 6.667969 18.332031 Z M 6.667969 18.332031 "/>
<path style=" stroke:none;fill-rule:nonzero;fill:rgb(13.72549%,58.431373%,92.54902%);fill-opacity:1;" d="M 11.667969 18.332031 L 9.167969 18.332031 C 8.707031 18.332031 8.332031 17.960938 8.332031 17.5 L 8.332031 15 C 8.332031 14.539062 8.707031 14.167969 9.167969 14.167969 L 11.667969 14.167969 C 12.125 14.167969 12.5 14.539062 12.5 15 L 12.5 17.5 C 12.5 17.960938 12.125 18.332031 11.667969 18.332031 Z M 11.667969 18.332031 "/>
<path style=" stroke:none;fill-rule:nonzero;fill:rgb(13.72549%,58.431373%,92.54902%);fill-opacity:1;" d="M 16.667969 18.332031 L 14.167969 18.332031 C 13.707031 18.332031 13.332031 17.960938 13.332031 17.5 L 13.332031 15 C 13.332031 14.539062 13.707031 14.167969 14.167969 14.167969 L 16.667969 14.167969 C 17.125 14.167969 17.5 14.539062 17.5 15 L 17.5 17.5 C 17.5 17.960938 17.125 18.332031 16.667969 18.332031 Z M 16.667969 18.332031 "/>
<path style=" stroke:none;fill-rule:nonzero;fill:rgb(13.72549%,58.431373%,92.54902%);fill-opacity:1;" d="M 21.667969 18.332031 L 19.167969 18.332031 C 18.707031 18.332031 18.332031 17.960938 18.332031 17.5 L 18.332031 15 C 18.332031 14.539062 18.707031 14.167969 19.167969 14.167969 L 21.667969 14.167969 C 22.125 14.167969 22.5 14.539062 22.5 15 L 22.5 17.5 C 22.5 17.960938 22.125 18.332031 21.667969 18.332031 Z M 21.667969 18.332031 "/>
<path style=" stroke:none;fill-rule:nonzero;fill:rgb(13.72549%,58.431373%,92.54902%);fill-opacity:1;" d="M 11.667969 13.332031 L 9.167969 13.332031 C 8.707031 13.332031 8.332031 12.960938 8.332031 12.5 L 8.332031 10 C 8.332031 9.539062 8.707031 9.167969 9.167969 9.167969 L 11.667969 9.167969 C 12.125 9.167969 12.5 9.539062 12.5 10 L 12.5 12.5 C 12.5 12.960938 12.125 13.332031 11.667969 13.332031 Z M 11.667969 13.332031 "/>
<path style=" stroke:none;fill-rule:nonzero;fill:rgb(13.72549%,58.431373%,92.54902%);fill-opacity:1;" d="M 16.667969 13.332031 L 14.167969 13.332031 C 13.707031 13.332031 13.332031 12.960938 13.332031 12.5 L 13.332031 10 C 13.332031 9.539062 13.707031 9.167969 14.167969 9.167969 L 16.667969 9.167969 C 17.125 9.167969 17.5 9.539062 17.5 10 L 17.5 12.5 C 17.5 12.960938 17.125 13.332031 16.667969 13.332031 Z M 16.667969 13.332031 "/>
<path style=" stroke:none;fill-rule:nonzero;fill:rgb(13.72549%,58.431373%,92.54902%);fill-opacity:1;" d="M 21.667969 13.332031 L 19.167969 13.332031 C 18.707031 13.332031 18.332031 12.960938 18.332031 12.5 L 18.332031 10 C 18.332031 9.539062 18.707031 9.167969 19.167969 9.167969 L 21.667969 9.167969 C 22.125 9.167969 22.5 9.539062 22.5 10 L 22.5 12.5 C 22.5 12.960938 22.125 13.332031 21.667969 13.332031 Z M 21.667969 13.332031 "/>
<path style=" stroke:none;fill-rule:nonzero;fill:rgb(13.72549%,58.431373%,92.54902%);fill-opacity:1;" d="M 21.667969 8.332031 L 19.167969 8.332031 C 18.707031 8.332031 18.332031 7.960938 18.332031 7.5 L 18.332031 5 C 18.332031 4.539062 18.707031 4.167969 19.167969 4.167969 L 21.667969 4.167969 C 22.125 4.167969 22.5 4.539062 22.5 5 L 22.5 7.5 C 22.5 7.960938 22.125 8.332031 21.667969 8.332031 Z M 21.667969 8.332031 "/>
<path style=" stroke:none;fill-rule:nonzero;fill:rgb(13.72549%,58.431373%,92.54902%);fill-opacity:1;" d="M 26.667969 18.332031 L 24.167969 18.332031 C 23.707031 18.332031 23.332031 17.960938 23.332031 17.5 L 23.332031 15 C 23.332031 14.539062 23.707031 14.167969 24.167969 14.167969 L 26.667969 14.167969 C 27.125 14.167969 27.5 14.539062 27.5 15 L 27.5 17.5 C 27.5 17.960938 27.125 18.332031 26.667969 18.332031 Z M 26.667969 18.332031 "/>
</g>
</svg>
