<?xml version="1.0" encoding="UTF-8"?>
<svg xmlns="http://www.w3.org/2000/svg" xmlns:xlink="http://www.w3.org/1999/xlink" width="55px" height="55px" viewBox="0 0 55 55" version="1.1">
<g id="surface1">
<path style=" stroke:none;fill-rule:nonzero;fill:rgb(13.72549%,58.431373%,92.54902%);fill-opacity:1;" d="M 54.457031 22.742188 C 54.308594 22.625 52.914062 21.585938 49.976562 21.585938 C 49.203125 21.589844 48.429688 21.65625 47.667969 21.785156 C 47.097656 17.9375 43.976562 16.132812 43.832031 16.046875 L 43.042969 15.601562 L 42.527344 16.339844 C 41.878906 17.332031 41.304688 18.359375 41.023438 19.507812 C 40.5 21.699219 40.820312 23.761719 41.949219 25.523438 C 40.585938 26.269531 38.253906 26.339844 37.8125 26.355469 L 1.808594 26.355469 C 0.863281 26.355469 0.0976562 27.109375 0.0898438 28.042969 C 0.046875 31.175781 0.5 34.40625 1.589844 37.34375 C 2.835938 40.574219 4.695312 42.953125 7.109375 44.410156 C 9.820312 46.046875 14.210938 46.980469 19.203125 46.980469 C 21.453125 46.984375 23.699219 46.789062 25.914062 46.378906 C 28.992188 45.820312 31.953125 44.757812 34.675781 43.238281 C 36.921875 41.960938 38.933594 40.328125 40.652344 38.410156 C 43.527344 35.203125 45.234375 31.636719 46.507812 28.460938 C 46.679688 28.460938 46.847656 28.460938 47.011719 28.460938 C 50.15625 28.460938 52.089844 27.222656 53.152344 26.179688 C 53.859375 25.519531 54.414062 24.710938 54.773438 23.816406 L 55 23.164062 Z M 54.457031 22.742188 "/>
<path style=" stroke:none;fill-rule:nonzero;fill:rgb(13.72549%,58.431373%,92.54902%);fill-opacity:1;" d="M 9.167969 25.207031 L 5.730469 25.207031 C 5.097656 25.207031 4.582031 24.695312 4.582031 24.0625 L 4.582031 20.625 C 4.582031 19.992188 5.097656 19.480469 5.730469 19.480469 L 9.167969 19.480469 C 9.796875 19.480469 10.3125 19.992188 10.3125 20.625 L 10.3125 24.0625 C 10.3125 24.695312 9.796875 25.207031 9.167969 25.207031 Z M 9.167969 25.207031 "/>
<path style=" stroke:none;fill-rule:nonzero;fill:rgb(13.72549%,58.431373%,92.54902%);fill-opacity:1;" d="M 16.042969 25.207031 L 12.605469 25.207031 C 11.972656 25.207031 11.457031 24.695312 11.457031 24.0625 L 11.457031 20.625 C 11.457031 19.992188 11.972656 19.480469 12.605469 19.480469 L 16.042969 19.480469 C 16.671875 19.480469 17.1875 19.992188 17.1875 20.625 L 17.1875 24.0625 C 17.1875 24.695312 16.671875 25.207031 16.042969 25.207031 Z M 16.042969 25.207031 "/>
<path style=" stroke:none;fill-rule:nonzero;fill:rgb(13.72549%,58.431373%,92.54902%);fill-opacity:1;" d="M 22.917969 25.207031 L 19.480469 25.207031 C 18.847656 25.207031 18.332031 24.695312 18.332031 24.0625 L 18.332031 20.625 C 18.332031 19.992188 18.847656 19.480469 19.480469 19.480469 L 22.917969 19.480469 C 23.546875 19.480469 24.0625 19.992188 24.0625 20.625 L 24.0625 24.0625 C 24.0625 24.695312 23.546875 25.207031 22.917969 25.207031 Z M 22.917969 25.207031 "/>
<path style=" stroke:none;fill-rule:nonzero;fill:rgb(13.72549%,58.431373%,92.54902%);fill-opacity:1;" d="M 29.792969 25.207031 L 26.355469 25.207031 C 25.722656 25.207031 25.207031 24.695312 25.207031 24.0625 L 25.207031 20.625 C 25.207031 19.992188 25.722656 19.480469 26.355469 19.480469 L 29.792969 19.480469 C 30.421875 19.480469 30.9375 19.992188 30.9375 20.625 L 30.9375 24.0625 C 30.9375 24.695312 30.421875 25.207031 29.792969 25.207031 Z M 29.792969 25.207031 "/>
<path style=" stroke:none;fill-rule:nonzero;fill:rgb(13.72549%,58.431373%,92.54902%);fill-opacity:1;" d="M 16.042969 18.332031 L 12.605469 18.332031 C 11.972656 18.332031 11.457031 17.820312 11.457031 17.1875 L 11.457031 13.75 C 11.457031 13.117188 11.972656 12.605469 12.605469 12.605469 L 16.042969 12.605469 C 16.671875 12.605469 17.1875 13.117188 17.1875 13.75 L 17.1875 17.1875 C 17.1875 17.820312 16.671875 18.332031 16.042969 18.332031 Z M 16.042969 18.332031 "/>
<path style=" stroke:none;fill-rule:nonzero;fill:rgb(13.72549%,58.431373%,92.54902%);fill-opacity:1;" d="M 22.917969 18.332031 L 19.480469 18.332031 C 18.847656 18.332031 18.332031 17.820312 18.332031 17.1875 L 18.332031 13.75 C 18.332031 13.117188 18.847656 12.605469 19.480469 12.605469 L 22.917969 12.605469 C 23.546875 12.605469 24.0625 13.117188 24.0625 13.75 L 24.0625 17.1875 C 24.0625 17.820312 23.546875 18.332031 22.917969 18.332031 Z M 22.917969 18.332031 "/>
<path style=" stroke:none;fill-rule:nonzero;fill:rgb(13.72549%,58.431373%,92.54902%);fill-opacity:1;" d="M 29.792969 18.332031 L 26.355469 18.332031 C 25.722656 18.332031 25.207031 17.820312 25.207031 17.1875 L 25.207031 13.75 C 25.207031 13.117188 25.722656 12.605469 26.355469 12.605469 L 29.792969 12.605469 C 30.421875 12.605469 30.9375 13.117188 30.9375 13.75 L 30.9375 17.1875 C 30.9375 17.820312 30.421875 18.332031 29.792969 18.332031 Z M 29.792969 18.332031 "/>
<path style=" stroke:none;fill-rule:nonzero;fill:rgb(13.72549%,58.431373%,92.54902%);fill-opacity:1;" d="M 29.792969 11.457031 L 26.355469 11.457031 C 25.722656 11.457031 25.207031 10.945312 25.207031 10.3125 L 25.207031 6.875 C 25.207031 6.242188 25.722656 5.730469 26.355469 5.730469 L 29.792969 5.730469 C 30.421875 5.730469 30.9375 6.242188 30.9375 6.875 L 30.9375 10.3125 C 30.9375 10.945312 30.421875 11.457031 29.792969 11.457031 Z M 29.792969 11.457031 "/>
<path style=" stroke:none;fill-rule:nonzero;fill:rgb(13.72549%,58.431373%,92.54902%);fill-opacity:1;" d="M 36.667969 25.207031 L 33.230469 25.207031 C 32.597656 25.207031 32.082031 24.695312 32.082031 24.0625 L 32.082031 20.625 C 32.082031 19.992188 32.597656 19.480469 33.230469 19.480469 L 36.667969 19.480469 C 37.296875 19.480469 37.8125 19.992188 37.8125 20.625 L 37.8125 24.0625 C 37.8125 24.695312 37.296875 25.207031 36.667969 25.207031 Z M 36.667969 25.207031 "/>
</g>
</svg>
