<?xml version="1.0" encoding="UTF-8"?>
<svg xmlns="http://www.w3.org/2000/svg" xmlns:xlink="http://www.w3.org/1999/xlink" width="40px" height="40px" viewBox="0 0 40 56" version="1.1">
<g id="surface1">
<path style=" stroke:none;fill-rule:nonzero;fill:rgb(95.294118%,84.313725%,11.372549%);fill-opacity:1;" d="M 19.675781 55.964844 C 15.015625 55.765625 11.773438 55.148438 9.1875 53.96875 C 8.8125 53.796875 8.867188 53.910156 8.460938 52.484375 C 7.75 50 7.210938 47.75 6.636719 44.859375 C 6.34375 43.394531 6.207031 42.78125 5.53125 39.921875 C 4.316406 34.785156 3.855469 32.421875 3.589844 29.984375 C 3.523438 29.363281 3.644531 28.519531 3.835938 28.28125 C 3.945312 28.136719 3.949219 27.773438 3.839844 27.746094 C 3.773438 27.726562 3.757812 27.671875 3.734375 27.390625 C 3.714844 27.152344 3.683594 27.027344 3.628906 26.960938 C 3.578125 26.894531 3.554688 26.800781 3.554688 26.664062 C 3.554688 26.554688 3.535156 26.453125 3.515625 26.4375 C 3.492188 26.421875 3.476562 26.152344 3.476562 25.761719 C 3.476562 25.371094 3.457031 25.097656 3.433594 25.085938 C 3.414062 25.070312 3.394531 25.09375 3.394531 25.140625 C 3.394531 25.628906 3.039062 24.734375 2.832031 23.722656 C 2.304688 21.125 1.433594 18.546875 1.632812 20.164062 C 1.703125 20.734375 1.835938 21.292969 2.207031 22.632812 C 2.644531 24.210938 2.84375 25.328125 2.753906 25.703125 C 2.628906 26.238281 1.804688 23.015625 1.332031 20.125 C 1.210938 19.390625 1.03125 18.289062 0.929688 17.675781 C 0.707031 16.304688 0.496094 15.277344 0.210938 14.132812 C -0.0742188 12.992188 -0.0664062 12.804688 0.289062 12.355469 C 1.019531 11.429688 3.167969 10.707031 3.398438 11.3125 C 3.558594 11.726562 3.089844 12.011719 1.816406 12.28125 C 0.710938 12.511719 0.609375 12.679688 1.207031 13.269531 C 1.808594 13.855469 5.28125 14.382812 9.394531 14.507812 C 16.675781 14.730469 21.292969 14.789062 22.59375 14.675781 C 22.914062 14.648438 23.367188 14.613281 23.601562 14.601562 C 24.03125 14.578125 24.03125 14.578125 24.011719 14.472656 C 23.996094 14.394531 24.03125 14.320312 24.152344 14.171875 C 24.238281 14.0625 24.371094 13.890625 24.445312 13.792969 C 24.691406 13.457031 25.105469 13.328125 25.277344 13.535156 C 25.492188 13.792969 25.300781 14.390625 24.945312 14.574219 C 24.78125 14.65625 24.828125 14.683594 25.207031 14.71875 C 25.386719 14.734375 25.636719 14.757812 25.765625 14.773438 C 26.144531 14.8125 26.4375 14.675781 26.277344 14.53125 C 25.921875 14.210938 26.585938 13.570312 27.613281 13.238281 C 27.769531 13.1875 27.910156 13.128906 27.933594 13.109375 C 27.953125 13.089844 28 13.074219 28.035156 13.074219 C 28.164062 13.074219 28.539062 12.785156 28.957031 12.363281 C 29.195312 12.121094 29.460938 11.878906 29.550781 11.824219 C 29.640625 11.769531 29.730469 11.6875 29.753906 11.640625 C 29.828125 11.507812 29.6875 11.542969 29.375 11.738281 C 29.222656 11.835938 29.003906 11.96875 28.894531 12.039062 C 28.667969 12.175781 28.15625 12.511719 27.667969 12.847656 C 27.484375 12.972656 27.289062 13.105469 27.234375 13.144531 C 27.179688 13.179688 27.101562 13.238281 27.0625 13.269531 C 26.972656 13.34375 26.5625 13.363281 26.335938 13.300781 C 25.742188 13.144531 25.699219 12.628906 26.207031 11.726562 C 26.425781 11.332031 27.039062 10.527344 27.113281 10.527344 C 27.132812 10.527344 27.199219 10.453125 27.261719 10.359375 C 27.375 10.195312 27.445312 10.140625 27.800781 9.953125 C 28.058594 9.820312 28.207031 9.804688 28.25 9.910156 C 28.273438 9.972656 28.09375 10.367188 27.890625 10.695312 C 27.464844 11.382812 27.429688 11.453125 27.46875 11.492188 C 27.527344 11.550781 27.957031 11.289062 28.023438 11.164062 C 28.050781 11.109375 28.121094 10.957031 28.183594 10.828125 C 28.59375 9.941406 29.582031 9.855469 30.1875 10.648438 C 30.351562 10.859375 30.394531 10.882812 30.394531 10.757812 C 30.398438 10.371094 30.941406 10.050781 31.605469 10.050781 C 31.878906 10.046875 31.898438 10.003906 31.660156 9.914062 C 31.335938 9.789062 31.316406 9.726562 31.53125 9.484375 C 31.828125 9.144531 31.6875 9.078125 31.121094 9.292969 C 30.578125 9.5 30.046875 9.609375 29.683594 9.597656 C 29.492188 9.585938 29.292969 9.597656 29.238281 9.617188 C 29.1875 9.636719 29.042969 9.660156 28.925781 9.671875 C 28.804688 9.679688 28.691406 9.699219 28.675781 9.710938 C 28.65625 9.722656 28.554688 9.71875 28.449219 9.703125 C 27.855469 9.621094 27.910156 9.109375 28.652344 7.796875 C 28.753906 7.625 28.890625 7.363281 28.957031 7.222656 C 29.027344 7.078125 29.304688 6.515625 29.574219 5.964844 C 29.84375 5.417969 30.140625 4.808594 30.230469 4.613281 C 30.320312 4.414062 30.441406 4.167969 30.496094 4.0625 C 30.550781 3.960938 30.59375 3.855469 30.59375 3.835938 C 30.59375 3.8125 30.640625 3.699219 30.695312 3.585938 C 31.0625 2.84375 31.640625 1.015625 31.570312 0.832031 C 31.554688 0.792969 31.566406 0.769531 31.601562 0.769531 C 31.628906 0.769531 31.746094 0.707031 31.855469 0.636719 C 31.964844 0.5625 32.105469 0.472656 32.164062 0.4375 C 32.253906 0.382812 32.269531 0.347656 32.25 0.257812 C 32.148438 -0.257812 33.097656 0.0703125 34.285156 0.957031 C 36.027344 2.261719 37.578125 4.464844 38.871094 7.488281 C 40.019531 10.171875 40.320312 14.722656 39.574219 18.132812 C 39.054688 20.523438 38.699219 24.195312 38.316406 31.136719 C 38.070312 35.558594 37.933594 37.554688 37.730469 39.503906 C 37.679688 40.027344 37.605469 40.816406 37.574219 41.253906 C 37.410156 43.453125 37.167969 45.496094 36.75 48.125 C 36.605469 49.023438 36.585938 49.234375 36.574219 49.957031 C 36.535156 52.679688 35.53125 54.226562 33.628906 54.5 C 33.445312 54.527344 33.0625 54.617188 32.773438 54.699219 C 30.457031 55.378906 27.984375 55.738281 24.59375 55.890625 C 21.847656 56.011719 21.050781 56.023438 19.675781 55.964844 Z M 10.234375 51.847656 C 9.742188 49.84375 9.453125 48.890625 9.105469 48.125 C 8.734375 47.304688 8.648438 47.195312 8.695312 47.597656 C 8.90625 49.441406 9.414062 51.152344 10.242188 52.800781 C 10.679688 53.671875 10.679688 53.648438 10.234375 51.847656 Z M 9.371094 53.175781 C 9.511719 52.640625 9.28125 51.511719 8.613281 49.476562 C 8.230469 48.3125 7.949219 47.300781 7.894531 46.902344 C 7.859375 46.640625 7.824219 46.617188 7.675781 46.765625 C 7.433594 47.003906 7.507812 47.5 8.046875 49.308594 C 8.191406 49.796875 8.332031 50.351562 8.359375 50.542969 C 8.507812 51.671875 9.25 53.613281 9.371094 53.175781 Z M 22.933594 47.242188 C 23.664062 46.761719 23.566406 45.359375 22.773438 44.910156 C 22.058594 44.507812 21.675781 45.386719 21.980469 46.726562 C 22.113281 47.332031 22.492188 47.535156 22.933594 47.242188 Z M 20.78125 47.136719 C 21.324219 46.859375 21.507812 45.929688 21.164062 45.167969 C 20.828125 44.414062 20.15625 44.792969 20.03125 45.808594 C 20.015625 45.953125 19.972656 46.246094 19.941406 46.457031 C 19.820312 47.210938 20.136719 47.464844 20.78125 47.136719 Z M 7.539062 45.75 C 7.625 45.054688 7.445312 44.050781 6.859375 41.980469 C 6.691406 41.390625 6.5 40.628906 6.433594 40.285156 C 6.210938 39.164062 5.875 38.617188 6.035156 39.640625 C 6.113281 40.140625 6.558594 42.414062 6.65625 42.808594 C 6.710938 43.027344 6.800781 43.578125 6.855469 44.035156 C 6.996094 45.171875 7.121094 45.621094 7.367188 45.886719 C 7.484375 46.015625 7.503906 46 7.539062 45.75 Z M 16.792969 41.90625 C 19.839844 41.210938 20.824219 37.417969 18.417969 35.632812 C 16.867188 34.484375 15.898438 34.398438 13.476562 35.207031 C 12.980469 35.371094 12.535156 35.535156 12.484375 35.566406 C 12.308594 35.675781 12.035156 36.066406 12.035156 36.210938 C 12.035156 36.285156 11.964844 36.519531 11.878906 36.730469 C 10.734375 39.558594 13.648438 42.625 16.792969 41.90625 Z M 12.933594 39.734375 C 11.734375 39.558594 11.476562 38.542969 12.394531 37.613281 C 13.0625 36.9375 13.835938 36.882812 14.40625 37.460938 C 15.535156 38.613281 14.640625 39.988281 12.933594 39.734375 Z M 28.132812 41.347656 C 30.226562 41 31.539062 38.601562 30.675781 36.707031 C 28.652344 32.269531 21.394531 34.402344 22.988281 38.964844 C 23.667969 40.917969 25.539062 41.78125 28.132812 41.347656 Z M 24.054688 39.507812 C 23.121094 39.277344 22.820312 38.429688 23.320312 37.441406 C 23.945312 36.210938 25.28125 36.222656 25.941406 37.472656 C 26.339844 38.222656 26.25 38.476562 25.601562 38.410156 C 25.023438 38.351562 24.832031 38.433594 25.117188 38.621094 C 25.324219 38.757812 25.585938 38.996094 25.636719 39.089844 C 25.796875 39.386719 24.722656 39.671875 24.054688 39.507812 Z M 14.21875 23.039062 C 14.375 23.015625 14.488281 22.964844 14.691406 22.8125 C 14.835938 22.703125 15.066406 22.53125 15.207031 22.433594 C 16.441406 21.527344 16.839844 21.210938 17.292969 20.769531 C 17.449219 20.617188 17.898438 20.214844 18.292969 19.871094 C 18.691406 19.527344 19.089844 19.179688 19.179688 19.097656 C 19.269531 19.015625 19.429688 18.871094 19.539062 18.777344 C 19.875 18.480469 20.476562 17.9375 20.933594 17.507812 C 21.472656 17.003906 22.640625 15.828125 22.632812 15.796875 C 22.613281 15.71875 22.269531 15.652344 21.855469 15.648438 C 21.425781 15.644531 21.414062 15.644531 21.417969 15.554688 C 21.421875 15.433594 21.425781 15.433594 20.253906 15.40625 C 10.875 15.191406 4.589844 14.871094 1.191406 14.429688 C 0.796875 14.378906 0.753906 14.382812 0.753906 14.445312 C 0.753906 14.554688 1.078125 14.863281 1.335938 14.992188 C 1.65625 15.15625 1.660156 15.230469 1.355469 15.285156 C 1.023438 15.347656 1.035156 15.308594 1.164062 16.027344 C 1.683594 18.917969 2.445312 19.574219 4.054688 18.507812 C 4.984375 17.898438 10.917969 17.261719 14.835938 17.359375 C 15.507812 17.375 15.96875 17.367188 16.195312 17.335938 C 16.382812 17.3125 16.636719 17.285156 16.761719 17.273438 C 16.886719 17.261719 17.011719 17.226562 17.039062 17.195312 C 17.0625 17.164062 17.152344 17.136719 17.238281 17.136719 C 17.320312 17.136719 17.441406 17.117188 17.503906 17.09375 C 17.925781 16.917969 21.15625 16.851562 21.15625 17.015625 C 21.15625 17.046875 20.988281 17.203125 20.601562 17.539062 C 20.511719 17.617188 20.046875 17.976562 19.566406 18.335938 C 18.839844 18.882812 18.355469 19.257812 18.132812 19.445312 C 18.113281 19.464844 17.871094 19.714844 17.601562 20.003906 C 16.480469 21.1875 15.3125 22.003906 14.308594 22.300781 C 14.167969 22.34375 14.113281 22.382812 14.078125 22.464844 C 14.027344 22.605469 13.851562 22.914062 13.796875 22.96875 C 13.707031 23.058594 13.75 23.121094 13.882812 23.09375 C 13.957031 23.082031 14.105469 23.054688 14.21875 23.039062 Z M 16.132812 22.675781 C 16.148438 22.648438 16.453125 22.632812 16.910156 22.632812 C 17.796875 22.632812 18.515625 22.597656 18.515625 22.550781 C 18.515625 22.53125 18.488281 22.515625 18.457031 22.515625 C 18.289062 22.515625 18.234375 22.316406 18.339844 22.082031 C 18.476562 21.792969 18.597656 21.652344 19.960938 20.265625 C 20.5 19.71875 21.011719 19.179688 21.101562 19.070312 C 21.871094 18.121094 22.492188 17.21875 22.421875 17.152344 C 22.390625 17.121094 21.800781 17.671875 21.710938 17.8125 C 21.675781 17.871094 21.503906 18.054688 21.332031 18.226562 C 20.988281 18.5625 20.96875 18.582031 20.332031 19.328125 C 20.097656 19.601562 19.855469 19.878906 19.792969 19.945312 C 19.730469 20.011719 19.589844 20.164062 19.480469 20.285156 C 19.125 20.679688 18.46875 21.3125 18.175781 21.546875 C 17.515625 22.066406 16.496094 22.578125 16.175781 22.550781 C 16.066406 22.542969 15.835938 22.597656 15.835938 22.632812 C 15.835938 22.71875 16.085938 22.75 16.132812 22.675781 Z M 25.308594 22.519531 C 25.359375 22.441406 25.402344 22.4375 25.910156 22.433594 C 26.652344 22.433594 27.050781 22.28125 26.773438 22.101562 C 26.71875 22.0625 26.675781 21.996094 26.675781 21.945312 C 26.671875 21.636719 26.445312 21.382812 26.316406 21.550781 C 25.949219 22.03125 25.878906 22.105469 25.695312 22.195312 C 24.488281 22.796875 23.773438 21.414062 24.375 19.648438 C 24.894531 18.121094 24.9375 17.984375 25.058594 17.378906 C 25.117188 17.082031 25.0625 16.503906 24.976562 16.492188 C 24.785156 16.457031 23.917969 19.195312 23.554688 20.960938 C 23.398438 21.722656 23.398438 21.730469 23.1875 21.863281 C 22.445312 22.332031 22.148438 22.113281 22.382812 21.28125 C 22.457031 21.019531 22.691406 20.371094 22.796875 20.136719 C 22.839844 20.042969 22.875 19.957031 22.875 19.945312 C 22.875 19.933594 22.910156 19.835938 22.957031 19.734375 C 23.484375 18.539062 23.605469 18.101562 23.433594 18.050781 C 22.9375 17.910156 22.253906 18.289062 21.957031 18.875 C 21.921875 18.9375 21.855469 19.058594 21.804688 19.136719 C 21.695312 19.324219 21.496094 19.683594 21.164062 20.324219 C 20.707031 21.195312 20.609375 21.363281 20.300781 21.753906 C 19.976562 22.167969 19.636719 22.371094 19.09375 22.476562 C 18.707031 22.554688 18.710938 22.574219 19.132812 22.601562 C 20.230469 22.671875 25.253906 22.605469 25.308594 22.519531 Z M 20.804688 22.3125 C 20.632812 22.246094 20.542969 21.890625 20.640625 21.652344 C 20.828125 21.179688 21.082031 20.785156 21.957031 19.609375 C 22.144531 19.355469 22.367188 19.046875 22.449219 18.921875 C 22.894531 18.25 22.960938 19.4375 22.535156 20.425781 C 22.078125 21.480469 21.328125 22.382812 20.929688 22.351562 C 20.910156 22.351562 20.851562 22.335938 20.804688 22.3125 Z M 31.425781 22.152344 C 31.648438 22.128906 31.839844 22.085938 31.878906 22.054688 C 31.921875 22.015625 32.042969 21.996094 32.265625 21.996094 C 32.445312 21.996094 32.601562 21.980469 32.613281 21.957031 C 32.628906 21.9375 32.671875 21.917969 32.710938 21.917969 C 32.777344 21.917969 32.855469 21.769531 32.8125 21.722656 C 32.804688 21.714844 32.699219 21.726562 32.585938 21.753906 C 32.378906 21.796875 32.203125 21.824219 31.835938 21.867188 C 31.34375 21.925781 29.972656 21.886719 29.597656 21.804688 C 29.464844 21.777344 29.457031 21.765625 29.414062 21.53125 C 29.339844 21.113281 29.113281 20.914062 28.828125 21.015625 C 28.546875 21.113281 28.527344 21.167969 28.753906 21.253906 C 28.917969 21.320312 29.074219 21.449219 29.074219 21.519531 C 29.074219 21.589844 28.828125 21.839844 28.753906 21.839844 C 28.710938 21.839844 28.667969 21.855469 28.65625 21.875 C 28.628906 21.917969 28.160156 22.0625 27.925781 22.101562 C 27.484375 22.171875 27.882812 22.195312 29.394531 22.195312 C 30.304688 22.195312 31.210938 22.175781 31.425781 22.152344 Z M 34.027344 19.988281 C 34.242188 19.953125 34.476562 19.746094 34.476562 19.59375 C 34.476562 19.476562 34.382812 19.417969 34.304688 19.476562 C 34.253906 19.515625 33.949219 19.597656 33.835938 19.601562 C 33.800781 19.601562 33.699219 19.617188 33.605469 19.628906 C 32.992188 19.730469 31.285156 19.191406 30.488281 18.644531 C 30.394531 18.582031 30.308594 18.53125 30.296875 18.53125 C 30.261719 18.53125 29.863281 18.253906 29.746094 18.140625 C 29.332031 17.757812 30.105469 17.71875 31.113281 18.074219 C 31.753906 18.300781 31.835938 18.332031 32.007812 18.421875 C 32.273438 18.558594 32.304688 18.570312 32.585938 18.667969 C 33.238281 18.898438 33.289062 18.84375 32.773438 18.480469 C 32.007812 17.9375 31.1875 17.597656 30.882812 17.699219 C 30.550781 17.808594 29.792969 17.613281 29.074219 17.230469 C 27.789062 16.546875 27.304688 16.421875 27.742188 16.890625 C 28.328125 17.515625 29.089844 18.214844 29.570312 18.570312 C 29.871094 18.789062 30.277344 19.066406 30.355469 19.101562 C 30.386719 19.117188 30.496094 19.175781 30.59375 19.234375 C 30.824219 19.367188 31.589844 19.710938 31.785156 19.765625 C 32.167969 19.878906 32.355469 19.925781 32.558594 19.949219 C 32.675781 19.964844 32.796875 19.988281 32.824219 20.003906 C 32.886719 20.035156 33.804688 20.023438 34.027344 19.988281 Z M 29.316406 14.125 C 29.414062 14.117188 29.574219 14.101562 29.675781 14.089844 C 29.867188 14.070312 30.460938 13.953125 30.855469 13.851562 C 30.988281 13.820312 31.554688 13.730469 32.113281 13.652344 C 34.1875 13.371094 34.800781 13.140625 35.316406 12.453125 C 35.542969 12.152344 35.542969 12.113281 35.335938 11.710938 C 34.917969 10.90625 35.355469 10.65625 36.335938 11.144531 C 36.675781 11.316406 36.675781 11.316406 36.675781 11.144531 C 36.675781 10.992188 36.644531 10.964844 36.4375 10.921875 C 35.3125 10.691406 34.792969 9.847656 35.382812 9.207031 C 35.492188 9.089844 35.480469 8.964844 35.332031 8.425781 C 35.265625 8.1875 35.226562 8.175781 35.03125 8.320312 C 34.957031 8.378906 34.816406 8.457031 34.722656 8.5 C 34.546875 8.574219 34.546875 8.574219 34.726562 8.75 C 35.289062 9.3125 34.574219 10.011719 33.355469 10.085938 C 32.554688 10.136719 32.484375 10.164062 32.847656 10.265625 C 33.460938 10.445312 33.550781 10.824219 33.042969 11.070312 C 32.566406 11.300781 32.585938 11.316406 33.175781 11.183594 C 34.125 10.96875 34.851562 11 34.941406 11.257812 C 35.195312 11.972656 34.703125 12.707031 33.714844 13.089844 C 33.476562 13.179688 33.335938 13.222656 32.855469 13.347656 C 32.609375 13.414062 31.90625 13.519531 31.882812 13.496094 C 31.875 13.484375 31.835938 13.492188 31.796875 13.511719 C 31.761719 13.53125 31.589844 13.558594 31.414062 13.574219 C 30.390625 13.660156 29.847656 13.730469 28.707031 13.929688 C 28.074219 14.039062 27.996094 14.0625 27.996094 14.113281 C 27.996094 14.152344 28.78125 14.1875 28.996094 14.160156 C 29.070312 14.148438 29.214844 14.132812 29.316406 14.125 Z M 32.726562 8.464844 C 32.886719 8.359375 33.222656 8.136719 33.476562 7.96875 C 34.273438 7.441406 34.820312 6.875 34.933594 6.449219 C 34.960938 6.335938 35 6.214844 35.011719 6.179688 C 35.058594 6.070312 34.910156 5.675781 34.859375 5.761719 C 34.617188 6.160156 34.433594 6.386719 34.074219 6.738281 C 33.480469 7.324219 33.265625 7.527344 33.191406 7.566406 C 33.074219 7.628906 32.429688 8.355469 32.371094 8.492188 C 32.257812 8.753906 32.296875 8.75 32.726562 8.464844 Z M 4.195312 11.410156 C 4.195312 11.367188 4.253906 11.257812 4.328125 11.160156 C 4.515625 10.917969 4.59375 10.75 4.59375 10.609375 C 4.59375 10.453125 4.542969 10.476562 5.5 10.269531 C 7.644531 9.816406 8.5625 9.699219 10.203125 9.671875 C 18.855469 9.527344 21.398438 9.449219 24.148438 9.238281 C 24.847656 9.183594 24.847656 9.183594 25.039062 9.484375 C 25.453125 10.136719 24.277344 10.566406 22.453125 10.425781 C 22.277344 10.414062 21.441406 10.394531 20.59375 10.390625 C 19.054688 10.378906 19.054688 10.378906 18.21875 10.210938 C 16.996094 9.964844 16.640625 9.980469 16.289062 10.289062 C 16.125 10.433594 16.175781 10.429688 15.78125 10.292969 C 14.78125 9.941406 13.546875 9.921875 11.554688 10.21875 C 10.882812 10.320312 10.101562 10.421875 9.816406 10.445312 C 8.328125 10.570312 6.933594 10.828125 5.148438 11.304688 C 4.40625 11.503906 4.195312 11.527344 4.195312 11.410156 Z M 4.195312 11.410156 "/>
<path style=" stroke:none;fill-rule:nonzero;fill:rgb(83.529412%,67.843137%,17.647059%);fill-opacity:1;" d="M 19.675781 55.964844 C 15.015625 55.765625 11.773438 55.148438 9.1875 53.96875 C 8.8125 53.796875 8.867188 53.910156 8.460938 52.484375 C 7.75 50 7.210938 47.75 6.636719 44.859375 C 6.34375 43.394531 6.207031 42.78125 5.53125 39.921875 C 4.316406 34.785156 3.855469 32.421875 3.589844 29.984375 C 3.523438 29.363281 3.644531 28.519531 3.835938 28.28125 C 3.945312 28.136719 3.949219 27.773438 3.839844 27.746094 C 3.773438 27.726562 3.757812 27.671875 3.734375 27.390625 C 3.714844 27.152344 3.683594 27.027344 3.628906 26.960938 C 3.578125 26.894531 3.554688 26.800781 3.554688 26.664062 C 3.554688 26.554688 3.535156 26.453125 3.515625 26.4375 C 3.492188 26.421875 3.476562 26.152344 3.476562 25.761719 C 3.476562 25.371094 3.457031 25.097656 3.433594 25.085938 C 3.414062 25.070312 3.394531 25.09375 3.394531 25.140625 C 3.394531 25.628906 3.039062 24.734375 2.832031 23.722656 C 2.304688 21.125 1.433594 18.546875 1.632812 20.164062 C 1.703125 20.734375 1.835938 21.292969 2.207031 22.632812 C 2.644531 24.210938 2.84375 25.328125 2.753906 25.703125 C 2.628906 26.238281 1.804688 23.015625 1.332031 20.125 C 1.210938 19.390625 1.03125 18.289062 0.929688 17.675781 C 0.707031 16.304688 0.496094 15.277344 0.210938 14.132812 C -0.0742188 12.992188 -0.0664062 12.804688 0.289062 12.355469 C 1.019531 11.429688 3.167969 10.707031 3.398438 11.3125 C 3.558594 11.726562 3.089844 12.011719 1.816406 12.28125 C 0.710938 12.511719 0.609375 12.679688 1.207031 13.269531 C 1.808594 13.855469 5.28125 14.382812 9.394531 14.507812 C 16.675781 14.730469 21.292969 14.789062 22.59375 14.675781 C 22.914062 14.648438 23.367188 14.613281 23.601562 14.601562 C 24.03125 14.578125 24.03125 14.578125 24.011719 14.472656 C 23.996094 14.394531 24.03125 14.320312 24.152344 14.171875 C 24.238281 14.0625 24.371094 13.890625 24.445312 13.792969 C 24.707031 13.4375 25.125 13.324219 25.296875 13.566406 C 25.40625 13.726562 25.355469 13.773438 25.230469 13.621094 C 25.035156 13.382812 24.738281 13.480469 24.453125 13.871094 C 24.390625 13.960938 24.277344 14.109375 24.203125 14.199219 C 23.925781 14.539062 24.179688 14.785156 24.667969 14.644531 C 25.015625 14.542969 25.316406 14.191406 25.316406 13.886719 C 25.316406 13.8125 25.328125 13.789062 25.355469 13.816406 C 25.46875 13.929688 25.1875 14.449219 24.945312 14.574219 C 24.78125 14.65625 24.828125 14.683594 25.207031 14.71875 C 25.386719 14.734375 25.636719 14.757812 25.765625 14.773438 C 26.144531 14.8125 26.4375 14.675781 26.277344 14.53125 C 25.921875 14.210938 26.585938 13.570312 27.613281 13.238281 C 27.769531 13.1875 27.910156 13.128906 27.933594 13.109375 C 27.953125 13.089844 28 13.074219 28.035156 13.074219 C 28.164062 13.074219 28.539062 12.785156 28.957031 12.363281 C 29.382812 11.933594 29.578125 11.769531 29.617188 11.8125 C 29.628906 11.824219 29.570312 11.882812 29.488281 11.945312 C 28.867188 12.402344 28.839844 12.578125 29.441406 12.265625 C 30.3125 11.816406 30.675781 11.722656 30.390625 12.023438 C 30.03125 12.410156 28.832031 12.976562 28.6875 12.832031 C 28.65625 12.804688 28.582031 12.832031 28.425781 12.929688 C 28.304688 13.007812 28.027344 13.132812 27.8125 13.207031 C 27.0625 13.46875 26.867188 13.578125 26.433594 13.976562 C 25.050781 15.253906 32.492188 14.722656 36.582031 13.253906 C 37.265625 13.007812 37.398438 12.859375 37.34375 12.398438 C 37.246094 11.601562 35.6875 10.613281 35.257812 11.074219 C 35.152344 11.183594 35.113281 11.152344 35.203125 11.035156 C 35.363281 10.835938 35.796875 10.875 36.335938 11.144531 C 36.675781 11.316406 36.675781 11.316406 36.675781 11.144531 C 36.675781 10.996094 36.597656 10.925781 36.425781 10.921875 C 36.335938 10.917969 35.980469 10.773438 36.046875 10.769531 C 36.066406 10.765625 36.183594 10.792969 36.304688 10.828125 C 37.167969 11.078125 37.488281 10.648438 37.074219 9.792969 C 37.03125 9.703125 36.90625 9.28125 36.796875 8.855469 C 36.226562 6.613281 35.070312 4.195312 34.566406 4.195312 C 34.449219 4.195312 34.449219 4.199219 34.253906 3.4375 C 33.914062 2.128906 33.660156 1.648438 33.175781 1.371094 C 32.121094 0.773438 31.863281 -0.3125 32.875 0.105469 C 35.042969 0.992188 37.253906 3.71875 38.871094 7.488281 C 40.019531 10.171875 40.320312 14.722656 39.574219 18.132812 C 39.054688 20.523438 38.699219 24.195312 38.316406 31.136719 C 38.070312 35.558594 37.933594 37.554688 37.730469 39.503906 C 37.679688 40.027344 37.605469 40.816406 37.574219 41.253906 C 37.410156 43.453125 37.167969 45.496094 36.75 48.125 C 36.605469 49.023438 36.585938 49.234375 36.574219 49.957031 C 36.535156 52.679688 35.53125 54.226562 33.628906 54.5 C 33.445312 54.527344 33.0625 54.617188 32.773438 54.699219 C 30.457031 55.378906 27.984375 55.738281 24.59375 55.890625 C 21.847656 56.011719 21.050781 56.023438 19.675781 55.964844 Z M 10.234375 51.847656 C 9.742188 49.84375 9.453125 48.890625 9.105469 48.125 C 8.734375 47.304688 8.648438 47.195312 8.695312 47.597656 C 8.90625 49.441406 9.414062 51.152344 10.242188 52.800781 C 10.679688 53.671875 10.679688 53.648438 10.234375 51.847656 Z M 9.371094 53.175781 C 9.511719 52.640625 9.28125 51.511719 8.613281 49.476562 C 8.230469 48.3125 7.949219 47.300781 7.894531 46.902344 C 7.859375 46.640625 7.824219 46.617188 7.675781 46.765625 C 7.433594 47.003906 7.507812 47.5 8.046875 49.308594 C 8.191406 49.796875 8.332031 50.351562 8.359375 50.542969 C 8.507812 51.671875 9.25 53.613281 9.371094 53.175781 Z M 22.933594 47.242188 C 23.664062 46.761719 23.566406 45.359375 22.773438 44.910156 C 22.058594 44.507812 21.675781 45.386719 21.980469 46.726562 C 22.113281 47.332031 22.492188 47.535156 22.933594 47.242188 Z M 20.78125 47.136719 C 21.324219 46.859375 21.507812 45.929688 21.164062 45.167969 C 20.828125 44.414062 20.15625 44.792969 20.03125 45.808594 C 20.015625 45.953125 19.972656 46.246094 19.941406 46.457031 C 19.820312 47.210938 20.136719 47.464844 20.78125 47.136719 Z M 7.539062 45.75 C 7.625 45.054688 7.445312 44.050781 6.859375 41.980469 C 6.691406 41.390625 6.5 40.628906 6.433594 40.285156 C 6.210938 39.164062 5.875 38.617188 6.035156 39.640625 C 6.113281 40.140625 6.558594 42.414062 6.65625 42.808594 C 6.710938 43.027344 6.800781 43.578125 6.855469 44.035156 C 6.996094 45.171875 7.121094 45.621094 7.367188 45.886719 C 7.484375 46.015625 7.503906 46 7.539062 45.75 Z M 16.792969 41.90625 C 19.839844 41.210938 20.824219 37.417969 18.417969 35.632812 C 16.867188 34.484375 15.898438 34.398438 13.476562 35.207031 C 12.980469 35.371094 12.535156 35.535156 12.484375 35.566406 C 12.308594 35.675781 12.035156 36.066406 12.035156 36.210938 C 12.035156 36.285156 11.964844 36.519531 11.878906 36.730469 C 10.734375 39.558594 13.648438 42.625 16.792969 41.90625 Z M 12.933594 39.734375 C 11.734375 39.558594 11.476562 38.542969 12.394531 37.613281 C 13.0625 36.9375 13.835938 36.882812 14.40625 37.460938 C 15.535156 38.613281 14.640625 39.988281 12.933594 39.734375 Z M 28.132812 41.347656 C 30.226562 41 31.539062 38.601562 30.675781 36.707031 C 28.652344 32.269531 21.394531 34.402344 22.988281 38.964844 C 23.667969 40.917969 25.539062 41.78125 28.132812 41.347656 Z M 24.054688 39.507812 C 23.121094 39.277344 22.820312 38.429688 23.320312 37.441406 C 23.945312 36.210938 25.28125 36.222656 25.941406 37.472656 C 26.339844 38.222656 26.25 38.476562 25.601562 38.410156 C 25.023438 38.351562 24.832031 38.433594 25.117188 38.621094 C 25.324219 38.757812 25.585938 38.996094 25.636719 39.089844 C 25.796875 39.386719 24.722656 39.671875 24.054688 39.507812 Z M 14.21875 23.039062 C 14.378906 23.015625 14.488281 22.964844 14.6875 22.8125 C 14.835938 22.703125 15.058594 22.539062 15.183594 22.445312 C 15.882812 21.941406 16.484375 21.484375 16.695312 21.300781 C 16.96875 21.066406 17.035156 21.023438 17.035156 21.074219 C 17.035156 21.09375 16.929688 21.195312 16.804688 21.296875 C 16.679688 21.398438 16.542969 21.507812 16.503906 21.539062 C 16.398438 21.628906 15.648438 22.183594 15.21875 22.496094 C 14.757812 22.828125 14.753906 22.847656 15.125 22.820312 C 15.652344 22.78125 15.761719 22.753906 15.734375 22.671875 C 15.707031 22.585938 15.871094 22.5 16.011719 22.527344 C 16.078125 22.539062 16.066406 22.550781 15.964844 22.574219 C 15.890625 22.589844 15.839844 22.625 15.847656 22.648438 C 15.867188 22.710938 16.074219 22.730469 16.128906 22.675781 C 16.15625 22.648438 16.4375 22.632812 16.917969 22.632812 C 17.796875 22.632812 18.515625 22.597656 18.515625 22.550781 C 18.515625 22.53125 18.488281 22.515625 18.457031 22.515625 C 18.394531 22.515625 18.273438 22.410156 18.273438 22.351562 C 18.273438 22.332031 18.3125 22.351562 18.355469 22.394531 C 18.410156 22.453125 18.488281 22.476562 18.617188 22.476562 C 18.761719 22.476562 18.796875 22.488281 18.78125 22.53125 C 18.722656 22.683594 25.207031 22.667969 25.308594 22.515625 C 25.359375 22.441406 25.40625 22.4375 25.910156 22.433594 C 26.652344 22.433594 27.050781 22.28125 26.773438 22.101562 C 26.71875 22.0625 26.675781 21.996094 26.675781 21.945312 C 26.675781 21.898438 26.628906 21.765625 26.574219 21.648438 C 26.523438 21.535156 26.496094 21.441406 26.515625 21.441406 C 26.566406 21.441406 26.597656 21.5 26.695312 21.792969 C 26.78125 22.046875 26.789062 22.058594 26.960938 22.101562 C 27.128906 22.144531 27.132812 22.144531 27.015625 22.164062 C 26.949219 22.175781 27.058594 22.183594 27.253906 22.183594 C 27.507812 22.1875 27.574219 22.175781 27.476562 22.15625 C 27.398438 22.140625 27.347656 22.125 27.363281 22.121094 C 27.375 22.121094 27.527344 22.097656 27.699219 22.074219 C 28.242188 22 28.628906 21.855469 28.640625 21.726562 C 28.652344 21.628906 28.671875 21.617188 28.8125 21.617188 C 29.09375 21.617188 29.023438 21.351562 28.730469 21.296875 C 28.585938 21.269531 28.492188 21.1875 28.535156 21.121094 C 28.574219 21.058594 28.792969 20.953125 28.847656 20.976562 C 28.875 20.984375 28.859375 21.003906 28.816406 21.019531 C 28.5625 21.105469 28.546875 21.171875 28.753906 21.253906 C 28.917969 21.320312 29.074219 21.449219 29.074219 21.519531 C 29.074219 21.589844 28.828125 21.839844 28.753906 21.839844 C 28.710938 21.839844 28.667969 21.855469 28.65625 21.875 C 28.628906 21.917969 28.160156 22.0625 27.925781 22.101562 C 27.484375 22.171875 27.882812 22.195312 29.394531 22.195312 C 31.066406 22.195312 31.761719 22.15625 31.878906 22.054688 C 31.921875 22.015625 32.042969 21.996094 32.265625 21.996094 C 32.445312 21.996094 32.601562 21.980469 32.613281 21.957031 C 32.628906 21.9375 32.671875 21.917969 32.710938 21.917969 C 32.777344 21.917969 32.855469 21.769531 32.8125 21.722656 C 32.804688 21.714844 32.699219 21.726562 32.585938 21.75 C 32.164062 21.835938 32.113281 21.84375 32.113281 21.808594 C 32.113281 21.792969 32.242188 21.753906 32.398438 21.722656 C 33.796875 21.464844 34.867188 20.6875 35.316406 19.605469 C 35.378906 19.453125 35.558594 19.09375 35.71875 18.800781 C 36.691406 17.023438 37.257812 15.488281 37.113281 15.027344 C 37.09375 14.972656 37.070312 14.863281 37.058594 14.785156 C 37.011719 14.515625 36.988281 14.503906 36.515625 14.570312 C 34.390625 14.851562 30.257812 15.269531 27.734375 15.464844 C 25.960938 15.597656 23.550781 15.742188 23.0625 15.742188 C 22.871094 15.746094 22.871094 15.746094 22.164062 16.417969 C 21.28125 17.265625 21.207031 17.269531 22.050781 16.425781 C 22.398438 16.078125 22.667969 15.785156 22.648438 15.773438 C 22.519531 15.699219 22.039062 15.625 21.75 15.632812 C 21.425781 15.644531 21.414062 15.640625 21.417969 15.554688 C 21.421875 15.433594 21.425781 15.433594 20.253906 15.40625 C 10.875 15.191406 4.589844 14.871094 1.191406 14.429688 C 0.796875 14.378906 0.753906 14.382812 0.753906 14.445312 C 0.753906 14.554688 1.078125 14.863281 1.335938 14.992188 C 1.65625 15.15625 1.660156 15.230469 1.355469 15.285156 C 1.023438 15.347656 1.035156 15.308594 1.164062 16.027344 C 1.683594 18.917969 2.445312 19.574219 4.054688 18.507812 C 4.984375 17.898438 10.917969 17.261719 14.835938 17.359375 C 15.507812 17.375 15.96875 17.367188 16.195312 17.335938 C 16.382812 17.3125 16.636719 17.285156 16.761719 17.273438 C 16.886719 17.261719 17.011719 17.226562 17.039062 17.195312 C 17.0625 17.164062 17.152344 17.136719 17.238281 17.136719 C 17.320312 17.136719 17.441406 17.117188 17.503906 17.09375 C 17.925781 16.917969 21.15625 16.851562 21.15625 17.015625 C 21.15625 17.046875 20.988281 17.203125 20.601562 17.539062 C 20.511719 17.617188 20.046875 17.976562 19.566406 18.335938 C 18.839844 18.882812 18.355469 19.257812 18.132812 19.445312 C 18.113281 19.464844 17.871094 19.714844 17.601562 20.003906 C 16.480469 21.1875 15.3125 22.003906 14.308594 22.300781 C 14.167969 22.34375 14.113281 22.382812 14.078125 22.464844 C 14.027344 22.605469 13.851562 22.914062 13.796875 22.96875 C 13.707031 23.058594 13.75 23.121094 13.882812 23.09375 C 13.957031 23.082031 14.105469 23.054688 14.21875 23.039062 Z M 4.195312 11.410156 C 4.195312 11.367188 4.253906 11.257812 4.328125 11.160156 C 4.515625 10.917969 4.59375 10.75 4.59375 10.609375 C 4.59375 10.453125 4.542969 10.476562 5.5 10.269531 C 7.644531 9.816406 8.5625 9.699219 10.203125 9.671875 C 18.855469 9.527344 21.398438 9.449219 24.148438 9.238281 C 24.847656 9.183594 24.847656 9.183594 25.039062 9.484375 C 25.453125 10.136719 24.277344 10.566406 22.453125 10.425781 C 22.277344 10.414062 21.441406 10.394531 20.59375 10.390625 C 19.054688 10.378906 19.054688 10.378906 18.21875 10.210938 C 16.996094 9.964844 16.640625 9.980469 16.289062 10.289062 C 16.125 10.433594 16.175781 10.429688 15.78125 10.292969 C 14.78125 9.941406 13.546875 9.921875 11.554688 10.21875 C 10.882812 10.320312 10.101562 10.421875 9.816406 10.445312 C 8.328125 10.570312 6.933594 10.828125 5.148438 11.304688 C 4.40625 11.503906 4.195312 11.527344 4.195312 11.410156 Z M 4.195312 11.410156 "/>
<path style=" stroke:none;fill-rule:nonzero;fill:rgb(15.686275%,65.882353%,86.666667%);fill-opacity:1;" d="M 19.675781 55.964844 C 15.015625 55.765625 11.773438 55.148438 9.1875 53.96875 C 8.8125 53.796875 8.867188 53.910156 8.460938 52.484375 C 7.75 50 7.210938 47.75 6.636719 44.859375 C 6.34375 43.394531 6.207031 42.78125 5.53125 39.921875 C 4.316406 34.785156 3.855469 32.421875 3.589844 29.984375 C 3.523438 29.363281 3.644531 28.519531 3.835938 28.28125 C 3.945312 28.136719 3.949219 27.773438 3.839844 27.746094 C 3.773438 27.726562 3.757812 27.671875 3.734375 27.390625 C 3.714844 27.152344 3.683594 27.027344 3.628906 26.960938 C 3.578125 26.894531 3.554688 26.800781 3.554688 26.664062 C 3.554688 26.554688 3.535156 26.453125 3.515625 26.4375 C 3.492188 26.421875 3.476562 26.152344 3.476562 25.761719 C 3.476562 25.371094 3.457031 25.097656 3.433594 25.085938 C 3.414062 25.070312 3.394531 25.09375 3.394531 25.140625 C 3.394531 25.628906 3.039062 24.734375 2.832031 23.722656 C 2.304688 21.125 1.433594 18.546875 1.632812 20.164062 C 1.703125 20.734375 1.835938 21.292969 2.207031 22.632812 C 2.644531 24.210938 2.84375 25.328125 2.753906 25.703125 C 2.628906 26.238281 1.804688 23.015625 1.332031 20.125 C 1.210938 19.390625 1.03125 18.289062 0.929688 17.675781 C 0.707031 16.304688 0.496094 15.277344 0.210938 14.132812 C -0.0742188 12.992188 -0.0664062 12.804688 0.289062 12.355469 C 1.019531 11.429688 3.167969 10.707031 3.398438 11.3125 C 3.558594 11.726562 3.089844 12.011719 1.816406 12.28125 C 0.710938 12.511719 0.609375 12.679688 1.207031 13.269531 C 1.808594 13.855469 5.28125 14.382812 9.394531 14.507812 C 16.671875 14.730469 21.292969 14.789062 22.59375 14.675781 C 23.882812 14.5625 23.957031 14.566406 24.171875 14.691406 C 24.367188 14.800781 24.367188 14.800781 24.609375 14.742188 C 24.855469 14.679688 24.914062 14.683594 25.765625 14.773438 C 25.953125 14.792969 26.042969 14.777344 26.214844 14.707031 C 26.40625 14.632812 26.449219 14.628906 26.582031 14.671875 C 26.863281 14.765625 29.535156 14.738281 30.476562 14.632812 C 33.089844 14.339844 36.1875 13.628906 37.21875 13.085938 C 37.339844 13.019531 38.136719 12.828125 38.65625 12.738281 C 39.152344 12.652344 39.476562 12.574219 39.714844 12.484375 C 39.933594 12.40625 39.933594 12.40625 39.960938 12.75 C 40.074219 14.285156 39.902344 16.765625 39.59375 18.035156 C 39.511719 18.367188 39.417969 18.898438 39.277344 19.808594 C 39.230469 20.101562 39.171875 20.382812 39.148438 20.429688 C 39.125 20.480469 39.113281 20.558594 39.128906 20.609375 C 39.140625 20.660156 39.109375 21.0625 39.054688 21.5 C 38.769531 23.804688 38.589844 26.144531 38.316406 31.136719 C 38.070312 35.558594 37.933594 37.554688 37.730469 39.503906 C 37.679688 40.027344 37.605469 40.816406 37.574219 41.253906 C 37.410156 43.453125 37.167969 45.496094 36.75 48.125 C 36.605469 49.023438 36.585938 49.234375 36.574219 49.957031 C 36.535156 52.679688 35.53125 54.226562 33.628906 54.5 C 33.445312 54.527344 33.0625 54.617188 32.773438 54.699219 C 30.457031 55.378906 27.984375 55.738281 24.59375 55.890625 C 21.847656 56.011719 21.050781 56.023438 19.675781 55.964844 Z M 10.234375 51.847656 C 9.742188 49.84375 9.453125 48.890625 9.105469 48.125 C 8.734375 47.304688 8.648438 47.195312 8.695312 47.597656 C 8.90625 49.441406 9.414062 51.152344 10.242188 52.800781 C 10.679688 53.671875 10.679688 53.648438 10.234375 51.847656 Z M 9.371094 53.175781 C 9.511719 52.640625 9.28125 51.511719 8.613281 49.476562 C 8.230469 48.3125 7.949219 47.300781 7.894531 46.902344 C 7.859375 46.640625 7.824219 46.617188 7.675781 46.765625 C 7.433594 47.003906 7.507812 47.5 8.046875 49.308594 C 8.191406 49.796875 8.332031 50.351562 8.359375 50.542969 C 8.507812 51.671875 9.25 53.613281 9.371094 53.175781 Z M 22.933594 47.242188 C 23.664062 46.761719 23.566406 45.359375 22.773438 44.910156 C 22.058594 44.507812 21.675781 45.386719 21.980469 46.726562 C 22.113281 47.332031 22.492188 47.535156 22.933594 47.242188 Z M 20.78125 47.136719 C 21.324219 46.859375 21.507812 45.929688 21.164062 45.167969 C 20.828125 44.414062 20.15625 44.792969 20.03125 45.808594 C 20.015625 45.953125 19.972656 46.246094 19.941406 46.457031 C 19.820312 47.210938 20.136719 47.464844 20.78125 47.136719 Z M 7.539062 45.75 C 7.625 45.054688 7.445312 44.050781 6.859375 41.980469 C 6.691406 41.390625 6.5 40.628906 6.433594 40.285156 C 6.210938 39.164062 5.875 38.617188 6.035156 39.640625 C 6.113281 40.140625 6.558594 42.414062 6.65625 42.808594 C 6.710938 43.027344 6.800781 43.578125 6.855469 44.035156 C 6.996094 45.171875 7.121094 45.621094 7.367188 45.886719 C 7.484375 46.015625 7.503906 46 7.539062 45.75 Z M 19.566406 44.460938 C 19.972656 44.242188 20.386719 44.140625 20.890625 44.144531 C 21.277344 44.144531 21.570312 44.183594 22.675781 44.386719 C 24.023438 44.632812 24.816406 44.445312 24.722656 43.902344 C 24.511719 42.671875 23.882812 42.402344 21.953125 42.710938 C 20.824219 42.894531 20.011719 42.902344 19.550781 42.738281 C 19.191406 42.609375 19.210938 42.609375 18.941406 42.710938 C 17.972656 43.070312 18.015625 44.222656 19.011719 44.539062 C 19.144531 44.582031 19.257812 44.617188 19.261719 44.617188 C 19.265625 44.621094 19.402344 44.550781 19.566406 44.460938 Z M 16.792969 41.90625 C 19.839844 41.210938 20.824219 37.417969 18.417969 35.632812 C 16.867188 34.484375 15.898438 34.398438 13.476562 35.207031 C 12.980469 35.371094 12.535156 35.535156 12.484375 35.566406 C 12.308594 35.675781 12.035156 36.066406 12.035156 36.210938 C 12.035156 36.285156 11.964844 36.519531 11.878906 36.730469 C 10.734375 39.558594 13.648438 42.625 16.792969 41.90625 Z M 12.933594 39.734375 C 11.734375 39.558594 11.476562 38.542969 12.394531 37.613281 C 13.0625 36.9375 13.835938 36.882812 14.40625 37.460938 C 15.535156 38.613281 14.640625 39.988281 12.933594 39.734375 Z M 28.132812 41.347656 C 30.226562 41 31.539062 38.601562 30.675781 36.707031 C 28.652344 32.269531 21.394531 34.402344 22.988281 38.964844 C 23.667969 40.917969 25.539062 41.78125 28.132812 41.347656 Z M 24.054688 39.507812 C 23.121094 39.277344 22.820312 38.429688 23.320312 37.441406 C 23.945312 36.210938 25.28125 36.222656 25.941406 37.472656 C 26.339844 38.222656 26.25 38.476562 25.601562 38.410156 C 25.023438 38.351562 24.832031 38.433594 25.117188 38.621094 C 25.324219 38.757812 25.585938 38.996094 25.636719 39.089844 C 25.796875 39.386719 24.722656 39.671875 24.054688 39.507812 Z M 13.992188 23.074219 C 14.03125 23.054688 14.175781 23.03125 14.3125 23.027344 C 14.515625 23.019531 14.570312 23 14.589844 22.941406 C 14.613281 22.878906 14.671875 22.867188 15.054688 22.855469 C 15.632812 22.835938 15.859375 22.804688 16.054688 22.714844 C 16.226562 22.632812 17.894531 22.570312 18.996094 22.601562 C 20.953125 22.65625 25.253906 22.601562 25.308594 22.519531 C 25.359375 22.441406 25.402344 22.4375 25.910156 22.433594 C 26.480469 22.433594 26.710938 22.390625 26.808594 22.257812 C 26.855469 22.195312 26.992188 22.191406 28.9375 22.195312 C 31.054688 22.199219 31.753906 22.167969 31.878906 22.054688 C 31.921875 22.015625 32.042969 21.996094 32.265625 21.996094 C 32.445312 21.996094 32.601562 21.980469 32.613281 21.957031 C 32.628906 21.933594 33.222656 21.917969 34.253906 21.917969 C 35.8125 21.917969 35.875 21.914062 35.914062 21.839844 C 35.949219 21.773438 36.011719 21.761719 36.386719 21.742188 C 37.269531 21.699219 37.492188 21.671875 37.5625 21.613281 C 37.613281 21.566406 37.714844 21.554688 38.019531 21.5625 C 38.410156 21.574219 38.410156 21.574219 38.457031 21.398438 C 38.484375 21.300781 38.542969 21.121094 38.585938 21 C 38.652344 20.828125 38.671875 20.632812 38.695312 20.046875 C 38.726562 19.242188 38.753906 18.984375 38.863281 18.53125 C 38.949219 18.167969 38.949219 15.753906 38.863281 14.808594 C 38.8125 14.21875 37.71875 13.996094 36.910156 14.414062 C 36.777344 14.480469 33.539062 14.863281 31.035156 15.105469 C 28.503906 15.351562 25.308594 15.585938 23.59375 15.648438 C 23.136719 15.667969 22.859375 15.695312 22.789062 15.730469 C 22.699219 15.773438 22.652344 15.773438 22.46875 15.714844 C 22.324219 15.667969 22.117188 15.648438 21.835938 15.644531 C 21.425781 15.644531 21.414062 15.644531 21.417969 15.554688 C 21.421875 15.433594 21.425781 15.433594 20.253906 15.40625 C 10.875 15.191406 4.589844 14.871094 1.191406 14.429688 C 0.796875 14.378906 0.753906 14.382812 0.753906 14.445312 C 0.753906 14.554688 1.078125 14.863281 1.335938 14.992188 C 1.65625 15.15625 1.660156 15.230469 1.355469 15.285156 C 1.023438 15.347656 1.035156 15.308594 1.164062 16.027344 C 1.683594 18.917969 2.445312 19.574219 4.054688 18.507812 C 4.984375 17.898438 10.917969 17.261719 14.835938 17.359375 C 15.507812 17.375 15.96875 17.367188 16.195312 17.335938 C 16.382812 17.3125 16.636719 17.285156 16.761719 17.273438 C 16.886719 17.261719 17.011719 17.226562 17.039062 17.195312 C 17.0625 17.164062 17.152344 17.136719 17.238281 17.136719 C 17.320312 17.136719 17.441406 17.117188 17.503906 17.09375 C 17.925781 16.917969 21.15625 16.851562 21.15625 17.015625 C 21.15625 17.046875 20.988281 17.203125 20.601562 17.539062 C 20.511719 17.617188 20.046875 17.976562 19.566406 18.335938 C 18.839844 18.882812 18.355469 19.257812 18.132812 19.445312 C 18.113281 19.464844 17.871094 19.714844 17.601562 20.003906 C 16.480469 21.1875 15.3125 22.003906 14.308594 22.300781 C 14.167969 22.34375 14.113281 22.382812 14.078125 22.464844 C 14.027344 22.605469 13.851562 22.914062 13.796875 22.96875 C 13.679688 23.082031 13.824219 23.164062 13.992188 23.074219 Z M 4.195312 11.410156 C 4.195312 11.367188 4.253906 11.257812 4.328125 11.160156 C 4.515625 10.917969 4.59375 10.75 4.59375 10.609375 C 4.59375 10.453125 4.542969 10.476562 5.5 10.269531 C 7.644531 9.816406 8.5625 9.699219 10.203125 9.671875 C 18.855469 9.527344 21.398438 9.449219 24.148438 9.238281 C 24.847656 9.183594 24.847656 9.183594 25.039062 9.484375 C 25.453125 10.136719 24.277344 10.566406 22.453125 10.425781 C 22.277344 10.414062 21.441406 10.394531 20.59375 10.390625 C 19.054688 10.378906 19.054688 10.378906 18.21875 10.210938 C 16.996094 9.964844 16.640625 9.980469 16.289062 10.289062 C 16.125 10.433594 16.175781 10.429688 15.78125 10.292969 C 14.78125 9.941406 13.546875 9.921875 11.554688 10.21875 C 10.882812 10.320312 10.101562 10.421875 9.816406 10.445312 C 8.328125 10.570312 6.933594 10.828125 5.148438 11.304688 C 4.40625 11.503906 4.195312 11.527344 4.195312 11.410156 Z M 4.195312 11.410156 "/>
<path style=" stroke:none;fill-rule:nonzero;fill:rgb(21.176471%,59.607843%,65.098039%);fill-opacity:1;" d="M 19.675781 55.964844 C 15.015625 55.765625 11.773438 55.148438 9.1875 53.96875 C 8.8125 53.796875 8.867188 53.910156 8.460938 52.484375 C 7.75 50 7.210938 47.75 6.636719 44.859375 C 6.34375 43.394531 6.207031 42.78125 5.53125 39.921875 C 4.316406 34.785156 3.855469 32.421875 3.589844 29.984375 C 3.515625 29.300781 3.65625 28.464844 3.878906 28.242188 C 4.023438 28.097656 4.042969 27.820312 3.914062 27.703125 C 3.859375 27.648438 3.828125 27.542969 3.800781 27.300781 C 3.777344 27.113281 3.738281 26.941406 3.703125 26.902344 C 3.625 26.816406 3.597656 26.566406 3.5625 25.714844 C 3.546875 25.339844 3.519531 25.015625 3.503906 25 C 3.464844 24.960938 3.394531 25.058594 3.394531 25.152344 C 3.390625 25.621094 3.039062 24.722656 2.832031 23.722656 C 2.304688 21.125 1.433594 18.546875 1.632812 20.164062 C 1.703125 20.734375 1.835938 21.292969 2.207031 22.632812 C 2.644531 24.210938 2.84375 25.328125 2.753906 25.703125 C 2.628906 26.238281 1.804688 23.015625 1.332031 20.125 C 1.210938 19.390625 1.03125 18.289062 0.929688 17.675781 C 0.707031 16.304688 0.496094 15.277344 0.210938 14.132812 C -0.0742188 12.992188 -0.0664062 12.804688 0.289062 12.355469 C 1.019531 11.429688 3.167969 10.707031 3.398438 11.3125 C 3.558594 11.726562 3.089844 12.011719 1.816406 12.28125 C 0.710938 12.511719 0.609375 12.679688 1.207031 13.269531 C 1.808594 13.855469 5.28125 14.382812 9.394531 14.507812 C 16.671875 14.730469 21.292969 14.789062 22.59375 14.675781 C 23.882812 14.5625 23.957031 14.566406 24.171875 14.691406 C 24.367188 14.800781 24.367188 14.800781 24.609375 14.742188 C 24.855469 14.679688 24.914062 14.683594 25.765625 14.773438 C 25.953125 14.792969 26.042969 14.777344 26.214844 14.707031 C 26.40625 14.632812 26.449219 14.628906 26.582031 14.671875 C 26.863281 14.765625 29.535156 14.738281 30.476562 14.632812 C 33.089844 14.339844 36.1875 13.628906 37.21875 13.085938 C 37.339844 13.019531 38.136719 12.828125 38.65625 12.738281 C 39.152344 12.652344 39.476562 12.574219 39.714844 12.484375 C 39.933594 12.40625 39.933594 12.40625 39.960938 12.75 C 40.074219 14.285156 39.902344 16.765625 39.59375 18.035156 C 39.511719 18.367188 39.417969 18.898438 39.277344 19.808594 C 39.230469 20.101562 39.171875 20.382812 39.148438 20.429688 C 39.125 20.480469 39.113281 20.558594 39.128906 20.609375 C 39.140625 20.660156 39.109375 21.0625 39.054688 21.5 C 38.769531 23.804688 38.589844 26.144531 38.316406 31.136719 C 38.070312 35.558594 37.933594 37.554688 37.730469 39.503906 C 37.679688 40.027344 37.605469 40.816406 37.574219 41.253906 C 37.410156 43.453125 37.167969 45.496094 36.75 48.125 C 36.605469 49.023438 36.585938 49.234375 36.574219 49.957031 C 36.535156 52.679688 35.53125 54.226562 33.628906 54.5 C 33.445312 54.527344 33.0625 54.617188 32.773438 54.699219 C 30.457031 55.378906 27.984375 55.738281 24.59375 55.890625 C 21.847656 56.011719 21.050781 56.023438 19.675781 55.964844 Z M 10.234375 51.847656 C 9.742188 49.84375 9.453125 48.890625 9.105469 48.125 C 8.734375 47.304688 8.648438 47.195312 8.695312 47.597656 C 8.90625 49.441406 9.414062 51.152344 10.242188 52.800781 C 10.679688 53.671875 10.679688 53.648438 10.234375 51.847656 Z M 9.371094 53.175781 C 9.511719 52.640625 9.28125 51.511719 8.613281 49.476562 C 8.230469 48.3125 7.949219 47.300781 7.894531 46.902344 C 7.859375 46.640625 7.824219 46.617188 7.675781 46.765625 C 7.433594 47.003906 7.507812 47.5 8.046875 49.308594 C 8.191406 49.796875 8.332031 50.351562 8.359375 50.542969 C 8.507812 51.671875 9.25 53.613281 9.371094 53.175781 Z M 22.933594 47.242188 C 23.664062 46.761719 23.566406 45.359375 22.773438 44.910156 C 22.058594 44.507812 21.675781 45.386719 21.980469 46.726562 C 22.113281 47.332031 22.492188 47.535156 22.933594 47.242188 Z M 20.78125 47.136719 C 21.324219 46.859375 21.507812 45.929688 21.164062 45.167969 C 20.828125 44.414062 20.15625 44.792969 20.03125 45.808594 C 20.015625 45.953125 19.972656 46.246094 19.941406 46.457031 C 19.820312 47.210938 20.136719 47.464844 20.78125 47.136719 Z M 7.539062 45.75 C 7.625 45.054688 7.445312 44.050781 6.859375 41.980469 C 6.691406 41.390625 6.5 40.628906 6.433594 40.285156 C 6.210938 39.164062 5.875 38.617188 6.035156 39.640625 C 6.113281 40.140625 6.558594 42.414062 6.65625 42.808594 C 6.710938 43.027344 6.800781 43.578125 6.855469 44.035156 C 6.996094 45.171875 7.121094 45.621094 7.367188 45.886719 C 7.484375 46.015625 7.503906 46 7.539062 45.75 Z M 19.566406 44.460938 C 19.972656 44.242188 20.386719 44.140625 20.890625 44.144531 C 21.277344 44.144531 21.570312 44.183594 22.675781 44.386719 C 24.023438 44.632812 24.816406 44.445312 24.722656 43.902344 C 24.511719 42.671875 23.882812 42.402344 21.953125 42.710938 C 20.824219 42.894531 20.011719 42.902344 19.550781 42.738281 C 19.191406 42.609375 19.210938 42.609375 18.941406 42.710938 C 17.972656 43.070312 18.015625 44.222656 19.011719 44.539062 C 19.144531 44.582031 19.257812 44.617188 19.261719 44.617188 C 19.265625 44.621094 19.402344 44.550781 19.566406 44.460938 Z M 16.792969 41.90625 C 19.839844 41.210938 20.824219 37.417969 18.417969 35.632812 C 16.828125 34.453125 15.816406 34.386719 13.226562 35.289062 C 12.683594 35.480469 12.425781 35.554688 12.394531 35.523438 C 12.367188 35.496094 12.355469 35.503906 12.355469 35.550781 C 12.355469 35.589844 12.328125 35.632812 12.296875 35.644531 C 12.179688 35.6875 12.046875 35.953125 12.039062 36.15625 C 12.03125 36.28125 11.972656 36.5 11.875 36.738281 C 10.734375 39.558594 13.652344 42.625 16.792969 41.90625 Z M 12.933594 39.734375 C 11.734375 39.558594 11.476562 38.542969 12.394531 37.613281 C 13.0625 36.9375 13.835938 36.882812 14.40625 37.460938 C 15.535156 38.613281 14.640625 39.988281 12.933594 39.734375 Z M 28.132812 41.347656 C 30.226562 41 31.539062 38.601562 30.675781 36.707031 C 28.652344 32.269531 21.394531 34.402344 22.988281 38.964844 C 23.667969 40.917969 25.539062 41.78125 28.132812 41.347656 Z M 24.054688 39.507812 C 23.121094 39.277344 22.820312 38.429688 23.320312 37.441406 C 23.945312 36.210938 25.28125 36.222656 25.941406 37.472656 C 26.339844 38.222656 26.25 38.476562 25.601562 38.410156 C 25.023438 38.351562 24.832031 38.433594 25.117188 38.621094 C 25.324219 38.757812 25.585938 38.996094 25.636719 39.089844 C 25.796875 39.386719 24.722656 39.671875 24.054688 39.507812 Z M 21.726562 25.878906 C 21.757812 25.777344 21.742188 25.726562 21.640625 25.5625 C 20.855469 24.328125 21.730469 22.613281 22.972656 22.957031 C 23.480469 23.097656 23.480469 23.378906 22.980469 24.464844 C 22.507812 25.496094 22.546875 25.683594 23.21875 25.683594 C 23.691406 25.683594 23.671875 25.714844 23.714844 24.941406 C 23.828125 22.953125 24.433594 22.28125 25.714844 22.710938 C 26.046875 22.824219 26.054688 22.832031 26.152344 23.226562 C 26.539062 24.742188 27.066406 25.171875 28.453125 25.109375 C 29.441406 25.0625 29.660156 24.855469 30.035156 23.609375 C 30.359375 22.546875 30.582031 22.285156 31.246094 22.195312 C 31.40625 22.171875 31.617188 22.140625 31.714844 22.117188 C 32.132812 22.03125 32.550781 22.09375 32.660156 22.257812 C 32.753906 22.398438 32.808594 22.335938 32.785156 22.113281 C 32.765625 21.917969 32.765625 21.917969 34.320312 21.917969 C 35.8125 21.917969 35.875 21.914062 35.914062 21.839844 C 35.949219 21.773438 36.011719 21.761719 36.386719 21.742188 C 37.269531 21.699219 37.492188 21.671875 37.5625 21.613281 C 37.613281 21.566406 37.714844 21.554688 38.019531 21.5625 C 38.410156 21.574219 38.410156 21.574219 38.457031 21.398438 C 38.484375 21.300781 38.542969 21.121094 38.585938 21 C 38.652344 20.828125 38.671875 20.632812 38.695312 20.046875 C 38.726562 19.242188 38.753906 18.984375 38.863281 18.53125 C 38.949219 18.167969 38.949219 15.753906 38.863281 14.808594 C 38.8125 14.21875 37.71875 13.996094 36.910156 14.414062 C 36.777344 14.480469 33.539062 14.863281 31.035156 15.105469 C 28.503906 15.351562 25.308594 15.585938 23.59375 15.648438 C 23.136719 15.667969 22.859375 15.695312 22.789062 15.730469 C 22.699219 15.773438 22.652344 15.773438 22.46875 15.714844 C 22.324219 15.667969 22.117188 15.648438 21.835938 15.644531 C 21.425781 15.644531 21.414062 15.644531 21.417969 15.554688 C 21.421875 15.433594 21.425781 15.433594 20.253906 15.40625 C 10.875 15.191406 4.589844 14.871094 1.191406 14.429688 C 0.796875 14.378906 0.753906 14.382812 0.753906 14.445312 C 0.753906 14.554688 1.078125 14.863281 1.335938 14.992188 C 1.65625 15.15625 1.660156 15.230469 1.355469 15.285156 C 1.023438 15.347656 1.035156 15.308594 1.164062 16.027344 C 1.683594 18.917969 2.445312 19.574219 4.054688 18.507812 C 4.824219 18.003906 7.917969 17.589844 12.359375 17.398438 C 15.902344 17.246094 15.105469 17.46875 10.453125 17.933594 C 8.164062 18.164062 7.085938 18.3125 5.976562 18.550781 C 5.734375 18.601562 5.410156 18.652344 5.253906 18.664062 C 3.910156 18.761719 2.625 20.375 3.300781 21.121094 C 3.5 21.339844 3.789062 21.441406 4.339844 21.476562 C 4.585938 21.496094 4.800781 21.519531 4.824219 21.53125 C 4.84375 21.542969 5.101562 21.597656 5.398438 21.652344 C 6.027344 21.769531 6.15625 21.8125 6.183594 21.917969 C 6.203125 21.992188 6.238281 21.996094 6.59375 21.996094 C 6.949219 21.996094 6.988281 22.003906 7.042969 22.082031 C 7.089844 22.152344 7.148438 22.171875 7.40625 22.1875 C 7.636719 22.203125 7.726562 22.226562 7.78125 22.28125 C 7.824219 22.328125 7.902344 22.355469 8 22.355469 C 8.082031 22.355469 8.160156 22.375 8.175781 22.394531 C 8.1875 22.417969 8.292969 22.4375 8.40625 22.4375 C 8.5625 22.4375 8.632812 22.457031 8.707031 22.523438 C 8.796875 22.609375 8.835938 22.617188 9.59375 22.628906 C 10.316406 22.640625 10.394531 22.648438 10.457031 22.71875 C 10.53125 22.796875 10.914062 22.832031 10.914062 22.757812 C 10.914062 22.621094 11.605469 22.503906 12.496094 22.492188 C 13.132812 22.488281 13.371094 22.46875 13.675781 22.402344 C 14.175781 22.292969 14.191406 22.316406 13.917969 22.773438 C 13.851562 22.882812 13.777344 23.011719 13.757812 23.058594 C 13.738281 23.105469 13.671875 23.171875 13.609375 23.199219 C 13.550781 23.226562 13.429688 23.355469 13.34375 23.484375 C 13.222656 23.660156 13.132812 23.738281 12.980469 23.8125 C 12.308594 24.128906 11.761719 24.667969 12.113281 24.667969 C 12.203125 24.667969 12.320312 24.695312 12.375 24.726562 C 12.460938 24.785156 12.480469 24.785156 12.589844 24.726562 C 12.65625 24.695312 12.734375 24.667969 12.765625 24.667969 C 12.796875 24.667969 12.890625 24.554688 12.976562 24.417969 C 13.242188 23.984375 14.347656 22.964844 14.492188 23.015625 C 14.53125 23.03125 14.566406 23.011719 14.585938 22.953125 C 14.617188 22.875 14.648438 22.867188 15.054688 22.855469 C 15.574219 22.839844 15.917969 22.800781 15.976562 22.75 C 16.003906 22.730469 16.128906 22.757812 16.289062 22.820312 C 16.753906 22.996094 16.785156 23.195312 16.390625 23.40625 C 15.6875 23.777344 15.570312 24.578125 16.125 25.203125 C 16.601562 25.742188 17.402344 25.636719 16.949219 25.09375 C 16.082031 24.058594 16.6875 23.191406 18.515625 22.855469 C 19.679688 22.640625 21.386719 23.007812 21.070312 23.40625 C 20.800781 23.75 20.800781 24.234375 21.074219 25.34375 C 21.140625 25.617188 21.195312 25.878906 21.195312 25.929688 C 21.195312 26.097656 21.679688 26.046875 21.726562 25.878906 Z M 27.589844 24.453125 C 26.429688 24.039062 26.445312 22.765625 27.605469 22.796875 C 27.933594 22.808594 28.003906 22.796875 28.214844 22.703125 C 29.042969 22.335938 29.820312 22.9375 29.578125 23.757812 C 29.4375 24.242188 29.15625 24.425781 28.476562 24.46875 C 27.847656 24.511719 27.757812 24.511719 27.589844 24.453125 Z M 4.195312 11.410156 C 4.195312 11.367188 4.253906 11.257812 4.328125 11.160156 C 4.515625 10.917969 4.59375 10.75 4.59375 10.609375 C 4.59375 10.453125 4.542969 10.476562 5.5 10.269531 C 7.644531 9.816406 8.5625 9.699219 10.203125 9.671875 C 18.855469 9.527344 21.398438 9.449219 24.148438 9.238281 C 24.847656 9.183594 24.847656 9.183594 25.039062 9.484375 C 25.453125 10.136719 24.277344 10.566406 22.453125 10.425781 C 22.277344 10.414062 21.441406 10.394531 20.59375 10.390625 C 19.054688 10.378906 19.054688 10.378906 18.21875 10.210938 C 16.996094 9.964844 16.640625 9.980469 16.289062 10.289062 C 16.125 10.433594 16.175781 10.429688 15.78125 10.292969 C 14.78125 9.941406 13.546875 9.921875 11.554688 10.21875 C 10.882812 10.320312 10.101562 10.421875 9.816406 10.445312 C 8.328125 10.570312 6.933594 10.828125 5.148438 11.304688 C 4.40625 11.503906 4.195312 11.527344 4.195312 11.410156 Z M 4.195312 11.410156 "/>
<path style=" stroke:none;fill-rule:nonzero;fill:rgb(0%,55.686275%,81.176471%);fill-opacity:1;" d="M 20.414062 55.988281 C 15.152344 55.707031 12.644531 55.292969 10.035156 54.277344 C 8.898438 53.835938 8.894531 53.835938 8.78125 53.457031 C 8.078125 51.160156 7.34375 48.183594 6.730469 45.140625 C 6.375 43.367188 6.25 42.816406 5.539062 39.796875 C 3.730469 32.140625 3.277344 28.996094 3.878906 28.3125 C 4.027344 28.144531 4.046875 27.824219 3.914062 27.703125 C 3.859375 27.648438 3.828125 27.542969 3.800781 27.300781 C 3.777344 27.113281 3.738281 26.941406 3.703125 26.902344 C 3.625 26.816406 3.597656 26.566406 3.5625 25.710938 C 3.539062 25.171875 3.523438 25.011719 3.476562 24.984375 C 3.394531 24.9375 3.355469 24.972656 3.351562 25.097656 C 3.347656 25.464844 3.023438 24.496094 2.832031 23.550781 C 2.25 20.652344 1.222656 18.050781 1.65625 20.578125 C 1.730469 20.996094 1.941406 21.828125 2.25 22.921875 C 2.515625 23.859375 2.664062 24.574219 2.710938 25.144531 C 2.863281 26.957031 1.886719 23.3125 1.375 20.164062 C 0.675781 15.851562 0.476562 14.832031 0.0898438 13.554688 C -0.078125 13 0 12.710938 0.449219 12.246094 C 1.394531 11.261719 3.535156 10.714844 3.378906 11.496094 C 3.3125 11.820312 2.882812 12.023438 1.796875 12.246094 C 0.671875 12.476562 0.558594 12.667969 1.183594 13.285156 C 1.675781 13.769531 4.363281 14.273438 7.476562 14.46875 C 8.054688 14.503906 8.730469 14.527344 12.273438 14.628906 C 17.046875 14.769531 21.457031 14.804688 22.574219 14.714844 C 23.871094 14.609375 24.023438 14.605469 24.203125 14.707031 C 24.351562 14.789062 24.386719 14.796875 24.550781 14.757812 C 24.726562 14.714844 24.863281 14.722656 25.800781 14.8125 C 25.988281 14.832031 26.0625 14.816406 26.246094 14.730469 C 26.433594 14.640625 26.480469 14.632812 26.582031 14.671875 C 26.804688 14.761719 29.570312 14.734375 30.476562 14.632812 C 33.09375 14.339844 36.1875 13.628906 37.21875 13.085938 C 37.339844 13.019531 38.136719 12.828125 38.65625 12.738281 C 39.160156 12.648438 39.480469 12.574219 39.6875 12.492188 C 40.039062 12.359375 40.121094 14.207031 39.851562 16.199219 C 39.707031 17.289062 39.675781 17.5 39.597656 17.855469 C 39.554688 18.0625 39.492188 18.351562 39.460938 18.492188 C 39.015625 20.546875 38.636719 24.632812 38.273438 31.179688 C 38.015625 35.929688 37.886719 37.6875 37.636719 40.121094 C 37.59375 40.523438 37.546875 41.027344 37.535156 41.234375 C 37.417969 43.070312 37.152344 45.28125 36.695312 48.253906 C 36.550781 49.179688 36.523438 49.460938 36.539062 49.707031 C 36.734375 52.265625 35.550781 54.167969 33.574219 54.472656 C 33.375 54.503906 32.898438 54.621094 32.511719 54.734375 C 30.554688 55.296875 28.335938 55.636719 25.414062 55.8125 C 23.523438 55.925781 20.957031 56.015625 20.414062 55.988281 Z M 20.242188 55.421875 C 20.386719 55.277344 19.953125 55.207031 18.074219 55.074219 C 17.625 55.042969 17.03125 54.992188 16.753906 54.960938 C 15.253906 54.78125 14.0625 54.769531 14.503906 54.941406 C 15.300781 55.246094 20.019531 55.644531 20.242188 55.421875 Z M 10.632812 53.367188 C 10.632812 53.265625 9.921875 50.417969 9.738281 49.796875 C 9.40625 48.65625 8.8125 47.25 8.667969 47.25 C 8.53125 47.25 8.871094 49.1875 9.199219 50.277344 C 9.632812 51.710938 10.632812 53.875 10.632812 53.367188 Z M 9.398438 53.199219 C 9.539062 52.5625 9.335938 51.558594 8.652344 49.480469 C 8.277344 48.335938 7.992188 47.316406 7.933594 46.910156 C 7.894531 46.652344 7.855469 46.601562 7.734375 46.660156 C 7.375 46.820312 7.429688 47.390625 7.980469 49.199219 C 8.121094 49.667969 8.265625 50.230469 8.300781 50.453125 C 8.515625 51.867188 9.277344 53.765625 9.398438 53.199219 Z M 22.917969 47.292969 C 23.558594 46.890625 23.667969 45.972656 23.164062 45.257812 C 22.332031 44.078125 21.472656 45.242188 21.972656 46.875 C 22.125 47.371094 22.519531 47.546875 22.917969 47.292969 Z M 20.78125 47.175781 C 21.472656 46.820312 21.589844 45.464844 20.984375 44.828125 C 20.621094 44.449219 20.085938 45 19.988281 45.855469 C 19.96875 46.035156 19.9375 46.257812 19.914062 46.347656 C 19.726562 47.160156 20.105469 47.523438 20.78125 47.175781 Z M 7.570312 45.753906 C 7.664062 45.152344 7.46875 44.03125 6.953125 42.183594 C 6.753906 41.476562 6.527344 40.585938 6.453125 40.207031 C 6.269531 39.289062 5.953125 38.664062 5.953125 39.214844 C 5.953125 39.492188 6.398438 41.898438 6.613281 42.789062 C 6.667969 43.019531 6.761719 43.574219 6.816406 44.023438 C 6.964844 45.214844 7.058594 45.570312 7.300781 45.851562 C 7.480469 46.0625 7.527344 46.046875 7.570312 45.753906 Z M 19.570312 44.460938 C 20.28125 44.070312 20.882812 44.046875 22.453125 44.347656 C 24.539062 44.75 25.375 44.148438 24.332031 42.996094 C 23.90625 42.523438 23.460938 42.472656 21.914062 42.71875 C 20.882812 42.882812 19.992188 42.894531 19.613281 42.753906 C 19.15625 42.582031 18.867188 42.640625 18.511719 42.980469 C 17.90625 43.566406 18.3125 44.445312 19.265625 44.617188 C 19.273438 44.621094 19.410156 44.550781 19.570312 44.460938 Z M 16.84375 41.9375 C 17.285156 41.824219 17.394531 41.773438 18.085938 41.359375 C 20.382812 39.996094 20.386719 36.6875 18.09375 35.371094 C 17.941406 35.28125 17.714844 35.152344 17.59375 35.082031 C 16.496094 34.4375 15.441406 34.472656 13.316406 35.222656 C 12.929688 35.359375 12.5625 35.46875 12.503906 35.46875 C 12.417969 35.464844 12.382812 35.488281 12.355469 35.5625 C 12.332031 35.617188 12.300781 35.660156 12.28125 35.660156 C 12.191406 35.660156 11.996094 36.015625 11.996094 36.175781 C 11.996094 36.277344 11.933594 36.496094 11.835938 36.734375 C 10.683594 39.578125 13.714844 42.726562 16.84375 41.9375 Z M 12.832031 39.679688 C 11.769531 39.503906 11.566406 38.546875 12.40625 37.660156 C 13.054688 36.976562 13.78125 36.910156 14.355469 37.484375 C 15.527344 38.652344 14.605469 39.980469 12.832031 39.679688 Z M 28.195312 41.375 C 30.734375 40.871094 31.765625 38.089844 30.222656 35.898438 C 27.878906 32.574219 22.105469 34.507812 22.796875 38.390625 C 23.210938 40.710938 25.410156 41.925781 28.195312 41.375 Z M 24.089844 39.480469 C 22.980469 39.261719 22.777344 37.910156 23.714844 36.972656 C 24.539062 36.144531 25.710938 36.621094 26.09375 37.9375 C 26.214844 38.347656 26.140625 38.40625 25.527344 38.375 C 24.824219 38.34375 24.765625 38.40625 25.210938 38.738281 C 25.5625 39 25.667969 39.136719 25.59375 39.222656 C 25.410156 39.445312 24.601562 39.582031 24.089844 39.480469 Z M 24.132812 29.867188 C 24.421875 29.855469 24.71875 29.832031 24.792969 29.820312 C 24.871094 29.808594 24.988281 29.792969 25.054688 29.785156 C 25.121094 29.777344 25.253906 29.761719 25.355469 29.746094 C 25.453125 29.734375 25.597656 29.714844 25.675781 29.707031 C 25.75 29.695312 25.878906 29.679688 25.953125 29.667969 C 26.03125 29.65625 26.148438 29.636719 26.214844 29.628906 C 26.335938 29.609375 26.738281 29.539062 27.355469 29.429688 C 30.007812 28.957031 31.855469 28.105469 33.839844 26.445312 C 33.898438 26.398438 34.019531 26.296875 34.113281 26.21875 C 34.207031 26.144531 34.359375 26.007812 34.453125 25.921875 C 34.546875 25.832031 34.742188 25.652344 34.890625 25.523438 C 35.039062 25.390625 35.257812 25.195312 35.371094 25.085938 C 35.785156 24.691406 36.226562 24.292969 36.597656 23.980469 C 36.695312 23.898438 36.828125 23.789062 36.894531 23.730469 C 36.960938 23.675781 37.097656 23.5625 37.203125 23.480469 C 37.335938 23.375 37.398438 23.292969 37.417969 23.199219 C 37.441406 23.082031 37.457031 23.070312 37.566406 23.082031 C 37.664062 23.089844 37.703125 23.070312 37.738281 22.996094 C 37.765625 22.945312 37.816406 22.882812 37.851562 22.863281 C 37.894531 22.839844 37.914062 22.769531 37.914062 22.621094 C 37.914062 22.445312 37.929688 22.410156 38.003906 22.375 C 38.054688 22.355469 38.101562 22.296875 38.105469 22.25 C 38.113281 22.207031 38.160156 22.148438 38.214844 22.125 C 38.292969 22.089844 38.3125 22.039062 38.335938 21.851562 C 38.351562 21.722656 38.378906 21.601562 38.394531 21.578125 C 38.410156 21.558594 38.441406 21.46875 38.464844 21.378906 C 38.488281 21.292969 38.542969 21.121094 38.585938 21 C 38.652344 20.828125 38.671875 20.632812 38.695312 20.046875 C 38.726562 19.242188 38.753906 18.984375 38.863281 18.53125 C 38.949219 18.167969 38.949219 15.753906 38.863281 14.808594 C 38.8125 14.21875 37.71875 13.996094 36.910156 14.414062 C 36.777344 14.480469 33.535156 14.863281 31.035156 15.105469 C 29.105469 15.292969 26.632812 15.484375 24.875 15.585938 C 24.445312 15.609375 23.808594 15.648438 23.453125 15.667969 C 22.621094 15.71875 22.480469 15.71875 22.40625 15.65625 C 22.359375 15.621094 22.207031 15.605469 21.886719 15.609375 C 21.449219 15.617188 21.429688 15.613281 21.449219 15.539062 C 21.480469 15.414062 21.371094 15.398438 20.234375 15.371094 C 10.300781 15.128906 4.894531 14.851562 1.136719 14.390625 C 0.714844 14.339844 0.714844 14.339844 0.714844 14.425781 C 0.714844 14.546875 1.050781 14.882812 1.3125 15.023438 C 1.605469 15.179688 1.613281 15.214844 1.363281 15.246094 C 0.96875 15.300781 0.980469 15.25 1.15625 16.1875 C 1.671875 18.949219 2.539062 19.640625 4.089844 18.53125 C 4.558594 18.195312 7.199219 17.742188 9.632812 17.578125 C 10.699219 17.507812 10.898438 17.496094 12.316406 17.4375 C 13.949219 17.367188 14.34375 17.363281 14.292969 17.414062 C 14.238281 17.46875 12.792969 17.671875 11.574219 17.796875 C 8.003906 18.164062 7.527344 18.222656 6.234375 18.46875 C 5.851562 18.542969 5.371094 18.625 5.175781 18.648438 C 3.03125 18.914062 2.292969 21.363281 4.316406 21.507812 C 5.035156 21.558594 6.15625 21.820312 6.15625 21.9375 C 6.15625 21.988281 6.230469 21.996094 6.570312 21.996094 C 6.949219 21.996094 6.988281 22.003906 7.042969 22.082031 C 7.089844 22.152344 7.148438 22.171875 7.40625 22.1875 C 7.636719 22.203125 7.726562 22.226562 7.78125 22.28125 C 7.824219 22.328125 7.902344 22.355469 8 22.355469 C 8.082031 22.355469 8.160156 22.375 8.175781 22.394531 C 8.1875 22.417969 8.292969 22.4375 8.40625 22.4375 C 8.5625 22.4375 8.632812 22.457031 8.707031 22.523438 C 8.796875 22.609375 8.835938 22.617188 9.585938 22.628906 C 10.289062 22.640625 10.382812 22.648438 10.453125 22.714844 C 10.566406 22.816406 10.910156 22.839844 11 22.75 C 11.140625 22.605469 11.765625 22.507812 12.460938 22.511719 C 13.035156 22.519531 13.6875 22.457031 13.964844 22.371094 C 14.152344 22.316406 13.746094 23.113281 13.542969 23.195312 C 13.484375 23.222656 13.433594 23.261719 13.433594 23.285156 C 13.429688 23.425781 13.183594 23.71875 12.984375 23.808594 C 11.273438 24.613281 11.246094 26.363281 12.921875 27.445312 C 14.007812 28.148438 14.210938 28.273438 14.675781 28.507812 C 15.769531 29.058594 17.214844 29.507812 18.394531 29.664062 C 18.492188 29.675781 18.621094 29.695312 18.675781 29.703125 C 18.792969 29.726562 19.09375 29.761719 19.375 29.789062 C 19.484375 29.796875 19.664062 29.816406 19.773438 29.828125 C 19.882812 29.835938 20.140625 29.851562 20.34375 29.859375 C 20.546875 29.863281 20.722656 29.875 20.730469 29.886719 C 20.753906 29.910156 23.46875 29.894531 24.132812 29.867188 Z M 4.234375 11.390625 C 4.234375 11.359375 4.296875 11.257812 4.367188 11.160156 C 4.554688 10.917969 4.632812 10.75 4.632812 10.613281 C 4.632812 10.523438 4.65625 10.488281 4.726562 10.472656 C 6.636719 10.007812 8.554688 9.734375 10.09375 9.707031 C 19.484375 9.546875 21.46875 9.484375 24.113281 9.273438 C 24.816406 9.21875 24.832031 9.222656 24.996094 9.480469 C 25.425781 10.15625 24.777344 10.386719 22.515625 10.375 C 18.902344 10.347656 19.148438 10.359375 18.222656 10.175781 C 17.003906 9.929688 16.621094 9.949219 16.25 10.261719 C 16.121094 10.367188 16.121094 10.367188 15.707031 10.230469 C 14.671875 9.882812 13.644531 9.878906 11.414062 10.203125 C 10.644531 10.3125 9.769531 10.421875 9.472656 10.445312 C 8.433594 10.519531 7.304688 10.726562 5.558594 11.167969 C 4.429688 11.449219 4.234375 11.484375 4.234375 11.390625 Z M 4.234375 11.390625 "/>
<path style=" stroke:none;fill-rule:nonzero;fill:rgb(10.588235%,43.529412%,58.431373%);fill-opacity:1;" d="M 20.414062 55.988281 C 15.152344 55.707031 12.644531 55.292969 10.035156 54.277344 C 8.898438 53.835938 8.894531 53.835938 8.78125 53.457031 C 8.078125 51.160156 7.34375 48.183594 6.730469 45.140625 C 6.375 43.367188 6.25 42.816406 5.539062 39.796875 C 3.734375 32.160156 3.273438 28.984375 3.875 28.316406 C 4.074219 28.097656 4.234375 28.355469 4.410156 29.1875 C 5.414062 33.925781 7.054688 40.125 8.28125 43.824219 C 8.742188 45.207031 8.664062 45.074219 9 45.046875 C 9.347656 45.015625 9.351562 45.03125 9.179688 45.433594 C 8.855469 46.179688 9.015625 46.558594 10.023438 47.445312 C 10.453125 47.824219 10.414062 47.933594 9.878906 47.855469 C 9.507812 47.804688 9.53125 47.753906 9.671875 48.289062 C 9.734375 48.539062 9.824219 48.921875 9.871094 49.140625 C 10.574219 52.511719 11.28125 53.707031 12.746094 54.007812 C 17.269531 54.933594 22.433594 55.089844 29.257812 54.515625 C 31.941406 54.292969 34.03125 53.460938 34.699219 52.355469 C 34.871094 52.070312 34.875 52.085938 34.589844 52.054688 C 34.128906 52.007812 34.144531 51.894531 34.628906 51.695312 C 35.355469 51.394531 35.578125 51.160156 35.566406 50.71875 C 35.5625 50.527344 35.589844 50.371094 35.675781 50.117188 C 35.960938 49.265625 36.019531 48.601562 35.953125 46.949219 C 35.894531 45.554688 35.914062 45 36.027344 44.480469 C 36.203125 43.679688 36.300781 42.878906 36.457031 40.855469 C 36.5625 39.484375 36.640625 38.714844 36.734375 38.109375 C 36.824219 37.539062 36.867188 36.929688 36.933594 35.460938 C 37.007812 33.792969 37.054688 33.15625 37.15625 32.371094 C 37.285156 31.398438 37.308594 31.328125 37.546875 31.089844 C 37.882812 30.753906 37.875 30.519531 37.496094 29.972656 C 36.925781 29.136719 36.921875 28.699219 37.496094 28.175781 C 37.714844 27.972656 37.722656 27.679688 37.554688 25.761719 C 37.375 23.730469 37.378906 23.0625 37.566406 23.082031 C 37.664062 23.089844 37.703125 23.070312 37.738281 22.996094 C 37.765625 22.945312 37.816406 22.882812 37.851562 22.863281 C 37.894531 22.839844 37.914062 22.769531 37.914062 22.621094 C 37.914062 22.445312 37.929688 22.410156 38.003906 22.375 C 38.054688 22.355469 38.101562 22.296875 38.105469 22.25 C 38.113281 22.207031 38.160156 22.148438 38.214844 22.125 C 38.292969 22.089844 38.3125 22.039062 38.335938 21.851562 C 38.351562 21.722656 38.378906 21.601562 38.394531 21.578125 C 38.410156 21.558594 38.441406 21.46875 38.464844 21.378906 C 38.488281 21.292969 38.542969 21.121094 38.585938 21 C 38.652344 20.828125 38.671875 20.632812 38.695312 20.046875 C 38.726562 19.242188 38.753906 18.984375 38.863281 18.53125 C 38.949219 18.167969 38.949219 15.753906 38.863281 14.808594 C 38.8125 14.21875 37.71875 13.996094 36.910156 14.414062 C 36.777344 14.480469 33.535156 14.863281 31.035156 15.105469 C 29.105469 15.292969 26.632812 15.484375 24.875 15.585938 C 24.445312 15.609375 23.808594 15.648438 23.453125 15.667969 C 22.621094 15.71875 22.480469 15.71875 22.40625 15.65625 C 22.359375 15.621094 22.207031 15.605469 21.886719 15.609375 C 21.449219 15.617188 21.429688 15.613281 21.449219 15.539062 C 21.480469 15.414062 21.371094 15.398438 20.234375 15.371094 C 10.300781 15.128906 4.894531 14.851562 1.136719 14.390625 C 0.714844 14.339844 0.714844 14.339844 0.714844 14.425781 C 0.714844 14.546875 1.050781 14.882812 1.3125 15.023438 C 1.605469 15.179688 1.613281 15.214844 1.363281 15.246094 C 0.96875 15.300781 0.980469 15.25 1.15625 16.1875 C 1.671875 18.949219 2.539062 19.640625 4.089844 18.53125 C 4.558594 18.195312 7.199219 17.742188 9.632812 17.578125 C 10.699219 17.507812 10.898438 17.496094 12.316406 17.4375 C 13.949219 17.367188 14.34375 17.363281 14.292969 17.414062 C 14.238281 17.46875 12.792969 17.671875 11.574219 17.796875 C 8.003906 18.164062 7.527344 18.222656 6.234375 18.46875 C 5.851562 18.542969 5.371094 18.625 5.175781 18.648438 C 3.03125 18.914062 2.292969 21.363281 4.316406 21.507812 C 4.664062 21.53125 5.957031 21.773438 6.074219 21.835938 C 6.210938 21.910156 6.175781 22.03125 5.988281 22.109375 C 5.824219 22.179688 5.824219 22.179688 5.992188 22.289062 C 6.128906 22.378906 6.152344 22.410156 6.113281 22.457031 C 6.039062 22.546875 6.003906 22.539062 4.808594 22.195312 C 3.308594 21.765625 2.984375 21.734375 3.394531 22.058594 C 3.707031 22.304688 3.667969 22.40625 3.296875 22.296875 C 2.964844 22.195312 2.984375 22.09375 3.136719 23.113281 C 3.175781 23.363281 3.203125 23.636719 3.203125 23.71875 C 3.199219 23.800781 3.226562 23.992188 3.257812 24.136719 C 3.410156 24.828125 3.421875 25.304688 3.289062 25.121094 C 3.191406 24.992188 2.964844 24.203125 2.832031 23.550781 C 2.25 20.652344 1.222656 18.050781 1.65625 20.578125 C 1.730469 20.996094 1.941406 21.828125 2.25 22.921875 C 2.515625 23.859375 2.664062 24.574219 2.710938 25.144531 C 2.863281 26.957031 1.886719 23.3125 1.375 20.164062 C 0.675781 15.851562 0.476562 14.832031 0.0898438 13.554688 C -0.078125 13 0 12.710938 0.449219 12.246094 C 1.394531 11.261719 3.535156 10.714844 3.378906 11.496094 C 3.3125 11.820312 2.882812 12.023438 1.796875 12.246094 C 0.671875 12.476562 0.558594 12.667969 1.183594 13.285156 C 1.675781 13.769531 4.363281 14.273438 7.476562 14.46875 C 8.054688 14.503906 8.730469 14.527344 12.273438 14.628906 C 17.046875 14.769531 21.457031 14.804688 22.574219 14.714844 C 23.871094 14.609375 24.023438 14.605469 24.203125 14.707031 C 24.351562 14.789062 24.386719 14.796875 24.550781 14.757812 C 24.726562 14.714844 24.863281 14.722656 25.800781 14.8125 C 25.988281 14.832031 26.0625 14.816406 26.246094 14.730469 C 26.433594 14.640625 26.480469 14.632812 26.582031 14.671875 C 26.804688 14.761719 29.570312 14.734375 30.476562 14.632812 C 33.09375 14.339844 36.1875 13.628906 37.21875 13.085938 C 37.339844 13.019531 38.136719 12.828125 38.65625 12.738281 C 39.160156 12.648438 39.480469 12.574219 39.6875 12.492188 C 40.039062 12.359375 40.121094 14.207031 39.851562 16.199219 C 39.707031 17.289062 39.675781 17.5 39.597656 17.855469 C 39.554688 18.0625 39.492188 18.351562 39.460938 18.492188 C 39.015625 20.546875 38.636719 24.632812 38.273438 31.179688 C 38.015625 35.929688 37.886719 37.6875 37.636719 40.121094 C 37.59375 40.523438 37.546875 41.027344 37.535156 41.234375 C 37.417969 43.070312 37.152344 45.28125 36.695312 48.253906 C 36.550781 49.179688 36.523438 49.460938 36.539062 49.707031 C 36.734375 52.265625 35.550781 54.167969 33.574219 54.472656 C 33.375 54.503906 32.898438 54.621094 32.511719 54.734375 C 30.554688 55.296875 28.335938 55.636719 25.414062 55.8125 C 23.523438 55.925781 20.957031 56.015625 20.414062 55.988281 Z M 20.242188 55.421875 C 20.386719 55.277344 19.953125 55.207031 18.074219 55.074219 C 17.625 55.042969 17.03125 54.992188 16.753906 54.960938 C 15.253906 54.78125 14.0625 54.769531 14.503906 54.941406 C 15.300781 55.246094 20.019531 55.644531 20.242188 55.421875 Z M 10.632812 53.367188 C 10.632812 53.265625 9.921875 50.417969 9.738281 49.796875 C 9.40625 48.65625 8.8125 47.25 8.667969 47.25 C 8.53125 47.25 8.871094 49.1875 9.199219 50.277344 C 9.632812 51.710938 10.632812 53.875 10.632812 53.367188 Z M 9.398438 53.199219 C 9.539062 52.5625 9.335938 51.558594 8.652344 49.480469 C 8.277344 48.335938 7.992188 47.316406 7.933594 46.910156 C 7.894531 46.652344 7.855469 46.601562 7.734375 46.660156 C 7.375 46.820312 7.429688 47.390625 7.980469 49.199219 C 8.121094 49.667969 8.265625 50.230469 8.300781 50.453125 C 8.515625 51.867188 9.277344 53.765625 9.398438 53.199219 Z M 7.570312 45.753906 C 7.664062 45.152344 7.46875 44.03125 6.953125 42.183594 C 6.753906 41.476562 6.527344 40.585938 6.453125 40.207031 C 6.269531 39.289062 5.953125 38.664062 5.953125 39.214844 C 5.953125 39.492188 6.398438 41.898438 6.613281 42.789062 C 6.667969 43.019531 6.761719 43.574219 6.816406 44.023438 C 6.964844 45.214844 7.058594 45.570312 7.300781 45.851562 C 7.480469 46.0625 7.527344 46.046875 7.570312 45.753906 Z M 16.355469 49.695312 C 16.300781 49.683594 16.09375 49.660156 15.894531 49.636719 C 15.695312 49.613281 14.949219 49.476562 14.234375 49.335938 C 12.75 49.042969 11.984375 48.921875 11.554688 48.921875 C 11.074219 48.921875 10.917969 48.710938 11.191406 48.441406 C 11.390625 48.242188 11.777344 48.285156 12.976562 48.644531 C 13.796875 48.890625 14.40625 49.039062 14.773438 49.082031 C 14.929688 49.097656 15.234375 49.152344 15.453125 49.199219 C 15.78125 49.269531 18.121094 49.558594 18.359375 49.558594 C 18.394531 49.558594 18.433594 49.59375 18.445312 49.640625 C 18.464844 49.714844 16.800781 49.757812 16.355469 49.695312 Z M 20.132812 47.910156 C 19.601562 47.660156 19.40625 47.285156 19.292969 46.285156 C 19.144531 44.933594 18.929688 44.632812 17.988281 44.445312 C 17.765625 44.398438 17.734375 43.675781 17.933594 43.238281 C 18.144531 42.777344 18.628906 42.246094 19.410156 41.613281 C 19.628906 41.4375 19.921875 41.183594 20.0625 41.046875 C 20.375 40.746094 20.417969 40.734375 21.214844 40.742188 C 23.003906 40.753906 24.832031 42.164062 25.390625 43.957031 C 25.535156 44.429688 25.519531 44.457031 24.734375 44.960938 C 23.757812 45.589844 23.550781 45.910156 23.671875 46.605469 C 23.859375 47.679688 23.375 48.011719 22.089844 47.683594 C 21.234375 47.464844 20.84375 47.511719 20.566406 47.875 C 20.445312 48.03125 20.398438 48.035156 20.132812 47.910156 Z M 22.917969 47.292969 C 23.558594 46.890625 23.667969 45.972656 23.164062 45.257812 C 22.332031 44.078125 21.472656 45.242188 21.972656 46.875 C 22.125 47.371094 22.519531 47.546875 22.917969 47.292969 Z M 20.78125 47.175781 C 21.472656 46.820312 21.589844 45.464844 20.984375 44.828125 C 20.621094 44.449219 20.085938 45 19.988281 45.855469 C 19.96875 46.035156 19.9375 46.257812 19.914062 46.347656 C 19.726562 47.160156 20.105469 47.523438 20.78125 47.175781 Z M 19.570312 44.460938 C 20.28125 44.070312 20.882812 44.046875 22.453125 44.347656 C 24.539062 44.75 25.375 44.148438 24.332031 42.996094 C 23.90625 42.523438 23.460938 42.472656 21.914062 42.71875 C 20.882812 42.882812 19.992188 42.894531 19.613281 42.753906 C 19.15625 42.582031 18.867188 42.640625 18.511719 42.980469 C 17.90625 43.566406 18.3125 44.445312 19.265625 44.617188 C 19.273438 44.621094 19.410156 44.550781 19.570312 44.460938 Z M 14.910156 42.507812 C 12.105469 42.035156 10.1875 38.929688 11.308594 36.675781 C 11.777344 35.738281 12.21875 35.789062 11.835938 36.734375 C 10.597656 39.796875 14.40625 43.230469 17.398438 41.753906 C 20.324219 40.308594 20.699219 36.867188 18.09375 35.371094 C 17.941406 35.28125 17.714844 35.152344 17.59375 35.082031 C 16.5 34.4375 15.449219 34.472656 13.335938 35.214844 C 12.664062 35.449219 12.582031 35.472656 12.484375 35.464844 C 12.398438 35.457031 12.429688 35.402344 12.683594 35.140625 C 15.035156 32.71875 20.117188 34.453125 20.433594 37.78125 C 20.707031 40.699219 17.988281 43.027344 14.910156 42.507812 Z M 26.554688 42.203125 C 23.023438 41.847656 20.890625 38.476562 22.546875 35.863281 C 24.753906 32.382812 29.832031 32.84375 31.292969 36.652344 C 32.378906 39.484375 29.777344 42.527344 26.554688 42.203125 Z M 28.195312 41.375 C 30.734375 40.871094 31.765625 38.089844 30.222656 35.898438 C 27.878906 32.574219 22.105469 34.507812 22.796875 38.390625 C 23.210938 40.710938 25.410156 41.925781 28.195312 41.375 Z M 24.089844 39.480469 C 22.980469 39.261719 22.777344 37.910156 23.714844 36.972656 C 24.539062 36.144531 25.710938 36.621094 26.09375 37.9375 C 26.214844 38.347656 26.140625 38.40625 25.527344 38.375 C 24.824219 38.34375 24.765625 38.40625 25.210938 38.738281 C 25.5625 39 25.667969 39.136719 25.59375 39.222656 C 25.410156 39.445312 24.601562 39.582031 24.089844 39.480469 Z M 12.832031 39.679688 C 11.769531 39.503906 11.566406 38.546875 12.40625 37.660156 C 13.054688 36.976562 13.78125 36.910156 14.355469 37.484375 C 15.527344 38.652344 14.605469 39.980469 12.832031 39.679688 Z M 4.234375 11.390625 C 4.234375 11.359375 4.296875 11.257812 4.367188 11.160156 C 4.554688 10.917969 4.632812 10.75 4.632812 10.613281 C 4.632812 10.523438 4.65625 10.488281 4.726562 10.472656 C 6.636719 10.007812 8.554688 9.734375 10.09375 9.707031 C 19.484375 9.546875 21.46875 9.484375 24.113281 9.273438 C 24.816406 9.21875 24.832031 9.222656 24.996094 9.480469 C 25.425781 10.15625 24.777344 10.386719 22.515625 10.375 C 18.902344 10.347656 19.148438 10.359375 18.222656 10.175781 C 17.003906 9.929688 16.621094 9.949219 16.25 10.261719 C 16.121094 10.367188 16.121094 10.367188 15.707031 10.230469 C 14.671875 9.882812 13.644531 9.878906 11.414062 10.203125 C 10.644531 10.3125 9.769531 10.421875 9.472656 10.445312 C 8.433594 10.519531 7.304688 10.726562 5.558594 11.167969 C 4.429688 11.449219 4.234375 11.484375 4.234375 11.390625 Z M 4.234375 11.390625 "/>
<path style=" stroke:none;fill-rule:nonzero;fill:rgb(4.705882%,5.490196%,5.490196%);fill-opacity:1;" d="M 20.355469 55.972656 C 15.125 55.683594 12.523438 55.246094 9.945312 54.21875 C 8.894531 53.800781 8.914062 53.8125 8.800781 53.460938 C 8.179688 51.472656 7.375 48.210938 6.734375 45.046875 C 6.359375 43.203125 6.21875 42.589844 5.507812 39.582031 C 3.746094 32.128906 3.21875 28.308594 3.949219 28.308594 C 4.125 28.308594 4.175781 28.457031 4.496094 29.882812 C 5.785156 35.628906 7.199219 40.910156 8.351562 44.273438 C 8.679688 45.226562 8.628906 45.152344 8.933594 45.128906 C 9.257812 45.101562 9.257812 45.097656 9.089844 45.46875 C 8.796875 46.132812 8.980469 46.582031 9.859375 47.375 C 10.351562 47.820312 10.351562 47.871094 9.84375 47.796875 C 9.445312 47.742188 9.449219 47.734375 9.550781 48.09375 C 9.59375 48.253906 9.722656 48.796875 9.835938 49.300781 C 10.578125 52.664062 11.253906 53.769531 12.746094 54.078125 C 17.191406 54.988281 22.773438 55.140625 29.675781 54.539062 C 32.070312 54.332031 34.269531 53.371094 34.8125 52.292969 C 34.933594 52.054688 34.929688 52.042969 34.664062 52.011719 C 34.25 51.960938 34.257812 51.929688 34.714844 51.734375 C 35.398438 51.4375 35.613281 51.214844 35.621094 50.78125 C 35.625 50.582031 35.664062 50.375 35.746094 50.113281 C 36.015625 49.277344 36.078125 48.472656 36.003906 46.871094 C 35.945312 45.652344 35.960938 45.160156 36.070312 44.621094 C 36.261719 43.699219 36.355469 42.875 36.535156 40.558594 C 36.59375 39.847656 36.691406 38.871094 36.753906 38.386719 C 36.878906 37.464844 36.9375 36.785156 36.972656 35.898438 C 37.078125 33.394531 37.15625 32.5 37.339844 31.617188 C 37.390625 31.378906 37.421875 31.316406 37.59375 31.136719 C 37.964844 30.742188 37.953125 30.539062 37.515625 29.875 C 36.992188 29.085938 36.992188 28.804688 37.515625 28.238281 C 37.757812 27.976562 37.769531 27.507812 37.597656 25.542969 C 37.464844 24.089844 37.464844 23.144531 37.59375 23.113281 C 37.648438 23.101562 37.714844 23.046875 37.742188 22.996094 C 37.765625 22.941406 37.816406 22.882812 37.851562 22.863281 C 37.894531 22.839844 37.914062 22.769531 37.914062 22.636719 C 37.914062 22.457031 37.921875 22.441406 38.035156 22.402344 C 38.101562 22.378906 38.15625 22.332031 38.15625 22.296875 C 38.15625 22.261719 38.199219 22.214844 38.25 22.191406 C 38.363281 22.140625 38.457031 21.894531 38.421875 21.726562 C 38.398438 21.605469 38.449219 21.378906 38.585938 21 C 38.652344 20.828125 38.671875 20.632812 38.695312 20.046875 C 38.726562 19.242188 38.753906 18.984375 38.863281 18.53125 C 38.949219 18.167969 38.949219 15.753906 38.863281 14.808594 C 38.8125 14.21875 37.71875 13.996094 36.910156 14.414062 C 36.777344 14.480469 33.539062 14.863281 31.035156 15.105469 C 28.507812 15.351562 25.324219 15.582031 23.59375 15.648438 C 23.210938 15.664062 22.859375 15.6875 22.820312 15.703125 C 22.777344 15.71875 22.652344 15.703125 22.539062 15.671875 C 22.164062 15.570312 22.015625 15.550781 21.746094 15.574219 C 21.488281 15.59375 21.476562 15.59375 21.476562 15.511719 C 21.476562 15.378906 21.859375 15.398438 15.195312 15.207031 C 9.109375 15.03125 5.429688 14.828125 2.253906 14.488281 C 0.570312 14.308594 0.589844 14.304688 0.753906 14.566406 C 0.867188 14.75 1.074219 14.925781 1.316406 15.046875 C 1.558594 15.171875 1.546875 15.207031 1.253906 15.246094 C 0.964844 15.28125 0.96875 15.261719 1.113281 16.070312 C 1.640625 18.980469 2.433594 19.648438 4.078125 18.5625 C 4.625 18.203125 7.0625 17.78125 9.65625 17.597656 C 11.277344 17.484375 13.964844 17.382812 13.910156 17.4375 C 13.855469 17.492188 12.335938 17.675781 10.113281 17.894531 C 8.171875 18.085938 6.929688 18.261719 6.054688 18.460938 C 5.855469 18.503906 5.539062 18.554688 5.347656 18.574219 C 3.015625 18.78125 2.128906 21.386719 4.332031 21.558594 C 4.574219 21.574219 4.800781 21.601562 4.835938 21.613281 C 4.867188 21.628906 5.132812 21.683594 5.421875 21.734375 C 6.167969 21.871094 6.242188 21.929688 5.890625 22.078125 C 5.675781 22.171875 5.675781 22.171875 5.882812 22.304688 C 6.152344 22.476562 5.976562 22.464844 5.253906 22.253906 C 3.234375 21.664062 2.804688 21.621094 3.300781 22.054688 C 3.535156 22.261719 3.519531 22.292969 3.238281 22.210938 C 3.09375 22.167969 3.015625 22.160156 2.984375 22.191406 C 2.941406 22.234375 3.042969 23.023438 3.335938 24.886719 C 3.433594 25.519531 3.058594 24.578125 2.914062 23.828125 C 2.457031 21.480469 1.734375 19.246094 1.535156 19.566406 C 1.445312 19.714844 1.710938 21.074219 2.117188 22.519531 C 2.527344 23.988281 2.714844 24.894531 2.714844 25.441406 C 2.714844 26.347656 1.824219 22.789062 1.398438 20.183594 C 1.308594 19.636719 1.136719 18.589844 1.015625 17.855469 C 0.761719 16.28125 0.574219 15.34375 0.332031 14.390625 C 0.0976562 13.464844 0.109375 13.5 0.0585938 13.441406 C -0.0976562 13.238281 0.0703125 12.683594 0.410156 12.296875 C 1.238281 11.355469 3.355469 10.761719 3.355469 11.46875 C 3.355469 11.78125 2.90625 11.996094 1.734375 12.242188 C 0.636719 12.472656 0.539062 12.664062 1.1875 13.324219 C 1.398438 13.539062 1.484375 13.570312 2.476562 13.808594 C 4.46875 14.285156 6.511719 14.496094 10.15625 14.589844 C 11.023438 14.609375 12.328125 14.648438 13.054688 14.671875 C 16.804688 14.785156 21.027344 14.820312 22.234375 14.746094 C 23.773438 14.652344 24.0625 14.652344 24.234375 14.726562 C 24.371094 14.789062 24.414062 14.792969 24.570312 14.75 C 24.667969 14.722656 24.769531 14.714844 24.796875 14.730469 C 24.824219 14.746094 25.011719 14.777344 25.210938 14.792969 C 25.410156 14.8125 25.660156 14.835938 25.761719 14.851562 C 25.957031 14.875 26.265625 14.792969 26.398438 14.679688 C 26.449219 14.636719 26.488281 14.636719 26.578125 14.671875 C 26.804688 14.761719 29.566406 14.734375 30.476562 14.632812 C 33.09375 14.339844 36.1875 13.628906 37.21875 13.085938 C 37.339844 13.019531 38.132812 12.828125 38.65625 12.738281 C 39.25 12.632812 39.414062 12.59375 39.628906 12.511719 C 39.785156 12.449219 39.851562 12.4375 39.882812 12.472656 C 39.996094 12.582031 40.015625 14.84375 39.914062 15.566406 C 39.890625 15.71875 39.835938 16.140625 39.792969 16.5 C 39.75 16.863281 39.632812 17.550781 39.535156 18.035156 C 39.386719 18.761719 39.164062 20.066406 39.089844 20.644531 C 38.765625 23.203125 38.539062 26.003906 38.296875 30.421875 C 38 35.835938 37.890625 37.367188 37.617188 40.101562 C 37.5625 40.625 37.507812 41.242188 37.496094 41.472656 C 37.394531 43.085938 37.121094 45.351562 36.671875 48.253906 C 36.539062 49.117188 36.515625 49.375 36.515625 49.894531 C 36.515625 52.65625 35.515625 54.175781 33.511719 54.457031 C 33.347656 54.480469 33.046875 54.554688 32.839844 54.621094 C 30.691406 55.304688 27.554688 55.738281 23.753906 55.871094 C 23.390625 55.882812 22.886719 55.910156 22.632812 55.933594 C 21.96875 55.984375 20.929688 56.003906 20.355469 55.972656 Z M 20.222656 55.453125 C 20.625 55.296875 19.980469 55.179688 18.074219 55.054688 C 17.730469 55.035156 17.140625 54.980469 16.765625 54.9375 C 15.109375 54.75 14.078125 54.746094 14.421875 54.929688 C 14.992188 55.234375 19.679688 55.65625 20.222656 55.453125 Z M 10.675781 53.421875 C 10.675781 52.726562 9.324219 48.308594 8.847656 47.457031 C 8.324219 46.515625 8.824219 49.441406 9.488281 51.210938 C 10.003906 52.582031 10.675781 53.832031 10.675781 53.421875 Z M 9.441406 53.007812 C 9.457031 52.0625 9.347656 51.546875 8.691406 49.539062 C 8.234375 48.132812 8.113281 47.710938 7.992188 47.09375 C 7.890625 46.554688 7.835938 46.496094 7.640625 46.707031 C 7.375 46.984375 7.429688 47.425781 7.914062 49.046875 C 8.199219 50.003906 8.285156 50.359375 8.332031 50.773438 C 8.414062 51.46875 8.96875 52.988281 9.265625 53.316406 C 9.367188 53.425781 9.433594 53.304688 9.441406 53.007812 Z M 7.570312 45.953125 C 7.738281 45.519531 7.519531 44.125 6.988281 42.234375 C 6.636719 40.980469 6.511719 40.476562 6.417969 39.941406 C 6.316406 39.359375 6.019531 38.824219 5.9375 39.078125 C 5.890625 39.21875 6.417969 42.15625 6.613281 42.867188 C 6.644531 42.988281 6.71875 43.453125 6.777344 43.902344 C 6.976562 45.472656 7.367188 46.480469 7.570312 45.953125 Z M 16.515625 49.652344 C 16.109375 49.621094 15.152344 49.460938 14.175781 49.261719 C 12.933594 49.007812 12.476562 48.933594 11.734375 48.871094 C 11.175781 48.824219 11.175781 48.824219 11.164062 48.703125 C 11.121094 48.296875 11.546875 48.296875 12.914062 48.699219 C 13.953125 49.003906 14.253906 49.078125 14.574219 49.105469 C 14.730469 49.121094 14.988281 49.164062 15.15625 49.207031 C 15.476562 49.289062 16.246094 49.394531 17.214844 49.496094 C 18.050781 49.585938 18.15625 49.601562 18.054688 49.640625 C 17.976562 49.671875 16.882812 49.679688 16.515625 49.652344 Z M 20.132812 47.839844 C 19.628906 47.578125 19.457031 47.21875 19.335938 46.152344 C 19.242188 45.335938 19.164062 45.078125 18.929688 44.820312 C 18.753906 44.625 18.464844 44.46875 18.214844 44.433594 C 17.320312 44.3125 17.894531 42.964844 19.355469 41.75 C 19.628906 41.523438 19.972656 41.226562 20.121094 41.089844 C 20.429688 40.800781 20.523438 40.773438 21.214844 40.78125 C 22.933594 40.804688 24.734375 42.195312 25.3125 43.945312 C 25.46875 44.417969 25.476562 44.40625 24.625 44.953125 C 23.671875 45.570312 23.460938 45.953125 23.636719 46.769531 C 23.816406 47.589844 23.203125 47.941406 22.15625 47.625 C 21.410156 47.402344 20.796875 47.472656 20.546875 47.8125 C 20.445312 47.945312 20.355469 47.953125 20.132812 47.839844 Z M 22.78125 47.386719 C 23.898438 46.921875 23.527344 44.542969 22.375 44.757812 C 21.703125 44.882812 21.589844 46.898438 22.230469 47.316406 C 22.4375 47.449219 22.585938 47.46875 22.78125 47.386719 Z M 20.753906 47.203125 C 21.5 46.882812 21.632812 45.363281 20.96875 44.777344 C 20.644531 44.496094 20.121094 44.949219 20.015625 45.59375 C 20.003906 45.660156 19.960938 45.933594 19.914062 46.199219 C 19.738281 47.257812 19.972656 47.535156 20.753906 47.203125 Z M 19.605469 44.464844 C 20.289062 44.09375 20.890625 44.066406 22.34375 44.347656 C 23.792969 44.628906 24.792969 44.507812 24.761719 44.058594 C 24.730469 43.597656 24.527344 43.117188 24.277344 42.898438 C 23.800781 42.480469 23.398438 42.460938 21.394531 42.769531 C 20.589844 42.894531 19.769531 42.84375 19.382812 42.644531 C 19.144531 42.519531 18.558594 42.804688 18.34375 43.152344 C 17.855469 43.941406 18.785156 44.910156 19.605469 44.464844 Z M 15.058594 42.46875 C 12.058594 42 10.035156 38.558594 11.511719 36.441406 C 11.949219 35.8125 12.117188 35.960938 11.824219 36.714844 C 10.570312 39.910156 14.410156 43.285156 17.515625 41.714844 C 20.464844 40.21875 20.675781 36.75 17.910156 35.238281 C 17.726562 35.136719 17.484375 35.003906 17.375 34.9375 C 16.453125 34.410156 15.285156 34.5 13.140625 35.261719 C 12.414062 35.523438 12.394531 35.511719 12.824219 35.09375 C 14.382812 33.570312 17.488281 33.789062 19.238281 35.546875 C 22.085938 38.402344 19.234375 43.121094 15.058594 42.46875 Z M 26.675781 42.144531 C 23.324219 41.863281 21.109375 38.796875 22.40625 36.238281 C 24.421875 32.25 30.15625 32.871094 31.40625 37.210938 C 32.109375 39.65625 29.496094 42.382812 26.675781 42.144531 Z M 27.28125 41.464844 C 30.734375 41.566406 32.230469 37.707031 29.695312 35.242188 C 27.878906 33.476562 24.269531 34.011719 23.117188 36.214844 C 21.878906 38.585938 23.828125 41.660156 26.453125 41.480469 C 26.675781 41.464844 27.046875 41.460938 27.28125 41.464844 Z M 23.964844 39.425781 C 23.105469 39.15625 22.882812 38.207031 23.46875 37.308594 C 24.21875 36.152344 25.546875 36.417969 26.035156 37.828125 C 26.207031 38.328125 26.152344 38.386719 25.578125 38.347656 C 24.851562 38.300781 24.714844 38.40625 25.125 38.699219 C 25.609375 39.042969 25.695312 39.191406 25.476562 39.300781 C 25.152344 39.46875 24.328125 39.535156 23.964844 39.425781 Z M 13.09375 39.683594 C 12.019531 39.578125 11.648438 39.015625 12.078125 38.148438 C 12.570312 37.148438 13.6875 36.824219 14.347656 37.488281 C 15.429688 38.570312 14.703125 39.839844 13.09375 39.683594 Z M 4.257812 11.40625 C 4.246094 11.386719 4.316406 11.265625 4.414062 11.132812 C 4.605469 10.882812 4.675781 10.734375 4.675781 10.589844 C 4.675781 10.503906 4.722656 10.488281 5.683594 10.292969 C 8.402344 9.738281 8.015625 9.765625 14.515625 9.652344 C 19.472656 9.566406 22.085938 9.464844 24.234375 9.285156 C 24.816406 9.238281 24.972656 9.308594 25.070312 9.667969 C 25.230469 10.257812 24.761719 10.347656 21.59375 10.339844 C 18.902344 10.332031 19.332031 10.363281 17.675781 10.042969 C 16.980469 9.910156 16.5 9.980469 16.257812 10.242188 C 16.160156 10.351562 16.125 10.347656 15.789062 10.230469 C 15.1875 10.011719 14.765625 9.953125 13.855469 9.957031 C 12.980469 9.957031 12.875 9.96875 10.996094 10.246094 C 10.542969 10.3125 9.933594 10.382812 9.632812 10.40625 C 8.347656 10.507812 7.007812 10.757812 5 11.28125 C 4.339844 11.453125 4.292969 11.460938 4.257812 11.40625 Z M 4.257812 11.40625 "/>
</g>
</svg>
