<?xml version="1.0" encoding="UTF-8"?>
<svg xmlns="http://www.w3.org/2000/svg" xmlns:xlink="http://www.w3.org/1999/xlink" width="55px" height="55px" viewBox="0 0 55 55" version="1.1">
<g id="surface1">
<path style=" stroke:none;fill-rule:nonzero;fill:rgb(87.058824%,29.803922%,21.176471%);fill-opacity:1;" d="M 53.960938 25.050781 L 29.949219 1.039062 C 28.566406 -0.34375 26.324219 -0.34375 24.941406 1.039062 L 19.953125 6.023438 L 26.28125 12.347656 C 27.75 11.851562 29.433594 12.1875 30.605469 13.359375 C 31.785156 14.535156 32.113281 16.238281 31.605469 17.710938 L 37.703125 23.808594 C 39.175781 23.300781 40.878906 23.628906 42.058594 24.808594 C 43.703125 26.453125 43.703125 29.121094 42.058594 30.769531 C 40.410156 32.414062 37.742188 32.414062 36.09375 30.769531 C 34.855469 29.527344 34.550781 27.710938 35.179688 26.183594 L 29.492188 20.5 L 29.492188 35.460938 C 29.90625 35.664062 30.28125 35.933594 30.605469 36.257812 C 32.253906 37.902344 32.253906 40.570312 30.605469 42.21875 C 28.960938 43.863281 26.292969 43.863281 24.648438 42.21875 C 23 40.570312 23 37.902344 24.648438 36.257812 C 25.042969 35.863281 25.511719 35.550781 26.027344 35.339844 L 26.027344 20.238281 C 25.507812 20.027344 25.039062 19.714844 24.648438 19.316406 C 23.398438 18.070312 23.101562 16.242188 23.738281 14.710938 L 17.503906 8.472656 L 1.039062 24.9375 C -0.347656 26.324219 -0.347656 28.566406 1.039062 29.949219 L 25.050781 53.960938 C 26.433594 55.34375 28.675781 55.34375 30.0625 53.960938 L 53.960938 30.058594 C 55.34375 28.675781 55.34375 26.433594 53.960938 25.050781 "/>
</g>
</svg>
