<?xml version="1.0" encoding="UTF-8"?>
<svg xmlns="http://www.w3.org/2000/svg" xmlns:xlink="http://www.w3.org/1999/xlink" width="55px" height="55px" viewBox="0 0 55 55" version="1.1">
<g id="surface1">
<path style=" stroke:none;fill-rule:nonzero;fill:rgb(8.627451%,8.627451%,7.843137%);fill-opacity:1;" d="M 27.394531 0 C 12.265625 0 0 12.605469 0 28.160156 C 0 40.601562 7.847656 51.15625 18.734375 54.878906 C 20.101562 55.140625 20.605469 54.269531 20.605469 53.527344 C 20.605469 52.855469 20.578125 50.636719 20.566406 48.28125 C 12.945312 49.984375 11.339844 44.960938 11.339844 44.960938 C 10.09375 41.707031 8.296875 40.839844 8.296875 40.839844 C 5.8125 39.09375 8.484375 39.128906 8.484375 39.128906 C 11.234375 39.328125 12.683594 42.03125 12.683594 42.03125 C 15.128906 46.335938 19.09375 45.089844 20.65625 44.371094 C 20.902344 42.550781 21.613281 41.308594 22.394531 40.605469 C 16.308594 39.894531 9.914062 37.480469 9.914062 26.6875 C 9.914062 23.613281 10.984375 21.101562 12.738281 19.128906 C 12.453125 18.421875 11.515625 15.558594 13 11.679688 C 13 11.679688 15.300781 10.921875 20.539062 14.566406 C 22.722656 13.941406 25.066406 13.628906 27.394531 13.617188 C 29.722656 13.628906 32.066406 13.941406 34.257812 14.566406 C 39.484375 10.921875 41.78125 11.679688 41.78125 11.679688 C 43.273438 15.558594 42.335938 18.421875 42.050781 19.128906 C 43.808594 21.101562 44.871094 23.613281 44.871094 26.6875 C 44.871094 37.503906 38.460938 39.886719 32.363281 40.582031 C 33.34375 41.457031 34.21875 43.171875 34.21875 45.796875 C 34.21875 49.566406 34.1875 52.597656 34.1875 53.527344 C 34.1875 54.273438 34.679688 55.152344 36.070312 54.875 C 46.949219 51.148438 54.785156 40.597656 54.785156 28.160156 C 54.785156 12.605469 42.523438 0 27.394531 0 "/>
<path style=" stroke:none;fill-rule:nonzero;fill:rgb(8.627451%,8.627451%,7.843137%);fill-opacity:1;" d="M 10.261719 40.113281 C 10.199219 40.253906 9.984375 40.296875 9.789062 40.199219 C 9.589844 40.109375 9.480469 39.917969 9.542969 39.777344 C 9.601562 39.632812 9.816406 39.59375 10.015625 39.6875 C 10.214844 39.78125 10.328125 39.972656 10.261719 40.113281 M 11.605469 41.351562 C 11.476562 41.472656 11.222656 41.417969 11.046875 41.21875 C 10.867188 41.023438 10.835938 40.761719 10.96875 40.632812 C 11.101562 40.511719 11.351562 40.566406 11.53125 40.765625 C 11.710938 40.964844 11.742188 41.222656 11.605469 41.351562 M 12.53125 42.929688 C 12.363281 43.050781 12.089844 42.9375 11.917969 42.6875 C 11.75 42.4375 11.75 42.136719 11.921875 42.015625 C 12.09375 41.898438 12.363281 42.003906 12.535156 42.253906 C 12.703125 42.507812 12.703125 42.808594 12.53125 42.929688 M 14.09375 44.761719 C 13.945312 44.933594 13.625 44.886719 13.390625 44.65625 C 13.152344 44.429688 13.085938 44.105469 13.234375 43.933594 C 13.386719 43.765625 13.707031 43.8125 13.945312 44.042969 C 14.183594 44.269531 14.253906 44.59375 14.09375 44.761719 M 16.117188 45.382812 C 16.050781 45.601562 15.742188 45.703125 15.429688 45.609375 C 15.121094 45.511719 14.917969 45.253906 14.980469 45.03125 C 15.046875 44.808594 15.355469 44.703125 15.667969 44.804688 C 15.976562 44.898438 16.179688 45.15625 16.117188 45.382812 M 18.414062 45.644531 C 18.421875 45.875 18.160156 46.066406 17.832031 46.074219 C 17.507812 46.078125 17.242188 45.890625 17.238281 45.664062 C 17.238281 45.429688 17.496094 45.238281 17.824219 45.234375 C 18.148438 45.226562 18.414062 45.414062 18.414062 45.644531 M 20.675781 45.554688 C 20.714844 45.78125 20.488281 46.011719 20.164062 46.074219 C 19.84375 46.136719 19.550781 45.996094 19.511719 45.769531 C 19.472656 45.539062 19.703125 45.304688 20.019531 45.246094 C 20.34375 45.1875 20.632812 45.324219 20.675781 45.554688 "/>
</g>
</svg>
