<?xml version="1.0" encoding="UTF-8"?>
<svg xmlns="http://www.w3.org/2000/svg" xmlns:xlink="http://www.w3.org/1999/xlink" width="55px" height="55px" viewBox="0 0 55 55" version="1.1">
<g id="surface1">
<path style=" stroke:none;fill-rule:nonzero;fill:rgb(88.627451%,26.27451%,16.078431%);fill-opacity:1;" d="M 27.515625 55.011719 L 37.636719 21.230469 L 17.394531 21.230469 Z M 27.515625 55.011719 "/>
<path style=" stroke:none;fill-rule:nonzero;fill:rgb(98.823529%,42.745098%,14.901961%);fill-opacity:1;" d="M 27.515625 55.011719 L 17.394531 21.230469 L 3.214844 21.230469 Z M 27.515625 55.011719 "/>
<path style=" stroke:none;fill-rule:nonzero;fill:rgb(98.823529%,63.921569%,14.901961%);fill-opacity:1;" d="M 3.214844 21.230469 L 0.136719 31.496094 C -0.144531 32.429688 0.164062 33.457031 0.898438 34.035156 L 27.515625 55.011719 Z M 3.214844 21.230469 "/>
<path style=" stroke:none;fill-rule:nonzero;fill:rgb(88.627451%,26.27451%,16.078431%);fill-opacity:1;" d="M 3.214844 21.230469 L 17.394531 21.230469 L 11.300781 0.882812 C 10.988281 -0.164062 9.621094 -0.164062 9.308594 0.882812 Z M 3.214844 21.230469 "/>
<path style=" stroke:none;fill-rule:nonzero;fill:rgb(98.823529%,42.745098%,14.901961%);fill-opacity:1;" d="M 27.515625 55.011719 L 37.636719 21.230469 L 51.820312 21.230469 Z M 27.515625 55.011719 "/>
<path style=" stroke:none;fill-rule:nonzero;fill:rgb(98.823529%,63.921569%,14.901961%);fill-opacity:1;" d="M 51.820312 21.230469 L 54.894531 31.496094 C 55.175781 32.429688 54.867188 33.457031 54.132812 34.035156 L 27.515625 55.011719 Z M 51.820312 21.230469 "/>
<path style=" stroke:none;fill-rule:nonzero;fill:rgb(88.627451%,26.27451%,16.078431%);fill-opacity:1;" d="M 51.820312 21.230469 L 37.636719 21.230469 L 43.730469 0.882812 C 44.042969 -0.164062 45.410156 -0.164062 45.722656 0.882812 Z M 51.820312 21.230469 "/>
</g>
</svg>
