<?xml version="1.0" encoding="UTF-8"?>
<svg xmlns="http://www.w3.org/2000/svg" xmlns:xlink="http://www.w3.org/1999/xlink" width="40px" height="40px" viewBox="0 0 40 40" version="1.1">
<g id="surface1">
<path style=" stroke:none;fill-rule:nonzero;fill:rgb(90.196078%,95.294118%,100%);fill-opacity:1;" d="M 40 8.261719 L 40 31.738281 C 40 33.90625 38.253906 35.652344 36.085938 35.652344 L 3.914062 35.652344 C 1.746094 35.652344 0 33.90625 0 31.738281 L 0 8.261719 C 0 8.191406 0 8.121094 0.0078125 8.050781 C 0.113281 6.050781 1.703125 4.460938 3.703125 4.355469 C 3.773438 4.347656 3.84375 4.347656 3.914062 4.347656 L 36.085938 4.347656 C 36.15625 4.347656 36.234375 4.347656 36.304688 4.355469 C 38.296875 4.460938 39.886719 6.050781 39.992188 8.042969 C 40 8.113281 40 8.191406 40 8.261719 Z M 40 8.261719 "/>
<path style=" stroke:none;fill-rule:nonzero;fill:rgb(81.176471%,85.882353%,90.196078%);fill-opacity:1;" d="M 36.304688 4.355469 C 36.234375 4.347656 36.15625 4.347656 36.085938 4.347656 L 20 4.347656 L 20 35.652344 L 36.085938 35.652344 C 38.253906 35.652344 40 33.90625 40 31.738281 L 40 8.261719 C 40 8.191406 40 8.113281 39.992188 8.042969 C 39.886719 6.050781 38.296875 4.460938 36.304688 4.355469 Z M 36.304688 4.355469 "/>
<path style=" stroke:none;fill-rule:nonzero;fill:rgb(100%,29.411765%,14.901961%);fill-opacity:1;" d="M 39.992188 8.042969 C 39.886719 6.050781 38.296875 4.460938 36.304688 4.355469 C 29.914062 10.746094 26.324219 14.335938 20 20.660156 C 17.601562 18.261719 6.0625 6.714844 3.703125 4.355469 C 1.703125 4.460938 0.113281 6.050781 0.0078125 8.050781 C 0 8.121094 0 8.191406 0 8.261719 L 0 31.738281 C 0 33.90625 1.746094 35.652344 3.914062 35.652344 L 5.21875 35.652344 L 5.21875 13.261719 L 18.15625 26.191406 C 18.660156 26.703125 19.332031 26.957031 20 26.957031 C 20.667969 26.957031 21.339844 26.703125 21.84375 26.191406 L 34.78125 13.253906 L 34.78125 35.652344 L 36.085938 35.652344 C 38.253906 35.652344 40 33.90625 40 31.738281 L 40 8.261719 C 40 8.191406 40 8.113281 39.992188 8.042969 Z M 39.992188 8.042969 "/>
<path style=" stroke:none;fill-rule:nonzero;fill:rgb(85.098039%,24.705882%,12.941176%);fill-opacity:1;" d="M 21.84375 26.191406 L 34.78125 13.253906 L 34.78125 35.652344 L 36.085938 35.652344 C 38.253906 35.652344 40 33.90625 40 31.738281 L 40 8.261719 C 40 8.191406 40 8.113281 39.992188 8.042969 C 39.886719 6.050781 38.296875 4.460938 36.304688 4.355469 C 29.914062 10.746094 26.324219 14.335938 20 20.660156 L 20 26.957031 C 20.667969 26.957031 21.339844 26.703125 21.84375 26.191406 Z M 21.84375 26.191406 "/>
</g>
</svg>
