<?xml version="1.0" encoding="UTF-8"?>
<svg xmlns="http://www.w3.org/2000/svg" xmlns:xlink="http://www.w3.org/1999/xlink" width="45px" height="45px" viewBox="0 0 45 45" version="1.1">
<g id="surface1">
<path style=" stroke:none;fill-rule:nonzero;fill:rgb(90.196078%,95.294118%,100%);fill-opacity:1;" d="M 45 9.292969 L 45 35.707031 C 45 38.144531 43.035156 40.109375 40.597656 40.109375 L 4.402344 40.109375 C 1.964844 40.109375 0 38.144531 0 35.707031 L 0 9.292969 C 0 9.214844 0 9.136719 0.0078125 9.058594 C 0.128906 6.808594 1.914062 5.019531 4.167969 4.898438 C 4.246094 4.890625 4.324219 4.890625 4.402344 4.890625 L 40.597656 4.890625 C 40.675781 4.890625 40.765625 4.890625 40.84375 4.898438 C 43.085938 5.019531 44.871094 6.808594 44.992188 9.046875 C 45 9.128906 45 9.214844 45 9.292969 Z M 45 9.292969 "/>
<path style=" stroke:none;fill-rule:nonzero;fill:rgb(81.176471%,85.882353%,90.196078%);fill-opacity:1;" d="M 40.84375 4.898438 C 40.765625 4.890625 40.675781 4.890625 40.597656 4.890625 L 22.5 4.890625 L 22.5 40.109375 L 40.597656 40.109375 C 43.035156 40.109375 45 38.144531 45 35.707031 L 45 9.292969 C 45 9.214844 45 9.128906 44.992188 9.046875 C 44.871094 6.808594 43.085938 5.019531 40.84375 4.898438 Z M 40.84375 4.898438 "/>
<path style=" stroke:none;fill-rule:nonzero;fill:rgb(100%,29.411765%,14.901961%);fill-opacity:1;" d="M 44.992188 9.046875 C 44.871094 6.808594 43.085938 5.019531 40.84375 4.898438 C 33.652344 12.089844 29.613281 16.128906 22.5 23.242188 C 19.800781 20.542969 6.820312 7.554688 4.167969 4.898438 C 1.914062 5.019531 0.128906 6.808594 0.0078125 9.058594 C 0 9.136719 0 9.214844 0 9.292969 L 0 35.707031 C 0 38.144531 1.964844 40.109375 4.402344 40.109375 L 5.871094 40.109375 L 5.871094 14.917969 L 20.425781 29.464844 C 20.992188 30.039062 21.75 30.328125 22.5 30.328125 C 23.25 30.328125 24.007812 30.039062 24.574219 29.464844 L 39.128906 14.910156 L 39.128906 40.109375 L 40.597656 40.109375 C 43.035156 40.109375 45 38.144531 45 35.707031 L 45 9.292969 C 45 9.214844 45 9.128906 44.992188 9.046875 Z M 44.992188 9.046875 "/>
<path style=" stroke:none;fill-rule:nonzero;fill:rgb(85.098039%,24.705882%,12.941176%);fill-opacity:1;" d="M 24.574219 29.464844 L 39.128906 14.910156 L 39.128906 40.109375 L 40.597656 40.109375 C 43.035156 40.109375 45 38.144531 45 35.707031 L 45 9.292969 C 45 9.214844 45 9.128906 44.992188 9.046875 C 44.871094 6.808594 43.085938 5.019531 40.84375 4.898438 C 33.652344 12.089844 29.613281 16.128906 22.5 23.242188 L 22.5 30.328125 C 23.25 30.328125 24.007812 30.039062 24.574219 29.464844 Z M 24.574219 29.464844 "/>
</g>
</svg>
