<?xml version="1.0" encoding="UTF-8"?>
<svg xmlns="http://www.w3.org/2000/svg" xmlns:xlink="http://www.w3.org/1999/xlink" width="px" height="55px" viewBox="0 0 37 55" version="1.1">
<g id="surface1">
<path style=" stroke:none;fill-rule:evenodd;fill:rgb(96.470588%,82.352941%,63.529412%);fill-opacity:1;" d="M 2.117188 29.171875 C 2.195312 30.53125 3.566406 29.910156 4.195312 29.480469 C 4.78125 29.054688 4.976562 29.402344 5.015625 28.585938 C 5.054688 28.042969 5.09375 27.539062 5.09375 26.996094 C 4.195312 26.917969 3.214844 27.113281 2.46875 27.65625 C 2.117188 27.925781 1.371094 28.820312 2.117188 29.171875 "/>
<path style=" stroke:none;fill-rule:nonzero;fill:rgb(0%,0%,0%);fill-opacity:1;" d="M 2.859375 30.140625 C 2.585938 30.140625 2.078125 30.023438 2 29.25 C 1.765625 29.09375 1.683594 28.898438 1.683594 28.78125 C 1.644531 28.316406 2.15625 27.773438 2.429688 27.578125 C 3.058594 27.113281 3.878906 26.878906 4.742188 26.878906 L 5.253906 26.878906 L 5.253906 26.996094 C 5.292969 27.421875 5.253906 27.851562 5.214844 28.238281 C 5.214844 28.355469 5.214844 28.472656 5.171875 28.585938 C 5.132812 29.171875 5.015625 29.25 4.742188 29.363281 C 4.625 29.402344 4.507812 29.441406 4.3125 29.597656 C 4.117188 29.714844 3.449219 30.140625 2.859375 30.140625 Z M 4.742188 27.113281 C 3.917969 27.113281 3.175781 27.34375 2.585938 27.773438 C 2.3125 27.964844 1.921875 28.433594 1.960938 28.742188 C 1.960938 28.859375 2.039062 28.976562 2.195312 29.054688 L 2.273438 29.09375 L 2.273438 29.171875 C 2.3125 29.792969 2.625 29.871094 2.859375 29.871094 C 3.253906 29.871094 3.800781 29.597656 4.15625 29.363281 C 4.390625 29.210938 4.546875 29.171875 4.664062 29.132812 C 4.859375 29.054688 4.898438 29.054688 4.9375 28.585938 C 4.9375 28.472656 4.9375 28.355469 4.976562 28.238281 C 5.015625 27.886719 5.015625 27.5 5.015625 27.148438 C 4.898438 27.113281 4.820312 27.113281 4.742188 27.113281 Z M 4.742188 27.113281 "/>
<path style=" stroke:none;fill-rule:evenodd;fill:rgb(77.647059%,69.411765%,59.607843%);fill-opacity:1;" d="M 2.117188 29.171875 C 2.3125 29.09375 2.546875 29.054688 2.664062 28.859375 "/>
<path style=" stroke:none;fill-rule:nonzero;fill:rgb(0%,0%,0%);fill-opacity:1;" d="M 2.117188 29.285156 C 2.078125 29.285156 2 29.25 2 29.210938 C 1.960938 29.132812 2 29.054688 2.078125 29.054688 C 2.117188 29.054688 2.15625 29.015625 2.15625 29.015625 C 2.3125 28.9375 2.46875 28.898438 2.546875 28.78125 C 2.585938 28.742188 2.664062 28.703125 2.742188 28.742188 C 2.78125 28.78125 2.820312 28.859375 2.78125 28.9375 C 2.625 29.132812 2.429688 29.210938 2.273438 29.25 L 2.195312 29.285156 Z M 2.117188 29.285156 "/>
<path style=" stroke:none;fill-rule:evenodd;fill:rgb(41.568627%,84.313725%,89.803922%);fill-opacity:1;" d="M 5.332031 12.738281 C 0 11.261719 3.957031 4.539062 8.230469 7.296875 Z M 5.332031 12.738281 "/>
<path style=" stroke:none;fill-rule:nonzero;fill:rgb(0%,0%,0%);fill-opacity:1;" d="M 5.410156 12.890625 L 5.292969 12.855469 C 2.546875 12.078125 2.585938 10.132812 2.664062 9.550781 C 2.859375 8.074219 4.273438 6.519531 6.152344 6.519531 C 6.898438 6.519531 7.605469 6.753906 8.308594 7.21875 L 8.425781 7.296875 Z M 6.152344 6.792969 C 4.390625 6.792969 3.097656 8.230469 2.902344 9.589844 C 2.703125 10.988281 3.566406 12.078125 5.253906 12.582031 L 8.035156 7.335938 C 7.445312 6.988281 6.820312 6.792969 6.152344 6.792969 Z M 6.152344 6.792969 "/>
<path style=" stroke:none;fill-rule:evenodd;fill:rgb(41.568627%,84.313725%,89.803922%);fill-opacity:1;" d="M 28.964844 6.792969 C 33.160156 3.878906 37 10.484375 32.101562 12.15625 Z M 28.964844 6.792969 "/>
<path style=" stroke:none;fill-rule:nonzero;fill:rgb(0%,0%,0%);fill-opacity:1;" d="M 32.0625 12.308594 L 28.808594 6.753906 L 28.925781 6.675781 C 29.671875 6.171875 30.414062 5.898438 31.160156 5.898438 C 32.964844 5.898438 34.257812 7.375 34.53125 8.8125 C 34.648438 9.394531 34.765625 11.378906 32.179688 12.230469 Z M 29.160156 6.871094 L 32.179688 12.039062 C 33.707031 11.492188 34.492188 10.328125 34.257812 8.929688 C 34.019531 7.609375 32.804688 6.25 31.160156 6.25 C 30.492188 6.210938 29.828125 6.40625 29.160156 6.871094 Z M 29.160156 6.871094 "/>
<path style=" stroke:none;fill-rule:evenodd;fill:rgb(96.470588%,82.352941%,63.529412%);fill-opacity:1;" d="M 29.90625 46.109375 C 30.964844 46.769531 32.921875 48.75 31.316406 49.722656 C 29.789062 51.121094 28.925781 48.167969 27.554688 47.78125 C 28.140625 47.003906 28.886719 46.265625 29.90625 46.109375 "/>
<path style=" stroke:none;fill-rule:nonzero;fill:rgb(0%,0%,0%);fill-opacity:1;" d="M 30.492188 50.226562 C 29.867188 50.226562 29.316406 49.605469 28.847656 49.023438 C 28.417969 48.554688 27.984375 48.050781 27.515625 47.894531 L 27.320312 47.855469 L 27.4375 47.703125 C 27.90625 47.042969 28.691406 46.1875 29.867188 45.992188 L 29.90625 45.992188 L 29.945312 46.03125 C 30.609375 46.457031 32.0625 47.664062 32.023438 48.789062 C 32.023438 49.21875 31.785156 49.566406 31.355469 49.839844 C 31.082031 50.109375 30.808594 50.226562 30.492188 50.226562 Z M 27.75 47.703125 C 28.21875 47.894531 28.613281 48.402344 29.003906 48.828125 C 29.472656 49.410156 29.945312 49.917969 30.453125 49.917969 C 30.691406 49.917969 30.925781 49.800781 31.160156 49.566406 L 31.199219 49.566406 C 31.550781 49.332031 31.746094 49.0625 31.746094 48.710938 C 31.746094 47.816406 30.609375 46.691406 29.828125 46.1875 C 29.121094 46.382812 28.417969 46.847656 27.75 47.703125 Z M 31.316406 49.839844 C 31.277344 49.839844 31.238281 49.800781 31.199219 49.761719 C 31.121094 49.605469 31.042969 49.410156 31.003906 49.253906 C 30.886719 48.945312 30.769531 48.632812 30.53125 48.402344 C 30.492188 48.363281 30.492188 48.285156 30.53125 48.207031 C 30.570312 48.167969 30.652344 48.167969 30.730469 48.207031 C 31.003906 48.480469 31.160156 48.828125 31.277344 49.179688 L 31.472656 49.644531 C 31.511719 49.722656 31.472656 49.800781 31.433594 49.839844 Z M 31.316406 49.839844 "/>
<path style=" stroke:none;fill-rule:evenodd;fill:rgb(96.470588%,82.352941%,63.529412%);fill-opacity:1;" d="M 10.777344 48.363281 C 9.523438 48.554688 8.820312 49.683594 7.761719 50.265625 C 6.78125 50.847656 6.390625 50.070312 6.308594 49.917969 C 6.152344 49.839844 6.152344 49.992188 5.917969 49.761719 C 5.015625 48.324219 6.859375 47.273438 7.839844 46.574219 C 9.210938 46.265625 10.074219 47.429688 10.777344 48.363281 "/>
<path style=" stroke:none;fill-rule:nonzero;fill:rgb(0%,0%,0%);fill-opacity:1;" d="M 7.09375 50.578125 C 6.585938 50.578125 6.308594 50.148438 6.230469 49.992188 L 6.191406 49.992188 C 6.074219 49.992188 5.996094 49.953125 5.839844 49.800781 L 5.839844 49.761719 C 4.976562 48.402344 6.46875 47.351562 7.445312 46.652344 L 7.800781 46.417969 L 7.878906 46.417969 C 8.035156 46.382812 8.152344 46.382812 8.308594 46.382812 C 9.484375 46.382812 10.230469 47.390625 10.855469 48.207031 L 11.054688 48.480469 L 10.816406 48.519531 C 10.074219 48.632812 9.523438 49.101562 8.976562 49.566406 C 8.621094 49.878906 8.269531 50.148438 7.878906 50.382812 C 7.566406 50.5 7.328125 50.578125 7.09375 50.578125 Z M 6.230469 49.761719 C 6.269531 49.761719 6.308594 49.761719 6.390625 49.800781 L 6.429688 49.800781 L 6.46875 49.839844 C 6.546875 49.953125 6.742188 50.304688 7.132812 50.304688 C 7.328125 50.304688 7.527344 50.226562 7.722656 50.109375 C 8.113281 49.917969 8.464844 49.605469 8.78125 49.332031 C 9.289062 48.90625 9.839844 48.441406 10.542969 48.246094 C 9.957031 47.46875 9.25 46.613281 8.269531 46.613281 C 8.152344 46.613281 8.035156 46.613281 7.917969 46.652344 L 7.605469 46.886719 C 6.585938 47.585938 5.332031 48.480469 6.074219 49.644531 C 6.113281 49.722656 6.152344 49.761719 6.230469 49.761719 Z M 6.308594 50.03125 C 6.230469 50.03125 6.152344 49.953125 6.191406 49.878906 C 6.230469 49.488281 6.429688 49.21875 6.625 48.90625 C 6.742188 48.75 6.820312 48.59375 6.898438 48.441406 C 6.9375 48.363281 7.015625 48.363281 7.054688 48.363281 C 7.132812 48.402344 7.132812 48.480469 7.132812 48.519531 C 7.054688 48.710938 6.9375 48.867188 6.820312 49.023438 C 6.625 49.292969 6.46875 49.527344 6.429688 49.839844 C 6.429688 49.992188 6.390625 50.03125 6.308594 50.03125 Z M 6.308594 50.03125 "/>
<path style=" stroke:none;fill-rule:evenodd;fill:rgb(0%,0%,0%);fill-opacity:1;" d="M 5.566406 10.910156 C 4.859375 10.5625 4.351562 10.054688 4.78125 9.242188 C 5.171875 8.503906 5.917969 8.582031 6.625 8.929688 Z M 31.003906 10.210938 C 31.707031 9.863281 32.21875 9.355469 31.785156 8.542969 C 31.394531 7.804688 30.652344 7.882812 29.945312 8.230469 Z M 31.003906 10.210938 "/>
<path style=" stroke:none;fill-rule:evenodd;fill:rgb(96.470588%,82.352941%,63.529412%);fill-opacity:1;" d="M 35.824219 28.976562 C 35.746094 30.335938 34.375 29.714844 33.746094 29.285156 C 33.160156 28.859375 32.964844 29.210938 32.921875 28.394531 C 32.882812 27.851562 32.84375 27.34375 32.84375 26.800781 C 33.746094 26.722656 34.726562 26.917969 35.472656 27.460938 C 35.863281 27.773438 36.570312 28.625 35.824219 28.976562 "/>
<path style=" stroke:none;fill-rule:nonzero;fill:rgb(0%,0%,0%);fill-opacity:1;" d="M 35.117188 29.949219 C 34.53125 29.949219 33.863281 29.519531 33.667969 29.402344 C 33.472656 29.285156 33.355469 29.210938 33.238281 29.171875 C 32.921875 29.054688 32.84375 28.976562 32.804688 28.394531 C 32.804688 28.277344 32.804688 28.160156 32.765625 28.042969 C 32.726562 27.65625 32.6875 27.226562 32.726562 26.800781 L 32.726562 26.683594 L 33.238281 26.683594 C 34.097656 26.683594 34.921875 26.917969 35.550781 27.382812 C 35.824219 27.578125 36.332031 28.121094 36.292969 28.585938 C 36.292969 28.742188 36.214844 28.9375 35.980469 29.054688 C 35.902344 29.832031 35.394531 29.949219 35.117188 29.949219 Z M 32.964844 26.957031 C 32.964844 27.304688 32.964844 27.695312 33.003906 28.042969 C 33.003906 28.160156 33.003906 28.277344 33.042969 28.394531 C 33.082031 28.859375 33.121094 28.859375 33.316406 28.9375 C 33.433594 28.976562 33.589844 29.054688 33.824219 29.171875 C 34.179688 29.402344 34.726562 29.675781 35.117188 29.675781 C 35.355469 29.675781 35.667969 29.597656 35.707031 28.976562 L 35.707031 28.898438 L 35.785156 28.859375 C 35.941406 28.78125 36.019531 28.703125 36.019531 28.550781 C 36.058594 28.238281 35.667969 27.773438 35.394531 27.578125 C 34.804688 27.148438 34.019531 26.917969 33.238281 26.917969 C 33.160156 26.957031 33.082031 26.957031 32.964844 26.957031 Z M 32.964844 26.957031 "/>
<path style=" stroke:none;fill-rule:evenodd;fill:rgb(77.647059%,69.411765%,59.607843%);fill-opacity:1;" d="M 35.824219 28.976562 C 35.628906 28.898438 35.394531 28.859375 35.277344 28.664062 "/>
<path style=" stroke:none;fill-rule:nonzero;fill:rgb(0%,0%,0%);fill-opacity:1;" d="M 35.824219 29.132812 L 35.785156 29.132812 L 35.707031 29.09375 C 35.511719 29.015625 35.316406 28.976562 35.195312 28.78125 C 35.15625 28.742188 35.15625 28.625 35.234375 28.585938 C 35.277344 28.550781 35.394531 28.550781 35.433594 28.625 C 35.511719 28.742188 35.667969 28.78125 35.824219 28.859375 C 35.863281 28.859375 35.902344 28.898438 35.902344 28.898438 C 35.980469 28.9375 36.019531 29.015625 35.980469 29.054688 C 35.941406 29.09375 35.863281 29.132812 35.824219 29.132812 Z M 35.824219 29.132812 "/>
<path style=" stroke:none;fill-rule:evenodd;fill:rgb(41.568627%,84.313725%,89.803922%);fill-opacity:1;" d="M 18.460938 4.035156 C 23.792969 4.035156 28.769531 4.773438 31.394531 9.863281 C 33.746094 15.535156 32.882812 21.671875 33.277344 27.695312 C 33.589844 32.859375 34.257812 38.804688 31.867188 43.582031 C 29.316406 48.59375 22.96875 49.878906 17.753906 49.683594 C 13.640625 49.527344 8.703125 48.207031 6.347656 44.476562 C 3.644531 40.125 4.898438 33.636719 5.09375 28.78125 C 5.332031 23.03125 3.527344 17.242188 5.449219 11.648438 C 7.367188 5.78125 12.699219 4.460938 18.460938 4.035156 "/>
<path style=" stroke:none;fill-rule:nonzero;fill:rgb(0%,0%,0%);fill-opacity:1;" d="M 18.65625 49.839844 L 17.675781 49.839844 C 16.070312 49.800781 13.640625 49.527344 11.25 48.554688 C 8.9375 47.625 7.25 46.304688 6.152344 44.554688 C 3.957031 41.019531 4.351562 36.164062 4.703125 31.851562 C 4.78125 30.761719 4.859375 29.753906 4.898438 28.78125 C 4.976562 26.761719 4.820312 24.664062 4.625 22.683594 C 4.3125 19.03125 3.996094 15.261719 5.214844 11.609375 C 6.152344 8.890625 7.839844 6.949219 10.386719 5.707031 C 12.386719 4.734375 14.855469 4.191406 18.382812 3.917969 C 23.632812 3.878906 28.847656 4.617188 31.472656 9.785156 C 33.199219 13.941406 33.199219 18.410156 33.238281 22.722656 C 33.238281 24.351562 33.238281 26.023438 33.355469 27.65625 C 33.394531 28.160156 33.433594 28.664062 33.433594 29.171875 C 33.746094 33.910156 34.097656 39.269531 31.90625 43.621094 C 30.808594 45.835938 28.886719 47.46875 26.261719 48.519531 C 24.144531 49.371094 21.480469 49.839844 18.65625 49.839844 Z M 18.460938 4.152344 C 12.933594 4.578125 7.527344 5.78125 5.527344 11.6875 C 4.3125 15.300781 4.625 19.03125 4.9375 22.644531 C 5.09375 24.664062 5.292969 26.722656 5.214844 28.78125 C 5.171875 29.753906 5.09375 30.761719 5.015625 31.851562 C 4.664062 36.125 4.273438 40.941406 6.429688 44.398438 C 7.328125 45.835938 10.230469 49.253906 17.714844 49.527344 L 18.695312 49.527344 C 27.359375 49.527344 30.570312 45.71875 31.746094 43.46875 C 33.902344 39.195312 33.550781 33.832031 33.277344 29.132812 C 33.238281 28.625 33.199219 28.121094 33.199219 27.617188 C 33.121094 25.984375 33.082031 24.3125 33.082031 22.683594 C 33.042969 18.410156 33.042969 13.941406 31.355469 9.824219 C 30.179688 7.53125 28.417969 5.976562 25.984375 5.082031 C 23.476562 4.269531 20.65625 4.152344 18.460938 4.152344 Z M 18.460938 4.152344 "/>
<path style=" stroke:none;fill-rule:evenodd;fill:rgb(100%,100%,100%);fill-opacity:1;" d="M 19.402344 11.105469 C 20.34375 16.621094 29.433594 15.144531 28.140625 9.589844 C 26.964844 4.617188 19.089844 6.015625 19.402344 11.105469 "/>
<path style=" stroke:none;fill-rule:nonzero;fill:rgb(0%,0%,0%);fill-opacity:1;" d="M 23.714844 14.71875 C 21.949219 14.71875 19.714844 13.785156 19.246094 11.144531 C 19.167969 9.902344 19.558594 8.773438 20.382812 7.917969 C 21.28125 6.949219 22.65625 6.40625 24.066406 6.40625 C 25.710938 6.40625 27.671875 7.257812 28.21875 9.628906 C 28.535156 10.949219 28.296875 12.117188 27.554688 13.046875 C 26.730469 14.058594 25.28125 14.71875 23.714844 14.71875 Z M 19.519531 11.105469 C 19.714844 12.191406 20.222656 13.046875 21.046875 13.667969 C 21.753906 14.214844 22.734375 14.484375 23.714844 14.484375 C 25.164062 14.484375 26.574219 13.863281 27.359375 12.890625 C 28.0625 12.039062 28.257812 10.910156 27.984375 9.667969 C 27.476562 7.453125 25.632812 6.675781 24.066406 6.675781 C 22.734375 6.675781 21.441406 7.21875 20.578125 8.113281 C 19.832031 8.890625 19.441406 9.941406 19.519531 11.105469 Z M 19.519531 11.105469 "/>
<path style=" stroke:none;fill-rule:evenodd;fill:rgb(100%,100%,100%);fill-opacity:1;" d="M 8.542969 12 C 9.796875 16.777344 17.519531 15.574219 17.246094 10.753906 C 16.894531 5.007812 7.328125 6.09375 8.542969 12 "/>
<path style=" stroke:none;fill-rule:nonzero;fill:rgb(0%,0%,0%);fill-opacity:1;" d="M 12.660156 15.183594 C 10.972656 15.183594 9.015625 14.367188 8.386719 12.039062 C 8.113281 10.679688 8.386719 9.433594 9.171875 8.503906 C 10.035156 7.453125 11.445312 6.832031 12.972656 6.832031 C 15.011719 6.832031 17.167969 8.035156 17.324219 10.753906 C 17.402344 11.882812 17.050781 12.890625 16.265625 13.707031 C 15.441406 14.601562 14.070312 15.183594 12.660156 15.183594 Z M 12.972656 7.105469 C 11.523438 7.105469 10.191406 7.6875 9.367188 8.65625 C 8.621094 9.550781 8.386719 10.679688 8.660156 11.960938 C 9.210938 14.136719 11.09375 14.914062 12.660156 14.914062 C 13.992188 14.914062 15.285156 14.40625 16.109375 13.515625 C 16.816406 12.777344 17.167969 11.804688 17.089844 10.753906 C 17.011719 9.085938 15.875 7.105469 12.972656 7.105469 Z M 12.972656 7.105469 "/>
<path style=" stroke:none;fill-rule:evenodd;fill:rgb(100%,100%,100%);fill-opacity:1;" d="M 20.5 17.710938 C 20.5 18.410156 20.65625 19.226562 20.539062 20.003906 C 20.34375 20.351562 19.988281 20.390625 19.675781 20.507812 C 19.246094 20.429688 18.890625 20.15625 18.695312 19.769531 C 18.578125 18.914062 18.734375 18.058594 18.773438 17.203125 Z M 20.5 17.710938 "/>
<path style=" stroke:none;fill-rule:nonzero;fill:rgb(0%,0%,0%);fill-opacity:1;" d="M 19.675781 20.664062 C 19.167969 20.585938 18.773438 20.273438 18.578125 19.847656 C 18.5 19.226562 18.539062 18.640625 18.578125 18.058594 C 18.617188 17.789062 18.617188 17.515625 18.617188 17.242188 L 18.617188 17.089844 L 20.617188 17.710938 L 20.617188 17.789062 C 20.617188 18.019531 20.65625 18.253906 20.65625 18.527344 C 20.695312 19.03125 20.734375 19.574219 20.65625 20.078125 L 20.65625 20.117188 C 20.5 20.429688 20.222656 20.507812 19.949219 20.625 C 19.871094 20.585938 19.792969 20.625 19.675781 20.664062 Z M 18.8125 19.730469 C 18.96875 20.078125 19.285156 20.3125 19.636719 20.390625 C 19.714844 20.351562 19.792969 20.351562 19.832031 20.3125 C 20.066406 20.234375 20.265625 20.15625 20.382812 19.964844 C 20.460938 19.496094 20.421875 18.992188 20.382812 18.488281 C 20.382812 18.253906 20.34375 18.019531 20.34375 17.828125 L 18.851562 17.359375 C 18.851562 17.59375 18.8125 17.828125 18.8125 18.019531 C 18.773438 18.640625 18.734375 19.1875 18.8125 19.730469 Z M 18.8125 19.730469 "/>
<path style=" stroke:none;fill-rule:evenodd;fill:rgb(0%,0%,0%);fill-opacity:1;" d="M 11.992188 11.222656 C 11.992188 12 11.40625 12.621094 10.699219 12.621094 C 9.996094 12.621094 9.40625 12 9.40625 11.222656 C 9.40625 10.445312 9.996094 9.824219 10.699219 9.824219 C 11.40625 9.824219 11.992188 10.445312 11.992188 11.222656 "/>
<path style=" stroke:none;fill-rule:evenodd;fill:rgb(100%,100%,100%);fill-opacity:1;" d="M 11.5625 11.53125 C 11.5625 11.726562 11.40625 11.882812 11.25 11.882812 C 11.09375 11.882812 10.933594 11.726562 10.933594 11.53125 C 10.933594 11.339844 11.09375 11.183594 11.25 11.183594 C 11.445312 11.183594 11.5625 11.339844 11.5625 11.53125 "/>
<path style=" stroke:none;fill-rule:evenodd;fill:rgb(0%,0%,0%);fill-opacity:1;" d="M 22.929688 10.871094 C 22.929688 11.648438 22.339844 12.269531 21.636719 12.269531 C 20.929688 12.269531 20.34375 11.648438 20.34375 10.871094 C 20.34375 10.09375 20.929688 9.472656 21.636719 9.472656 C 22.339844 9.472656 22.929688 10.09375 22.929688 10.871094 "/>
<path style=" stroke:none;fill-rule:evenodd;fill:rgb(100%,100%,100%);fill-opacity:1;" d="M 22.535156 11.183594 C 22.535156 11.378906 22.417969 11.53125 22.222656 11.53125 C 22.066406 11.53125 21.910156 11.378906 21.910156 11.183594 C 21.910156 10.988281 22.027344 10.832031 22.222656 10.832031 C 22.378906 10.832031 22.535156 10.988281 22.535156 11.183594 M 16.734375 17.632812 C 16.148438 18.992188 17.050781 21.75 18.617188 19.730469 C 18.5 18.875 18.65625 18.019531 18.695312 17.164062 Z M 16.734375 17.632812 "/>
<path style=" stroke:none;fill-rule:nonzero;fill:rgb(0%,0%,0%);fill-opacity:1;" d="M 17.558594 20.585938 C 17.285156 20.585938 17.011719 20.429688 16.816406 20.117188 C 16.382812 19.496094 16.304688 18.332031 16.617188 17.59375 L 16.65625 17.515625 L 18.8125 16.972656 L 18.8125 17.128906 L 18.773438 17.980469 C 18.734375 18.566406 18.695312 19.109375 18.773438 19.691406 L 18.773438 19.730469 L 18.734375 19.769531 C 18.34375 20.3125 17.953125 20.585938 17.558594 20.585938 Z M 16.855469 17.75 C 16.617188 18.410156 16.695312 19.457031 17.050781 19.964844 C 17.207031 20.195312 17.363281 20.3125 17.558594 20.3125 C 17.832031 20.3125 18.148438 20.078125 18.460938 19.691406 C 18.382812 19.109375 18.421875 18.527344 18.5 17.980469 L 18.539062 17.320312 Z M 16.855469 17.75 "/>
<path style=" stroke:none;fill-rule:evenodd;fill:rgb(96.470588%,82.352941%,63.529412%);fill-opacity:1;" d="M 16.933594 14.992188 C 15.875 15.066406 15.011719 16.351562 15.558594 17.320312 C 16.304688 18.640625 17.910156 17.203125 18.929688 17.320312 C 20.105469 17.359375 21.046875 18.566406 21.988281 17.554688 C 23.046875 16.429688 21.519531 15.339844 20.382812 14.835938 Z M 16.933594 14.992188 "/>
<path style=" stroke:none;fill-rule:nonzero;fill:rgb(13.72549%,12.156863%,12.54902%);fill-opacity:1;" d="M 21.164062 18.097656 C 20.8125 18.097656 20.460938 17.941406 20.105469 17.789062 C 19.753906 17.632812 19.363281 17.476562 18.929688 17.476562 L 18.8125 17.476562 C 18.5 17.476562 18.148438 17.59375 17.753906 17.75 C 17.324219 17.902344 16.894531 18.019531 16.5 18.019531 C 16.03125 18.019531 15.679688 17.828125 15.441406 17.398438 C 15.167969 16.933594 15.207031 16.390625 15.480469 15.882812 C 15.796875 15.300781 16.34375 14.953125 16.933594 14.875 L 20.421875 14.71875 L 20.460938 14.71875 C 21.320312 15.066406 22.300781 15.730469 22.496094 16.503906 C 22.578125 16.894531 22.457031 17.28125 22.144531 17.632812 C 21.832031 17.980469 21.519531 18.097656 21.164062 18.097656 Z M 18.96875 17.242188 C 19.402344 17.242188 19.832031 17.4375 20.222656 17.59375 C 20.578125 17.75 20.890625 17.867188 21.203125 17.867188 C 21.480469 17.867188 21.714844 17.75 21.949219 17.515625 C 22.222656 17.242188 22.300781 16.933594 22.261719 16.621094 C 22.105469 15.960938 21.164062 15.339844 20.421875 15.027344 L 17.011719 15.183594 C 16.5 15.222656 16.03125 15.574219 15.757812 16.039062 C 15.519531 16.464844 15.519531 16.933594 15.71875 17.320312 C 15.914062 17.671875 16.148438 17.828125 16.539062 17.828125 C 16.894531 17.828125 17.285156 17.671875 17.675781 17.554688 C 18.109375 17.398438 18.460938 17.28125 18.851562 17.28125 C 18.851562 17.203125 18.890625 17.203125 18.96875 17.242188 Z M 18.96875 17.242188 "/>
<path style=" stroke:none;fill-rule:evenodd;fill:rgb(0%,0%,0%);fill-opacity:1;" d="M 16.816406 14.953125 C 16.734375 13.125 20.265625 12.890625 20.65625 14.40625 C 21.085938 15.960938 16.972656 16.3125 16.816406 14.953125 "/>
</g>
</svg>
