<?xml version="1.0" encoding="UTF-8"?>
<svg xmlns="http://www.w3.org/2000/svg" xmlns:xlink="http://www.w3.org/1999/xlink" width="40px" height="40px" viewBox="0 0 40 40" version="1.1">
<defs>
<linearGradient id="linear0" gradientUnits="userSpaceOnUse" x1="0.631009" y1="0.298114" x2="0.288743" y2="0.837099" gradientTransform="matrix(13.183594,0,0,24.527344,26.816406,15.472656)">
<stop offset="0" style="stop-color:rgb(3.137255%,48.627451%,98.039216%);stop-opacity:1;"/>
<stop offset="0.02" style="stop-color:rgb(5.098039%,48.235294%,98.039216%);stop-opacity:1;"/>
<stop offset="0.37" style="stop-color:rgb(33.333333%,40%,97.647059%);stop-opacity:1;"/>
<stop offset="0.66" style="stop-color:rgb(54.117647%,34.117647%,97.254902%);stop-opacity:1;"/>
<stop offset="0.88" style="stop-color:rgb(67.058824%,30.588235%,96.862745%);stop-opacity:1;"/>
<stop offset="1" style="stop-color:rgb(71.764706%,29.019608%,96.862745%);stop-opacity:1;"/>
</linearGradient>
<linearGradient id="linear1" gradientUnits="userSpaceOnUse" x1="0.491244" y1="0.384645" x2="0.748721" y2="0.0495024" gradientTransform="matrix(28.179688,0,0,32.238281,0,0)">
<stop offset="0" style="stop-color:rgb(3.137255%,48.627451%,98.039216%);stop-opacity:1;"/>
<stop offset="0.02" style="stop-color:rgb(5.098039%,48.235294%,98.039216%);stop-opacity:1;"/>
<stop offset="0.37" style="stop-color:rgb(33.333333%,40%,97.647059%);stop-opacity:1;"/>
<stop offset="0.66" style="stop-color:rgb(54.117647%,34.117647%,97.254902%);stop-opacity:1;"/>
<stop offset="0.88" style="stop-color:rgb(67.058824%,30.588235%,96.862745%);stop-opacity:1;"/>
<stop offset="1" style="stop-color:rgb(71.764706%,29.019608%,96.862745%);stop-opacity:1;"/>
</linearGradient>
<linearGradient id="linear2" gradientUnits="userSpaceOnUse" x1="0.138958" y1="0.71063" x2="0.860313" y2="0.345494" gradientTransform="matrix(40,0,0,31.507812,0,8.492188)">
<stop offset="0" style="stop-color:rgb(3.137255%,48.627451%,98.039216%);stop-opacity:1;"/>
<stop offset="0.1" style="stop-color:rgb(8.235294%,59.607843%,82.745098%);stop-opacity:1;"/>
<stop offset="0.22" style="stop-color:rgb(13.72549%,71.372549%,66.666667%);stop-opacity:1;"/>
<stop offset="0.35" style="stop-color:rgb(17.647059%,80%,54.509804%);stop-opacity:1;"/>
<stop offset="0.46" style="stop-color:rgb(20.784314%,86.666667%,45.490196%);stop-opacity:1;"/>
<stop offset="0.57" style="stop-color:rgb(22.352941%,90.588235%,40.392157%);stop-opacity:1;"/>
<stop offset="0.67" style="stop-color:rgb(23.137255%,91.764706%,38.431373%);stop-opacity:1;"/>
</linearGradient>
</defs>
<g id="surface1">
<path style=" stroke:none;fill-rule:nonzero;fill:url(#linear0);" d="M 35.234375 15.472656 L 40 26.042969 L 31.839844 40 L 26.816406 27.800781 Z M 35.234375 15.472656 "/>
<path style=" stroke:none;fill-rule:nonzero;fill:rgb(71.764706%,29.019608%,96.862745%);fill-opacity:1;" d="M 26.816406 27.800781 L 31.839844 40 L 19.199219 35.652344 Z M 26.816406 27.800781 "/>
<path style=" stroke:none;fill-rule:nonzero;fill:url(#linear1);" d="M 28.179688 11.296875 L 25.585938 0 L 11.214844 0 L 0 17.160156 L 3.246094 25.042969 L 0 32.238281 L 23.230469 12.476562 Z M 28.179688 11.296875 "/>
<path style=" stroke:none;fill-rule:nonzero;fill:url(#linear2);" d="M 40 8.492188 L 23.230469 12.476562 L 0 32.238281 L 14.984375 40 L 26.816406 27.800781 Z M 40 8.492188 "/>
<path style=" stroke:none;fill-rule:nonzero;fill:rgb(0%,0%,0%);fill-opacity:1;" d="M 7.5 7.5 L 32.5 7.5 L 32.5 32.5 L 7.5 32.5 Z M 7.5 7.5 "/>
<path style=" stroke:none;fill-rule:nonzero;fill:rgb(100%,100%,100%);fill-opacity:1;" d="M 9.847656 27.8125 L 19.222656 27.8125 L 19.222656 29.375 L 9.847656 29.375 Z M 9.140625 15.960938 L 9.140625 15.933594 C 9.136719 14.507812 9.707031 13.140625 10.726562 12.140625 C 11.742188 11.140625 13.121094 10.59375 14.546875 10.625 C 16.03125 10.546875 17.484375 11.054688 18.601562 12.039062 L 17.171875 13.761719 C 16.445312 13.070312 15.476562 12.691406 14.476562 12.707031 C 12.839844 12.707031 11.566406 14.109375 11.515625 15.8125 L 11.511719 15.945312 C 11.511719 17.796875 12.757812 19.164062 14.53125 19.214844 L 14.636719 19.214844 C 15.394531 19.238281 16.144531 19.023438 16.769531 18.597656 L 16.769531 17.113281 L 14.488281 17.113281 L 14.488281 15.152344 L 18.957031 15.152344 L 18.957031 19.628906 C 17.734375 20.6875 16.171875 21.269531 14.554688 21.265625 C 11.351562 21.265625 9.140625 19.011719 9.140625 15.960938 Z M 19.917969 15.960938 L 19.917969 15.933594 C 19.921875 14.496094 20.507812 13.117188 21.542969 12.117188 C 22.578125 11.117188 23.972656 10.578125 25.414062 10.625 C 28.546875 10.625 30.808594 12.925781 30.875 15.796875 L 30.875 15.953125 C 30.875 17.398438 30.292969 18.777344 29.257812 19.785156 C 28.261719 20.753906 26.925781 21.292969 25.539062 21.289062 L 25.382812 21.289062 C 22.199219 21.265625 19.917969 18.894531 19.917969 15.960938 Z M 28.503906 15.960938 L 28.503906 15.933594 C 28.53125 15.089844 28.214844 14.269531 27.625 13.660156 C 27.039062 13.054688 26.230469 12.710938 25.382812 12.707031 C 24.542969 12.707031 23.742188 13.042969 23.15625 13.648438 C 22.601562 14.222656 22.292969 14.984375 22.289062 15.777344 L 22.292969 15.933594 C 22.261719 16.78125 22.578125 17.605469 23.167969 18.214844 C 23.757812 18.828125 24.566406 19.171875 25.417969 19.175781 C 26.257812 19.175781 27.0625 18.835938 27.648438 18.226562 C 28.230469 17.621094 28.539062 16.804688 28.503906 15.960938 Z M 28.503906 15.960938 "/>
</g>
</svg>
