<?xml version="1.0" encoding="UTF-8"?>
<svg xmlns="http://www.w3.org/2000/svg" xmlns:xlink="http://www.w3.org/1999/xlink" width="35px" height="35px" viewBox="0 0 20 20" version="1.1">
<g id="surface1">
<path style=" stroke:none;fill-rule:nonzero;fill:rgb(0%,67.45098%,84.313725%);fill-opacity:1;" d="M -3.679688 8.136719 C -3.730469 8.136719 -3.742188 8.113281 -3.71875 8.078125 L -3.460938 7.746094 C -3.425781 7.707031 -3.378906 7.6875 -3.328125 7.6875 L 1.023438 7.6875 C 1.070312 7.6875 1.082031 7.722656 1.058594 7.757812 L 0.851562 8.078125 C 0.820312 8.117188 0.777344 8.140625 0.730469 8.148438 Z M -3.679688 8.136719 "/>
<path style=" stroke:none;fill-rule:nonzero;fill:rgb(0%,67.45098%,84.313725%);fill-opacity:1;" d="M -5.519531 9.257812 C -5.570312 9.257812 -5.582031 9.234375 -5.554688 9.195312 L -5.300781 8.867188 C -5.265625 8.828125 -5.21875 8.804688 -5.167969 8.808594 L 0.386719 8.808594 C 0.40625 8.804688 0.425781 8.8125 0.4375 8.828125 C 0.453125 8.839844 0.457031 8.863281 0.449219 8.878906 L 0.351562 9.171875 C 0.335938 9.21875 0.289062 9.25 0.242188 9.246094 Z M -5.519531 9.257812 "/>
<path style=" stroke:none;fill-rule:nonzero;fill:rgb(0%,67.45098%,84.313725%);fill-opacity:1;" d="M -2.570312 10.378906 C -2.621094 10.378906 -2.632812 10.34375 -2.609375 10.304688 L -2.4375 10 C -2.410156 9.957031 -2.367188 9.933594 -2.316406 9.925781 L 0.121094 9.925781 C 0.167969 9.925781 0.191406 9.964844 0.191406 10.011719 L 0.167969 10.304688 C 0.164062 10.351562 0.128906 10.386719 0.0820312 10.390625 Z M -2.570312 10.378906 "/>
<path style=" stroke:none;fill-rule:nonzero;fill:rgb(0%,67.45098%,84.313725%);fill-opacity:1;" d="M 10.074219 7.917969 C 9.304688 8.113281 8.78125 8.257812 8.027344 8.453125 C 7.84375 8.503906 7.832031 8.515625 7.671875 8.332031 C 7.492188 8.125 7.355469 7.992188 7.101562 7.867188 C 6.332031 7.492188 5.589844 7.601562 4.894531 8.050781 C 4.066406 8.585938 3.640625 9.378906 3.652344 10.367188 C 3.664062 11.339844 4.335938 12.144531 5.296875 12.277344 C 6.125 12.390625 6.820312 12.097656 7.367188 11.476562 C 7.476562 11.339844 7.574219 11.195312 7.699219 11.023438 L 5.347656 11.023438 C 5.089844 11.023438 5.03125 10.867188 5.113281 10.660156 C 5.273438 10.28125 5.566406 9.648438 5.734375 9.332031 C 5.789062 9.210938 5.910156 9.132812 6.039062 9.136719 L 10.472656 9.136719 C 10.449219 9.464844 10.449219 9.792969 10.402344 10.121094 C 10.273438 10.988281 9.929688 11.8125 9.402344 12.511719 C 8.527344 13.667969 7.378906 14.386719 5.929688 14.582031 C 4.738281 14.738281 3.628906 14.507812 2.652344 13.777344 C 1.777344 13.136719 1.214844 12.152344 1.105469 11.074219 C 0.949219 9.746094 1.339844 8.550781 2.140625 7.503906 C 3.007812 6.371094 4.152344 5.652344 5.554688 5.394531 C 6.699219 5.1875 7.792969 5.324219 8.78125 5.992188 C 9.414062 6.414062 9.902344 7.011719 10.195312 7.710938 C 10.265625 7.820312 10.21875 7.882812 10.074219 7.917969 Z M 10.074219 7.917969 "/>
<path style=" stroke:none;fill-rule:nonzero;fill:rgb(0%,67.45098%,84.313725%);fill-opacity:1;" d="M 14.105469 14.652344 C 12.996094 14.628906 11.984375 14.3125 11.132812 13.582031 C 10.421875 12.984375 9.953125 12.148438 9.816406 11.230469 C 9.597656 9.855469 9.976562 8.636719 10.804688 7.550781 C 11.691406 6.382812 12.765625 5.773438 14.214844 5.519531 C 15.457031 5.296875 16.625 5.421875 17.6875 6.140625 C 18.648438 6.796875 19.246094 7.6875 19.402344 8.855469 C 19.609375 10.5 19.136719 11.839844 18.003906 12.984375 C 17.207031 13.789062 16.1875 14.332031 15.078125 14.542969 C 14.75 14.605469 14.421875 14.617188 14.105469 14.652344 Z M 17.003906 9.734375 C 17 9.597656 16.988281 9.464844 16.96875 9.332031 C 16.746094 8.125 15.640625 7.441406 14.480469 7.710938 C 13.347656 7.964844 12.617188 8.683594 12.351562 9.832031 C 12.121094 10.765625 12.59375 11.734375 13.472656 12.132812 C 14.140625 12.425781 14.8125 12.386719 15.457031 12.058594 C 16.417969 11.558594 16.941406 10.78125 17.003906 9.734375 Z M 17.003906 9.734375 "/>
</g>
</svg>
