<?xml version="1.0" encoding="UTF-8"?>
<svg xmlns="http://www.w3.org/2000/svg" xmlns:xlink="http://www.w3.org/1999/xlink" width="40px" height="40px" viewBox="0 0 40 40" version="1.1">
<g id="surface1">
<path style=" stroke:none;fill-rule:nonzero;fill:rgb(0%,67.45098%,84.313725%);fill-opacity:1;" d="M -7.359375 16.273438 C -7.460938 16.273438 -7.484375 16.226562 -7.4375 16.15625 L -6.921875 15.492188 C -6.851562 15.414062 -6.757812 15.375 -6.65625 15.375 L 2.046875 15.375 C 2.140625 15.375 2.164062 15.445312 2.117188 15.515625 L 1.703125 16.15625 C 1.640625 16.234375 1.554688 16.28125 1.460938 16.296875 Z M -7.359375 16.273438 "/>
<path style=" stroke:none;fill-rule:nonzero;fill:rgb(0%,67.45098%,84.313725%);fill-opacity:1;" d="M -11.039062 18.515625 C -11.140625 18.515625 -11.164062 18.46875 -11.109375 18.390625 L -10.601562 17.734375 C -10.53125 17.65625 -10.4375 17.609375 -10.335938 17.617188 L 0.773438 17.617188 C 0.8125 17.609375 0.851562 17.625 0.875 17.65625 C 0.90625 17.679688 0.914062 17.726562 0.898438 17.757812 L 0.703125 18.34375 C 0.671875 18.4375 0.578125 18.5 0.484375 18.492188 Z M -11.039062 18.515625 "/>
<path style=" stroke:none;fill-rule:nonzero;fill:rgb(0%,67.45098%,84.313725%);fill-opacity:1;" d="M -5.140625 20.757812 C -5.242188 20.757812 -5.265625 20.6875 -5.21875 20.609375 L -4.875 20 C -4.820312 19.914062 -4.734375 19.867188 -4.632812 19.851562 L 0.242188 19.851562 C 0.335938 19.851562 0.382812 19.929688 0.382812 20.023438 L 0.335938 20.609375 C 0.328125 20.703125 0.257812 20.773438 0.164062 20.78125 Z M -5.140625 20.757812 "/>
<path style=" stroke:none;fill-rule:nonzero;fill:rgb(0%,67.45098%,84.313725%);fill-opacity:1;" d="M 20.148438 15.835938 C 18.609375 16.226562 17.5625 16.515625 16.054688 16.90625 C 15.6875 17.007812 15.664062 17.03125 15.34375 16.664062 C 14.984375 16.25 14.710938 15.984375 14.203125 15.734375 C 12.664062 14.984375 11.179688 15.203125 9.789062 16.101562 C 8.132812 17.171875 7.28125 18.757812 7.304688 20.734375 C 7.328125 22.679688 8.671875 24.289062 10.59375 24.554688 C 12.25 24.78125 13.640625 24.195312 14.734375 22.953125 C 14.953125 22.679688 15.148438 22.390625 15.398438 22.046875 L 10.695312 22.046875 C 10.179688 22.046875 10.0625 21.734375 10.226562 21.320312 C 10.546875 20.5625 11.132812 19.296875 11.46875 18.664062 C 11.578125 18.421875 11.820312 18.265625 12.078125 18.273438 L 20.945312 18.273438 C 20.898438 18.929688 20.898438 19.585938 20.804688 20.242188 C 20.546875 21.976562 19.859375 23.625 18.804688 25.023438 C 17.054688 27.335938 14.757812 28.773438 11.859375 29.164062 C 9.476562 29.476562 7.257812 29.015625 5.304688 27.554688 C 3.554688 26.273438 2.429688 24.304688 2.210938 22.148438 C 1.898438 19.492188 2.679688 17.101562 4.28125 15.007812 C 6.015625 12.742188 8.304688 11.304688 11.109375 10.789062 C 13.398438 10.375 15.585938 10.648438 17.5625 11.984375 C 18.828125 12.828125 19.804688 14.023438 20.390625 15.421875 C 20.53125 15.640625 20.4375 15.765625 20.148438 15.835938 Z M 20.148438 15.835938 "/>
<path style=" stroke:none;fill-rule:nonzero;fill:rgb(0%,67.45098%,84.313725%);fill-opacity:1;" d="M 28.210938 29.304688 C 25.992188 29.257812 23.96875 28.625 22.265625 27.164062 C 20.84375 25.96875 19.90625 24.296875 19.632812 22.460938 C 19.195312 19.710938 19.953125 17.273438 21.609375 15.101562 C 23.382812 12.765625 25.53125 11.546875 28.429688 11.039062 C 30.914062 10.59375 33.25 10.84375 35.375 12.28125 C 37.296875 13.59375 38.492188 15.375 38.804688 17.710938 C 39.21875 21 38.273438 23.679688 36.007812 25.96875 C 34.414062 27.578125 32.375 28.664062 30.15625 29.085938 C 29.5 29.210938 28.84375 29.234375 28.210938 29.304688 Z M 34.007812 19.46875 C 34 19.195312 33.976562 18.929688 33.9375 18.664062 C 33.492188 16.25 31.28125 14.882812 28.960938 15.421875 C 26.695312 15.929688 25.234375 17.367188 24.703125 19.664062 C 24.242188 21.53125 25.1875 23.46875 26.945312 24.265625 C 28.28125 24.851562 29.625 24.773438 30.914062 24.117188 C 32.835938 23.117188 33.882812 21.5625 34.007812 19.46875 Z M 34.007812 19.46875 "/>
</g>
</svg>
