<?xml version="1.0" encoding="UTF-8"?>
<svg xmlns="http://www.w3.org/2000/svg" xmlns:xlink="http://www.w3.org/1999/xlink" width="40px" height="40px" viewBox="0 0 40 40" version="1.1">
<defs>
<clipPath id="clip1">
  <path d="M 1 0 L 39 0 L 39 40 L 1 40 Z M 1 0 "/>
</clipPath>
<clipPath id="clip2">
  <path d="M 17.988281 4.566406 C 17.988281 4.566406 17.972656 4.625 17.957031 4.722656 C 17.789062 4.769531 17.621094 4.816406 17.457031 4.871094 C 17.222656 4.941406 16.996094 5.027344 16.765625 5.109375 C 16.539062 5.195312 16.308594 5.285156 16.082031 5.386719 C 15.628906 5.582031 15.179688 5.800781 14.742188 6.046875 C 14.316406 6.285156 13.894531 6.546875 13.488281 6.832031 C 13.429688 6.804688 13.382812 6.785156 13.382812 6.785156 C 9.21875 5.195312 5.523438 7.109375 5.523438 7.109375 C 5.1875 11.535156 7.1875 14.328125 7.582031 14.835938 C 7.484375 15.105469 7.390625 15.382812 7.304688 15.664062 C 7 16.667969 6.769531 17.699219 6.625 18.761719 C 6.605469 18.914062 6.585938 19.070312 6.570312 19.222656 C 2.722656 21.125 1.582031 25.015625 1.582031 25.015625 C 4.792969 28.710938 8.539062 28.9375 8.539062 28.9375 C 8.542969 28.9375 8.542969 28.933594 8.546875 28.929688 C 9.023438 29.78125 9.574219 30.589844 10.195312 31.34375 C 10.453125 31.660156 10.726562 31.964844 11.007812 32.257812 C 9.839844 35.605469 11.175781 38.390625 11.175781 38.390625 C 14.75 38.527344 17.097656 36.828125 17.589844 36.4375 C 17.945312 36.554688 18.308594 36.664062 18.671875 36.757812 C 19.769531 37.039062 20.894531 37.207031 22.019531 37.253906 C 22.300781 37.265625 22.582031 37.273438 22.859375 37.269531 L 23.085938 37.269531 L 23.4375 37.253906 L 23.441406 37.261719 C 25.121094 39.664062 28.085938 40.003906 28.085938 40.003906 C 30.191406 37.78125 30.3125 35.578125 30.3125 35.101562 C 30.3125 35.101562 30.3125 35.085938 30.3125 35.070312 C 30.3125 35.03125 30.308594 35.003906 30.308594 35.003906 C 30.308594 34.96875 30.308594 34.9375 30.304688 34.902344 C 30.746094 34.59375 31.167969 34.257812 31.566406 33.902344 C 32.410156 33.136719 33.148438 32.269531 33.757812 31.332031 C 33.816406 31.246094 33.871094 31.15625 33.925781 31.066406 C 36.308594 31.203125 37.992188 29.589844 37.992188 29.589844 C 37.59375 27.105469 36.179688 25.894531 35.882812 25.664062 C 35.882812 25.664062 35.871094 25.65625 35.855469 25.644531 C 35.839844 25.632812 35.824219 25.625 35.824219 25.625 C 35.8125 25.613281 35.792969 25.601562 35.773438 25.589844 C 35.789062 25.4375 35.800781 25.289062 35.808594 25.140625 C 35.828125 24.875 35.832031 24.605469 35.835938 24.339844 L 35.832031 24.140625 L 35.832031 23.992188 C 35.832031 23.921875 35.828125 23.949219 35.828125 23.921875 L 35.820312 23.757812 L 35.808594 23.53125 C 35.804688 23.453125 35.800781 23.386719 35.792969 23.316406 C 35.789062 23.25 35.78125 23.179688 35.773438 23.109375 L 35.75 22.902344 L 35.722656 22.699219 C 35.679688 22.425781 35.628906 22.152344 35.566406 21.886719 C 35.316406 20.816406 34.898438 19.800781 34.347656 18.886719 C 33.796875 17.972656 33.109375 17.164062 32.335938 16.484375 C 31.5625 15.800781 30.695312 15.25 29.785156 14.84375 C 28.875 14.433594 27.917969 14.167969 26.96875 14.050781 C 26.492188 13.988281 26.019531 13.960938 25.546875 13.96875 L 25.375 13.972656 L 25.328125 13.972656 C 25.316406 13.972656 25.261719 13.976562 25.269531 13.976562 L 25.195312 13.980469 L 25.023438 13.992188 C 24.957031 13.996094 24.886719 14.003906 24.828125 14.007812 C 24.589844 14.03125 24.347656 14.066406 24.113281 14.109375 C 23.167969 14.285156 22.277344 14.628906 21.492188 15.097656 C 20.707031 15.566406 20.023438 16.15625 19.46875 16.820312 C 18.914062 17.488281 18.480469 18.222656 18.183594 18.988281 C 17.886719 19.75 17.71875 20.539062 17.675781 21.300781 C 17.664062 21.492188 17.660156 21.683594 17.664062 21.871094 C 17.664062 21.917969 17.664062 21.96875 17.667969 22.011719 L 17.671875 22.164062 C 17.679688 22.257812 17.6875 22.347656 17.695312 22.4375 C 17.734375 22.828125 17.804688 23.199219 17.90625 23.558594 C 18.113281 24.273438 18.449219 24.921875 18.855469 25.472656 C 19.265625 26.027344 19.757812 26.480469 20.277344 26.835938 C 20.796875 27.191406 21.351562 27.445312 21.902344 27.609375 C 22.457031 27.773438 23.003906 27.84375 23.519531 27.839844 C 23.585938 27.839844 23.648438 27.839844 23.710938 27.835938 C 23.746094 27.835938 23.78125 27.832031 23.816406 27.832031 C 23.847656 27.832031 23.882812 27.828125 23.917969 27.828125 C 23.972656 27.820312 24.027344 27.816406 24.082031 27.8125 C 24.09375 27.8125 24.113281 27.804688 24.128906 27.804688 L 24.179688 27.796875 C 24.210938 27.792969 24.246094 27.789062 24.277344 27.785156 C 24.347656 27.777344 24.40625 27.761719 24.464844 27.753906 C 24.527344 27.742188 24.585938 27.726562 24.648438 27.710938 C 24.765625 27.6875 24.878906 27.648438 24.992188 27.617188 C 25.21875 27.542969 25.429688 27.453125 25.625 27.351562 C 25.824219 27.25 26.003906 27.136719 26.171875 27.015625 C 26.222656 26.984375 26.265625 26.945312 26.3125 26.910156 C 26.492188 26.769531 26.523438 26.503906 26.378906 26.328125 C 26.25 26.175781 26.035156 26.132812 25.863281 26.230469 C 25.820312 26.253906 25.773438 26.277344 25.730469 26.296875 C 25.582031 26.371094 25.421875 26.4375 25.257812 26.492188 C 25.089844 26.546875 24.917969 26.589844 24.738281 26.621094 C 24.648438 26.632812 24.554688 26.648438 24.464844 26.65625 C 24.417969 26.660156 24.371094 26.664062 24.324219 26.664062 C 24.277344 26.664062 24.226562 26.671875 24.183594 26.667969 C 24.140625 26.667969 24.097656 26.664062 24.050781 26.664062 C 23.992188 26.664062 23.9375 26.660156 23.882812 26.65625 C 23.882812 26.65625 23.851562 26.65625 23.875 26.65625 L 23.855469 26.652344 L 23.820312 26.648438 C 23.792969 26.648438 23.769531 26.644531 23.742188 26.640625 C 23.691406 26.636719 23.640625 26.628906 23.59375 26.621094 C 23.1875 26.566406 22.777344 26.445312 22.386719 26.269531 C 21.988281 26.089844 21.613281 25.84375 21.269531 25.539062 C 20.929688 25.230469 20.632812 24.863281 20.398438 24.445312 C 20.167969 24.03125 20.003906 23.566406 19.925781 23.078125 C 19.890625 22.835938 19.875 22.585938 19.878906 22.339844 C 19.882812 22.273438 19.886719 22.207031 19.890625 22.136719 C 19.890625 22.15625 19.890625 22.128906 19.890625 22.125 L 19.894531 22.101562 L 19.898438 22.050781 C 19.898438 22.015625 19.902344 21.984375 19.90625 21.949219 C 19.921875 21.820312 19.941406 21.683594 19.964844 21.554688 C 20.152344 20.496094 20.683594 19.460938 21.5 18.675781 C 21.707031 18.484375 21.925781 18.300781 22.164062 18.140625 C 22.398438 17.980469 22.648438 17.835938 22.910156 17.714844 C 23.171875 17.59375 23.445312 17.496094 23.722656 17.417969 C 24.003906 17.34375 24.289062 17.292969 24.582031 17.269531 C 24.726562 17.257812 24.871094 17.25 25.019531 17.25 C 25.054688 17.25 25.085938 17.25 25.117188 17.25 L 25.234375 17.257812 L 25.308594 17.257812 C 25.339844 17.257812 25.308594 17.257812 25.324219 17.261719 L 25.351562 17.261719 L 25.472656 17.269531 C 25.789062 17.296875 26.101562 17.339844 26.410156 17.410156 C 27.03125 17.550781 27.632812 17.777344 28.195312 18.085938 C 29.320312 18.710938 30.28125 19.683594 30.867188 20.859375 C 31.164062 21.441406 31.371094 22.074219 31.472656 22.722656 C 31.5 22.886719 31.519531 23.050781 31.53125 23.214844 L 31.542969 23.339844 L 31.546875 23.464844 C 31.550781 23.507812 31.550781 23.546875 31.550781 23.589844 C 31.550781 23.628906 31.554688 23.675781 31.554688 23.707031 L 31.554688 23.8125 L 31.550781 23.933594 C 31.546875 24.011719 31.542969 24.144531 31.539062 24.222656 C 31.523438 24.402344 31.511719 24.582031 31.484375 24.761719 C 31.464844 24.9375 31.433594 25.117188 31.402344 25.292969 C 31.367188 25.46875 31.328125 25.640625 31.285156 25.816406 C 31.195312 26.160156 31.085938 26.5 30.953125 26.835938 C 30.691406 27.5 30.339844 28.132812 29.914062 28.71875 C 29.066406 29.886719 27.90625 30.839844 26.589844 31.4375 C 25.933594 31.734375 25.238281 31.953125 24.523438 32.070312 C 24.164062 32.132812 23.804688 32.167969 23.441406 32.179688 L 23.375 32.183594 L 22.933594 32.183594 C 22.984375 32.183594 22.925781 32.183594 22.925781 32.183594 L 22.890625 32.179688 C 22.695312 32.175781 22.503906 32.167969 22.3125 32.152344 C 21.539062 32.09375 20.773438 31.957031 20.03125 31.742188 C 19.289062 31.527344 18.570312 31.238281 17.890625 30.878906 C 16.53125 30.148438 15.316406 29.152344 14.363281 27.953125 C 13.886719 27.355469 13.46875 26.710938 13.125 26.035156 C 12.777344 25.359375 12.507812 24.648438 12.304688 23.925781 C 12.109375 23.199219 11.984375 22.457031 11.933594 21.710938 L 11.925781 21.570312 L 11.925781 21.503906 L 11.921875 21.441406 L 11.917969 21.320312 L 11.917969 21.160156 L 11.914062 20.988281 L 11.914062 20.953125 C 11.914062 20.957031 11.914062 20.957031 11.914062 20.941406 L 11.914062 20.871094 C 11.914062 20.78125 11.917969 20.691406 11.921875 20.597656 C 11.933594 20.230469 11.964844 19.851562 12.011719 19.472656 C 12.0625 19.089844 12.125 18.710938 12.203125 18.332031 C 12.28125 17.953125 12.371094 17.578125 12.476562 17.210938 C 12.6875 16.472656 12.953125 15.757812 13.261719 15.082031 C 13.886719 13.730469 14.707031 12.539062 15.691406 11.582031 C 15.933594 11.339844 16.191406 11.113281 16.457031 10.898438 C 16.71875 10.6875 16.996094 10.492188 17.277344 10.304688 C 17.558594 10.117188 17.851562 9.949219 18.148438 9.792969 C 18.300781 9.714844 18.453125 9.644531 18.605469 9.570312 C 18.679688 9.535156 18.757812 9.5 18.835938 9.464844 C 18.910156 9.433594 18.988281 9.398438 19.066406 9.367188 C 19.378906 9.234375 19.699219 9.125 20.023438 9.019531 C 20.105469 8.996094 20.183594 8.96875 20.265625 8.945312 C 20.34375 8.921875 20.429688 8.902344 20.511719 8.878906 C 20.671875 8.832031 20.839844 8.792969 21.003906 8.75 C 21.085938 8.730469 21.171875 8.714844 21.253906 8.695312 C 21.335938 8.679688 21.417969 8.660156 21.503906 8.644531 C 21.589844 8.628906 21.671875 8.613281 21.753906 8.597656 L 21.882812 8.578125 L 22.007812 8.558594 C 22.09375 8.542969 22.175781 8.53125 22.261719 8.519531 C 22.355469 8.503906 22.453125 8.496094 22.546875 8.480469 C 22.625 8.46875 22.75 8.457031 22.828125 8.445312 C 22.890625 8.441406 22.949219 8.433594 23.007812 8.429688 L 23.125 8.417969 L 23.1875 8.410156 L 23.257812 8.40625 C 23.351562 8.398438 23.449219 8.394531 23.542969 8.386719 L 23.6875 8.378906 C 23.6875 8.378906 23.738281 8.375 23.691406 8.375 L 23.722656 8.375 L 23.78125 8.371094 C 23.867188 8.367188 23.945312 8.363281 24.027344 8.359375 C 24.351562 8.351562 24.675781 8.351562 24.996094 8.359375 C 25.636719 8.386719 26.265625 8.457031 26.875 8.570312 C 28.097656 8.796875 29.25 9.1875 30.289062 9.703125 C 31.332031 10.214844 32.265625 10.839844 33.078125 11.519531 C 33.125 11.5625 33.175781 11.605469 33.226562 11.648438 C 33.277344 11.691406 33.324219 11.734375 33.375 11.78125 C 33.472656 11.867188 33.566406 11.957031 33.660156 12.042969 C 33.753906 12.132812 33.847656 12.222656 33.9375 12.308594 C 34.027344 12.398438 34.117188 12.488281 34.203125 12.582031 C 34.546875 12.945312 34.867188 13.3125 35.152344 13.683594 C 35.730469 14.425781 36.1875 15.171875 36.558594 15.878906 C 36.582031 15.925781 36.601562 15.96875 36.625 16.011719 C 36.648438 16.058594 36.667969 16.101562 36.6875 16.144531 C 36.730469 16.230469 36.777344 16.316406 36.8125 16.40625 C 36.855469 16.492188 36.894531 16.574219 36.933594 16.660156 C 36.96875 16.742188 37.003906 16.828125 37.039062 16.910156 C 37.175781 17.238281 37.300781 17.554688 37.402344 17.851562 C 37.574219 18.332031 37.695312 18.765625 37.792969 19.140625 C 37.828125 19.292969 37.972656 19.390625 38.128906 19.378906 C 38.289062 19.363281 38.410156 19.230469 38.414062 19.070312 C 38.421875 18.667969 38.414062 18.191406 38.367188 17.648438 C 38.304688 16.980469 38.191406 16.203125 37.964844 15.347656 C 37.742188 14.496094 37.410156 13.5625 36.929688 12.589844 C 36.445312 11.625 35.8125 10.613281 34.996094 9.640625 C 34.675781 9.257812 34.324219 8.882812 33.949219 8.515625 C 34.511719 6.277344 33.261719 4.335938 33.261719 4.335938 C 31.109375 4.203125 29.742188 5.007812 29.234375 5.375 C 29.148438 5.335938 29.0625 5.300781 28.976562 5.265625 C 28.609375 5.117188 28.234375 4.976562 27.84375 4.855469 C 27.457031 4.734375 27.0625 4.621094 26.660156 4.527344 C 26.253906 4.433594 25.839844 4.351562 25.421875 4.289062 C 25.347656 4.277344 25.273438 4.265625 25.199219 4.253906 C 24.265625 1.253906 21.566406 0 21.566406 0 C 18.558594 1.898438 17.988281 4.566406 17.988281 4.566406 "/>
</clipPath>
<linearGradient id="linear0" gradientUnits="userSpaceOnUse" x1="-819.76501" y1="8201.71" x2="-812.64868" y2="8201.71" gradientTransform="matrix(0,-5.136286,-5.136286,0,42146.324068,-4161.549146)">
<stop offset="0" style="stop-color:rgb(100%,94.901961%,0%);stop-opacity:1;"/>
<stop offset="1" style="stop-color:rgb(94.509804%,35.294118%,16.078431%);stop-opacity:1;"/>
</linearGradient>
</defs>
<g id="surface1">
<g clip-path="url(#clip1)" clip-rule="nonzero">
<g clip-path="url(#clip2)" clip-rule="nonzero">
<path style=" stroke:none;fill-rule:nonzero;fill:url(#linear0);" d="M 1.582031 -0.0078125 L 38.421875 -0.0078125 L 38.421875 40 L 1.582031 40 Z M 1.582031 -0.0078125 "/>
</g>
</g>
</g>
</svg>
