<?xml version="1.0" encoding="UTF-8"?>
<svg xmlns="http://www.w3.org/2000/svg" xmlns:xlink="http://www.w3.org/1999/xlink" width="55px" height="55px" viewBox="0 0 55 55" version="1.1">
<defs>
<clipPath id="clip1">
  <path d="M 2 0 L 53 0 L 53 55 L 2 55 Z M 2 0 "/>
</clipPath>
<clipPath id="clip2">
  <path d="M 24.734375 6.277344 C 24.734375 6.277344 24.710938 6.359375 24.691406 6.492188 C 24.460938 6.558594 24.230469 6.621094 24.003906 6.699219 C 23.679688 6.792969 23.371094 6.914062 23.050781 7.023438 C 22.742188 7.144531 22.425781 7.265625 22.113281 7.40625 C 21.488281 7.675781 20.871094 7.976562 20.269531 8.3125 C 19.683594 8.640625 19.105469 9 18.546875 9.394531 C 18.464844 9.355469 18.402344 9.328125 18.402344 9.328125 C 12.675781 7.144531 7.59375 9.773438 7.59375 9.773438 C 7.132812 15.859375 9.882812 19.699219 10.425781 20.398438 C 10.289062 20.769531 10.164062 21.152344 10.042969 21.539062 C 9.625 22.917969 9.308594 24.335938 9.109375 25.796875 C 9.082031 26.007812 9.054688 26.222656 9.035156 26.429688 C 3.742188 29.046875 2.175781 34.398438 2.175781 34.398438 C 6.589844 39.476562 11.742188 39.789062 11.742188 39.789062 C 11.746094 39.789062 11.746094 39.785156 11.75 39.777344 C 12.40625 40.949219 13.164062 42.0625 14.019531 43.097656 C 14.375 43.53125 14.75 43.953125 15.136719 44.355469 C 13.53125 48.957031 15.367188 52.789062 15.367188 52.789062 C 20.28125 52.976562 23.507812 50.640625 24.1875 50.101562 C 24.675781 50.261719 25.175781 50.414062 25.675781 50.542969 C 27.183594 50.929688 28.730469 51.160156 30.277344 51.222656 C 30.664062 51.242188 31.050781 51.25 31.433594 51.246094 L 31.742188 51.246094 L 32.226562 51.222656 L 32.230469 51.234375 C 34.542969 54.539062 38.617188 55.003906 38.617188 55.003906 C 41.511719 51.949219 41.679688 48.921875 41.679688 48.265625 C 41.679688 48.265625 41.679688 48.242188 41.679688 48.222656 C 41.679688 48.167969 41.675781 48.128906 41.675781 48.128906 C 41.675781 48.082031 41.675781 48.039062 41.667969 47.992188 C 42.277344 47.566406 42.855469 47.105469 43.402344 46.617188 C 44.5625 45.5625 45.578125 44.371094 46.417969 43.082031 C 46.496094 42.964844 46.574219 42.839844 46.648438 42.714844 C 49.925781 42.90625 52.238281 40.6875 52.238281 40.6875 C 51.691406 37.269531 49.746094 35.605469 49.339844 35.289062 C 49.339844 35.289062 49.324219 35.277344 49.300781 35.261719 C 49.28125 35.246094 49.257812 35.234375 49.257812 35.234375 C 49.242188 35.21875 49.214844 35.203125 49.1875 35.1875 C 49.210938 34.976562 49.226562 34.773438 49.238281 34.570312 C 49.265625 34.203125 49.269531 33.832031 49.273438 33.46875 L 49.269531 33.195312 L 49.269531 32.988281 C 49.269531 32.894531 49.265625 32.929688 49.265625 32.894531 L 49.253906 32.667969 L 49.238281 32.355469 C 49.230469 32.25 49.226562 32.15625 49.214844 32.058594 C 49.210938 31.96875 49.199219 31.871094 49.1875 31.777344 L 49.15625 31.492188 L 49.117188 31.210938 C 49.058594 30.835938 48.988281 30.460938 48.902344 30.09375 C 48.558594 28.621094 47.984375 27.226562 47.226562 25.96875 C 46.472656 24.710938 45.527344 23.601562 44.460938 22.664062 C 43.398438 21.726562 42.207031 20.96875 40.953125 20.410156 C 39.703125 19.847656 38.386719 19.480469 37.082031 19.320312 C 36.425781 19.234375 35.777344 19.195312 35.128906 19.207031 L 34.890625 19.210938 L 34.828125 19.210938 C 34.808594 19.210938 34.734375 19.21875 34.746094 19.21875 L 34.644531 19.222656 L 34.40625 19.238281 C 34.316406 19.246094 34.21875 19.253906 34.140625 19.261719 C 33.8125 19.292969 33.476562 19.339844 33.15625 19.398438 C 31.855469 19.640625 30.632812 20.113281 29.550781 20.757812 C 28.472656 21.402344 27.53125 22.214844 26.769531 23.128906 C 26.007812 24.046875 25.410156 25.054688 25.003906 26.109375 C 24.59375 27.15625 24.363281 28.242188 24.304688 29.289062 C 24.289062 29.550781 24.28125 29.816406 24.289062 30.074219 C 24.289062 30.136719 24.289062 30.207031 24.292969 30.265625 L 24.300781 30.476562 C 24.308594 30.605469 24.320312 30.726562 24.332031 30.851562 C 24.386719 31.390625 24.480469 31.898438 24.621094 32.394531 C 24.90625 33.375 25.367188 34.269531 25.925781 35.023438 C 26.488281 35.789062 27.167969 36.410156 27.882812 36.898438 C 28.597656 37.386719 29.359375 37.738281 30.117188 37.964844 C 30.878906 38.1875 31.628906 38.285156 32.339844 38.28125 C 32.429688 38.28125 32.515625 38.28125 32.601562 38.273438 C 32.652344 38.273438 32.699219 38.269531 32.746094 38.269531 C 32.789062 38.269531 32.839844 38.265625 32.886719 38.265625 C 32.960938 38.253906 33.039062 38.246094 33.113281 38.242188 C 33.128906 38.242188 33.15625 38.230469 33.175781 38.230469 L 33.246094 38.222656 C 33.289062 38.214844 33.339844 38.210938 33.382812 38.203125 C 33.476562 38.195312 33.558594 38.171875 33.640625 38.160156 C 33.726562 38.144531 33.804688 38.125 33.890625 38.101562 C 34.050781 38.070312 34.207031 38.015625 34.363281 37.972656 C 34.675781 37.871094 34.964844 37.75 35.234375 37.609375 C 35.507812 37.46875 35.753906 37.3125 35.988281 37.148438 C 36.054688 37.101562 36.113281 37.050781 36.179688 37 C 36.425781 36.808594 36.46875 36.441406 36.269531 36.203125 C 36.09375 35.992188 35.796875 35.933594 35.5625 36.066406 C 35.503906 36.097656 35.4375 36.132812 35.378906 36.160156 C 35.175781 36.261719 34.957031 36.351562 34.730469 36.425781 C 34.5 36.503906 34.261719 36.5625 34.015625 36.605469 C 33.890625 36.621094 33.761719 36.640625 33.640625 36.652344 C 33.574219 36.65625 33.511719 36.664062 33.445312 36.664062 C 33.382812 36.664062 33.3125 36.675781 33.253906 36.667969 C 33.195312 36.667969 33.132812 36.664062 33.070312 36.664062 C 32.988281 36.664062 32.914062 36.65625 32.839844 36.652344 C 32.839844 36.652344 32.796875 36.652344 32.828125 36.652344 L 32.800781 36.648438 L 32.753906 36.640625 C 32.714844 36.640625 32.683594 36.636719 32.644531 36.632812 C 32.574219 36.625 32.507812 36.613281 32.441406 36.605469 C 31.882812 36.527344 31.320312 36.363281 30.78125 36.121094 C 30.234375 35.875 29.71875 35.535156 29.246094 35.117188 C 28.777344 34.691406 28.371094 34.1875 28.046875 33.613281 C 27.730469 33.042969 27.503906 32.402344 27.398438 31.734375 C 27.351562 31.398438 27.328125 31.054688 27.332031 30.71875 C 27.339844 30.625 27.34375 30.535156 27.351562 30.4375 C 27.351562 30.464844 27.351562 30.425781 27.351562 30.421875 L 27.355469 30.390625 L 27.359375 30.320312 C 27.359375 30.273438 27.367188 30.226562 27.371094 30.179688 C 27.394531 30.003906 27.417969 29.816406 27.453125 29.636719 C 27.710938 28.183594 28.441406 26.757812 29.5625 25.679688 C 29.847656 25.414062 30.148438 25.164062 30.476562 24.945312 C 30.796875 24.722656 31.140625 24.523438 31.5 24.359375 C 31.863281 24.191406 32.238281 24.058594 32.617188 23.949219 C 33.003906 23.847656 33.398438 23.777344 33.800781 23.746094 C 34 23.730469 34.199219 23.71875 34.402344 23.71875 C 34.449219 23.71875 34.492188 23.71875 34.535156 23.71875 L 34.699219 23.730469 L 34.800781 23.730469 C 34.84375 23.730469 34.800781 23.730469 34.820312 23.734375 L 34.859375 23.734375 L 35.023438 23.746094 C 35.460938 23.785156 35.890625 23.84375 36.3125 23.9375 C 37.167969 24.132812 37.996094 24.445312 38.769531 24.867188 C 40.316406 25.726562 41.636719 27.066406 42.441406 28.683594 C 42.851562 29.480469 43.136719 30.351562 43.273438 31.242188 C 43.3125 31.46875 43.339844 31.695312 43.355469 31.921875 L 43.371094 32.09375 L 43.378906 32.265625 C 43.382812 32.324219 43.382812 32.378906 43.382812 32.4375 C 43.382812 32.488281 43.386719 32.554688 43.386719 32.597656 L 43.386719 32.742188 L 43.382812 32.910156 C 43.378906 33.015625 43.371094 33.199219 43.367188 33.304688 C 43.34375 33.554688 43.328125 33.800781 43.289062 34.046875 C 43.265625 34.289062 43.222656 34.535156 43.179688 34.777344 C 43.128906 35.019531 43.078125 35.257812 43.015625 35.496094 C 42.894531 35.96875 42.742188 36.4375 42.5625 36.898438 C 42.199219 37.8125 41.71875 38.683594 41.132812 39.488281 C 39.964844 41.09375 38.371094 42.40625 36.5625 43.226562 C 35.660156 43.636719 34.703125 43.9375 33.71875 44.097656 C 33.226562 44.183594 32.730469 44.230469 32.230469 44.246094 L 32.140625 44.253906 L 31.535156 44.253906 C 31.601562 44.253906 31.523438 44.253906 31.523438 44.253906 L 31.476562 44.246094 C 31.207031 44.242188 30.941406 44.230469 30.679688 44.210938 C 29.617188 44.128906 28.5625 43.941406 27.542969 43.644531 C 26.523438 43.351562 25.535156 42.953125 24.601562 42.457031 C 22.730469 41.453125 21.058594 40.085938 19.75 38.4375 C 19.09375 37.613281 18.519531 36.726562 18.046875 35.796875 C 17.570312 34.871094 17.199219 33.890625 16.917969 32.898438 C 16.648438 31.898438 16.476562 30.878906 16.410156 29.851562 L 16.398438 29.660156 L 16.398438 29.566406 L 16.390625 29.480469 L 16.386719 29.316406 L 16.386719 29.09375 L 16.382812 28.859375 L 16.382812 28.8125 C 16.382812 28.816406 16.382812 28.816406 16.382812 28.792969 L 16.382812 28.699219 C 16.382812 28.574219 16.386719 28.449219 16.390625 28.320312 C 16.410156 27.816406 16.453125 27.296875 16.515625 26.773438 C 16.585938 26.25 16.671875 25.726562 16.777344 25.207031 C 16.886719 24.6875 17.011719 24.171875 17.15625 23.664062 C 17.445312 22.648438 17.8125 21.667969 18.234375 20.738281 C 19.09375 18.878906 20.222656 17.242188 21.574219 15.925781 C 21.910156 15.59375 22.261719 15.28125 22.628906 14.984375 C 22.988281 14.695312 23.371094 14.425781 23.757812 14.167969 C 24.144531 13.910156 24.546875 13.679688 24.953125 13.464844 C 25.164062 13.359375 25.375 13.261719 25.582031 13.160156 C 25.683594 13.109375 25.792969 13.0625 25.898438 13.015625 C 26 12.972656 26.109375 12.921875 26.214844 12.878906 C 26.644531 12.695312 27.085938 12.546875 27.53125 12.402344 C 27.644531 12.371094 27.753906 12.332031 27.863281 12.300781 C 27.972656 12.265625 28.089844 12.242188 28.203125 12.207031 C 28.425781 12.144531 28.65625 12.089844 28.878906 12.03125 C 28.992188 12.003906 29.113281 11.984375 29.222656 11.957031 C 29.335938 11.933594 29.449219 11.90625 29.566406 11.886719 C 29.6875 11.863281 29.800781 11.84375 29.910156 11.820312 L 30.089844 11.792969 L 30.261719 11.769531 C 30.378906 11.746094 30.492188 11.730469 30.609375 11.714844 C 30.738281 11.691406 30.875 11.683594 31.003906 11.660156 C 31.109375 11.644531 31.28125 11.628906 31.390625 11.613281 C 31.476562 11.605469 31.554688 11.597656 31.636719 11.589844 L 31.796875 11.574219 L 31.882812 11.5625 L 31.980469 11.558594 C 32.109375 11.546875 32.242188 11.542969 32.371094 11.53125 L 32.570312 11.519531 C 32.570312 11.519531 32.640625 11.515625 32.574219 11.515625 L 32.617188 11.515625 L 32.699219 11.511719 C 32.816406 11.503906 32.925781 11.5 33.039062 11.492188 C 33.484375 11.484375 33.929688 11.484375 34.371094 11.492188 C 35.25 11.53125 36.113281 11.628906 36.953125 11.785156 C 38.632812 12.09375 40.21875 12.632812 41.648438 13.339844 C 43.082031 14.046875 44.367188 14.90625 45.484375 15.839844 C 45.546875 15.898438 45.617188 15.957031 45.6875 16.015625 C 45.757812 16.074219 45.820312 16.132812 45.890625 16.199219 C 46.023438 16.316406 46.152344 16.441406 46.28125 16.558594 C 46.410156 16.683594 46.539062 16.804688 46.664062 16.925781 C 46.789062 17.046875 46.910156 17.171875 47.03125 17.300781 C 47.5 17.800781 47.941406 18.304688 48.335938 18.816406 C 49.128906 19.835938 49.757812 20.859375 50.269531 21.832031 C 50.300781 21.898438 50.328125 21.957031 50.359375 22.015625 C 50.390625 22.082031 50.417969 22.140625 50.445312 22.199219 C 50.503906 22.316406 50.570312 22.433594 50.617188 22.558594 C 50.675781 22.675781 50.730469 22.789062 50.785156 22.90625 C 50.832031 23.019531 50.878906 23.140625 50.929688 23.25 C 51.117188 23.703125 51.289062 24.136719 51.429688 24.546875 C 51.664062 25.207031 51.832031 25.800781 51.964844 26.320312 C 52.015625 26.527344 52.210938 26.664062 52.425781 26.644531 C 52.648438 26.625 52.8125 26.441406 52.820312 26.222656 C 52.828125 25.667969 52.820312 25.011719 52.753906 24.265625 C 52.667969 23.347656 52.511719 22.28125 52.203125 21.101562 C 51.894531 19.933594 51.4375 18.648438 50.777344 17.3125 C 50.113281 15.984375 49.242188 14.59375 48.121094 13.253906 C 47.679688 12.730469 47.195312 12.214844 46.679688 11.710938 C 47.453125 8.632812 45.734375 5.960938 45.734375 5.960938 C 42.777344 5.78125 40.894531 6.886719 40.199219 7.390625 C 40.078125 7.335938 39.960938 7.289062 39.84375 7.242188 C 39.339844 7.035156 38.824219 6.84375 38.285156 6.675781 C 37.753906 6.507812 37.210938 6.355469 36.65625 6.226562 C 36.097656 6.097656 35.53125 5.984375 34.957031 5.898438 C 34.851562 5.882812 34.75 5.867188 34.648438 5.847656 C 33.363281 1.722656 29.652344 0 29.652344 0 C 25.519531 2.609375 24.734375 6.277344 24.734375 6.277344 "/>
</clipPath>
<linearGradient id="linear0" gradientUnits="userSpaceOnUse" x1="-819.76501" y1="8201.71" x2="-812.64868" y2="8201.71" gradientTransform="matrix(0,-7.062393,-7.062393,0,57951.195594,-5722.130076)">
<stop offset="0" style="stop-color:rgb(100%,94.901961%,0%);stop-opacity:1;"/>
<stop offset="1" style="stop-color:rgb(94.509804%,35.294118%,16.078431%);stop-opacity:1;"/>
</linearGradient>
</defs>
<g id="surface1">
<g clip-path="url(#clip1)" clip-rule="nonzero">
<g clip-path="url(#clip2)" clip-rule="nonzero">
<path style=" stroke:none;fill-rule:nonzero;fill:url(#linear0);" d="M 2.175781 -0.0117188 L 52.828125 -0.0117188 L 52.828125 55 L 2.175781 55 Z M 2.175781 -0.0117188 "/>
</g>
</g>
</g>
</svg>
