<?xml version="1.0" encoding="UTF-8"?>
<svg xmlns="http://www.w3.org/2000/svg" xmlns:xlink="http://www.w3.org/1999/xlink" width="px" height="55px" viewBox="0 0 48 55" version="1.1">
<g id="surface1">
<path style=" stroke:none;fill-rule:nonzero;fill:rgb(89.803922%,20.784314%,67.058824%);fill-opacity:1;" d="M 4.910156 41.230469 L 2.984375 40.121094 L 24.433594 3.019531 L 26.359375 4.128906 Z M 4.910156 41.230469 "/>
<path style=" stroke:none;fill-rule:nonzero;fill:rgb(89.803922%,20.784314%,67.058824%);fill-opacity:1;" d="M 2.542969 37.15625 L 45.441406 37.15625 L 45.441406 39.378906 L 2.542969 39.378906 Z M 2.542969 37.15625 "/>
<path style=" stroke:none;fill-rule:nonzero;fill:rgb(89.803922%,20.784314%,67.058824%);fill-opacity:1;" d="M 24.851562 50.777344 L 3.394531 38.40625 L 4.503906 36.480469 L 25.960938 48.855469 Z M 43.488281 18.53125 L 22.03125 6.160156 L 23.144531 4.234375 L 44.601562 16.609375 Z M 43.488281 18.53125 "/>
<path style=" stroke:none;fill-rule:nonzero;fill:rgb(89.803922%,20.784314%,67.058824%);fill-opacity:1;" d="M 4.511719 18.523438 L 3.398438 16.601562 L 24.855469 4.226562 L 25.96875 6.148438 Z M 4.511719 18.523438 "/>
<path style=" stroke:none;fill-rule:nonzero;fill:rgb(89.803922%,20.784314%,67.058824%);fill-opacity:1;" d="M 43.09375 41.230469 L 21.644531 4.128906 L 23.570312 3.019531 L 45.019531 40.121094 Z M 4.246094 15.128906 L 6.46875 15.128906 L 6.46875 39.871094 L 4.246094 39.871094 Z M 4.246094 15.128906 "/>
<path style=" stroke:none;fill-rule:nonzero;fill:rgb(89.803922%,20.784314%,67.058824%);fill-opacity:1;" d="M 41.53125 15.128906 L 43.753906 15.128906 L 43.753906 39.871094 L 41.53125 39.871094 Z M 41.53125 15.128906 "/>
<path style=" stroke:none;fill-rule:nonzero;fill:rgb(89.803922%,20.784314%,67.058824%);fill-opacity:1;" d="M 24.472656 49.835938 L 23.5 48.15625 L 42.164062 37.398438 L 43.132812 39.078125 Z M 24.472656 49.835938 "/>
<path style=" stroke:none;fill-rule:nonzero;fill:rgb(89.803922%,20.784314%,67.058824%);fill-opacity:1;" d="M 46.699219 40.59375 C 45.414062 42.828125 42.550781 43.589844 40.3125 42.308594 C 38.074219 41.023438 37.3125 38.160156 38.597656 35.925781 C 39.882812 33.691406 42.75 32.929688 44.988281 34.214844 C 47.238281 35.511719 48 38.359375 46.699219 40.59375 M 9.386719 19.074219 C 8.101562 21.308594 5.238281 22.070312 3 20.785156 C 0.761719 19.5 0 16.640625 1.285156 14.40625 C 2.570312 12.171875 5.4375 11.410156 7.675781 12.691406 C 9.910156 13.992188 10.675781 16.839844 9.386719 19.074219 M 1.300781 40.59375 C 0.0117188 38.359375 0.777344 35.511719 3.011719 34.214844 C 5.25 32.929688 8.101562 33.691406 9.402344 35.925781 C 10.6875 38.160156 9.925781 41.007812 7.6875 42.308594 C 5.4375 43.589844 2.585938 42.828125 1.300781 40.59375 M 38.613281 19.074219 C 37.324219 16.839844 38.089844 13.992188 40.324219 12.691406 C 42.5625 11.410156 45.414062 12.171875 46.714844 14.40625 C 48 16.640625 47.238281 19.488281 45 20.785156 C 42.761719 22.070312 39.898438 21.308594 38.613281 19.074219 M 24 53.6875 C 21.414062 53.6875 19.324219 51.601562 19.324219 49.019531 C 19.324219 46.441406 21.414062 44.351562 24 44.351562 C 26.585938 44.351562 28.675781 46.441406 28.675781 49.019531 C 28.675781 51.589844 26.585938 53.6875 24 53.6875 M 24 10.648438 C 21.414062 10.648438 19.324219 8.558594 19.324219 5.980469 C 19.324219 3.398438 21.414062 1.3125 24 1.3125 C 26.585938 1.3125 28.675781 3.398438 28.675781 5.980469 C 28.675781 8.558594 26.585938 10.648438 24 10.648438 "/>
</g>
</svg>
