<?xml version="1.0" encoding="UTF-8"?>
<svg xmlns="http://www.w3.org/2000/svg" xmlns:xlink="http://www.w3.org/1999/xlink" width="40px" height="40px" viewBox="0 0 40 40" version="1.1">
<g id="surface1">
<path style=" stroke:none;fill-rule:nonzero;fill:rgb(89.803922%,20.784314%,67.058824%);fill-opacity:1;" d="M 5.746094 30.265625 L 4.308594 29.4375 L 20.324219 1.699219 L 21.761719 2.527344 Z M 5.746094 30.265625 "/>
<path style=" stroke:none;fill-rule:nonzero;fill:rgb(89.803922%,20.784314%,67.058824%);fill-opacity:1;" d="M 3.980469 27.21875 L 36.011719 27.21875 L 36.011719 28.878906 L 3.980469 28.878906 Z M 3.980469 27.21875 "/>
<path style=" stroke:none;fill-rule:nonzero;fill:rgb(89.803922%,20.784314%,67.058824%);fill-opacity:1;" d="M 20.636719 37.402344 L 4.613281 28.152344 L 5.445312 26.714844 L 21.464844 35.964844 Z M 20.636719 37.402344 "/>
<path style=" stroke:none;fill-rule:nonzero;fill:rgb(89.803922%,20.784314%,67.058824%);fill-opacity:1;" d="M 34.550781 13.292969 L 18.53125 4.042969 L 19.359375 2.605469 L 35.382812 11.855469 Z M 34.550781 13.292969 "/>
<path style=" stroke:none;fill-rule:nonzero;fill:rgb(89.803922%,20.784314%,67.058824%);fill-opacity:1;" d="M 5.449219 13.289062 L 4.617188 11.851562 L 20.640625 2.601562 L 21.46875 4.039062 Z M 5.449219 13.289062 "/>
<path style=" stroke:none;fill-rule:nonzero;fill:rgb(89.803922%,20.784314%,67.058824%);fill-opacity:1;" d="M 34.257812 30.265625 L 18.242188 2.527344 L 19.679688 1.699219 L 35.695312 29.4375 Z M 34.257812 30.265625 "/>
<path style=" stroke:none;fill-rule:nonzero;fill:rgb(89.803922%,20.784314%,67.058824%);fill-opacity:1;" d="M 5.25 10.75 L 6.910156 10.75 L 6.910156 29.25 L 5.25 29.25 Z M 5.25 10.75 "/>
<path style=" stroke:none;fill-rule:nonzero;fill:rgb(89.803922%,20.784314%,67.058824%);fill-opacity:1;" d="M 33.089844 10.75 L 34.75 10.75 L 34.75 29.25 L 33.089844 29.25 Z M 33.089844 10.75 "/>
<path style=" stroke:none;fill-rule:nonzero;fill:rgb(89.803922%,20.784314%,67.058824%);fill-opacity:1;" d="M 20.351562 36.699219 L 19.628906 35.445312 L 33.5625 27.398438 L 34.285156 28.65625 Z M 20.351562 36.699219 "/>
<path style=" stroke:none;fill-rule:nonzero;fill:rgb(89.803922%,20.784314%,67.058824%);fill-opacity:1;" d="M 36.949219 29.789062 C 35.988281 31.460938 33.851562 32.03125 32.179688 31.070312 C 30.511719 30.109375 29.941406 27.96875 30.898438 26.300781 C 31.859375 24.628906 34 24.058594 35.671875 25.019531 C 37.351562 25.988281 37.921875 28.121094 36.949219 29.789062 "/>
<path style=" stroke:none;fill-rule:nonzero;fill:rgb(89.803922%,20.784314%,67.058824%);fill-opacity:1;" d="M 9.089844 13.699219 C 8.128906 15.371094 5.988281 15.941406 4.320312 14.980469 C 2.648438 14.019531 2.078125 11.878906 3.039062 10.210938 C 4 8.539062 6.140625 7.96875 7.808594 8.929688 C 9.480469 9.898438 10.050781 12.03125 9.089844 13.699219 "/>
<path style=" stroke:none;fill-rule:nonzero;fill:rgb(89.803922%,20.784314%,67.058824%);fill-opacity:1;" d="M 3.050781 29.789062 C 2.089844 28.121094 2.660156 25.988281 4.328125 25.019531 C 6 24.058594 8.128906 24.628906 9.101562 26.300781 C 10.058594 27.96875 9.488281 30.101562 7.820312 31.070312 C 6.140625 32.03125 4.011719 31.460938 3.050781 29.789062 "/>
<path style=" stroke:none;fill-rule:nonzero;fill:rgb(89.803922%,20.784314%,67.058824%);fill-opacity:1;" d="M 30.910156 13.699219 C 29.949219 12.03125 30.519531 9.898438 32.191406 8.929688 C 33.859375 7.96875 35.988281 8.539062 36.960938 10.210938 C 37.921875 11.878906 37.351562 14.011719 35.679688 14.980469 C 34.011719 15.941406 31.871094 15.371094 30.910156 13.699219 "/>
<path style=" stroke:none;fill-rule:nonzero;fill:rgb(89.803922%,20.784314%,67.058824%);fill-opacity:1;" d="M 20 39.578125 C 18.070312 39.578125 16.511719 38.019531 16.511719 36.089844 C 16.511719 34.160156 18.070312 32.601562 20 32.601562 C 21.929688 32.601562 23.488281 34.160156 23.488281 36.089844 C 23.488281 38.011719 21.929688 39.578125 20 39.578125 "/>
<path style=" stroke:none;fill-rule:nonzero;fill:rgb(89.803922%,20.784314%,67.058824%);fill-opacity:1;" d="M 20 7.398438 C 18.070312 7.398438 16.511719 5.839844 16.511719 3.910156 C 16.511719 1.980469 18.070312 0.421875 20 0.421875 C 21.929688 0.421875 23.488281 1.980469 23.488281 3.910156 C 23.488281 5.839844 21.929688 7.398438 20 7.398438 "/>
</g>
</svg>
