<?xml version="1.0" encoding="UTF-8"?>
<svg xmlns="http://www.w3.org/2000/svg" xmlns:xlink="http://www.w3.org/1999/xlink" width="55px" height="55px" viewBox="0 0 55 55" version="1.1">
<g id="surface1">
<path style=" stroke:none;fill-rule:nonzero;fill:rgb(55.294118%,55.686275%,57.254902%);fill-opacity:1;" d="M 31.433594 16.128906 C 31.054688 16.148438 30.742188 16.433594 30.679688 16.816406 C 30.679688 16.816406 28.09375 34.046875 27.824219 34.046875 C 27.558594 34.046875 24.886719 21.097656 24.886719 21.097656 C 24.808594 20.753906 24.523438 20.496094 24.183594 20.464844 C 23.839844 20.433594 23.515625 20.632812 23.375 20.957031 L 20.707031 27.3125 L 19.183594 27.3125 C 18.871094 26.632812 18.203125 26.160156 17.425781 26.160156 C 16.355469 26.175781 15.496094 27.078125 15.496094 28.179688 C 15.496094 29.285156 16.355469 30.183594 17.425781 30.199219 C 18.238281 30.199219 18.933594 29.6875 19.226562 28.960938 L 21.230469 28.960938 C 21.550781 28.960938 21.839844 28.765625 21.964844 28.464844 C 21.964844 28.464844 23.695312 23.902344 23.882812 23.902344 C 24.070312 23.902344 27.171875 38.394531 27.171875 38.394531 C 27.253906 38.769531 27.578125 39.03125 27.949219 39.03125 C 28.351562 39.019531 28.671875 38.734375 28.738281 38.34375 C 28.738281 38.34375 31.398438 20.871094 31.628906 20.871094 C 31.859375 20.871094 34.53125 32.347656 34.53125 32.347656 C 34.617188 32.695312 34.914062 32.945312 35.261719 32.964844 C 35.609375 32.980469 35.929688 32.765625 36.054688 32.429688 L 38.167969 26.601562 L 39.574219 28.835938 C 39.695312 27.792969 39.667969 26.742188 39.503906 25.679688 L 38.660156 24.3125 C 38.496094 24.046875 38.203125 23.898438 37.902344 23.933594 C 37.597656 23.964844 37.339844 24.171875 37.234375 24.464844 L 35.441406 29.410156 L 32.242188 16.746094 C 32.148438 16.382812 31.828125 16.128906 31.464844 16.128906 C 31.453125 16.128906 31.441406 16.128906 31.433594 16.128906 Z M 31.433594 16.128906 "/>
<path style=" stroke:none;fill-rule:nonzero;fill:rgb(76.862745%,13.333333%,18.431373%);fill-opacity:1;" d="M 27.5 46.195312 C 17.566406 46.195312 9.515625 37.839844 9.515625 27.527344 C 9.515625 17.21875 17.566406 8.859375 27.5 8.859375 C 37.433594 8.859375 45.484375 17.21875 45.484375 27.527344 C 45.484375 37.839844 37.433594 46.195312 27.5 46.195312 M 27.5 0.121094 C 12.3125 0.121094 0 12.40625 0 27.558594 C 0 42.714844 12.3125 55 27.5 55 C 42.6875 55 55 42.714844 55 27.558594 C 55 12.40625 42.6875 0.121094 27.5 0.121094 "/>
</g>
</svg>
