<?xml version="1.0" encoding="UTF-8"?>
<svg xmlns="http://www.w3.org/2000/svg" xmlns:xlink="http://www.w3.org/1999/xlink" width="px" height="55px" viewBox="0 0 135 55" version="1.1">
<defs>
<linearGradient id="linear0" gradientUnits="userSpaceOnUse" x1="1" y1="0" x2="0" y2="1" gradientTransform="matrix(-18.780925,-18.694914,18.641809,-18.834437,9.425027,28.147488)">
<stop offset="0" style="stop-color:rgb(44.705882%,78.823529%,78.823529%);stop-opacity:1;"/>
<stop offset="1" style="stop-color:rgb(0.784314%,69.019608%,67.843137%);stop-opacity:1;"/>
</linearGradient>
<linearGradient id="linear1" gradientUnits="userSpaceOnUse" x1="1" y1="0" x2="-0.000000000000000888" y2="1" gradientTransform="matrix(-11.015258,-10.964811,10.933647,-11.046626,34.962681,20.277203)">
<stop offset="0" style="stop-color:rgb(1.176471%,71.372549%,70.588235%);stop-opacity:1;"/>
<stop offset="1" style="stop-color:rgb(45.490196%,79.607843%,79.215686%);stop-opacity:1;"/>
</linearGradient>
</defs>
<g id="surface1">
<path style=" stroke:none;fill-rule:nonzero;fill:rgb(14.117647%,29.411765%,35.294118%);fill-opacity:1;" d="M 14.945312 47.5625 C 15.945312 48.898438 17.25 49.980469 18.746094 50.71875 C 20.367188 51.523438 22.152344 51.929688 23.957031 51.90625 C 25.417969 51.941406 26.875 51.695312 28.238281 51.171875 C 29.332031 50.742188 30.304688 50.058594 31.085938 49.175781 C 31.816406 48.320312 32.347656 47.3125 32.644531 46.222656 C 32.972656 45.046875 33.132812 43.832031 33.125 42.613281 L 33.125 38.371094 L 33.023438 38.371094 C 32.078125 39.875 30.710938 41.070312 29.09375 41.804688 C 27.554688 42.476562 25.890625 42.820312 24.210938 42.8125 C 22.5625 42.828125 20.929688 42.519531 19.402344 41.90625 C 17.953125 41.328125 16.628906 40.480469 15.5 39.40625 C 14.375 38.324219 13.484375 37.027344 12.878906 35.589844 C 12.234375 34.074219 11.910156 32.441406 11.921875 30.792969 C 11.910156 29.152344 12.214844 27.519531 12.828125 25.996094 C 13.410156 24.554688 14.253906 23.234375 15.320312 22.109375 C 16.390625 20.988281 17.675781 20.105469 19.097656 19.507812 C 20.621094 18.871094 22.257812 18.554688 23.910156 18.574219 C 24.660156 18.578125 25.410156 18.644531 26.148438 18.773438 C 26.960938 18.917969 27.757812 19.152344 28.515625 19.480469 C 30.316406 20.265625 31.875 21.519531 33.023438 23.117188 L 33.125 23.117188 L 33.125 19.179688 L 36.449219 19.179688 L 36.449219 42.613281 C 36.4375 43.988281 36.277344 45.359375 35.96875 46.703125 C 35.648438 48.152344 35.011719 49.515625 34.105469 50.691406 C 33.074219 51.988281 31.757812 53.027344 30.253906 53.722656 C 28.609375 54.53125 26.460938 54.933594 23.808594 54.933594 C 21.652344 54.972656 19.511719 54.578125 17.511719 53.773438 C 15.597656 52.949219 13.882812 51.730469 12.476562 50.1875 Z M 15.546875 30.695312 C 15.539062 31.898438 15.769531 33.089844 16.230469 34.203125 C 16.664062 35.269531 17.296875 36.246094 18.089844 37.082031 C 18.882812 37.910156 19.820312 38.578125 20.863281 39.050781 C 21.945312 39.546875 23.121094 39.796875 24.3125 39.785156 C 26.667969 39.792969 28.9375 38.898438 30.65625 37.285156 C 31.5 36.484375 32.164062 35.511719 32.59375 34.429688 C 33.0625 33.242188 33.277344 31.96875 33.226562 30.695312 C 33.234375 29.496094 33.027344 28.308594 32.621094 27.183594 C 32.234375 26.113281 31.632812 25.136719 30.859375 24.304688 C 30.0625 23.460938 29.101562 22.792969 28.039062 22.335938 C 26.859375 21.832031 25.589844 21.582031 24.3125 21.601562 C 23.121094 21.589844 21.945312 21.839844 20.863281 22.335938 C 19.824219 22.808594 18.882812 23.476562 18.089844 24.304688 C 17.296875 25.140625 16.664062 26.117188 16.226562 27.183594 C 15.769531 28.296875 15.539062 29.488281 15.546875 30.695312 Z M 49.992188 42.8125 L 46.367188 42.8125 L 46.367188 7.058594 L 57.347656 7.058594 C 60.972656 7.058594 63.835938 7.847656 65.933594 9.429688 C 68.03125 11.015625 69.082031 13.40625 69.082031 16.601562 C 69.144531 18.925781 68.304688 21.179688 66.738281 22.890625 C 65.175781 24.589844 62.917969 25.574219 59.964844 25.84375 L 70.238281 42.8125 L 65.808594 42.8125 L 56.039062 26.199219 L 49.996094 26.199219 Z M 49.992188 22.867188 L 56.441406 22.867188 C 57.824219 22.894531 59.207031 22.722656 60.542969 22.359375 C 61.523438 22.097656 62.4375 21.644531 63.238281 21.023438 C 63.886719 20.5 64.386719 19.824219 64.699219 19.050781 C 65.003906 18.273438 65.160156 17.441406 65.152344 16.601562 C 65.15625 15.78125 65.003906 14.96875 64.699219 14.203125 C 64.382812 13.429688 63.882812 12.742188 63.238281 12.207031 C 62.445312 11.574219 61.527344 11.121094 60.542969 10.871094 C 59.203125 10.523438 57.824219 10.363281 56.441406 10.390625 L 49.992188 10.390625 Z M 76.484375 7.058594 L 86.855469 7.058594 C 90.484375 7.058594 93.34375 7.847656 95.441406 9.429688 C 97.542969 11.015625 98.589844 13.40625 98.589844 16.601562 C 98.589844 19.800781 97.542969 22.199219 95.441406 23.800781 C 93.34375 25.398438 90.484375 26.199219 86.855469 26.199219 L 80.109375 26.199219 L 80.109375 42.8125 L 76.484375 42.8125 Z M 80.109375 22.867188 L 85.953125 22.867188 C 87.335938 22.894531 88.71875 22.726562 90.054688 22.359375 C 91.03125 22.097656 91.949219 21.644531 92.75 21.023438 C 93.394531 20.5 93.898438 19.824219 94.210938 19.054688 C 94.515625 18.273438 94.671875 17.441406 94.664062 16.601562 C 94.667969 15.78125 94.511719 14.96875 94.210938 14.203125 C 93.894531 13.429688 93.394531 12.742188 92.75 12.210938 C 91.957031 11.574219 91.039062 11.121094 90.054688 10.871094 C 88.714844 10.523438 87.335938 10.363281 85.953125 10.390625 L 80.109375 10.390625 Z M 135 37.15625 C 134.363281 38.105469 133.609375 38.972656 132.757812 39.734375 C 131.839844 40.5625 130.816406 41.265625 129.710938 41.828125 C 128.535156 42.433594 127.292969 42.898438 126.011719 43.21875 C 124.636719 43.5625 123.222656 43.730469 121.804688 43.722656 C 119.277344 43.746094 116.769531 43.265625 114.429688 42.308594 C 109.964844 40.5 106.425781 36.945312 104.632812 32.460938 C 103.675781 30.070312 103.195312 27.511719 103.222656 24.9375 C 103.195312 22.359375 103.675781 19.800781 104.632812 17.410156 C 106.425781 12.929688 109.964844 9.371094 114.429688 7.5625 C 116.769531 6.605469 119.277344 6.125 121.804688 6.148438 C 124.085938 6.160156 126.339844 6.605469 128.453125 7.460938 C 130.707031 8.367188 132.675781 9.867188 134.144531 11.804688 L 130.972656 14.179688 C 130.546875 13.542969 130.039062 12.964844 129.460938 12.460938 C 128.792969 11.871094 128.058594 11.359375 127.269531 10.945312 C 126.429688 10.5 125.542969 10.144531 124.625 9.886719 C 123.710938 9.621094 122.761719 9.484375 121.804688 9.480469 C 119.691406 9.445312 117.59375 9.878906 115.664062 10.746094 C 113.910156 11.542969 112.339844 12.695312 111.054688 14.128906 C 109.78125 15.566406 108.796875 17.238281 108.160156 19.050781 C 106.816406 22.859375 106.816406 27.011719 108.160156 30.820312 C 108.796875 32.632812 109.78125 34.304688 111.054688 35.742188 C 112.339844 37.179688 113.910156 38.332031 115.664062 39.128906 C 117.59375 39.992188 119.691406 40.425781 121.804688 40.390625 C 122.742188 40.390625 123.679688 40.304688 124.601562 40.136719 C 125.539062 39.964844 126.453125 39.675781 127.320312 39.277344 C 128.234375 38.859375 129.082031 38.304688 129.839844 37.636719 C 130.6875 36.878906 131.425781 36.003906 132.027344 35.035156 Z M 135 37.15625 "/>
<path style=" stroke:none;fill-rule:nonzero;fill:url(#linear0);" d="M 9.390625 18.765625 L 0 9.417969 L 9.320312 0 L 18.710938 9.347656 Z M 9.390625 18.765625 "/>
<path style=" stroke:none;fill-rule:nonzero;fill:url(#linear1);" d="M 34.941406 14.773438 L 29.433594 9.292969 L 34.902344 3.769531 L 40.410156 9.25 Z M 34.941406 14.773438 "/>
<path style=" stroke:none;fill-rule:nonzero;fill:rgb(14.117647%,29.411765%,35.294118%);fill-opacity:1;" d="M 9.730469 3.710938 L 4.085938 9.414062 L 9.773438 15.074219 L 14.585938 15.054688 L 9.539062 10.035156 L 34.449219 9.945312 L 32.269531 12.148438 L 34.671875 12.140625 L 37.496094 9.289062 L 34.652344 6.457031 L 32.246094 6.464844 L 34.445312 8.65625 L 9.535156 8.746094 L 14.542969 3.691406 Z M 9.730469 3.710938 "/>
</g>
</svg>
