<?xml version="1.0" encoding="UTF-8"?>
<svg xmlns="http://www.w3.org/2000/svg" xmlns:xlink="http://www.w3.org/1999/xlink" width="40px" height="40px" viewBox="0 0 40 16" version="1.1">
<g id="surface1">
<path style=" stroke:none;fill-rule:evenodd;fill:rgb(17.647059%,65.098039%,69.019608%);fill-opacity:1;" d="M 16.609375 9.011719 L 17.363281 9.011719 C 17.597656 9.011719 17.78125 8.980469 17.921875 8.921875 C 18.058594 8.863281 18.164062 8.777344 18.238281 8.664062 C 18.3125 8.554688 18.363281 8.414062 18.386719 8.253906 C 18.414062 8.089844 18.425781 7.898438 18.425781 7.683594 C 18.425781 7.46875 18.414062 7.277344 18.386719 7.117188 C 18.363281 6.953125 18.308594 6.8125 18.226562 6.695312 C 18.144531 6.582031 18.027344 6.496094 17.882812 6.4375 C 17.738281 6.382812 17.539062 6.355469 17.296875 6.355469 L 16.609375 6.355469 Z M 15.285156 5.15625 L 17.414062 5.15625 C 18.972656 5.15625 19.75 6.027344 19.75 7.765625 C 19.75 8.28125 19.667969 8.722656 19.496094 9.09375 C 19.328125 9.464844 19.03125 9.761719 18.609375 9.988281 L 20.035156 14.042969 L 18.632812 14.042969 L 17.382812 10.183594 L 16.609375 10.183594 L 16.609375 14.042969 L 15.285156 14.042969 Z M 20.816406 5.15625 L 22.800781 5.15625 C 23.167969 5.15625 23.484375 5.203125 23.761719 5.292969 C 24.035156 5.386719 24.289062 5.546875 24.511719 5.78125 C 24.738281 6.011719 24.898438 6.292969 24.980469 6.597656 C 25.066406 6.910156 25.109375 7.332031 25.109375 7.867188 C 25.109375 8.257812 25.078125 8.535156 25.03125 8.816406 C 24.984375 9.09375 24.828125 9.578125 24.226562 9.90625 C 23.847656 10.113281 23.304688 10.1875 22.8125 10.1875 L 22.136719 10.1875 L 22.136719 14.042969 L 20.816406 14.042969 Z M 22.136719 9.011719 L 22.773438 9.011719 C 23.042969 9.011719 23.25 8.980469 23.398438 8.914062 C 23.546875 8.847656 23.652344 8.757812 23.722656 8.644531 C 23.789062 8.53125 23.832031 8.394531 23.84375 8.234375 C 23.859375 8.070312 23.863281 7.890625 23.863281 7.695312 C 23.863281 7.511719 23.859375 7.335938 23.84375 7.171875 C 23.832031 7.007812 23.792969 6.867188 23.726562 6.742188 C 23.664062 6.621094 23.5625 6.527344 23.421875 6.457031 C 23.285156 6.390625 23.085938 6.355469 22.828125 6.355469 L 22.140625 6.355469 Z M 30.300781 12.058594 C 30.300781 12.332031 30.246094 12.59375 30.136719 12.84375 C 30.03125 13.09375 29.878906 13.3125 29.691406 13.5 C 29.5 13.6875 29.273438 13.839844 29.023438 13.949219 C 28.761719 14.0625 28.480469 14.121094 28.199219 14.117188 C 27.945312 14.117188 27.691406 14.085938 27.433594 14.019531 C 27.175781 13.953125 26.9375 13.835938 26.730469 13.675781 C 26.523438 13.511719 26.351562 13.296875 26.21875 13.03125 C 26.085938 12.765625 26.019531 12.429688 26.019531 12.019531 L 26.019531 7.125 C 26.019531 6.835938 26.070312 6.5625 26.171875 6.3125 C 26.277344 6.0625 26.425781 5.847656 26.613281 5.664062 C 26.804688 5.480469 27.03125 5.339844 27.296875 5.234375 C 27.558594 5.128906 27.851562 5.078125 28.171875 5.078125 C 28.476562 5.078125 28.757812 5.128906 29.015625 5.234375 C 29.273438 5.339844 29.5 5.484375 29.691406 5.671875 C 29.878906 5.859375 30.03125 6.082031 30.136719 6.34375 C 30.246094 6.605469 30.300781 6.886719 30.300781 7.199219 L 30.300781 7.699219 L 28.976562 7.699219 L 28.976562 7.273438 C 28.976562 7.023438 28.902344 6.808594 28.757812 6.625 C 28.617188 6.445312 28.394531 6.34375 28.160156 6.351562 C 27.832031 6.351562 27.613281 6.449219 27.503906 6.644531 C 27.394531 6.839844 27.339844 7.085938 27.339844 7.386719 L 27.339844 11.929688 C 27.339844 12.1875 27.398438 12.40625 27.515625 12.578125 C 27.632812 12.753906 27.84375 12.839844 28.144531 12.839844 C 28.234375 12.839844 28.328125 12.828125 28.425781 12.796875 C 28.523438 12.769531 28.617188 12.722656 28.699219 12.652344 C 28.78125 12.585938 28.847656 12.496094 28.898438 12.378906 C 28.949219 12.261719 28.976562 12.117188 28.976562 11.941406 L 28.976562 11.503906 L 30.300781 11.503906 Z M 32.894531 9.589844 C 32.894531 9.265625 32.621094 9 32.285156 9 L 28.976562 9 L 28.976562 10.175781 L 31.671875 10.175781 L 31.671875 11.484375 L 31.257812 11.484375 L 32.289062 12.886719 L 33.324219 11.484375 L 32.894531 11.484375 Z M 9.679688 10.1875 L 9.679688 11.945312 C 9.679688 12.3125 9.746094 12.628906 9.875 12.902344 C 10.003906 13.171875 10.175781 13.394531 10.386719 13.574219 C 10.601562 13.753906 10.835938 13.890625 11.101562 13.980469 C 11.355469 14.070312 11.625 14.117188 11.898438 14.117188 C 12.171875 14.117188 12.441406 14.070312 12.695312 13.980469 C 12.960938 13.890625 13.199219 13.753906 13.410156 13.574219 C 13.621094 13.394531 13.792969 13.171875 13.921875 12.902344 C 14.054688 12.628906 14.117188 12.3125 14.117188 11.945312 L 14.117188 9.015625 L 11.746094 9.011719 L 11.742188 10.1875 L 12.792969 10.1875 L 12.792969 11.945312 C 12.792969 12.253906 12.703125 12.480469 12.527344 12.625 C 12.351562 12.769531 12.128906 12.847656 11.898438 12.84375 C 11.667969 12.847656 11.445312 12.769531 11.269531 12.625 C 11.089844 12.480469 11.003906 12.253906 11.003906 11.945312 L 11.003906 7.253906 C 11.003906 6.945312 11.089844 6.71875 11.269531 6.574219 C 11.445312 6.429688 11.667969 6.351562 11.898438 6.355469 C 12.128906 6.351562 12.351562 6.429688 12.527344 6.574219 C 12.703125 6.71875 12.792969 6.945312 12.792969 7.253906 L 12.792969 7.703125 L 14.117188 7.703125 L 14.117188 7.253906 C 14.117188 6.894531 14.050781 6.578125 13.921875 6.304688 C 13.792969 6.03125 13.621094 5.804688 13.410156 5.625 C 13.199219 5.445312 12.960938 5.308594 12.695312 5.21875 C 12.441406 5.128906 12.171875 5.082031 11.898438 5.082031 C 11.625 5.082031 11.355469 5.128906 11.101562 5.21875 C 10.835938 5.308594 10.597656 5.445312 10.386719 5.625 C 10.175781 5.804688 10.003906 6.03125 9.875 6.304688 C 9.746094 6.578125 9.679688 6.894531 9.679688 7.253906 L 9.679688 9.011719 L 8.328125 9.011719 L 8.328125 7.703125 L 8.742188 7.703125 L 7.710938 6.300781 L 6.675781 7.703125 L 7.105469 7.703125 L 7.105469 9.601562 C 7.105469 9.925781 7.378906 10.1875 7.714844 10.1875 Z M 9.679688 10.1875 "/>
</g>
</svg>
