<?xml version="1.0" encoding="UTF-8"?>
<svg xmlns="http://www.w3.org/2000/svg" xmlns:xlink="http://www.w3.org/1999/xlink" width="px" height="55px" viewBox="0 0 73 55" version="1.1">
<g id="surface1">
<path style=" stroke:none;fill-rule:nonzero;fill:rgb(100%,100%,0%);fill-opacity:1;" d="M 27.066406 12.085938 L 22.230469 12.875 L 17.820312 14.816406 L 14.074219 17.183594 L 10.507812 21.554688 L 8.492188 23.699219 L 6.546875 24.417969 L 6.03125 23.15625 L 6.929688 21.847656 L 7.132812 20.007812 L 7.738281 20.03125 L 8.394531 20.636719 L 8.21875 18.757812 L 7.488281 18.265625 L 7.511719 17.550781 L 5.777344 18.535156 L 4.210938 20.394531 L 3.882812 22.054688 L 4.554688 23.382812 L 5.179688 25.640625 L 6.453125 26.246094 L 7.789062 26.179688 L 9.058594 25.441406 L 8.210938 29.75 L 9.058594 34.546875 L 8.125 36.761719 L 5.074219 40.0625 L 5.617188 42.035156 L 7.0625 44.320312 L 9.789062 46.246094 L 11.234375 46.445312 L 12.839844 46.5 L 11.835938 50.636719 L 15.523438 52.152344 L 20.117188 52.757812 L 21.6875 51.726562 L 21.808594 48.933594 L 23.5625 46.019531 L 23.683594 43.714844 L 27.914062 44.015625 L 31.839844 43.652344 L 27.914062 46.019531 L 28.578125 48.875 L 31.054688 52.757812 L 33.472656 53.792969 L 35.40625 53.003906 L 36.191406 51.425781 L 40.242188 48.328125 L 41.027344 48.996094 L 47.371094 49.238281 L 48.640625 48.207031 L 48.761719 46.386719 L 48.339844 45.597656 L 48.035156 40.679688 L 45.921875 36.429688 L 46.285156 34.546875 L 47.554688 35.214844 L 51.117188 38.554688 L 52.871094 38.675781 L 54.804688 37.886719 L 56.738281 36.429688 L 57.707031 33.273438 L 63.386719 33.636719 L 66.832031 32.300781 L 69.609375 29.691406 L 71.605469 25.925781 L 72.089844 21.496094 L 71.664062 16.335938 L 70.578125 11.722656 L 69.492188 10.265625 L 67.980469 9.777344 L 65.320312 12.691406 L 62.902344 13.542969 L 60.789062 10.019531 L 58.671875 8.078125 L 57.523438 7.351562 L 52.929688 3.523438 L 49.246094 1.519531 L 45.558594 1.21875 L 41.269531 1.945312 L 37.519531 3.34375 L 34.921875 5.46875 L 32.867188 7.957031 L 30.753906 8.5625 L 27.066406 12.085938 "/>
<path style=" stroke:none;fill-rule:nonzero;fill:rgb(100%,100%,80%);fill-opacity:1;" d="M 13.046875 23.042969 C 8.902344 27.894531 9.824219 33.777344 10.972656 39.542969 C 10.359375 37.988281 9.746094 36.433594 9.132812 34.878906 L 8.457031 30.605469 C 8.519531 29.148438 8.585938 27.691406 8.652344 26.234375 L 10.390625 22.054688 L 13.003906 18.167969 L 17.066406 14.765625 L 21.515625 12.921875 L 26.738281 12.242188 L 21.902344 17.78125 C 18.019531 19.042969 15.726562 19.898438 13.042969 23.042969 "/>
<path style=" stroke:none;fill-rule:nonzero;fill:rgb(100%,100%,80%);fill-opacity:1;" d="M 32.539062 8.257812 C 29.660156 11.078125 28.089844 13.207031 26.257812 16.511719 C 24.945312 18.875 23.476562 21.152344 22.097656 23.480469 C 21.402344 24.660156 21.335938 25.648438 21.128906 27.011719 L 19.097656 24.582031 C 19.417969 23.609375 19.742188 22.636719 20.0625 21.664062 L 23.351562 15.738281 L 30.316406 8.839844 C 31.058594 8.644531 31.800781 8.453125 32.539062 8.257812 M 46.757812 1.261719 C 44.453125 2.128906 40.625 2.417969 40.359375 5.074219 C 40.167969 6.964844 40.5 7.910156 41.632812 9.910156 C 38.835938 7 38.140625 7.449219 32.734375 8.355469 L 35.054688 5.050781 L 39.117188 2.523438 L 44.339844 1.359375 L 46.757812 1.261719 "/>
<path style=" stroke:none;fill-rule:nonzero;fill:rgb(80%,80%,0%);fill-opacity:1;" d="M 53.121094 37.222656 C 53.890625 37.699219 53.871094 38.042969 53.742188 38.371094 C 54.347656 38.128906 54.953125 37.882812 55.558594 37.640625 L 56.738281 36.054688 L 57.609375 33.792969 L 56.496094 32.949219 L 51.617188 33.574219 C 51.496094 33.90625 51.375 34.234375 51.253906 34.566406 C 51.285156 35.035156 51.320312 35.503906 51.355469 35.972656 C 51.511719 36.25 51.667969 36.527344 51.824219 36.808594 C 52.066406 36.929688 52.308594 37.050781 52.550781 37.171875 C 52.742188 37.1875 52.929688 37.207031 53.121094 37.222656 M 52.667969 28.84375 C 50.222656 29.550781 50.242188 29.746094 49.519531 32.183594 C 50.472656 30.648438 51.175781 29.871094 52.667969 28.84375 M 68.929688 10.601562 C 68.492188 10.804688 68.070312 10.902344 67.796875 11.300781 C 67.214844 12.160156 66.710938 12.886719 65.746094 13.488281 C 65.257812 13.792969 64.753906 13.988281 64.234375 14.152344 C 63.808594 14.285156 63.550781 14.164062 63.183594 14.429688 C 63.402344 14.464844 63.617188 14.503906 63.835938 14.542969 L 65.265625 14.542969 L 67.03125 13.449219 L 68.070312 12.351562 L 68.929688 10.601562 M 29.972656 16.054688 C 29.011719 18.699219 28.167969 20.96875 26.710938 23.359375 C 28.578125 21.339844 29.710938 19.621094 30.78125 17.335938 C 31.195312 16.449219 31.277344 15.40625 32.433594 15.792969 C 32.484375 16.679688 32.671875 17.566406 32.722656 18.453125 C 33.347656 13.949219 35.113281 12.066406 39.210938 10.320312 L 35.734375 10.738281 L 32.464844 11.46875 L 30.855469 13.8125 L 29.972656 16.054688 M 37.914062 15.949219 C 38.796875 20.128906 40.070312 24.140625 40.625 28.386719 C 40.980469 31.148438 41.019531 32.472656 39.640625 34.851562 C 38.128906 34.753906 37.191406 34.925781 35.730469 35.40625 C 29.917969 37.320312 26.582031 40.136719 22.664062 34.464844 L 26.414062 36.238281 C 27.308594 36.0625 28.199219 35.886719 29.089844 35.710938 C 30.664062 34.789062 32.238281 33.871094 33.8125 32.949219 L 37.5 32.21875 L 38.691406 27.214844 L 37.808594 20.589844 C 37.777344 19.546875 37.742188 18.507812 37.707031 17.464844 C 37.777344 16.960938 37.84375 16.453125 37.914062 15.949219 M 47.929688 41.8125 C 47.441406 45.207031 49.054688 47.035156 48.386719 47.972656 C 48.199219 48.238281 47.941406 48.699219 47.65625 48.828125 C 46.632812 49.28125 45.226562 48.742188 45.128906 49.007812 L 41.753906 49.007812 L 40.40625 48.433594 L 42.480469 45.984375 C 43.15625 44.507812 43.832031 43.027344 44.503906 41.550781 L 45.800781 37.066406 L 46.476562 37.066406 L 47.929688 41.8125 "/>
<path style=" stroke:none;fill-rule:nonzero;fill:rgb(80%,80%,0%);fill-opacity:1;" d="M 42.261719 31.941406 C 42.535156 33.480469 43.011719 33.847656 43.730469 35.339844 C 43.25 37.777344 42.480469 40.671875 41.550781 42.820312 C 41.160156 43.726562 40.84375 44.226562 40.152344 44.925781 C 38.984375 46.109375 37.808594 47.140625 36.484375 48.164062 C 35.53125 48.902344 34.867188 48.53125 33.695312 48.363281 C 33.195312 49.273438 33.054688 49.78125 32.136719 50.242188 C 30.722656 50.953125 29.457031 49.421875 28.347656 48.519531 C 29.148438 49.777344 29.949219 51.035156 30.75 52.292969 C 31.304688 52.8125 31.859375 53.335938 32.410156 53.855469 L 33.8125 54.066406 L 35.679688 52.917969 C 36.011719 52.292969 36.339844 51.667969 36.667969 51.042969 C 37.359375 50.519531 38.050781 50 38.742188 49.476562 C 39.59375 48.746094 40.441406 48.015625 41.289062 47.285156 L 42.894531 44.992188 L 44.347656 42.28125 C 44.972656 40.40625 45.59375 38.527344 46.21875 36.652344 C 46.269531 35.9375 46.320312 35.226562 46.375 34.511719 C 45.59375 34.164062 44.816406 33.816406 44.039062 33.46875 C 43.46875 32.929688 42.832031 32.480469 42.261719 31.941406 M 23.640625 42.804688 C 26.257812 42.804688 29.027344 42.65625 31.425781 41.550781 C 32.105469 40.527344 32.773438 39.691406 33.605469 38.789062 C 32.851562 40.222656 32.613281 41.035156 32.410156 42.648438 L 31.632812 43.792969 C 29.660156 43.84375 27.6875 43.898438 25.714844 43.949219 C 25.074219 43.878906 24.4375 43.8125 23.796875 43.742188 C 23.726562 43.671875 23.65625 43.601562 23.589844 43.53125 C 23.605469 43.289062 23.625 43.046875 23.640625 42.804688 M 23.277344 40.976562 L 23.074219 39.125 C 22.625 41.832031 22.734375 43.648438 21.492188 46.070312 C 20.566406 47.148438 19.425781 48.128906 18.121094 48.65625 C 18.230469 49.320312 18.265625 49.734375 18.199219 50.222656 C 17.96875 51.976562 14.480469 51.199219 13.042969 51.128906 L 19.957031 52.917969 L 21.511719 52.292969 C 21.6875 51.285156 21.859375 50.277344 22.03125 49.269531 L 23.484375 46.558594 L 23.742188 44.886719 L 23.277344 40.976562 M 19.382812 25.699219 C 19.3125 27.015625 19.226562 27.566406 19.804688 28.726562 C 20.539062 30.203125 21.441406 31.59375 22.238281 33.050781 L 22.5 30.132812 C 21.460938 28.65625 20.421875 27.179688 19.382812 25.703125 M 8.730469 35.640625 C 8.503906 36.121094 8.28125 36.601562 8.054688 37.082031 C 8.675781 39.175781 9.222656 40.5 10.402344 42.328125 C 10.195312 43.070312 10.042969 43.394531 9.570312 43.996094 C 8.535156 43.835938 7.613281 43.789062 6.5625 43.792969 C 7.722656 44.695312 8.882812 45.601562 10.042969 46.503906 C 10.613281 46.398438 11.183594 46.296875 11.753906 46.191406 L 13.46875 44.472656 L 11.027344 40.664062 C 10.261719 38.992188 9.496094 37.316406 8.730469 35.640625 M 68.933594 9.910156 C 69.640625 13.101562 70.550781 16.046875 70.46875 19.3125 C 70.363281 23.324219 69.585938 28.386719 65.886719 30.804688 C 61.746094 33.511719 56.886719 32.230469 52.34375 31.070312 L 57.894531 33.367188 C 59.625 33.453125 61.355469 33.539062 63.085938 33.625 C 64.261719 33.277344 65.441406 32.929688 66.617188 32.582031 C 67.53125 31.820312 68.449219 31.054688 69.367188 30.289062 L 71.441406 25.910156 L 72.222656 20.851562 C 72.015625 19.199219 71.804688 17.550781 71.597656 15.898438 L 70.457031 10.996094 C 69.949219 10.636719 69.441406 10.273438 68.933594 9.910156 M 7.136719 19.421875 C 5.257812 20.648438 4.519531 21.1875 4.726562 23.46875 L 5.285156 25.515625 L 6.082031 26.054688 L 7.066406 26.386719 L 8.847656 25.960938 C 9.152344 25.011719 9.457031 24.0625 9.761719 23.113281 L 7.230469 24.363281 L 6.644531 24.363281 C 6.425781 24.023438 6.207031 23.6875 5.988281 23.351562 L 6.785156 22.171875 L 7.207031 19.9375 C 7.386719 19.992188 7.566406 20.046875 7.746094 20.101562 C 7.964844 20.277344 8.183594 20.449219 8.402344 20.621094 L 8.308594 19.445312 L 7.863281 18.691406 C 7.714844 18.566406 7.566406 18.441406 7.417969 18.316406 L 7.136719 19.421875 M 49.3125 1.46875 C 50.984375 3.027344 53.03125 4.378906 54.367188 6.28125 C 54.882812 7.015625 55.457031 7.394531 54.355469 8.433594 C 55.519531 8.101562 55.949219 8.136719 56.878906 8.25 C 58.570312 8.457031 60.15625 10.871094 60.253906 12.601562 C 60.234375 12.761719 59.785156 13.128906 58.480469 13.492188 C 58.453125 13.542969 57.742188 13.394531 57.757812 13.445312 C 57.894531 13.816406 58.074219 13.875 58.351562 14.046875 C 58.414062 14.464844 58.453125 15.105469 58.734375 15.558594 C 59.554688 15.542969 60.359375 15.632812 61.167969 15.792969 C 61.4375 16.246094 61.394531 16.699219 61.375 17.148438 L 62.308594 16.992188 C 62.222656 16.28125 62.136719 15.570312 62.046875 14.855469 C 62.324219 14.386719 62.601562 13.917969 62.878906 13.449219 L 61.683594 10.738281 C 60.925781 10.007812 60.164062 9.277344 59.402344 8.546875 L 59.179688 8.535156 C 58.324219 8.007812 57.46875 7.480469 56.613281 6.953125 L 52.425781 3.511719 L 49.3125 1.46875 M 52.125 14.316406 C 52.035156 14.472656 51.902344 14.71875 51.734375 14.890625 C 52.429688 15.550781 52.773438 15.992188 53.019531 16.925781 C 52.234375 17.316406 51.449219 17.710938 50.664062 18.101562 L 48.667969 20.023438 C 47.792969 19.546875 47.574219 19.183594 47.152344 18.28125 C 46.660156 18.414062 46.191406 18.539062 45.785156 18.390625 C 46.042969 18.390625 46.203125 18.328125 46.460938 18.167969 L 47.730469 16.84375 C 48.476562 16.273438 49.222656 15.707031 49.96875 15.136719 L 51.4375 14.65625 C 51.625 14.582031 51.9375 14.394531 52.125 14.316406 "/>
<path style=" stroke:none;fill-rule:nonzero;fill:rgb(80%,80%,0%);fill-opacity:1;" d="M 54.292969 16.671875 C 51.792969 18.023438 49.402344 19.382812 48.121094 21.949219 C 48.121094 18.691406 51.378906 17.257812 54.292969 16.671875 M 47.625 10.261719 C 45.769531 11.53125 44.457031 14.097656 44.621094 16.597656 C 44.019531 14.433594 44.230469 12.386719 46.089844 10.890625 C 46.402344 10.738281 46.714844 10.585938 47.027344 10.433594 C 47.226562 10.375 47.425781 10.316406 47.625 10.261719 "/>
<path style=" stroke:none;fill-rule:nonzero;fill:rgb(0%,0%,0%);fill-opacity:1;" d="M 72.601562 16.164062 C 72.265625 14.03125 71.707031 11.960938 70.933594 10.472656 C 70.839844 10.292969 70.695312 10.105469 70.519531 9.929688 C 70.132812 9.550781 69.5625 9.1875 68.976562 8.984375 C 68.351562 8.769531 67.695312 8.726562 67.171875 9 C 67.039062 9.070312 66.914062 9.164062 66.800781 9.277344 C 66.460938 9.621094 66.175781 10.039062 65.890625 10.457031 C 65.574219 10.925781 65.253906 11.394531 64.871094 11.722656 C 64.429688 12.101562 63.875 12.332031 63.351562 12.542969 C 63.132812 12.007812 62.867188 11.492188 62.5625 11 C 62.207031 10.425781 61.796875 9.890625 61.351562 9.355469 C 61.023438 8.960938 60.652344 8.605469 60.242188 8.292969 C 59.859375 8 59.460938 7.75 59.003906 7.460938 C 57.769531 6.683594 56.71875 5.757812 55.644531 4.8125 C 55.160156 4.382812 54.667969 3.949219 54.1875 3.550781 C 51.632812 1.4375 49.253906 0.414062 46.707031 0.253906 C 44.179688 0.09375 41.507812 0.789062 38.355469 2.125 C 36.835938 2.765625 35.707031 3.527344 34.722656 4.441406 C 33.78125 5.3125 32.984375 6.320312 32.105469 7.496094 C 31.59375 7.53125 31.140625 7.609375 30.679688 7.792969 C 30.171875 7.996094 29.660156 8.328125 29.046875 8.871094 C 28.621094 9.25 28.199219 9.640625 27.792969 10.039062 C 27.417969 10.402344 27.046875 10.773438 26.6875 11.152344 C 23.816406 11.617188 21.480469 12.128906 19.382812 12.941406 C 17.242188 13.777344 15.355469 14.921875 13.417969 16.648438 C 12.652344 17.328125 11.957031 18.078125 11.339844 18.890625 C 10.75 19.667969 10.246094 20.484375 9.800781 21.34375 C 9.414062 21.773438 9.023438 22.210938 8.605469 22.589844 C 8.195312 22.960938 7.757812 23.273438 7.265625 23.464844 C 6.984375 23.574219 6.863281 23.636719 6.851562 23.632812 C 6.835938 23.625 6.828125 23.582031 6.808594 23.503906 C 7.511719 22.828125 7.625 21.839844 7.6875 20.855469 C 7.773438 20.957031 7.855469 21.082031 7.9375 21.210938 C 8.03125 21.355469 8.125 21.503906 8.242188 21.648438 L 8.71875 22.253906 L 8.886719 21.5 C 9.027344 20.867188 9.132812 20.023438 8.96875 19.292969 C 8.863281 18.820312 8.644531 18.398438 8.261719 18.097656 C 8.296875 18 8.332031 17.914062 8.367188 17.828125 C 8.484375 17.519531 8.609375 17.203125 8.714844 16.902344 L 8.921875 16.3125 L 8.304688 16.417969 C 7.484375 16.5625 5.726562 17.535156 4.484375 18.828125 C 4.023438 19.308594 3.628906 19.839844 3.367188 20.394531 C 3.097656 20.976562 2.976562 21.582031 3.082031 22.1875 C 3.171875 22.71875 3.4375 23.238281 3.917969 23.730469 C 4.003906 24.085938 4.085938 24.394531 4.171875 24.671875 C 4.269531 24.984375 4.375 25.269531 4.511719 25.546875 C 4.871094 26.300781 5.445312 26.761719 6.113281 26.976562 C 6.648438 27.148438 7.238281 27.15625 7.820312 27.027344 C 7.703125 27.722656 7.632812 28.425781 7.609375 29.128906 C 7.570312 30.113281 7.605469 31.199219 7.714844 32.460938 C 7.738281 32.738281 7.773438 33.042969 7.820312 33.375 C 7.859375 33.65625 7.90625 33.933594 7.957031 34.210938 C 7.851562 34.507812 7.742188 34.804688 7.632812 35.101562 L 7.125 36.488281 L 6.011719 37.597656 C 5.664062 37.941406 5.316406 38.289062 4.96875 38.632812 C 4.941406 38.664062 4.824219 38.773438 4.71875 38.878906 C 4.015625 39.558594 3.875 39.691406 4.074219 40.886719 C 4.203125 41.652344 4.453125 42.394531 4.8125 43.078125 C 5.15625 43.738281 5.621094 44.382812 6.214844 44.980469 C 6.957031 45.726562 8.171875 46.65625 9.441406 47.140625 C 10.171875 47.417969 10.917969 47.554688 11.621094 47.441406 C 11.585938 47.550781 11.550781 47.65625 11.511719 47.765625 C 11.402344 48.078125 11.277344 48.382812 11.140625 48.683594 C 10.277344 50.582031 11.164062 51.578125 12.542969 52.207031 C 13.230469 52.523438 14.050781 52.738281 14.8125 52.9375 C 14.96875 52.976562 15.121094 53.019531 15.320312 53.070312 C 16.21875 53.316406 17.777344 53.765625 19.199219 53.855469 C 20.753906 53.953125 22.152344 53.632812 22.527344 52.234375 C 22.675781 51.679688 22.761719 51.253906 22.796875 50.835938 C 22.828125 50.449219 22.816406 50.0625 22.773438 49.578125 C 23.214844 48.59375 23.402344 48.316406 23.726562 47.839844 C 23.789062 47.746094 23.867188 47.632812 23.890625 47.597656 C 24.234375 47.082031 24.398438 46.714844 24.457031 46.300781 C 24.515625 45.902344 24.464844 45.507812 24.394531 44.898438 C 24.386719 44.84375 24.378906 44.757812 24.363281 44.648438 C 25.257812 44.761719 26.15625 44.824219 27.058594 44.832031 C 27.511719 44.835938 27.960938 44.820312 28.414062 44.796875 C 28.296875 44.855469 28.183594 44.917969 28.0625 44.980469 L 27.894531 45.066406 C 26.695312 45.6875 26.644531 46.859375 27.019531 48.066406 C 27.359375 49.15625 28.054688 50.265625 28.492188 50.941406 C 29.410156 52.363281 30.285156 53.566406 31.347656 54.21875 C 32.460938 54.90625 33.734375 54.988281 35.375 54.09375 C 36.210938 53.640625 36.476562 53.175781 36.832031 52.550781 C 36.9375 52.363281 37.058594 52.152344 37.191406 51.949219 C 37.539062 51.71875 38.394531 51.007812 39.238281 50.308594 C 39.527344 50.070312 39.8125 49.832031 40.136719 49.566406 C 40.359375 49.730469 40.628906 49.84375 40.953125 49.921875 C 41.378906 50.023438 41.878906 50.070312 42.484375 50.113281 C 42.933594 50.148438 44.40625 50.148438 45.359375 50.144531 C 45.652344 50.144531 45.894531 50.144531 46.042969 50.148438 C 47.023438 50.152344 47.816406 50.101562 48.414062 49.761719 C 49.054688 49.398438 49.429688 48.753906 49.515625 47.597656 C 49.550781 47.085938 49.558594 46.769531 49.484375 46.445312 C 49.417969 46.144531 49.289062 45.871094 49.070312 45.46875 C 49.054688 44.96875 49.042969 44.472656 49.027344 43.972656 C 49.015625 43.445312 49 42.914062 48.988281 42.382812 C 48.96875 41.761719 48.902344 41.253906 48.777344 40.753906 C 48.652344 40.257812 48.472656 39.785156 48.234375 39.210938 C 48.085938 38.851562 47.945312 38.488281 47.8125 38.121094 L 47.46875 38.246094 L 47.519531 38.226562 L 47.8125 38.121094 C 47.605469 37.5625 47.402344 37.023438 47.121094 36.441406 C 47.136719 36.332031 47.15625 36.210938 47.175781 36.082031 L 47.722656 36.613281 L 48.53125 37.394531 C 49.144531 37.988281 49.707031 38.53125 50.367188 38.921875 C 51.050781 39.328125 51.820312 39.5625 52.816406 39.515625 C 53.859375 39.464844 54.972656 39.023438 55.890625 38.34375 C 56.777344 37.6875 57.492188 36.796875 57.789062 35.816406 L 58.046875 34.960938 L 58.253906 34.28125 C 59.714844 34.53125 61.28125 34.609375 62.796875 34.453125 C 64.257812 34.296875 65.671875 33.921875 66.886719 33.269531 C 68.679688 32.3125 70.019531 30.898438 70.984375 29.21875 C 72.0625 27.34375 72.667969 25.132812 72.898438 22.859375 C 73.082031 21.035156 72.980469 18.554688 72.601562 16.164062 Z M 53.671875 31.492188 C 52.828125 31.210938 52.242188 30.792969 51.503906 30.324219 C 51.707031 31.238281 51.796875 32.203125 51.527344 33.113281 C 51.105469 34.554688 50.417969 36.917969 52.367188 37.355469 C 53.109375 37.519531 53.449219 37.496094 54.496094 36.953125 C 53.648438 37.144531 53.21875 37.097656 52.636719 36.988281 C 52.109375 36.890625 51.828125 36.554688 51.679688 36.15625 C 51.863281 36.289062 52.164062 36.363281 52.679688 36.488281 C 54.128906 36.839844 55.507812 36.140625 55.777344 35.132812 C 55.933594 34.542969 55.90625 34.234375 56.238281 33.429688 C 56.539062 33.523438 56.847656 33.609375 57.167969 33.683594 L 56.628906 35.445312 C 56.164062 36.96875 54.351562 38.199219 52.75 38.171875 C 51.273438 38.144531 50.335938 37.214844 49.3125 36.300781 C 48.609375 35.671875 47.933594 35.070312 47.261719 34.476562 C 45.421875 33.890625 43.945312 33.210938 42.238281 31.941406 C 43.453125 33.375 44.277344 34.167969 45.972656 34.882812 C 45.726562 37.410156 44.855469 39.253906 44.109375 41.671875 C 43.769531 42.765625 41.109375 47.144531 40.371094 47.574219 C 39.84375 47.875 36.546875 50.664062 35.929688 51.035156 C 35.46875 51.648438 35.0625 52.5 34.367188 52.867188 C 32.253906 53.992188 30.894531 51.839844 29.753906 50.023438 C 29.238281 49.195312 27.796875 46.8125 29.050781 46.144531 C 30.238281 45.511719 30.902344 45.0625 32.113281 44.261719 C 32.289062 44.589844 32.59375 44.902344 32.792969 45.230469 L 32.664062 44.160156 C 32.582031 43.515625 32.585938 42.992188 32.636719 42.34375 C 32.6875 41.71875 32.734375 41.089844 32.785156 40.460938 C 32.601562 41.097656 32.238281 41.738281 32.058594 42.375 C 31.984375 42.632812 31.925781 42.835938 31.890625 43.027344 C 29.171875 43.585938 26.476562 43.621094 23.761719 43.132812 C 23.585938 42.125 23.375 41.070312 23.199219 40.316406 C 23.144531 41.160156 23.179688 43.5 23.175781 44.808594 C 23.171875 45.820312 23.128906 46.167969 22.609375 47.03125 C 22.121094 47.835938 21.917969 48.019531 21.234375 49.382812 C 21.292969 50.246094 21.292969 50.8125 21.066406 51.628906 C 20.6875 52.988281 16.867188 51.9375 15.859375 51.660156 C 14.617188 51.320312 12.054688 50.8125 12.699219 49.148438 C 13.265625 47.6875 13.625 46.144531 13.902344 44.101562 C 11.632812 40.8125 9.519531 36.304688 9.113281 32.308594 C 8.796875 29.207031 8.984375 27.300781 9.652344 25.402344 C 10.710938 22.398438 12.191406 19.796875 14.570312 17.699219 C 17.773438 14.875 20.769531 13.742188 25.460938 13.023438 C 24.332031 14.292969 23.21875 15.632812 22 17.074219 C 20.769531 18.527344 20.039062 20 19.253906 21.59375 C 18.175781 23.792969 18.199219 24.628906 19.628906 26.558594 C 20.863281 28.222656 21.53125 28.972656 22.070312 30.601562 C 21.625 31.523438 21.460938 32.300781 21.3125 33.558594 C 22.824219 35.21875 23.945312 36.355469 25.414062 36.707031 C 26.851562 37.050781 28.054688 36.984375 29.34375 36.324219 C 32.203125 34.855469 34.847656 32.957031 38.074219 32.878906 C 39.566406 29.195312 39.414062 26.113281 38.699219 22.550781 C 38.207031 20.113281 38.011719 17.808594 37.859375 15.324219 C 37.253906 17.882812 37.140625 20.128906 37.589844 22.675781 C 38.132812 25.746094 38.550781 29.136719 37.046875 31.835938 C 34.128906 32.058594 31.628906 33.839844 29.003906 35.207031 C 27.945312 35.757812 26.84375 35.8125 25.675781 35.488281 C 24.589844 35.191406 23.859375 34.46875 22.6875 33.113281 C 22.667969 31.753906 22.976562 31.125 23.597656 29.894531 C 24.597656 27.914062 25.699219 26.074219 26.910156 24.125 C 25.425781 25.921875 24.023438 27.425781 22.855469 29.230469 C 22.410156 27.957031 21.773438 27.308594 20.71875 25.871094 C 19.6875 24.46875 19.578125 23.851562 20.351562 22.230469 C 21.125 20.597656 21.78125 19.164062 23.101562 17.730469 C 25.382812 15.257812 27.472656 12.503906 29.964844 10.066406 C 31.320312 8.742188 31.871094 8.789062 33.667969 8.515625 C 35.289062 8.269531 36.875 7.957031 38.53125 7.570312 C 36.929688 7.71875 35.382812 7.773438 33.824219 7.8125 L 33.773438 7.816406 C 35.308594 5.847656 36.199219 4.75 38.6875 3.664062 C 44.824219 0.988281 48.71875 0.699219 53.539062 4.765625 C 54.785156 5.820312 55.875 6.84375 57.140625 7.753906 C 56.683594 7.792969 56.289062 7.878906 55.765625 8.082031 C 56.402344 7.960938 57.136719 8.082031 57.796875 8.203125 C 57.984375 8.324219 58.175781 8.441406 58.367188 8.558594 C 59.261719 9.085938 59.769531 9.378906 60.375 10.226562 C 61.011719 11.121094 61.546875 12.011719 62.015625 12.996094 C 61.707031 12.886719 61.449219 12.792969 61.21875 12.726562 C 60.699219 12.484375 60.09375 12.523438 59.605469 12.824219 L 59.570312 12.84375 C 59.074219 13.085938 58.308594 13.359375 57.796875 13.445312 C 58.058594 13.535156 58.636719 13.570312 58.910156 13.460938 C 58.945312 13.445312 58.984375 13.433594 59.019531 13.425781 C 58.894531 13.640625 58.816406 13.882812 58.792969 14.132812 C 58.761719 14.460938 58.824219 14.792969 58.976562 15.085938 L 58.976562 15.089844 C 59.023438 15.199219 59.085938 15.300781 59.160156 15.375 C 58.925781 15.460938 58.683594 15.558594 58.4375 15.667969 C 59.582031 15.492188 60.613281 15.460938 61.726562 15.609375 C 61.800781 15.964844 61.875 16.335938 61.945312 16.71875 L 61.53125 16.75 C 61.519531 16.75 61.507812 16.753906 61.496094 16.753906 C 60.96875 16.328125 60.378906 16.402344 59.578125 16.585938 C 57.132812 17.144531 57.707031 18.523438 56.585938 20.597656 C 57.75 19.164062 57.664062 17.664062 59.566406 17.210938 C 60.007812 17.105469 60.3125 16.976562 60.609375 17.019531 C 60.070312 17.292969 59.605469 17.746094 59.417969 18.269531 C 58.898438 19.75 59.222656 21 58.648438 22.382812 C 59.359375 21.144531 59.402344 19.9375 60.035156 18.636719 C 60.265625 18.171875 61.109375 17.421875 61.628906 17.410156 L 62.058594 17.402344 C 62.183594 18.226562 62.257812 19.042969 62.210938 19.71875 C 62.121094 20.957031 61.800781 22.792969 61.609375 23.496094 C 62.253906 22.664062 62.546875 20.90625 62.828125 19.664062 C 63.125 18.375 63.050781 16.828125 62.792969 15.441406 C 62.4375 13.539062 64.386719 13.851562 65.519531 12.953125 C 66.351562 12.296875 66.925781 11.242188 67.6875 10.5 C 68.441406 9.757812 69.632812 10.84375 69.933594 11.566406 C 71.222656 14.703125 71.808594 19.636719 71.46875 22.796875 C 71.085938 26.34375 69.382812 30.214844 66.265625 31.960938 C 62.296875 34.1875 57.617188 32.828125 53.671875 31.492188 Z M 48.03125 47.246094 C 47.902344 48.710938 47.414062 48.808594 46.136719 48.785156 C 45.554688 48.773438 43.242188 48.765625 42.652344 48.714844 C 41.824219 48.640625 41.359375 48.566406 41.105469 48.375 C 42.40625 47.414062 44.621094 43.445312 45.054688 42.078125 C 45.511719 40.636719 46.011719 39.375 46.382812 38.042969 C 46.554688 38.597656 46.691406 39.152344 46.9375 39.746094 C 47.355469 40.734375 47.558594 41.347656 47.585938 42.40625 L 47.679688 45.769531 C 48.039062 46.398438 48.09375 46.53125 48.03125 47.246094 Z M 8.796875 36.160156 C 9.621094 39.039062 11.035156 41.863281 12.597656 44.242188 L 12.597656 44.28125 C 12.5 44.691406 12.386719 45.089844 12.148438 45.410156 C 11.03125 46.910156 8.1875 44.707031 7.363281 43.863281 C 6.464844 42.941406 5.863281 41.847656 5.71875 40.824219 C 5.617188 40.074219 5.71875 40.058594 6.234375 39.527344 L 8.335938 37.394531 Z M 7.214844 18.066406 C 7 18.527344 6.851562 18.871094 6.75 19.230469 C 6.304688 20.777344 6.949219 22.15625 5.554688 23.277344 C 6.210938 24.609375 6.179688 25.140625 7.707031 24.523438 C 8.296875 24.285156 8.78125 23.953125 9.214844 23.558594 C 9.007812 24.109375 8.8125 24.664062 8.636719 25.222656 C 8.605469 25.316406 8.578125 25.414062 8.550781 25.507812 C 7.457031 25.972656 6.019531 26.269531 5.472656 25.117188 C 5.203125 24.554688 5.054688 24.007812 4.859375 23.300781 C 3.058594 21.425781 5.75 18.953125 7.214844 18.066406 Z M 8.097656 20.050781 C 7.875 19.828125 7.699219 19.675781 7.410156 19.710938 C 7.433594 19.519531 7.46875 19.339844 7.511719 19.167969 C 7.535156 19.078125 7.558594 18.992188 7.585938 18.90625 C 7.960938 19.125 8.058594 19.519531 8.097656 20.050781 Z M 62.042969 13.058594 C 62.109375 13.203125 62.179688 13.347656 62.242188 13.496094 C 62.1875 13.535156 62.136719 13.578125 62.089844 13.621094 C 62 13.414062 61.875 13.226562 61.714844 13.066406 C 61.820312 13.0625 61.929688 13.058594 62.042969 13.058594 Z M 10.105469 21.558594 L 10.105469 21.554688 Z M 4.246094 23.542969 Z M 23.933594 44.21875 Z M 40.148438 49.082031 Z M 46.738281 36.496094 Z M 7.398438 23.808594 L 7.386719 23.777344 Z M 70.664062 29.03125 L 70.671875 29.039062 Z M 1.050781 23.355469 C 1.339844 20.101562 1.96875 18.695312 4.269531 16.246094 C 1.382812 18.289062 0.660156 19.21875 1.050781 23.355469 "/>
<path style=" stroke:none;fill-rule:nonzero;fill:rgb(0%,0%,0%);fill-opacity:1;" d="M 0.304688 20.699219 C 0.625 19.230469 0.921875 18.679688 1.820312 17.476562 C 0.359375 18.5 0.171875 18.921875 0.304688 20.699219 M 34.199219 0.265625 C 32.464844 0.6875 32.136719 1.007812 31.617188 2.710938 C 32.445312 1.464844 32.921875 1.058594 34.199219 0.265625 "/>
<path style=" stroke:none;fill-rule:nonzero;fill:rgb(0%,0%,0%);fill-opacity:1;" d="M 36.925781 0.0195312 C 33.492188 0.863281 32.484375 1.464844 31.34375 5.460938 C 32.792969 2.535156 33.890625 1.457031 36.925781 0.0195312 M 44.320312 14.585938 C 44.683594 12.960938 45.335938 11.390625 47.851562 10.175781 C 44.515625 11.015625 43.890625 12.421875 44.320312 14.585938 M 65.546875 14.699219 C 67.523438 13.992188 68.476562 12.398438 68.949219 10.519531 C 68.175781 12.09375 66.984375 13.410156 65.363281 14.214844 C 64.492188 14.648438 63.9375 14.496094 62.964844 14.402344 C 63.953125 14.6875 64.578125 15.046875 65.546875 14.699219 M 52.089844 16.296875 C 51.835938 15.761719 51.382812 15.351562 50.828125 15.148438 C 51.3125 14.886719 51.789062 14.613281 52.160156 14.273438 C 51.074219 14.78125 49.808594 14.65625 48.875 15.289062 C 48.050781 15.847656 46.917969 17.617188 46.082031 18.367188 C 46.6875 18.128906 47.269531 17.722656 47.804688 17.292969 C 47.8125 18.125 48.277344 18.886719 49.011719 19.269531 C 48.703125 19.675781 48.457031 20.128906 48.28125 20.609375 C 49.871094 18.714844 52.179688 17.28125 54.347656 16.671875 C 53.742188 16.664062 53.023438 16.777344 52.292969 17.019531 C 52.265625 16.765625 52.195312 16.523438 52.089844 16.296875 M 49.800781 30.609375 C 49.722656 31.097656 49.617188 31.707031 49.539062 32.199219 C 49.746094 31.644531 49.992188 31 50.234375 30.46875 C 50.488281 29.910156 50.632812 29.855469 51.171875 29.558594 C 51.558594 29.351562 52.253906 29.0625 52.636719 28.851562 C 52.242188 28.917969 51.535156 29.066406 51.140625 29.132812 C 50.085938 29.3125 49.960938 29.566406 49.800781 30.609375 M 31.796875 11.671875 C 30.570312 12.886719 29.382812 17.054688 29.003906 18.722656 C 29.601562 17.335938 31.097656 13.460938 32.246094 12.476562 C 32.5625 12.203125 32.785156 12.035156 33.023438 11.914062 C 32.203125 13.300781 32.261719 13.644531 32.550781 15.5 C 32.796875 13.613281 33.445312 12.882812 34.507812 11.476562 C 35.675781 11.183594 36.769531 10.832031 37.96875 10.359375 C 36.617188 10.515625 35.269531 10.65625 33.917969 10.785156 C 32.78125 10.890625 32.597656 10.875 31.792969 11.671875 "/>
<path style=" stroke:none;fill-rule:nonzero;fill:rgb(100%,100%,80%);fill-opacity:1;" d="M 48.460938 18.765625 C 48.238281 18.296875 48.433594 17.734375 48.902344 17.511719 C 49.152344 17.394531 49.4375 17.390625 49.6875 17.5 C 49.9375 17.613281 50.128906 17.828125 50.207031 18.089844 C 49.761719 18.425781 49.351562 18.816406 49.007812 19.269531 C 48.777344 19.175781 48.574219 19.007812 48.460938 18.765625 M 58.90625 14.707031 C 58.941406 14.320312 59.273438 14.03125 59.660156 14.070312 C 60.046875 14.109375 60.328125 14.453125 60.292969 14.84375 C 60.285156 14.921875 60.261719 15 60.230469 15.074219 C 59.875 15.136719 59.523438 15.238281 59.15625 15.375 C 59.003906 15.21875 58.882812 14.929688 58.90625 14.707031 "/>
</g>
</svg>
