<?xml version="1.0" encoding="UTF-8"?>
<svg xmlns="http://www.w3.org/2000/svg" xmlns:xlink="http://www.w3.org/1999/xlink" width="40px" height="40px" viewBox="0 0 40 27" version="1.1">
<g id="surface1">
<path style=" stroke:none;fill-rule:nonzero;fill:rgb(94.117647%,83.529412%,4.705882%);fill-opacity:1;" d="M 40 22.636719 C 40 22.636719 33.90625 21.757812 30.6875 21.503906 C 27.597656 21.261719 23.933594 21.121094 20 21.121094 C 16.070312 21.121094 12.40625 21.261719 9.316406 21.503906 C 6.097656 21.761719 0.00390625 22.984375 0.00390625 22.984375 L 0.00390625 24.519531 C 0.00390625 25.886719 8.957031 26.996094 20 26.996094 C 31.046875 26.996094 40 25.886719 40 24.519531 Z M 40 22.636719 "/>
<path style=" stroke:none;fill-rule:nonzero;fill:rgb(94.117647%,83.529412%,4.705882%);fill-opacity:1;" d="M 13.851562 2.253906 C 6.550781 4.792969 1.675781 11.542969 1.675781 19.109375 L 1.675781 21.644531 C 4.28125 21.035156 6.9375 20.660156 9.613281 20.519531 C 9.59375 20.035156 9.585938 19.542969 9.585938 19.050781 C 9.585938 12.402344 11.230469 6.417969 13.851562 2.253906 Z M 13.851562 2.253906 "/>
<path style=" stroke:none;fill-rule:nonzero;fill:rgb(100%,94.117647%,30.196078%);fill-opacity:1;" d="M 38.328125 19.109375 C 38.335938 14.957031 36.855469 10.933594 34.144531 7.730469 C 35.320312 11.394531 35.90625 15.214844 35.878906 19.054688 C 35.878906 19.75 35.863281 20.441406 35.824219 21.125 C 36.660156 21.25 37.484375 21.421875 38.300781 21.636719 Z M 38.328125 19.109375 "/>
<path style=" stroke:none;fill-rule:nonzero;fill:rgb(100%,91.764706%,0%);fill-opacity:1;" d="M 38.328125 19.109375 C 38.335938 14.957031 36.855469 10.933594 34.144531 7.730469 C 35.320312 11.394531 35.90625 15.214844 35.878906 19.054688 C 35.878906 19.75 35.863281 20.441406 35.824219 21.125 C 36.660156 21.25 37.484375 21.421875 38.300781 21.636719 Z M 38.328125 19.109375 "/>
<path style=" stroke:none;fill-rule:nonzero;fill:rgb(100%,94.117647%,30.196078%);fill-opacity:1;" d="M 34.144531 7.730469 C 29.234375 1.921875 21.125 -0.269531 13.855469 2.253906 C 11.230469 6.417969 9.585938 12.402344 9.585938 19.050781 C 9.585938 19.546875 9.597656 20.035156 9.613281 20.523438 C 12.34375 20.316406 15.503906 20.1875 18.886719 20.164062 C 18.886719 20.164062 19.65625 20.164062 20.003906 20.164062 C 25.296875 20.101562 30.585938 20.425781 35.828125 21.128906 C 35.863281 20.445312 35.882812 19.753906 35.882812 19.054688 C 35.90625 15.214844 35.320312 11.394531 34.144531 7.730469 Z M 34.144531 7.730469 "/>
<path style=" stroke:none;fill-rule:nonzero;fill:rgb(100%,94.117647%,30.196078%);fill-opacity:1;" d="M 27.375 8.914062 L 26.210938 1.828125 C 26.128906 1.304688 25.746094 0.878906 25.230469 0.726562 C 21.84375 -0.242188 18.246094 -0.242188 14.863281 0.726562 C 14.34375 0.878906 13.960938 1.304688 13.878906 1.828125 L 12.71875 8.914062 "/>
<path style=" stroke:none;fill-rule:nonzero;fill:rgb(100%,94.117647%,30.196078%);fill-opacity:1;" d="M 20.003906 20.015625 C 19.652344 20.015625 19.304688 20.015625 18.960938 20.015625 L 18.886719 20.015625 C 8.359375 20.085938 0.00390625 21.167969 0.00390625 22.488281 L 0.00390625 24.402344 C -0.0117188 24.515625 0.0117188 24.628906 0.0742188 24.722656 C 0.609375 24.332031 1.222656 24.058594 1.875 23.917969 C 3.539062 23.523438 5.230469 23.246094 6.933594 23.089844 C 7.898438 22.988281 8.867188 23.292969 9.585938 23.933594 C 10.902344 25.113281 12.621094 25.761719 14.402344 25.761719 L 25.597656 25.761719 C 27.382812 25.761719 29.101562 25.109375 30.417969 23.933594 C 31.136719 23.292969 32.105469 22.984375 33.070312 23.089844 C 34.777344 23.246094 36.464844 23.519531 38.128906 23.914062 C 38.746094 24.03125 39.328125 24.28125 39.835938 24.644531 C 39.867188 24.675781 39.898438 24.699219 39.925781 24.722656 C 39.984375 24.628906 40.011719 24.511719 39.992188 24.398438 L 39.992188 22.484375 C 40 21.125 31.046875 20.015625 20.003906 20.015625 Z M 20.003906 20.015625 "/>
<path style=" stroke:none;fill-rule:nonzero;fill:rgb(43.137255%,43.529412%,43.921569%);fill-opacity:1;" d="M 24.214844 14.332031 L 20 16.863281 L 20 20.15625 Z M 24.214844 14.332031 "/>
<path style=" stroke:none;fill-rule:nonzero;fill:rgb(3.921569%,3.921569%,3.921569%);fill-opacity:1;" d="M 20.003906 20.15625 L 20.003906 16.863281 L 15.785156 14.332031 Z M 20.003906 20.15625 "/>
<path style=" stroke:none;fill-rule:nonzero;fill:rgb(3.921569%,3.921569%,3.921569%);fill-opacity:1;" d="M 15.785156 12.828125 L 20.003906 15.207031 L 20.003906 6.167969 Z M 15.785156 12.828125 "/>
<path style=" stroke:none;fill-rule:nonzero;fill:rgb(43.137255%,43.529412%,43.921569%);fill-opacity:1;" d="M 24.214844 12.828125 L 20 6.167969 L 20 15.207031 L 24.214844 12.824219 Z M 24.214844 12.828125 "/>
</g>
</svg>
