<?xml version="1.0" encoding="UTF-8"?>
<svg xmlns="http://www.w3.org/2000/svg" xmlns:xlink="http://www.w3.org/1999/xlink" width="55px" height="55px" viewBox="0 0 55 55" version="1.1">
<g id="surface1">
<path style=" stroke:none;fill-rule:nonzero;fill:rgb(94.117647%,83.529412%,4.705882%);fill-opacity:1;" d="M 55 40.0625 C 55 40.0625 46.621094 38.855469 42.195312 38.503906 C 37.945312 38.171875 32.910156 37.980469 27.5 37.980469 C 22.097656 37.980469 17.058594 38.171875 12.808594 38.503906 C 8.382812 38.859375 0.00390625 40.539062 0.00390625 40.539062 L 0.00390625 42.652344 C 0.00390625 44.53125 12.316406 46.058594 27.5 46.058594 C 42.691406 46.058594 55 44.53125 55 42.652344 Z M 55 40.0625 "/>
<path style=" stroke:none;fill-rule:nonzero;fill:rgb(94.117647%,83.529412%,4.705882%);fill-opacity:1;" d="M 19.046875 12.035156 C 9.007812 15.527344 2.304688 24.808594 2.304688 35.210938 L 2.304688 38.699219 C 5.886719 37.859375 9.539062 37.34375 13.21875 37.152344 C 13.191406 36.484375 13.179688 35.808594 13.179688 35.132812 C 13.179688 25.992188 15.441406 17.761719 19.046875 12.035156 Z M 19.046875 12.035156 "/>
<path style=" stroke:none;fill-rule:nonzero;fill:rgb(100%,94.117647%,30.196078%);fill-opacity:1;" d="M 52.703125 35.210938 C 52.710938 29.503906 50.675781 23.972656 46.949219 19.566406 C 48.566406 24.605469 49.371094 29.859375 49.332031 35.136719 C 49.332031 36.09375 49.3125 37.042969 49.257812 37.984375 C 50.40625 38.15625 51.539062 38.390625 52.664062 38.6875 Z M 52.703125 35.210938 "/>
<path style=" stroke:none;fill-rule:nonzero;fill:rgb(100%,91.764706%,0%);fill-opacity:1;" d="M 52.703125 35.210938 C 52.710938 29.503906 50.675781 23.972656 46.949219 19.566406 C 48.566406 24.605469 49.371094 29.859375 49.332031 35.136719 C 49.332031 36.09375 49.3125 37.042969 49.257812 37.984375 C 50.40625 38.15625 51.539062 38.390625 52.664062 38.6875 Z M 52.703125 35.210938 "/>
<path style=" stroke:none;fill-rule:nonzero;fill:rgb(100%,94.117647%,30.196078%);fill-opacity:1;" d="M 46.949219 19.566406 C 40.199219 11.578125 29.046875 8.566406 19.050781 12.035156 C 15.441406 17.761719 13.179688 25.992188 13.179688 35.132812 C 13.179688 35.8125 13.195312 36.484375 13.21875 37.15625 C 16.972656 36.871094 21.316406 36.695312 25.96875 36.664062 C 25.96875 36.664062 27.027344 36.664062 27.503906 36.664062 C 34.785156 36.578125 42.054688 37.023438 49.265625 37.988281 C 49.3125 37.050781 49.339844 36.097656 49.339844 35.136719 C 49.371094 29.859375 48.566406 24.605469 46.949219 19.566406 Z M 46.949219 19.566406 "/>
<path style=" stroke:none;fill-rule:nonzero;fill:rgb(100%,94.117647%,30.196078%);fill-opacity:1;" d="M 37.640625 21.195312 L 36.039062 11.453125 C 35.925781 10.730469 35.402344 10.144531 34.691406 9.9375 C 30.035156 8.605469 25.089844 8.605469 20.4375 9.9375 C 19.722656 10.144531 19.195312 10.730469 19.082031 11.453125 L 17.488281 21.195312 "/>
<path style=" stroke:none;fill-rule:nonzero;fill:rgb(100%,94.117647%,30.196078%);fill-opacity:1;" d="M 27.503906 36.460938 C 27.023438 36.460938 26.542969 36.460938 26.070312 36.460938 L 25.96875 36.460938 C 11.492188 36.554688 0.00390625 38.042969 0.00390625 39.859375 L 0.00390625 42.492188 C -0.015625 42.648438 0.015625 42.800781 0.101562 42.929688 C 0.839844 42.394531 1.679688 42.019531 2.578125 41.824219 C 4.867188 41.28125 7.191406 40.902344 9.535156 40.6875 C 10.859375 40.546875 12.191406 40.964844 13.179688 41.847656 C 14.992188 43.46875 17.355469 44.359375 19.804688 44.359375 L 35.195312 44.359375 C 37.652344 44.359375 40.015625 43.464844 41.824219 41.847656 C 42.8125 40.964844 44.144531 40.539062 45.472656 40.6875 C 47.820312 40.902344 50.140625 41.277344 52.425781 41.820312 C 53.277344 41.980469 54.078125 42.324219 54.773438 42.824219 C 54.816406 42.867188 54.859375 42.898438 54.898438 42.929688 C 54.976562 42.800781 55.015625 42.640625 54.988281 42.484375 L 54.988281 39.851562 C 55 37.984375 42.691406 36.460938 27.503906 36.460938 Z M 27.503906 36.460938 "/>
<path style=" stroke:none;fill-rule:nonzero;fill:rgb(43.137255%,43.529412%,43.921569%);fill-opacity:1;" d="M 33.296875 28.644531 L 27.5 32.125 L 27.5 36.652344 Z M 33.296875 28.644531 "/>
<path style=" stroke:none;fill-rule:nonzero;fill:rgb(3.921569%,3.921569%,3.921569%);fill-opacity:1;" d="M 27.503906 36.652344 L 27.503906 32.125 L 21.703125 28.644531 Z M 27.503906 36.652344 "/>
<path style=" stroke:none;fill-rule:nonzero;fill:rgb(3.921569%,3.921569%,3.921569%);fill-opacity:1;" d="M 21.703125 26.574219 L 27.503906 29.847656 L 27.503906 17.417969 Z M 21.703125 26.574219 "/>
<path style=" stroke:none;fill-rule:nonzero;fill:rgb(43.137255%,43.529412%,43.921569%);fill-opacity:1;" d="M 33.296875 26.574219 L 27.5 17.417969 L 27.5 29.847656 L 33.296875 26.570312 Z M 33.296875 26.574219 "/>
</g>
</svg>
