<?xml version="1.0" encoding="UTF-8"?>
<svg xmlns="http://www.w3.org/2000/svg" xmlns:xlink="http://www.w3.org/1999/xlink" width="55px" height="55px" viewBox="0 0 55 55" version="1.1">
<g id="surface1">
<path style=" stroke:none;fill-rule:nonzero;fill:rgb(100%,79.215686%,15.686275%);fill-opacity:1;" d="M 3.4375 3.4375 L 51.5625 3.4375 L 51.5625 51.5625 L 3.4375 51.5625 Z M 3.4375 3.4375 "/>
<path style=" stroke:none;fill-rule:nonzero;fill:rgb(24.313725%,24.313725%,24.313725%);fill-opacity:1;" d="M 32.65625 43.464844 L 36.203125 41.121094 C 36.476562 41.992188 38.238281 44.0625 40.457031 44.0625 C 42.679688 44.0625 43.710938 42.851562 43.710938 42.046875 C 43.710938 39.851562 41.445312 39.082031 40.351562 38.710938 C 40.175781 38.652344 40.027344 38.601562 39.929688 38.554688 C 39.875 38.53125 39.800781 38.503906 39.699219 38.46875 C 38.488281 38.007812 34.019531 36.296875 34.019531 31.347656 C 34.019531 25.894531 39.277344 25.265625 40.472656 25.265625 C 41.25 25.265625 44.992188 25.363281 46.859375 28.863281 L 43.421875 31.265625 C 42.664062 29.734375 41.410156 29.234375 40.644531 29.234375 C 38.738281 29.234375 38.339844 30.625 38.339844 31.265625 C 38.339844 33.046875 40.414062 33.84375 42.15625 34.519531 C 42.613281 34.699219 43.050781 34.863281 43.421875 35.039062 C 45.320312 35.9375 48.125 37.410156 48.125 42.046875 C 48.125 44.367188 46.179688 48.125 41.277344 48.125 C 34.691406 48.125 32.945312 44.171875 32.65625 43.464844 Z M 32.65625 43.464844 "/>
<path style=" stroke:none;fill-rule:nonzero;fill:rgb(24.313725%,24.313725%,24.313725%);fill-opacity:1;" d="M 15.46875 43.929688 L 19.164062 41.582031 C 19.449219 42.457031 20.578125 44.0625 22.210938 44.0625 C 23.835938 44.0625 24.675781 42.390625 24.675781 41.582031 L 24.675781 25.78125 L 29.214844 25.78125 L 29.214844 41.582031 C 29.289062 43.765625 28.082031 48.125 22.746094 48.125 C 17.835938 48.125 15.800781 45.207031 15.46875 43.929688 Z M 15.46875 43.929688 "/>
</g>
</svg>
