<?xml version="1.0" encoding="UTF-8"?>
<svg xmlns="http://www.w3.org/2000/svg" xmlns:xlink="http://www.w3.org/1999/xlink" width="40px" height="40px" viewBox="0 0 40 40" version="1.1">
<g id="surface1">
<path style=" stroke:none;fill-rule:nonzero;fill:rgb(100%,79.215686%,15.686275%);fill-opacity:1;" d="M 2.5 2.5 L 37.5 2.5 L 37.5 37.5 L 2.5 37.5 Z M 2.5 2.5 "/>
<path style=" stroke:none;fill-rule:nonzero;fill:rgb(24.313725%,24.313725%,24.313725%);fill-opacity:1;" d="M 23.75 31.609375 L 26.328125 29.90625 C 26.527344 30.539062 27.808594 32.046875 29.421875 32.046875 C 31.039062 32.046875 31.789062 31.164062 31.789062 30.578125 C 31.789062 28.984375 30.140625 28.421875 29.347656 28.152344 C 29.21875 28.109375 29.109375 28.074219 29.039062 28.039062 C 29 28.023438 28.945312 28.003906 28.871094 27.976562 C 27.992188 27.640625 24.742188 26.398438 24.742188 22.796875 C 24.742188 18.832031 28.566406 18.375 29.433594 18.375 C 30 18.375 32.722656 18.445312 34.078125 20.992188 L 31.578125 22.738281 C 31.027344 21.625 30.117188 21.261719 29.558594 21.261719 C 28.171875 21.261719 27.882812 22.273438 27.882812 22.738281 C 27.882812 24.035156 29.390625 24.613281 30.660156 25.105469 C 30.992188 25.234375 31.308594 25.355469 31.578125 25.484375 C 32.960938 26.136719 35 27.207031 35 30.578125 C 35 32.265625 33.585938 35 30.019531 35 C 25.230469 35 23.960938 32.125 23.75 31.609375 Z M 23.75 31.609375 "/>
<path style=" stroke:none;fill-rule:nonzero;fill:rgb(24.313725%,24.313725%,24.313725%);fill-opacity:1;" d="M 11.25 31.949219 L 13.9375 30.242188 C 14.144531 30.878906 14.964844 32.046875 16.152344 32.046875 C 17.335938 32.046875 17.945312 30.828125 17.945312 30.242188 L 17.945312 18.75 L 21.246094 18.75 L 21.246094 30.242188 C 21.300781 31.828125 20.421875 35 16.542969 35 C 12.972656 35 11.492188 32.878906 11.25 31.949219 Z M 11.25 31.949219 "/>
</g>
</svg>
