<?xml version="1.0" encoding="UTF-8"?>
<svg xmlns="http://www.w3.org/2000/svg" xmlns:xlink="http://www.w3.org/1999/xlink" width="55px" height="55px" viewBox="0 0 55 55" version="1.1">
<g id="surface1">
<path style=" stroke:none;fill-rule:nonzero;fill:rgb(19.607843%,42.352941%,89.803922%);fill-opacity:1;" d="M 27.308594 0.789062 C 26.835938 0.8125 26.371094 0.933594 25.945312 1.144531 L 7.359375 10.289062 C 6.382812 10.769531 5.675781 11.675781 5.4375 12.753906 L 0.851562 33.300781 C 0.636719 34.257812 0.808594 35.261719 1.332031 36.082031 C 1.394531 36.183594 1.460938 36.28125 1.535156 36.371094 L 14.398438 52.847656 C 15.074219 53.710938 16.097656 54.214844 17.179688 54.214844 L 37.8125 54.210938 C 38.894531 54.210938 39.914062 53.707031 40.589844 52.84375 L 53.453125 36.367188 C 54.125 35.503906 54.378906 34.371094 54.136719 33.296875 L 49.546875 12.75 C 49.304688 11.671875 48.597656 10.765625 47.621094 10.285156 L 29.03125 1.144531 C 28.496094 0.878906 27.902344 0.757812 27.308594 0.789062 Z M 27.308594 0.789062 "/>
<path style="fill-rule:nonzero;fill:rgb(100%,100%,100%);fill-opacity:1;stroke-width:0.25;stroke-linecap:butt;stroke-linejoin:miter;stroke:rgb(100%,100%,100%);stroke-opacity:1;stroke-miterlimit:4;" d="M 367.723395 274.069445 C 359.661535 274.069445 353.088807 281.348707 353.088807 290.323139 C 353.088807 290.422855 353.140157 290.572428 353.140157 290.722002 C 353.140157 291.918593 353.088807 293.414332 353.088807 294.461349 C 353.294205 299.646576 354.423892 303.585355 355.091435 308.371718 C 356.323821 318.592599 357.35081 327.018593 356.734617 334.89615 C 356.118424 337.887627 353.910398 340.579957 351.95912 342.474559 L 351.651023 348.656945 C 342.87027 349.404815 334.038168 350.701122 325.206066 352.69544 C 287.207486 361.320866 254.549248 380.915042 229.644773 407.2899 C 228.001591 406.193025 225.177373 404.198707 224.355782 403.550553 C 221.736961 403.899559 219.11814 404.697286 215.677728 402.702968 C 209.105 398.315468 203.148466 392.232798 195.959546 384.903678 C 192.621833 381.413622 190.259759 378.073139 186.305853 374.682798 C 185.432912 373.934928 184.097827 372.887911 183.070839 372.090184 C 179.989873 369.647144 176.395412 368.350837 172.903651 368.251122 C 168.384901 368.101548 164.071549 369.846576 161.24733 373.386491 C 156.215086 379.718451 157.806918 389.390894 164.84179 394.974985 C 164.89314 395.024843 164.995839 395.074701 165.047188 395.124559 C 166.022827 395.922286 167.203864 396.919445 168.076804 397.567599 C 172.236108 400.658792 176.035966 402.204389 180.19527 404.647428 C 188.924674 410.032087 196.216293 414.519303 201.967429 419.95382 C 204.175455 422.347002 204.58625 426.53507 204.894347 428.379815 L 209.567145 432.567883 C 184.508623 470.310355 172.852302 516.9774 179.733125 564.492031 L 173.622543 566.286917 C 171.979361 568.380951 169.719986 571.621718 167.306563 572.618877 C 159.809546 575.012059 151.33689 575.859644 141.118353 576.956519 C 136.291506 577.355383 132.183552 577.106093 127.099958 578.053394 C 125.97027 578.252826 124.378438 578.701548 123.146052 578.950838 C 123.146052 578.950838 123.094702 579.000695 123.043353 579.000695 C 122.992003 579.000695 122.889304 579.050553 122.837955 579.050553 C 114.21125 581.144587 108.665512 589.072002 110.462742 596.849843 C 112.259972 604.677542 120.629929 609.414048 129.307983 607.569303 C 129.410682 607.569303 129.462032 607.519445 129.564731 607.519445 C 129.667429 607.519445 129.718779 607.469587 129.821478 607.41973 C 131.053864 607.17044 132.542998 606.871292 133.621336 606.572144 C 138.602231 605.275837 142.24804 603.281519 146.715441 601.536491 C 156.420483 598.096292 164.430995 595.204531 172.236108 594.057798 C 175.471123 593.808508 178.911535 596.052116 180.657415 597.049275 L 187.024745 595.9524 C 201.710682 641.422855 232.417642 678.168167 271.340512 701.2524 L 268.721691 707.634218 C 269.645981 710.077258 270.724319 713.467599 270.005427 715.910639 C 267.181208 723.239758 262.303012 731.017599 256.757273 739.692883 C 254.087103 743.681519 251.365583 746.772713 248.90081 751.359644 C 248.335966 752.456519 247.617074 754.15169 247.052231 755.298423 C 243.303722 763.375411 246.025242 772.599133 253.265512 776.08919 C 260.505782 779.579247 269.543282 775.889758 273.445839 767.862627 C 273.445839 767.812769 273.497188 767.812769 273.497188 767.812769 C 273.497188 767.812769 273.497188 767.762911 273.497188 767.762911 C 274.062032 766.616178 274.832273 765.12044 275.294418 764.073423 C 277.348395 759.336917 278.067287 755.248565 279.505071 750.661633 C 283.407628 740.939332 285.512955 730.718451 290.853296 724.386491 C 292.29108 722.641462 294.653154 721.993309 297.117927 721.295298 L 300.45564 715.312343 C 334.397614 728.325269 372.396194 731.815326 410.343424 723.239758 C 418.970128 721.24544 427.340086 718.702684 435.401946 715.661349 C 436.377586 717.306661 438.072117 720.49757 438.534262 721.295298 C 441.050384 722.093025 443.771904 722.491889 446.031279 725.832372 C 449.985185 732.613053 452.706705 740.690042 456.044418 750.412343 C 457.482202 754.999275 458.201094 759.087627 460.306421 763.824133 C 460.768566 764.87115 461.538807 766.416747 462.103651 767.56348 C 466.006208 775.640468 475.043708 779.329957 482.335327 775.8399 C 489.524248 772.349843 492.297117 763.076264 488.548608 755.049133 C 487.983765 753.9024 487.213523 752.20723 486.648679 751.110355 C 484.235256 746.523423 481.462387 743.482087 478.792216 739.443593 C 473.246478 730.818167 468.676378 723.588764 465.85216 716.259644 C 464.619773 712.47044 466.006208 710.077258 466.930498 707.634218 C 466.417003 706.986065 465.235966 703.396292 464.517074 701.701122 C 504.980427 677.819161 534.814446 639.677826 548.832841 595.653252 C 550.73277 595.9524 554.019134 596.550695 555.097472 596.750127 C 557.254148 595.304247 559.308125 593.409644 563.262032 593.708792 C 571.067145 594.855525 579.077657 597.747286 588.782699 601.237343 C 593.2501 602.932514 596.89591 604.926832 601.876804 606.272997 C 602.955142 606.572144 604.444276 606.821434 605.676662 607.070724 C 605.779361 607.120582 605.830711 607.17044 605.93341 607.17044 C 606.036108 607.220298 606.087458 607.220298 606.190157 607.220298 C 614.868211 609.065042 623.289517 604.328536 625.035398 596.550695 C 626.832628 588.722997 621.28689 580.795582 612.660185 578.701548 C 611.427799 578.452258 609.630569 577.953678 608.398182 577.704389 C 603.314589 576.757087 599.206634 577.006377 594.379787 576.607514 C 584.16125 575.510639 575.688594 574.663053 568.191577 572.269872 C 565.110611 571.073281 562.902586 567.43365 561.875597 565.937911 L 555.970412 564.192883 C 559.000029 542.055951 558.178438 519.021576 552.889446 495.937343 C 547.549106 472.653678 538.10081 451.364332 525.46885 432.567883 C 527.009333 431.221718 529.884901 428.678962 530.655142 427.931093 C 530.91189 425.288622 530.706492 422.546434 533.428012 419.654673 C 539.179148 414.270014 546.419418 409.782798 555.148821 404.348281 C 559.308125 401.905241 563.159333 400.359644 567.318637 397.268451 C 568.294276 396.57044 569.578012 395.473565 570.553651 394.675837 C 577.537174 389.091747 579.180356 379.419303 574.148111 373.137201 C 569.115867 366.805241 559.359475 366.206945 552.324603 371.791036 C 551.348964 372.588764 549.962529 373.635781 549.089589 374.38365 C 545.135682 377.773991 542.722259 381.114474 539.435895 384.604531 C 532.195625 391.93365 526.239091 398.066178 519.717714 402.453678 C 516.842145 404.098991 512.734191 403.550553 510.834262 403.450837 L 505.288523 407.389616 C 473.554574 374.13436 430.369702 352.894872 383.847117 348.756661 C 383.744418 346.812201 383.53902 343.272286 383.53902 342.225269 C 381.587742 340.380525 379.328367 338.834928 378.712174 334.89615 C 378.095981 327.018593 379.174319 318.592599 380.406705 308.371718 C 381.074248 303.585355 382.203935 299.646576 382.409333 294.461349 C 382.409333 293.264758 382.357983 291.569587 382.357983 290.323139 C 382.357983 281.348707 375.785256 274.069445 367.723395 274.069445 Z M 349.442998 387.496292 L 345.078296 464.227684 L 344.770199 464.377258 C 344.462103 471.257656 338.813665 476.692173 331.881492 476.692173 C 329.057273 476.692173 326.438452 475.79473 324.281776 474.249133 L 324.179077 474.298991 L 261.276023 429.72598 C 280.58341 410.680241 305.333836 396.670156 333.83277 390.188622 C 339.019063 388.992031 344.256705 388.144445 349.442998 387.496292 Z M 386.055142 387.496292 C 419.329574 391.584644 450.139233 406.641747 473.708623 429.72598 L 411.216364 474.049701 L 410.959617 473.949985 C 405.413878 478.038337 397.608765 476.99132 393.295412 471.606661 C 391.549532 469.363053 390.573892 466.77044 390.471194 464.127968 L 390.419844 464.07811 Z M 238.476875 458.394303 L 295.88554 509.747997 L 295.834191 510.047144 C 301.020483 514.584218 301.790725 522.411917 297.477373 527.796576 C 295.680142 530.040184 293.318069 531.535923 290.750597 532.233934 L 290.699248 532.483224 L 217.064162 553.722712 C 213.315654 519.470298 221.428864 486.165184 238.476875 458.394303 Z M 496.610469 458.394303 C 505.134475 472.254815 511.604503 487.660923 515.455711 504.413195 C 519.255569 520.966036 520.231208 537.518877 518.639375 553.473423 L 444.644844 532.134218 L 444.593495 531.83507 C 437.969418 530.040184 433.861464 523.30936 435.401946 516.528678 C 436.069489 513.736633 437.507273 511.393309 439.509901 509.698139 L 439.458552 509.548565 Z M 355.964375 513.736633 L 379.482415 513.736633 L 394.117003 531.984644 L 388.879361 554.819587 L 367.723395 564.99061 L 346.567429 554.76973 L 341.278438 531.984644 Z M 431.396691 576.258508 C 432.37233 576.20865 433.399319 576.308366 434.374958 576.507798 L 434.477657 576.358224 L 510.628864 589.221576 C 499.486037 620.532372 478.176023 647.655099 449.677089 665.803394 L 420.099816 594.406803 L 420.202515 594.25723 C 417.480995 587.975127 420.202515 580.546292 426.467145 577.554815 C 428.058978 576.806945 429.70216 576.358224 431.396691 576.258508 Z M 303.485256 576.607514 C 309.287742 576.657372 314.525384 580.695866 315.860469 586.628962 C 316.476662 589.37115 316.168566 592.113337 315.141577 594.556377 L 315.346975 594.855525 L 286.129148 665.504247 C 258.759901 648.004105 236.987742 621.728962 225.331421 589.470866 L 300.815086 576.657372 L 300.969134 576.806945 C 301.790725 576.657372 302.663665 576.557656 303.485256 576.607514 Z M 367.26125 607.569303 C 369.263878 607.469587 371.369205 607.918309 373.320483 608.86561 C 375.836606 610.062201 377.839233 612.006661 379.07162 614.349985 L 379.379716 614.349985 L 416.556705 681.608366 C 411.729858 683.20382 406.800313 684.599843 401.716719 685.746576 C 373.217785 692.22811 344.872898 690.233792 319.146833 681.50865 L 356.272472 614.349985 L 356.375171 614.349985 C 358.583196 610.211775 362.79385 607.718877 367.26125 607.569303 Z M 367.26125 607.569303 " transform="matrix(0.0760719,0,0,0.0783476,-0.481238,-13.691427)"/>
</g>
</svg>
