<?xml version="1.0" encoding="UTF-8"?>
<svg xmlns="http://www.w3.org/2000/svg" xmlns:xlink="http://www.w3.org/1999/xlink" width="px" height="55px" viewBox="0 0 34 55" version="1.1">
<g id="surface1">
<path style=" stroke:none;fill-rule:nonzero;fill:rgb(0%,0%,0%);fill-opacity:1;" d="M 26.804688 30.4375 C 24.652344 30.4375 22.726562 31.382812 21.40625 32.875 L 18.023438 30.492188 C 18.382812 29.511719 18.589844 28.453125 18.589844 27.347656 C 18.589844 26.261719 18.390625 25.222656 18.042969 24.253906 L 21.417969 21.898438 C 22.738281 23.382812 24.660156 24.324219 26.804688 24.324219 C 30.769531 24.324219 34 21.113281 34 17.164062 C 34 13.214844 30.769531 10 26.804688 10 C 22.835938 10 19.605469 13.214844 19.605469 17.164062 C 19.605469 17.871094 19.714844 18.550781 19.90625 19.195312 L 16.53125 21.554688 C 15.121094 19.8125 13.089844 18.597656 10.777344 18.226562 L 10.777344 14.175781 C 14.035156 13.496094 16.492188 10.613281 16.492188 7.167969 C 16.492188 3.21875 13.261719 0.0078125 9.296875 0.0078125 C 5.328125 0.0078125 2.097656 3.21875 2.097656 7.167969 C 2.097656 10.566406 4.492188 13.414062 7.6875 14.144531 L 7.6875 18.246094 C 3.324219 19.007812 0 22.792969 0 27.347656 C 0 31.925781 3.359375 35.726562 7.75 36.460938 L 7.75 40.792969 C 4.523438 41.5 2.097656 44.363281 2.097656 47.785156 C 2.097656 51.734375 5.328125 54.945312 9.296875 54.945312 C 13.261719 54.945312 16.492188 51.734375 16.492188 47.785156 C 16.492188 44.363281 14.066406 41.5 10.839844 40.792969 L 10.839844 36.460938 C 13.0625 36.085938 15.074219 34.925781 16.496094 33.1875 L 19.902344 35.582031 C 19.714844 36.222656 19.605469 36.898438 19.605469 37.597656 C 19.605469 41.546875 22.835938 44.757812 26.804688 44.757812 C 30.769531 44.757812 34 41.546875 34 37.597656 C 34 33.648438 30.769531 30.4375 26.804688 30.4375 Z M 26.804688 13.691406 C 28.726562 13.691406 30.292969 15.25 30.292969 17.164062 C 30.292969 19.078125 28.726562 20.636719 26.804688 20.636719 C 24.878906 20.636719 23.316406 19.078125 23.316406 17.164062 C 23.316406 15.25 24.878906 13.691406 26.804688 13.691406 Z M 5.804688 7.167969 C 5.804688 5.253906 7.371094 3.699219 9.296875 3.699219 C 11.21875 3.699219 12.785156 5.253906 12.785156 7.167969 C 12.785156 9.085938 11.21875 10.640625 9.296875 10.640625 C 7.371094 10.640625 5.804688 9.085938 5.804688 7.167969 Z M 12.785156 47.785156 C 12.785156 49.699219 11.21875 51.253906 9.296875 51.253906 C 7.371094 51.253906 5.804688 49.699219 5.804688 47.785156 C 5.804688 45.867188 7.371094 44.3125 9.296875 44.3125 C 11.21875 44.3125 12.785156 45.867188 12.785156 47.785156 Z M 9.292969 32.191406 C 6.613281 32.191406 4.429688 30.019531 4.429688 27.347656 C 4.429688 24.679688 6.613281 22.503906 9.292969 22.503906 C 11.976562 22.503906 14.160156 24.679688 14.160156 27.347656 C 14.160156 30.019531 11.976562 32.191406 9.292969 32.191406 Z M 26.804688 41.070312 C 24.878906 41.070312 23.316406 39.511719 23.316406 37.597656 C 23.316406 35.683594 24.878906 34.125 26.804688 34.125 C 28.726562 34.125 30.292969 35.683594 30.292969 37.597656 C 30.292969 39.511719 28.726562 41.070312 26.804688 41.070312 Z M 26.804688 41.070312 "/>
</g>
</svg>
