<?xml version="1.0" encoding="UTF-8"?>
<svg xmlns="http://www.w3.org/2000/svg" xmlns:xlink="http://www.w3.org/1999/xlink" width="55px" height="55px" viewBox="0 0 55 55" version="1.1">
<g id="surface1">
<path style=" stroke:none;fill-rule:nonzero;fill:rgb(70.196078%,69.411765%,69.019608%);fill-opacity:1;" d="M 50.417969 32.898438 C 50.417969 31.195312 49.125 29.8125 47.527344 29.8125 L 24.464844 29.8125 C 22.871094 29.8125 21.578125 31.195312 21.578125 32.898438 C 21.578125 34.597656 22.867188 35.980469 24.464844 35.980469 L 47.527344 35.980469 C 49.125 35.984375 50.417969 34.597656 50.417969 32.898438 Z M 50.417969 32.898438 "/>
<path style=" stroke:none;fill-rule:nonzero;fill:rgb(90.588235%,64.313725%,12.156863%);fill-opacity:1;" d="M 7.980469 41.679688 L 17.863281 51.671875 C 20.09375 53.917969 23.175781 55 26.578125 55 C 29.980469 55 33.0625 53.828125 35.296875 51.578125 L 41.230469 45.53125 C 42.398438 44.355469 42.355469 42.40625 41.140625 41.179688 C 39.921875 39.953125 37.988281 39.910156 36.824219 41.089844 L 30.691406 47.0625 C 29.632812 48.132812 28.164062 48.582031 26.542969 48.582031 C 24.925781 48.582031 23.460938 48.132812 22.394531 47.0625 L 12.546875 37.066406 C 11.484375 35.996094 10.953125 34.429688 10.953125 32.796875 C 10.953125 31.160156 11.484375 29.6875 12.546875 28.617188 L 22.367188 18.578125 C 23.425781 17.507812 24.925781 17.101562 26.542969 17.101562 C 28.160156 17.101562 29.625 17.546875 30.6875 18.617188 L 36.820312 24.589844 C 37.988281 25.769531 39.921875 25.730469 41.140625 24.503906 C 42.355469 23.273438 42.398438 21.324219 41.230469 20.144531 L 35.296875 14.105469 C 33.789062 12.597656 31.890625 11.542969 29.816406 11.058594 L 29.738281 11.042969 L 35.347656 5.304688 C 36.519531 4.128906 36.480469 2.175781 35.261719 0.949219 C 34.046875 -0.277344 32.109375 -0.316406 30.9375 0.863281 L 7.980469 24.007812 C 5.75 26.257812 4.582031 29.363281 4.582031 32.796875 C 4.582031 36.230469 5.75 39.433594 7.980469 41.679688 Z M 7.980469 41.679688 "/>
<path style=" stroke:none;fill-rule:nonzero;fill:rgb(2.745098%,2.745098%,2.352941%);fill-opacity:1;" d="M 18.597656 52.28125 C 18.199219 52.058594 17.832031 51.78125 17.511719 51.453125 C 14.46875 48.398438 11.414062 45.359375 8.378906 42.296875 C 3.824219 37.691406 3.105469 30.980469 6.578125 25.519531 C 7.132812 24.683594 7.777344 23.914062 8.503906 23.21875 L 30.554688 1.121094 C 31.988281 -0.3125 33.988281 -0.375 35.320312 0.96875 C 36.601562 2.257812 36.527344 4.300781 35.140625 5.703125 C 33.378906 7.480469 31.613281 9.253906 29.847656 11.03125 C 29.753906 11.308594 29.527344 11.488281 29.332031 11.6875 C 27.355469 13.695312 25.324219 15.648438 23.371094 17.6875 C 23.117188 17.953125 22.773438 18.113281 22.519531 18.386719 C 19.257812 21.648438 15.960938 24.871094 12.742188 28.175781 C 10.144531 30.851562 10.230469 34.910156 12.898438 37.632812 C 15.898438 40.695312 18.949219 43.707031 21.976562 46.742188 C 22.128906 46.894531 22.289062 47.042969 22.445312 47.195312 C 23.515625 47.890625 23.53125 50.058594 22.863281 51.023438 C 22.128906 52.089844 21.167969 52.742188 19.808594 52.691406 C 19.351562 52.679688 18.976562 52.496094 18.597656 52.28125 Z M 18.597656 52.28125 "/>
</g>
</svg>
