<?xml version="1.0" encoding="UTF-8"?>
<svg xmlns="http://www.w3.org/2000/svg" xmlns:xlink="http://www.w3.org/1999/xlink" width="30px" height="30px" viewBox="0 0 40 40" version="1.1">
<g id="surface1">
<path style=" stroke:none;fill-rule:evenodd;fill:rgb(0%,46.666667%,70.980392%);fill-opacity:1;" d="M 34.085938 34.082031 L 28.152344 34.082031 L 28.152344 24.800781 C 28.152344 22.585938 28.117188 19.738281 25.070312 19.738281 C 21.984375 19.738281 21.515625 22.152344 21.515625 24.640625 L 21.515625 34.082031 L 15.585938 34.082031 L 15.585938 14.996094 L 21.273438 14.996094 L 21.273438 17.605469 L 21.355469 17.605469 C 22.148438 16.105469 24.082031 14.519531 26.96875 14.519531 C 32.976562 14.519531 34.085938 18.472656 34.085938 23.613281 Z M 8.898438 12.386719 C 6.992188 12.386719 5.457031 10.847656 5.457031 8.945312 C 5.457031 7.046875 6.992188 5.507812 8.898438 5.507812 C 10.796875 5.507812 12.335938 7.046875 12.335938 8.945312 C 12.335938 10.847656 10.796875 12.386719 8.898438 12.386719 Z M 11.867188 34.082031 L 5.925781 34.082031 L 5.925781 14.996094 L 11.867188 14.996094 Z M 38.332031 0 L 1.667969 0 C 0.746094 0 0 0.746094 0 1.667969 L 0 38.332031 C 0 39.253906 0.746094 40 1.667969 40 L 38.332031 40 C 39.253906 40 40 39.253906 40 38.332031 L 40 1.667969 C 40 0.746094 39.253906 0 38.332031 0 Z M 38.332031 0 "/>
</g>
</svg>
