<?xml version="1.0" encoding="UTF-8"?>
<svg xmlns="http://www.w3.org/2000/svg" xmlns:xlink="http://www.w3.org/1999/xlink" width="55px" height="55px" viewBox="0 0 55 55" version="1.1">
<defs>
<linearGradient id="linear0" gradientUnits="userSpaceOnUse" x1="0.5" y1="1" x2="0.5" y2="0" gradientTransform="matrix(54.863281,0,0,54.863281,0,0)">
<stop offset="0" style="stop-color:rgb(34.117647%,29.803922%,29.019608%);stop-opacity:1;"/>
<stop offset="1" style="stop-color:rgb(50.196078%,44.313725%,42.745098%);stop-opacity:1;"/>
</linearGradient>
<linearGradient id="linear1" gradientUnits="userSpaceOnUse" x1="0.88778" y1="0.98342" x2="0.30149" y2="-0.0868" gradientTransform="matrix(34.488281,0,0,33.09375,10.183594,10.339844)">
<stop offset="0" style="stop-color:rgb(14.901961%,55.294118%,51.372549%);stop-opacity:1;"/>
<stop offset="1" style="stop-color:rgb(18.039216%,63.137255%,61.960784%);stop-opacity:1;"/>
</linearGradient>
<radialGradient id="radial0" gradientUnits="userSpaceOnUse" cx="0.41406" cy="0.42708" fx="0.41406" fy="0.42708" r="0.5" gradientTransform="matrix(3.992188,0,0,3.992188,21.777344,39.441406)">
<stop offset="0" style="stop-color:rgb(85.882353%,48.627451%,48.627451%);stop-opacity:1;"/>
<stop offset="1" style="stop-color:rgb(78.431373%,21.568627%,21.568627%);stop-opacity:1;"/>
</radialGradient>
<radialGradient id="radial1" gradientUnits="userSpaceOnUse" cx="0.44271" cy="0.42708" fx="0.44271" fy="0.42708" r="0.5" gradientTransform="matrix(3.988281,0,0,3.992188,29.09375,39.441406)">
<stop offset="0" style="stop-color:rgb(85.882353%,48.627451%,48.627451%);stop-opacity:1;"/>
<stop offset="1" style="stop-color:rgb(78.431373%,21.568627%,21.568627%);stop-opacity:1;"/>
</radialGradient>
<filter id="alpha" filterUnits="objectBoundingBox" x="0%" y="0%" width="100%" height="100%">
  <feColorMatrix type="matrix" in="SourceGraphic" values="0 0 0 0 1 0 0 0 0 1 0 0 0 0 1 0 0 0 1 0"/>
</filter>
<mask id="mask0">
  <g filter="url(#alpha)">
<rect x="0" y="0" width="55" height="55" style="fill:rgb(0%,0%,0%);fill-opacity:0.101961;stroke:none;"/>
  </g>
</mask>
<clipPath id="clip1">
  <rect x="0" y="0" width="55" height="55"/>
</clipPath>
<g id="surface5" clip-path="url(#clip1)">
<path style=" stroke:none;fill-rule:nonzero;fill:rgb(0%,0%,0%);fill-opacity:1;" d="M 42.625 10.90625 C 43.839844 19.140625 44.125 27.042969 44.105469 32.929688 C 44.082031 38.949219 43.734375 42.859375 43.734375 42.859375 L 36.640625 42.859375 L 35.878906 43.433594 L 44.308594 43.433594 C 44.308594 43.433594 45.71875 27.429688 43.019531 10.339844 Z M 20.289062 10.699219 C 22.5 13.160156 26.332031 19.699219 26.859375 19.699219 C 25.457031 17.902344 22.007812 12.175781 20.289062 10.699219 Z M 17.125 19.039062 C 14.734375 19.101562 17.609375 38.59375 18.414062 42.859375 L 11.054688 42.859375 L 10.554688 43.433594 L 18.984375 43.433594 C 18.1875 39.1875 15.332031 19.867188 17.664062 19.609375 C 17.445312 19.28125 17.257812 19.058594 17.125 19.039062 Z M 36.59375 19.039062 C 35.308594 19.242188 29.449219 35.574219 29.449219 35.574219 C 29.449219 35.574219 28.160156 35.414062 26.859375 35.414062 C 26.089844 35.414062 25.429688 35.460938 24.980469 35.503906 L 24.839844 36.144531 C 24.839844 36.144531 26.132812 35.984375 27.429688 35.984375 C 28.730469 35.984375 30.019531 36.144531 30.019531 36.144531 C 30.019531 36.144531 35.835938 19.917969 37.144531 19.609375 C 37.003906 19.25 36.832031 19.042969 36.59375 19.039062 Z M 36.59375 19.039062 "/>
</g>
<mask id="mask1">
  <g filter="url(#alpha)">
<rect x="0" y="0" width="55" height="55" style="fill:rgb(0%,0%,0%);fill-opacity:0.301961;stroke:none;"/>
  </g>
</mask>
<clipPath id="clip2">
  <rect x="0" y="0" width="55" height="55"/>
</clipPath>
<g id="surface8" clip-path="url(#clip2)">
<path style=" stroke:none;fill-rule:nonzero;fill:rgb(100%,100%,100%);fill-opacity:1;" d="M 11.839844 10.339844 C 9.144531 27.429688 10.554688 43.433594 10.554688 43.433594 L 11.050781 42.875 C 10.796875 39.097656 10.117188 25.445312 12.410156 10.910156 L 20.214844 10.910156 C 20.382812 10.914062 20.601562 11.050781 20.859375 11.269531 C 20.347656 10.699219 19.921875 10.34375 19.644531 10.339844 Z M 35.21875 10.339844 C 33.730469 10.359375 28.082031 20.269531 27.429688 20.269531 C 27.695312 20.609375 27.910156 20.839844 28.003906 20.839844 C 28.652344 20.839844 34.304688 10.929688 35.789062 10.910156 L 42.675781 10.910156 L 43.019531 10.339844 Z M 18.234375 20.179688 C 20.128906 23.027344 24.839844 36.144531 24.839844 36.144531 L 24.980469 35.507812 C 23.816406 32.316406 19.382812 20.355469 18.269531 20.179688 C 18.257812 20.179688 18.246094 20.179688 18.234375 20.179688 Z M 37.734375 20.179688 C 39.007812 23.421875 36.601562 39.59375 35.878906 43.433594 L 36.640625 42.835938 C 37.617188 37.109375 39.96875 20.242188 37.734375 20.179688 Z M 37.734375 20.179688 "/>
</g>
</defs>
<g id="surface1">
<path style=" stroke:none;fill-rule:nonzero;fill:url(#linear0);" d="M 0 37.070312 L 0 17.792969 C 0 2.222656 2.222656 0 17.773438 0 L 37.085938 0 C 52.640625 0 54.863281 2.222656 54.863281 17.792969 L 54.863281 37.070312 C 54.863281 52.636719 52.640625 54.863281 37.085938 54.863281 L 17.773438 54.863281 C 2.222656 54.863281 0 52.636719 0 37.070312 Z M 0 37.070312 "/>
<path style=" stroke:none;fill-rule:nonzero;fill:url(#linear1);" d="M 11.839844 10.339844 C 9.144531 27.429688 10.554688 43.433594 10.554688 43.433594 L 18.984375 43.433594 C 18.183594 39.164062 15.304688 19.671875 17.699219 19.609375 C 18.980469 19.8125 24.839844 36.144531 24.839844 36.144531 C 24.839844 36.144531 26.132812 35.984375 27.429688 35.984375 C 28.730469 35.984375 30.019531 36.144531 30.019531 36.144531 C 30.019531 36.144531 35.882812 19.8125 37.164062 19.609375 C 39.558594 19.671875 36.679688 39.164062 35.878906 43.433594 L 44.308594 43.433594 C 44.308594 43.433594 45.71875 27.429688 43.019531 10.339844 L 35.21875 10.339844 C 33.730469 10.359375 28.082031 20.269531 27.429688 20.269531 C 26.78125 20.269531 21.128906 10.359375 19.644531 10.339844 Z M 11.839844 10.339844 "/>
<path style=" stroke:none;fill-rule:nonzero;fill:url(#radial0);" d="M 25.769531 41.4375 C 25.769531 42.539062 24.875 43.433594 23.773438 43.433594 C 22.671875 43.433594 21.777344 42.539062 21.777344 41.4375 C 21.777344 40.335938 22.671875 39.441406 23.773438 39.441406 C 24.875 39.441406 25.769531 40.335938 25.769531 41.4375 Z M 25.769531 41.4375 "/>
<path style=" stroke:none;fill-rule:nonzero;fill:url(#radial1);" d="M 33.082031 41.4375 C 33.082031 42.539062 32.191406 43.433594 31.089844 43.433594 C 29.988281 43.433594 29.09375 42.539062 29.09375 41.4375 C 29.09375 40.335938 29.988281 39.441406 31.089844 39.441406 C 32.191406 39.441406 33.082031 40.335938 33.082031 41.4375 Z M 33.082031 41.4375 "/>
<use xlink:href="#surface5" mask="url(#mask0)"/>
<use xlink:href="#surface8" mask="url(#mask1)"/>
</g>
</svg>
