<?xml version="1.0" encoding="UTF-8"?>
<svg xmlns="http://www.w3.org/2000/svg" xmlns:xlink="http://www.w3.org/1999/xlink" width="55px" height="55px" viewBox="0 0 55 55" version="1.1">
<g id="surface1">
<path style=" stroke:none;fill-rule:nonzero;fill:rgb(0%,58.039216%,21.960784%);fill-opacity:1;" d="M 3.539062 27.539062 L 3.539062 14.414062 C 3.511719 13.941406 3.773438 13.5 4.199219 13.292969 L 26.839844 0.21875 C 27.246094 -0.0351562 27.703125 -0.0859375 28.113281 0.167969 L 50.855469 13.292969 C 51.25 13.523438 51.488281 13.953125 51.464844 14.410156 L 51.464844 40.613281 C 51.488281 41.070312 51.25 41.503906 50.855469 41.734375 L 31.316406 53.023438 C 30.292969 53.636719 29.257812 54.230469 28.214844 54.804688 C 27.757812 55.058594 27.296875 55.058594 26.839844 54.804688 L 4.148438 41.730469 C 3.738281 41.476562 3.539062 41.167969 3.539062 40.660156 L 3.539062 27.535156 Z M 3.539062 27.539062 "/>
<path style=" stroke:none;fill-rule:nonzero;fill:rgb(99.607843%,99.607843%,99.607843%);fill-opacity:1;" d="M 19.5625 22.652344 L 19.5625 37.949219 C 19.5625 39.679688 18.1875 41.207031 16.355469 41.15625 C 15.238281 41.105469 14.375 40.648438 13.777344 39.679688 C 13.472656 39.222656 13.371094 38.714844 13.371094 38.15625 L 13.371094 16.90625 C 13.371094 15.480469 14.238281 14.464844 15.355469 14.007812 C 16.472656 13.546875 17.59375 13.648438 18.714844 14.007812 C 19.78125 14.3125 20.597656 14.972656 21.292969 15.785156 L 34.824219 32.015625 C 34.875 32.070312 34.929688 32.171875 35.027344 32.269531 L 35.027344 16.800781 C 35.027344 15.175781 36.144531 13.902344 37.726562 13.75 C 39.710938 13.496094 41.035156 14.917969 41.234375 16.398438 L 41.234375 38.054688 C 41.234375 39.257812 40.675781 40.140625 39.660156 40.699219 C 38.894531 41.105469 38.082031 41.207031 37.21875 41.15625 C 35.96875 41.074219 34.785156 40.570312 33.859375 39.730469 C 33.351562 39.273438 32.996094 38.714844 32.535156 38.207031 L 19.664062 22.789062 C 19.664062 22.738281 19.609375 22.6875 19.558594 22.632812 Z M 19.5625 22.652344 "/>
</g>
</svg>
