<?xml version="1.0" encoding="UTF-8"?>
<svg xmlns="http://www.w3.org/2000/svg" xmlns:xlink="http://www.w3.org/1999/xlink" width="40px" height="40px" viewBox="0 0 40 40" version="1.1">
<g id="surface1">
<path style=" stroke:none;fill-rule:nonzero;fill:rgb(21.960784%,40.784314%,58.431373%);fill-opacity:1;" d="M 40 20 C 40 31.046875 31.046875 40 20 40 C 8.953125 40 0 31.046875 0 20 C 0 8.953125 8.953125 0 20 0 C 31.046875 0 40 8.953125 40 20 Z M 40 20 "/>
<path style=" stroke:none;fill-rule:nonzero;fill:rgb(15.294118%,23.137255%,47.843137%);fill-opacity:1;" d="M 39.949219 18.550781 L 30.546875 9.152344 L 7.148438 32.851562 L 13.050781 38.757812 C 15.214844 39.5625 17.558594 40 20 40 C 31.046875 40 40 31.046875 40 20 C 40 19.511719 39.980469 19.03125 39.949219 18.550781 Z M 39.949219 18.550781 "/>
<path style=" stroke:none;fill-rule:nonzero;fill:rgb(100%,78.823529%,10.588235%);fill-opacity:1;" d="M 14.515625 31.371094 L 7.148438 32.851562 L 8.628906 25.484375 L 26.410156 7.703125 C 27.152344 6.960938 28.355469 6.960938 29.097656 7.703125 L 32.296875 10.902344 C 33.039062 11.644531 33.039062 12.847656 32.296875 13.589844 Z M 14.515625 31.371094 "/>
<path style=" stroke:none;fill-rule:nonzero;fill:rgb(89.803922%,67.45098%,5.490196%);fill-opacity:1;" d="M 32.296875 10.902344 L 30.628906 9.234375 L 7.167969 32.742188 L 7.148438 32.851562 L 14.515625 31.371094 L 32.296875 13.589844 C 33.039062 12.847656 33.039062 11.644531 32.296875 10.902344 Z M 32.296875 10.902344 "/>
<path style=" stroke:none;fill-rule:nonzero;fill:rgb(14.901961%,22.745098%,47.843137%);fill-opacity:1;" d="M 7.148438 32.851562 L 9.648438 32.351562 L 7.648438 30.351562 Z M 7.148438 32.851562 "/>
<path style=" stroke:none;fill-rule:nonzero;fill:rgb(7.058824%,6.666667%,28.627451%);fill-opacity:1;" d="M 7.167969 32.742188 L 7.148438 32.851562 L 9.648438 32.351562 L 8.601562 31.304688 Z M 7.167969 32.742188 "/>
<path style=" stroke:none;fill-rule:nonzero;fill:rgb(100%,49.803922%,30.980392%);fill-opacity:1;" d="M 32.296875 10.902344 L 29.097656 7.703125 C 28.355469 6.960938 27.152344 6.960938 26.410156 7.703125 L 23.902344 10.210938 L 29.789062 16.097656 L 32.296875 13.589844 C 33.039062 12.847656 33.039062 11.644531 32.296875 10.902344 Z M 32.296875 10.902344 "/>
<path style=" stroke:none;fill-rule:nonzero;fill:rgb(100%,32.941176%,9.803922%);fill-opacity:1;" d="M 32.296875 10.902344 L 30.628906 9.234375 L 26.785156 13.089844 L 29.789062 16.097656 L 32.296875 13.589844 C 33.039062 12.847656 33.039062 11.644531 32.296875 10.902344 Z M 32.296875 10.902344 "/>
<path style=" stroke:none;fill-rule:nonzero;fill:rgb(100%,92.941176%,70.980392%);fill-opacity:1;" d="M 8.628906 25.484375 L 7.648438 30.351562 L 9.648438 32.351562 L 14.515625 31.371094 Z M 8.628906 25.484375 "/>
<path style=" stroke:none;fill-rule:nonzero;fill:rgb(99.607843%,88.235294%,52.941176%);fill-opacity:1;" d="M 8.601562 31.304688 L 9.648438 32.351562 L 14.515625 31.371094 L 11.523438 28.378906 Z M 8.601562 31.304688 "/>
</g>
</svg>
