<?xml version="1.0" encoding="UTF-8"?>
<svg xmlns="http://www.w3.org/2000/svg" xmlns:xlink="http://www.w3.org/1999/xlink" width="40px" height="40px" viewBox="0 0 40 40" version="1.1">
<g id="surface1">
<path style="fill-rule:nonzero;fill:rgb(0%,0%,0%);fill-opacity:1;stroke-width:2.149;stroke-linecap:butt;stroke-linejoin:miter;stroke:rgb(0%,0%,0%);stroke-opacity:1;stroke-miterlimit:4;" d="M 18.9825 18.635 C 19.145 17.28 19.0975 17.08 20.1075 17.3 L 20.365 17.3225 C 21.14 17.3575 22.1575 17.1975 22.765 16.92 C 24.05 16.325 24.81 15.33 23.545 15.59 C 20.655 16.1875 20.445 15.2075 20.445 15.2075 C 23.4975 10.6775 24.775 4.9275 23.67 3.52 C 20.6675 -0.32 15.465 1.4975 15.38 1.545 L 15.35 1.55 C 14.78 1.43 14.15 1.36 13.42 1.35 C 12.1125 1.33 11.12 1.6925 10.3675 2.265 C 10.3675 2.265 1.09 -1.5575 1.52 7.07 C 1.6125 8.9075 4.15 20.97 7.18 17.32 C 8.29 15.9875 9.36 14.86 9.36 14.86 C 9.89 15.2125 10.5275 15.3925 11.195 15.3275 L 11.245 15.285 C 11.23 15.4575 11.2375 15.63 11.2675 15.8025 C 10.4875 16.675 10.7175 16.8275 9.1575 17.1475 C 7.58 17.4725 8.5075 18.0525 9.11 18.205 C 9.845 18.3875 11.5425 18.6475 12.69 17.0425 L 12.645 17.225 C 12.95 17.47 12.93 18.985 12.975 20.0675 C 13.02 21.15 13.09 22.16 13.3125 22.755 C 13.5325 23.35 13.7925 24.885 15.8425 24.455 C 17.555 24.0875 18.865 23.56 18.985 18.645 " transform="matrix(1.5625,0,0,1.5625,0,0)"/>
<path style=" stroke:none;fill-rule:nonzero;fill:rgb(20%,40.392157%,56.862745%);fill-opacity:1;" d="M 36.773438 24.375 C 32.257812 25.304688 31.929688 23.777344 31.929688 23.777344 C 36.699219 16.699219 38.695312 7.714844 36.972656 5.515625 C 32.28125 -0.484375 24.152344 2.355469 24.015625 2.429688 L 23.972656 2.4375 C 22.980469 2.238281 21.972656 2.132812 20.960938 2.121094 C 18.914062 2.089844 17.367188 2.65625 16.1875 3.550781 C 16.1875 3.550781 1.691406 -2.421875 2.367188 11.0625 C 2.507812 13.929688 6.476562 32.78125 11.210938 27.078125 C 12.953125 24.980469 14.625 23.21875 14.625 23.21875 C 15.453125 23.769531 16.449219 24.050781 17.492188 23.949219 L 17.570312 23.882812 C 17.546875 24.152344 17.558594 24.421875 17.605469 24.691406 C 16.386719 26.054688 16.746094 26.292969 14.308594 26.792969 C 11.84375 27.300781 13.292969 28.207031 14.234375 28.445312 C 15.382812 28.730469 18.035156 29.136719 19.828125 26.628906 L 19.757812 26.914062 C 20.234375 27.296875 20.570312 29.402344 20.515625 31.3125 C 20.457031 33.222656 20.421875 34.53125 20.796875 35.554688 C 21.171875 36.582031 21.546875 38.882812 24.75 38.210938 C 27.425781 37.640625 28.8125 36.148438 29.007812 33.671875 C 29.144531 31.910156 29.453125 32.167969 29.476562 30.59375 L 29.726562 29.847656 C 30.011719 27.457031 29.773438 26.6875 31.421875 27.046875 L 31.820312 27.082031 C 33.035156 27.136719 34.625 26.886719 35.554688 26.453125 C 37.5625 25.523438 38.753906 23.964844 36.773438 24.375 Z M 36.773438 24.375 "/>
<path style="fill:none;stroke-width:0.716;stroke-linecap:round;stroke-linejoin:round;stroke:rgb(100%,100%,100%);stroke-opacity:1;stroke-miterlimit:4;" d="M 12.815 16.4675 C 12.735 19.3125 12.835 22.18 13.1125 22.8675 C 13.39 23.555 13.9875 24.9175 16.0375 24.48 C 17.75 24.1125 18.375 23.4 18.645 21.8325 L 19.2775 16.815 M 10.355 2.2 C 10.355 2.2 1.0725 -1.595 1.505 7.0325 C 1.595 8.87 4.135 20.9325 7.165 17.2825 C 8.27 15.95 9.27 14.9075 9.27 14.9075 M 15.37 1.5075 C 15.05 1.6075 20.535 -0.4975 23.6525 3.485 C 24.7525 4.8925 23.4775 10.6425 20.425 15.1725 " transform="matrix(1.5625,0,0,1.5625,0,0)"/>
<path style="fill:none;stroke-width:0.716;stroke-linecap:round;stroke-linejoin:bevel;stroke:rgb(100%,100%,100%);stroke-opacity:1;stroke-miterlimit:4;" d="M 20.425 15.17 C 20.425 15.17 20.625 16.15 23.525 15.5525 C 24.7925 15.29 24.03 16.285 22.745 16.8825 C 21.69 17.3725 19.3275 17.4975 19.2875 16.8225 C 19.1875 15.0775 20.5325 15.6075 20.435 15.17 C 20.3475 14.775 19.745 14.39 19.35 13.425 C 19.0025 12.585 14.59 6.135 20.5725 7.0925 C 20.7925 7.0475 19.0125 1.3925 13.4125 1.31 C 7.8125 1.23 7.99 8.195 7.99 8.195 " transform="matrix(1.5625,0,0,1.5625,0,0)"/>
<path style="fill:none;stroke-width:0.716;stroke-linecap:butt;stroke-linejoin:round;stroke:rgb(100%,100%,100%);stroke-opacity:1;stroke-miterlimit:4;" d="M 11.2475 15.7675 C 10.4675 16.64 10.6975 16.7925 9.1375 17.115 C 7.56 17.44 8.4875 18.0175 9.09 18.17 C 9.825 18.355 11.5225 18.615 12.67 17.0075 C 13.02 16.5175 12.67 15.7375 12.19 15.54 C 11.9575 15.4425 11.6475 15.3225 11.25 15.77 Z M 11.2475 15.7675 " transform="matrix(1.5625,0,0,1.5625,0,0)"/>
<path style="fill:none;stroke-width:0.716;stroke-linecap:round;stroke-linejoin:round;stroke:rgb(100%,100%,100%);stroke-opacity:1;stroke-miterlimit:4;" d="M 11.195 15.7525 C 11.115 15.24 11.365 14.63 11.63 13.9175 C 12.0275 12.8475 12.945 11.7775 12.21 8.38 C 11.665 5.85 7.99 7.8525 7.99 8.195 C 7.99 8.54 8.1575 9.935 7.93 11.56 C 7.635 13.6825 9.28 15.4775 11.1775 15.295 " transform="matrix(1.5625,0,0,1.5625,0,0)"/>
<path style="fill-rule:nonzero;fill:rgb(100%,100%,100%);fill-opacity:1;stroke-width:0.239;stroke-linecap:butt;stroke-linejoin:miter;stroke:rgb(100%,100%,100%);stroke-opacity:1;stroke-miterlimit:4;" d="M 10.3225 8.145 C 10.305 8.2625 10.5375 8.575 10.8375 8.6175 C 11.14 8.66 11.395 8.415 11.4125 8.2975 C 11.43 8.18 11.1975 8.05 10.8975 8.01 C 10.595 7.9675 10.3375 8.03 10.3225 8.145 Z M 10.3225 8.145 " transform="matrix(1.5625,0,0,1.5625,0,0)"/>
<path style="fill-rule:nonzero;fill:rgb(100%,100%,100%);fill-opacity:1;stroke-width:0.119;stroke-linecap:butt;stroke-linejoin:miter;stroke:rgb(100%,100%,100%);stroke-opacity:1;stroke-miterlimit:4;" d="M 19.485 7.905 C 19.5025 8.0225 19.27 8.335 18.97 8.3775 C 18.67 8.42 18.41 8.175 18.395 8.0575 C 18.38 7.94 18.61 7.8125 18.91 7.77 C 19.2125 7.7275 19.47 7.79 19.485 7.905 Z M 19.485 7.905 " transform="matrix(1.5625,0,0,1.5625,0,0)"/>
<path style="fill:none;stroke-width:0.716;stroke-linecap:round;stroke-linejoin:round;stroke:rgb(100%,100%,100%);stroke-opacity:1;stroke-miterlimit:4;" d="M 20.5625 7.095 C 20.6125 8.015 20.365 8.64 20.3325 9.62 C 20.285 11.04 21.01 12.67 19.92 14.3 " transform="matrix(1.5625,0,0,1.5625,0,0)"/>
</g>
</svg>
