<?xml version="1.0" encoding="UTF-8"?>
<svg xmlns="http://www.w3.org/2000/svg" xmlns:xlink="http://www.w3.org/1999/xlink" width="55px" height="55px" viewBox="0 0 55 55" version="1.1">
<g id="surface1">
<path style=" stroke:none;fill-rule:nonzero;fill:rgb(100%,42.352941%,21.568627%);fill-opacity:1;" d="M 54.773438 30.992188 C 56.699219 15.925781 46.058594 2.148438 31.019531 0.226562 C 15.980469 -1.695312 2.148438 8.941406 0.226562 23.980469 C -1.695312 39.019531 8.941406 52.824219 23.980469 54.773438 C 39.046875 56.699219 52.824219 46.058594 54.773438 30.992188 Z M 54.773438 30.992188 "/>
<path style=" stroke:none;fill-rule:nonzero;fill:rgb(100%,100%,100%);fill-opacity:1;" d="M 37.425781 17.65625 L 25.824219 29.261719 L 22.554688 25.984375 C 33.960938 14.578125 35.089844 15.566406 37.425781 17.65625 Z M 37.425781 17.65625 "/>
<path style=" stroke:none;fill-rule:nonzero;fill:rgb(100%,42.352941%,21.568627%);fill-opacity:1;" d="M 25.824219 29.535156 C 25.738281 29.535156 25.683594 29.507812 25.632812 29.449219 L 22.332031 26.179688 C 22.21875 26.070312 22.21875 25.90625 22.332031 25.796875 C 33.933594 14.191406 35.144531 15.292969 37.59375 17.492188 C 37.644531 17.546875 37.671875 17.601562 37.671875 17.679688 C 37.671875 17.765625 37.644531 17.820312 37.59375 17.875 L 25.984375 29.449219 C 25.957031 29.507812 25.878906 29.535156 25.824219 29.535156 Z M 22.933594 25.984375 L 25.824219 28.875 L 37.011719 17.679688 C 34.976562 15.871094 33.601562 15.316406 22.933594 25.984375 Z M 22.933594 25.984375 "/>
<path style=" stroke:none;fill-rule:nonzero;fill:rgb(100%,100%,100%);fill-opacity:1;" d="M 29.148438 32.585938 L 25.984375 29.421875 L 37.59375 17.820312 C 40.695312 20.957031 36.050781 26.042969 29.148438 32.585938 Z M 29.148438 32.585938 "/>
<path style=" stroke:none;fill-rule:nonzero;fill:rgb(100%,42.352941%,21.568627%);fill-opacity:1;" d="M 29.148438 32.859375 C 29.070312 32.859375 29.015625 32.832031 28.957031 32.78125 L 25.796875 29.617188 C 25.738281 29.5625 25.738281 29.507812 25.738281 29.421875 C 25.738281 29.34375 25.765625 29.289062 25.824219 29.234375 L 37.425781 17.628906 C 37.535156 17.519531 37.699219 17.519531 37.8125 17.628906 C 38.527344 18.289062 38.910156 19.222656 38.882812 20.183594 C 38.828125 23.242188 35.363281 27.113281 29.371094 32.78125 C 29.289062 32.832031 29.203125 32.859375 29.148438 32.859375 Z M 26.371094 29.421875 C 28.132812 31.210938 28.875 31.925781 29.148438 32.199219 C 33.769531 27.800781 38.253906 23.292969 38.28125 20.183594 C 38.308594 19.46875 38.03125 18.753906 37.566406 18.207031 Z M 26.371094 29.421875 "/>
<path style=" stroke:none;fill-rule:nonzero;fill:rgb(100%,100%,100%);fill-opacity:1;" d="M 22.605469 26.070312 L 24.945312 28.40625 C 24.996094 28.460938 24.996094 28.515625 24.945312 28.574219 C 24.917969 28.601562 24.917969 28.601562 24.890625 28.601562 L 20.050781 29.644531 C 19.804688 29.671875 19.582031 29.507812 19.523438 29.261719 C 19.496094 29.121094 19.554688 28.984375 19.636719 28.902344 L 22.441406 26.097656 C 22.496094 26.042969 22.582031 26.019531 22.605469 26.070312 Z M 22.605469 26.070312 "/>
<path style=" stroke:none;fill-rule:nonzero;fill:rgb(100%,42.352941%,21.568627%);fill-opacity:1;" d="M 19.964844 29.917969 C 19.554688 29.917969 19.25 29.589844 19.25 29.175781 C 19.25 28.984375 19.335938 28.792969 19.46875 28.65625 L 22.273438 25.851562 C 22.441406 25.710938 22.660156 25.710938 22.828125 25.851562 L 25.164062 28.1875 C 25.332031 28.328125 25.332031 28.574219 25.164062 28.734375 C 25.109375 28.792969 25.050781 28.820312 24.96875 28.847656 L 20.128906 29.890625 C 20.078125 29.890625 20.023438 29.917969 19.964844 29.917969 Z M 22.519531 26.371094 L 19.828125 29.070312 C 19.777344 29.121094 19.742188 29.203125 19.804688 29.289062 C 19.828125 29.371094 19.910156 29.394531 19.992188 29.371094 L 24.53125 28.382812 Z M 22.519531 26.371094 "/>
<path style=" stroke:none;fill-rule:nonzero;fill:rgb(100%,100%,100%);fill-opacity:1;" d="M 43.558594 11.226562 C 41.796875 9.515625 38.96875 9.570312 37.257812 11.359375 C 35.558594 13.148438 35.609375 15.953125 37.398438 17.65625 C 38.855469 19.054688 41.058594 19.308594 42.785156 18.261719 L 39.65625 15.125 Z M 43.558594 11.226562 "/>
<path style=" stroke:none;fill-rule:nonzero;fill:rgb(100%,42.352941%,21.568627%);fill-opacity:1;" d="M 40.476562 19.167969 C 37.867188 19.167969 35.75 17.054688 35.75 14.4375 C 35.75 11.828125 37.867188 9.710938 40.476562 9.710938 C 41.683594 9.710938 42.871094 10.179688 43.746094 11.03125 C 43.808594 11.085938 43.832031 11.140625 43.832031 11.226562 C 43.832031 11.304688 43.808594 11.359375 43.746094 11.414062 L 40.035156 15.125 L 42.953125 18.042969 C 43.058594 18.152344 43.058594 18.316406 42.953125 18.429688 C 42.925781 18.453125 42.925781 18.453125 42.898438 18.480469 C 42.183594 18.921875 41.332031 19.167969 40.476562 19.167969 Z M 40.476562 10.285156 C 38.167969 10.285156 36.296875 12.160156 36.324219 14.46875 C 36.324219 16.777344 38.195312 18.648438 40.503906 18.621094 C 41.136719 18.621094 41.769531 18.480469 42.347656 18.179688 L 39.460938 15.316406 C 39.40625 15.265625 39.375 15.210938 39.375 15.125 C 39.375 15.042969 39.40625 14.992188 39.460938 14.9375 L 43.144531 11.253906 C 42.40625 10.617188 41.464844 10.285156 40.476562 10.285156 Z M 40.476562 10.285156 "/>
<path style=" stroke:none;fill-rule:nonzero;fill:rgb(100%,100%,100%);fill-opacity:1;" d="M 43.640625 11.304688 L 43.585938 11.253906 L 39.65625 15.125 L 42.757812 18.234375 C 43.058594 18.042969 43.367188 17.820312 43.613281 17.574219 C 45.371094 15.84375 45.371094 13.035156 43.640625 11.304688 Z M 43.640625 11.304688 "/>
<path style=" stroke:none;fill-rule:nonzero;fill:rgb(100%,42.352941%,21.568627%);fill-opacity:1;" d="M 42.785156 18.535156 C 42.707031 18.535156 42.652344 18.507812 42.59375 18.453125 L 39.460938 15.316406 C 39.40625 15.265625 39.375 15.210938 39.375 15.125 C 39.375 15.042969 39.40625 14.992188 39.460938 14.9375 L 43.367188 11.03125 C 43.472656 10.917969 43.640625 10.917969 43.746094 11.03125 L 43.832031 11.085938 C 45.675781 12.929688 45.675781 15.898438 43.859375 17.765625 C 43.585938 18.042969 43.28125 18.289062 42.953125 18.480469 C 42.871094 18.507812 42.8125 18.535156 42.785156 18.535156 Z M 40.035156 15.125 L 42.8125 17.902344 C 43.035156 17.765625 43.253906 17.574219 43.421875 17.40625 C 44.988281 15.84375 45.070312 13.28125 43.558594 11.632812 Z M 40.035156 15.125 "/>
<path style=" stroke:none;fill-rule:nonzero;fill:rgb(100%,100%,100%);fill-opacity:1;" d="M 37.894531 18.152344 C 37.234375 17.492188 36.164062 17.492188 35.503906 18.152344 L 25.136719 28.515625 L 26.867188 30.25 L 37.839844 20.625 C 38.554688 20.023438 38.609375 18.949219 38 18.234375 C 37.945312 18.207031 37.921875 18.179688 37.894531 18.152344 Z M 37.894531 18.152344 "/>
<path style=" stroke:none;fill-rule:nonzero;fill:rgb(100%,42.352941%,21.568627%);fill-opacity:1;" d="M 26.839844 30.523438 C 26.757812 30.523438 26.707031 30.496094 26.644531 30.445312 L 24.917969 28.707031 C 24.804688 28.601562 24.804688 28.433594 24.917969 28.328125 L 35.28125 17.960938 C 36.050781 17.1875 37.285156 17.1875 38.058594 17.960938 C 38.828125 18.730469 38.828125 19.964844 38.058594 20.738281 C 38.03125 20.765625 38 20.792969 37.972656 20.816406 L 27.007812 30.445312 C 26.980469 30.496094 26.921875 30.523438 26.839844 30.523438 Z M 25.519531 28.515625 L 26.867188 29.863281 L 37.644531 20.40625 C 38.253906 19.910156 38.308594 19.003906 37.8125 18.402344 C 37.320312 17.792969 36.410156 17.742188 35.804688 18.234375 C 35.777344 18.261719 35.75 18.289062 35.691406 18.316406 Z M 25.519531 28.515625 "/>
<path style=" stroke:none;fill-rule:nonzero;fill:rgb(100%,100%,100%);fill-opacity:1;" d="M 17.1875 40.308594 C 17.078125 40.371094 17.027344 40.476562 17.054688 40.589844 L 17.519531 42.566406 C 17.628906 42.839844 17.464844 43.171875 17.160156 43.253906 C 16.941406 43.339844 16.691406 43.253906 16.558594 43.09375 L 13.535156 40.09375 L 23.402344 30.222656 L 26.8125 30.277344 L 29.121094 32.585938 C 28.574219 33.054688 25.246094 36.269531 17.1875 40.308594 Z M 17.1875 40.308594 "/>
<path style=" stroke:none;fill-rule:nonzero;fill:rgb(100%,42.352941%,21.568627%);fill-opacity:1;" d="M 16.96875 43.527344 C 16.746094 43.527344 16.527344 43.445312 16.390625 43.28125 L 13.394531 40.285156 C 13.339844 40.230469 13.316406 40.175781 13.316406 40.09375 C 13.316406 40.007812 13.339844 39.957031 13.394531 39.902344 L 23.269531 30.03125 C 23.320312 29.976562 23.402344 29.949219 23.457031 29.949219 L 26.867188 30.003906 C 26.953125 30.003906 27.007812 30.03125 27.058594 30.082031 L 29.371094 32.394531 C 29.421875 32.445312 29.449219 32.53125 29.449219 32.613281 C 29.449219 32.699219 29.421875 32.753906 29.34375 32.808594 L 29.148438 32.972656 C 26.238281 35.53125 22.273438 38.085938 17.355469 40.53125 L 17.820312 42.484375 C 17.902344 42.839844 17.742188 43.226562 17.40625 43.421875 C 17.246094 43.5 17.105469 43.527344 16.96875 43.527344 Z M 13.941406 40.09375 L 16.777344 42.898438 C 16.859375 43.035156 17.027344 43.09375 17.160156 43.007812 C 17.300781 42.925781 17.355469 42.757812 17.273438 42.621094 L 16.804688 40.644531 C 16.746094 40.394531 16.859375 40.175781 17.078125 40.0625 C 21.945312 37.621094 25.878906 35.089844 28.761719 32.585938 L 26.730469 30.550781 L 23.570312 30.496094 Z M 13.941406 40.09375 "/>
<path style=" stroke:none;fill-rule:nonzero;fill:rgb(100%,100%,100%);fill-opacity:1;" d="M 11.191406 42.457031 L 13.5625 40.09375 L 17.078125 43.613281 L 11.472656 43.226562 C 11.226562 43.199219 11.058594 42.980469 11.085938 42.734375 C 11.085938 42.621094 11.113281 42.511719 11.191406 42.457031 Z M 11.191406 42.457031 "/>
<path style=" stroke:none;fill-rule:nonzero;fill:rgb(100%,42.352941%,21.568627%);fill-opacity:1;" d="M 17.078125 43.859375 L 11.441406 43.472656 C 11.03125 43.445312 10.753906 43.09375 10.785156 42.679688 C 10.8125 42.511719 10.867188 42.347656 11.003906 42.238281 L 13.367188 39.875 C 13.476562 39.761719 13.640625 39.761719 13.75 39.875 L 17.273438 43.394531 C 17.355469 43.472656 17.378906 43.585938 17.328125 43.695312 C 17.273438 43.808594 17.1875 43.859375 17.078125 43.859375 Z M 13.5625 40.476562 L 11.386719 42.652344 C 11.304688 42.707031 11.304688 42.839844 11.386719 42.898438 C 11.414062 42.925781 11.441406 42.953125 11.5 42.953125 L 16.367188 43.28125 Z M 13.5625 40.476562 "/>
<path style=" stroke:none;fill-rule:nonzero;fill:rgb(100%,42.352941%,21.568627%);fill-opacity:1;" d="M 22.441406 31.484375 C 22.273438 31.484375 22.167969 31.351562 22.167969 31.210938 C 22.167969 31.132812 22.195312 31.070312 22.246094 31.019531 L 24.917969 28.355469 C 25.023438 28.242188 25.191406 28.242188 25.296875 28.355469 L 27.03125 30.082031 C 27.113281 30.167969 27.140625 30.25 27.113281 30.359375 C 27.085938 30.445312 27.007812 30.523438 26.894531 30.550781 L 22.496094 31.484375 C 22.46875 31.484375 22.441406 31.484375 22.441406 31.484375 Z M 25.109375 28.929688 L 23.292969 30.746094 L 26.265625 30.109375 Z M 25.109375 28.929688 "/>
<path style=" stroke:none;fill-rule:nonzero;fill:rgb(100%,100%,100%);fill-opacity:1;" d="M 26.8125 30.277344 L 23.789062 30.9375 C 23.570312 30.992188 23.347656 30.855469 23.292969 30.636719 C 23.269531 30.496094 23.292969 30.359375 23.402344 30.25 L 25.082031 28.574219 Z M 26.8125 30.277344 "/>
<path style=" stroke:none;fill-rule:nonzero;fill:rgb(100%,42.352941%,21.568627%);fill-opacity:1;" d="M 23.734375 31.210938 C 23.347656 31.210938 23.046875 30.910156 23.046875 30.523438 C 23.046875 30.332031 23.128906 30.167969 23.242188 30.03125 L 24.917969 28.355469 C 25.023438 28.242188 25.191406 28.242188 25.296875 28.355469 L 27.03125 30.082031 C 27.113281 30.167969 27.140625 30.25 27.113281 30.359375 C 27.085938 30.445312 27.007812 30.523438 26.894531 30.550781 L 23.871094 31.210938 C 23.816406 31.210938 23.761719 31.210938 23.734375 31.210938 Z M 25.109375 28.929688 L 23.621094 30.417969 C 23.570312 30.46875 23.570312 30.523438 23.59375 30.578125 C 23.621094 30.636719 23.675781 30.664062 23.761719 30.664062 L 26.292969 30.109375 Z M 25.109375 28.929688 "/>
<path style=" stroke:none;fill-rule:nonzero;fill:rgb(100%,42.352941%,21.568627%);fill-opacity:1;" d="M 43.667969 13.941406 C 43.613281 13.78125 43.421875 13.695312 43.253906 13.75 C 43.09375 13.808594 43.007812 14.003906 43.058594 14.164062 C 43.058594 14.191406 43.09375 14.21875 43.09375 14.25 C 43.253906 14.578125 43.199219 14.992188 42.980469 15.292969 C 42.871094 15.429688 42.898438 15.625 43.007812 15.730469 C 43.144531 15.84375 43.339844 15.8125 43.445312 15.679688 C 43.859375 15.15625 43.941406 14.496094 43.667969 13.941406 Z M 43.667969 13.941406 "/>
</g>
</svg>
