<?xml version="1.0" encoding="UTF-8"?>
<svg xmlns="http://www.w3.org/2000/svg" xmlns:xlink="http://www.w3.org/1999/xlink" width="55px" height="55px" viewBox="0 0 55 55" version="1.1">
<g id="surface1">
<path style=" stroke:none;fill-rule:nonzero;fill:rgb(0%,0%,0%);fill-opacity:1;" d="M 54.785156 32.929688 C 54.457031 31.960938 53.59375 31.289062 52.476562 31.125 C 51.949219 31.050781 51.347656 31.082031 50.632812 31.226562 C 49.386719 31.472656 48.464844 31.570312 47.789062 31.585938 C 50.332031 27.425781 52.402344 22.675781 53.59375 18.207031 C 55.515625 10.980469 54.488281 7.691406 53.285156 6.199219 C 50.105469 2.257812 45.464844 0.140625 39.863281 0.078125 C 36.878906 0.0429688 34.253906 0.613281 32.886719 1.023438 C 31.613281 0.808594 30.246094 0.6875 28.808594 0.664062 C 26.113281 0.621094 23.734375 1.191406 21.699219 2.359375 C 20.574219 1.992188 18.769531 1.472656 16.683594 1.140625 C 11.773438 0.359375 7.820312 0.964844 4.925781 2.949219 C 1.421875 5.347656 -0.203125 9.515625 0.0976562 15.339844 C 0.195312 17.1875 1.261719 22.8125 2.941406 28.144531 C 3.90625 31.210938 4.933594 33.757812 6 35.714844 C 7.507812 38.488281 9.125 40.121094 10.9375 40.707031 C 11.953125 41.035156 13.800781 41.265625 15.742188 39.699219 C 15.988281 39.988281 16.316406 40.273438 16.753906 40.539062 C 17.308594 40.878906 17.984375 41.15625 18.660156 41.320312 C 21.097656 41.910156 23.378906 41.761719 25.328125 40.933594 C 25.339844 41.269531 25.347656 41.589844 25.355469 41.867188 C 25.367188 42.316406 25.382812 42.757812 25.398438 43.171875 C 25.511719 45.957031 25.710938 48.121094 26.289062 49.636719 C 26.320312 49.722656 26.363281 49.847656 26.40625 49.984375 C 26.695312 50.839844 27.179688 52.277344 28.410156 53.402344 C 29.683594 54.566406 31.222656 54.925781 32.632812 54.925781 C 33.339844 54.925781 34.015625 54.835938 34.605469 54.710938 C 36.714844 54.273438 39.113281 53.605469 40.84375 51.210938 C 42.484375 48.949219 43.28125 45.542969 43.425781 40.171875 C 43.445312 40.023438 43.460938 39.875 43.476562 39.738281 L 43.511719 39.453125 L 43.898438 39.488281 L 43.996094 39.496094 C 46.148438 39.589844 48.773438 39.148438 50.386719 38.421875 C 51.664062 37.847656 55.75 35.753906 54.785156 32.929688 "/>
<path style=" stroke:none;fill-rule:nonzero;fill:rgb(20%,40.392157%,56.862745%);fill-opacity:1;" d="M 51.113281 33.480469 C 44.722656 34.757812 44.285156 32.660156 44.285156 32.660156 C 51.03125 22.953125 53.851562 10.636719 51.417969 7.621094 C 44.777344 -0.605469 33.285156 3.285156 33.09375 3.386719 L 33.03125 3.394531 C 31.769531 3.140625 30.355469 2.992188 28.769531 2.964844 C 25.875 2.917969 23.683594 3.699219 22.019531 4.925781 C 22.019531 4.925781 1.515625 -3.265625 2.46875 15.222656 C 2.671875 19.15625 8.285156 44.984375 14.976562 37.183594 C 17.425781 34.332031 19.789062 31.917969 19.789062 31.917969 C 20.960938 32.675781 22.367188 33.0625 23.839844 32.921875 L 23.957031 32.828125 C 23.921875 33.183594 23.9375 33.53125 24 33.941406 C 22.277344 35.808594 22.785156 36.136719 19.335938 36.824219 C 15.847656 37.519531 17.898438 38.761719 19.234375 39.085938 C 20.859375 39.480469 24.609375 40.035156 27.144531 36.59375 L 27.042969 36.988281 C 27.71875 37.511719 28.195312 40.398438 28.113281 43.019531 C 28.035156 45.636719 27.980469 47.433594 28.515625 48.839844 C 29.046875 50.242188 29.578125 53.402344 34.109375 52.460938 C 37.894531 51.671875 39.855469 49.632812 40.128906 46.234375 C 40.324219 43.816406 40.761719 44.171875 40.789062 42.011719 L 41.140625 40.988281 C 41.546875 37.710938 41.207031 36.652344 43.539062 37.144531 L 44.105469 37.195312 C 45.820312 37.269531 48.070312 36.925781 49.386719 36.332031 C 52.226562 35.054688 53.914062 32.917969 51.113281 33.480469 "/>
<path style=" stroke:none;fill-rule:nonzero;fill:rgb(100%,100%,100%);fill-opacity:1;" d="M 23.21875 16.984375 C 22.644531 16.90625 22.121094 16.976562 21.859375 17.171875 C 21.710938 17.28125 21.664062 17.40625 21.652344 17.492188 C 21.617188 17.722656 21.785156 17.976562 21.886719 18.109375 C 22.175781 18.480469 22.597656 18.734375 23.015625 18.792969 C 23.078125 18.800781 23.136719 18.804688 23.199219 18.804688 C 23.894531 18.804688 24.527344 18.277344 24.585938 17.890625 C 24.65625 17.402344 23.925781 17.078125 23.21875 16.984375 M 42.292969 17 C 42.238281 16.617188 41.539062 16.507812 40.875 16.597656 C 40.210938 16.6875 39.566406 16.976562 39.621094 17.359375 C 39.664062 17.65625 40.21875 18.164062 40.875 18.164062 C 40.929688 18.164062 40.984375 18.160156 41.042969 18.152344 C 41.480469 18.09375 41.800781 17.824219 41.953125 17.667969 C 42.183594 17.433594 42.320312 17.167969 42.292969 17 "/>
<path style=" stroke:none;fill-rule:nonzero;fill:rgb(100%,100%,100%);fill-opacity:1;" d="M 53.238281 33.335938 C 52.996094 32.621094 52.210938 32.390625 50.90625 32.652344 C 47.039062 33.425781 45.65625 32.890625 45.199219 32.566406 C 48.207031 28.125 50.679688 22.753906 52.015625 17.746094 C 52.644531 15.375 52.996094 13.171875 53.023438 11.375 C 53.054688 9.402344 52.710938 7.953125 51.996094 7.070312 C 49.117188 3.5 44.890625 1.589844 39.773438 1.535156 C 36.257812 1.496094 33.285156 2.371094 32.710938 2.617188 C 31.496094 2.324219 30.175781 2.144531 28.734375 2.121094 C 26.09375 2.078125 23.8125 2.691406 21.925781 3.941406 C 21.101562 3.644531 18.980469 2.9375 16.386719 2.535156 C 11.902344 1.832031 8.339844 2.363281 5.796875 4.109375 C 2.765625 6.195312 1.363281 9.921875 1.632812 15.183594 C 1.726562 16.957031 2.765625 22.402344 4.410156 27.621094 C 6.570312 34.488281 8.921875 38.375 11.394531 39.175781 C 11.683594 39.269531 12.015625 39.332031 12.382812 39.332031 C 13.285156 39.332031 14.390625 38.9375 15.542969 37.597656 C 16.945312 35.964844 18.398438 34.375 19.894531 32.824219 C 20.867188 33.328125 21.933594 33.609375 23.027344 33.640625 C 23.027344 33.667969 23.03125 33.695312 23.035156 33.722656 C 22.847656 33.9375 22.664062 34.160156 22.480469 34.382812 C 21.726562 35.316406 21.566406 35.507812 19.132812 35.996094 C 18.4375 36.132812 16.597656 36.5 16.570312 37.753906 C 16.542969 39.117188 18.746094 39.691406 19 39.753906 C 19.875 39.964844 20.71875 40.070312 21.519531 40.070312 C 23.476562 40.070312 25.199219 39.449219 26.574219 38.242188 C 26.53125 43.113281 26.742188 47.914062 27.34375 49.375 C 27.839844 50.574219 29.046875 53.5 32.859375 53.5 C 33.417969 53.5 34.03125 53.4375 34.710938 53.296875 C 38.691406 52.46875 40.417969 50.761719 41.085938 47.003906 C 41.445312 44.996094 42.058594 40.195312 42.347656 37.625 C 42.957031 37.808594 43.738281 37.890625 44.585938 37.890625 C 46.355469 37.890625 48.398438 37.527344 49.675781 36.953125 C 51.113281 36.304688 53.710938 34.714844 53.238281 33.335938 Z M 43.761719 15.945312 C 43.75 16.703125 43.640625 17.394531 43.527344 18.113281 C 43.40625 18.890625 43.277344 19.691406 43.246094 20.660156 C 43.214844 21.605469 43.335938 22.589844 43.453125 23.542969 C 43.691406 25.460938 43.9375 27.4375 42.988281 29.390625 C 42.832031 29.121094 42.691406 28.839844 42.570312 28.554688 C 42.453125 28.277344 42.199219 27.835938 41.84375 27.222656 C 40.46875 24.832031 37.25 19.230469 38.898438 16.949219 C 39.390625 16.269531 40.636719 15.570312 43.761719 15.945312 Z M 39.972656 3.074219 C 44.554688 3.171875 48.179688 4.835938 50.75 8.015625 C 52.71875 10.453125 50.550781 21.554688 44.273438 31.132812 C 44.210938 31.054688 44.144531 30.976562 44.082031 30.898438 L 44.003906 30.804688 C 45.625 28.207031 45.308594 25.636719 45.027344 23.359375 C 44.910156 22.421875 44.800781 21.539062 44.828125 20.710938 C 44.855469 19.832031 44.976562 19.078125 45.09375 18.347656 C 45.234375 17.449219 45.378906 16.519531 45.339844 15.425781 C 45.371094 15.308594 45.382812 15.171875 45.367188 15.011719 C 45.265625 13.960938 44.027344 10.816406 41.503906 7.96875 C 40.125 6.410156 38.113281 4.667969 35.367188 3.496094 C 36.546875 3.257812 38.164062 3.035156 39.972656 3.074219 Z M 14.324219 36.617188 C 13.058594 38.09375 12.179688 37.8125 11.894531 37.71875 C 10.019531 37.113281 7.839844 33.269531 5.921875 27.171875 C 4.261719 21.898438 3.292969 16.59375 3.214844 15.109375 C 2.972656 10.40625 4.148438 7.128906 6.710938 5.367188 C 10.878906 2.5 17.734375 4.214844 20.488281 5.085938 C 20.449219 5.121094 20.40625 5.160156 20.367188 5.195312 C 15.847656 9.621094 15.957031 17.183594 15.964844 17.644531 C 15.964844 17.824219 15.980469 18.074219 16.003906 18.421875 C 16.082031 19.695312 16.226562 22.0625 15.839844 24.742188 C 15.480469 27.234375 16.269531 29.671875 18.011719 31.429688 C 18.1875 31.609375 18.378906 31.78125 18.574219 31.945312 C 17.796875 32.75 16.117188 34.527344 14.324219 36.617188 Z M 19.152344 30.367188 C 17.75 28.949219 17.113281 26.976562 17.40625 24.953125 C 17.816406 22.125 17.664062 19.65625 17.582031 18.332031 C 17.570312 18.148438 17.5625 17.984375 17.554688 17.855469 C 18.214844 17.289062 21.277344 15.699219 23.457031 16.183594 C 24.453125 16.40625 25.058594 17.0625 25.3125 18.195312 C 26.617188 24.046875 25.484375 26.488281 24.574219 28.449219 C 24.386719 28.851562 24.210938 29.234375 24.058594 29.628906 L 23.941406 29.933594 C 23.644531 30.707031 23.367188 31.425781 23.195312 32.105469 C 21.707031 32.101562 20.257812 31.484375 19.152344 30.367188 Z M 19.382812 38.265625 C 18.949219 38.160156 18.554688 37.976562 18.328125 37.824219 C 18.519531 37.734375 18.859375 37.617188 19.453125 37.5 C 22.316406 36.925781 22.757812 36.523438 23.726562 35.332031 C 23.949219 35.058594 24.199219 34.75 24.546875 34.375 C 25.066406 33.8125 25.300781 33.90625 25.730469 34.082031 C 26.078125 34.21875 26.417969 34.644531 26.554688 35.109375 C 26.621094 35.328125 26.695312 35.746094 26.457031 36.070312 C 24.4375 38.8125 21.496094 38.777344 19.382812 38.265625 Z M 34.378906 51.792969 C 30.875 52.523438 29.632812 50.789062 28.8125 48.804688 C 28.285156 47.527344 28.027344 41.753906 28.210938 35.378906 C 28.214844 35.296875 28.199219 35.214844 28.175781 35.136719 C 28.15625 34.984375 28.121094 34.835938 28.078125 34.6875 C 27.804688 33.757812 27.136719 32.984375 26.335938 32.660156 C 26.019531 32.535156 25.4375 32.300781 24.734375 32.472656 C 24.882812 31.875 25.144531 31.203125 25.425781 30.472656 L 25.542969 30.164062 C 25.675781 29.816406 25.84375 29.457031 26.019531 29.078125 C 26.972656 27.027344 28.273438 24.21875 26.859375 17.867188 C 26.328125 15.492188 24.558594 14.332031 21.875 14.601562 C 20.265625 14.761719 18.792969 15.390625 18.058594 15.753906 C 17.902344 15.828125 17.757812 15.90625 17.621094 15.976562 C 17.828125 13.582031 18.601562 9.105469 21.496094 6.273438 C 23.320312 4.488281 25.75 3.609375 28.710938 3.65625 C 34.539062 3.75 38.277344 6.648438 40.390625 9.066406 C 42.207031 11.152344 43.191406 13.25 43.585938 14.382812 C 40.628906 14.089844 38.621094 14.65625 37.601562 16.066406 C 35.386719 19.140625 38.8125 25.101562 40.460938 27.96875 C 40.765625 28.492188 41.023438 28.949219 41.105469 29.140625 C 41.644531 30.402344 42.339844 31.242188 42.847656 31.859375 C 43 32.046875 43.152344 32.230469 43.265625 32.390625 C 42.371094 32.640625 40.765625 33.21875 40.910156 36.105469 C 40.792969 37.554688 39.953125 44.34375 39.527344 46.742188 C 38.960938 49.910156 37.757812 51.089844 34.378906 51.792969 Z M 49.011719 35.558594 C 48.09375 35.972656 46.5625 36.28125 45.109375 36.347656 C 43.5 36.417969 42.683594 36.171875 42.492188 36.019531 C 42.402344 34.21875 43.09375 34.03125 43.824219 33.832031 C 43.9375 33.800781 44.050781 33.769531 44.160156 33.734375 C 44.226562 33.785156 44.300781 33.839844 44.378906 33.890625 C 45.671875 34.71875 47.976562 34.804688 51.226562 34.15625 L 51.265625 34.148438 C 50.824219 34.546875 50.074219 35.078125 49.011719 35.558594 Z M 49.011719 35.558594 "/>
</g>
</svg>
