<?xml version="1.0" encoding="UTF-8"?>
<svg xmlns="http://www.w3.org/2000/svg" xmlns:xlink="http://www.w3.org/1999/xlink" width="40px" height="40px" viewBox="0 0 40 40" version="1.1">
<g id="surface1">
<path style=" stroke:none;fill-rule:nonzero;fill:rgb(100%,42.352941%,21.568627%);fill-opacity:1;" d="M 39.835938 22.539062 C 41.234375 11.582031 33.496094 1.5625 22.558594 0.164062 C 11.621094 -1.234375 1.5625 6.503906 0.164062 17.441406 C -1.234375 28.378906 6.503906 38.417969 17.441406 39.835938 C 28.398438 41.234375 38.417969 33.496094 39.835938 22.539062 Z M 39.835938 22.539062 "/>
<path style=" stroke:none;fill-rule:nonzero;fill:rgb(100%,100%,100%);fill-opacity:1;" d="M 27.21875 12.839844 L 18.78125 21.28125 L 16.402344 18.898438 C 24.699219 10.601562 25.519531 11.320312 27.21875 12.839844 Z M 27.21875 12.839844 "/>
<path style=" stroke:none;fill-rule:nonzero;fill:rgb(100%,42.352941%,21.568627%);fill-opacity:1;" d="M 18.78125 21.480469 C 18.71875 21.480469 18.679688 21.460938 18.640625 21.417969 L 16.242188 19.039062 C 16.160156 18.960938 16.160156 18.839844 16.242188 18.761719 C 24.679688 10.320312 25.558594 11.121094 27.339844 12.722656 C 27.378906 12.761719 27.398438 12.800781 27.398438 12.859375 C 27.398438 12.921875 27.378906 12.960938 27.339844 13 L 18.898438 21.417969 C 18.878906 21.460938 18.820312 21.480469 18.78125 21.480469 Z M 16.679688 18.898438 L 18.78125 21 L 26.917969 12.859375 C 25.4375 11.542969 24.4375 11.140625 16.679688 18.898438 Z M 16.679688 18.898438 "/>
<path style=" stroke:none;fill-rule:nonzero;fill:rgb(100%,100%,100%);fill-opacity:1;" d="M 21.199219 23.699219 L 18.898438 21.398438 L 27.339844 12.960938 C 29.597656 15.242188 26.21875 18.941406 21.199219 23.699219 Z M 21.199219 23.699219 "/>
<path style=" stroke:none;fill-rule:nonzero;fill:rgb(100%,42.352941%,21.568627%);fill-opacity:1;" d="M 21.199219 23.898438 C 21.140625 23.898438 21.101562 23.878906 21.058594 23.839844 L 18.761719 21.539062 C 18.71875 21.5 18.71875 21.460938 18.71875 21.398438 C 18.71875 21.339844 18.738281 21.300781 18.78125 21.261719 L 27.21875 12.820312 C 27.296875 12.742188 27.417969 12.742188 27.5 12.820312 C 28.019531 13.300781 28.296875 13.980469 28.277344 14.679688 C 28.238281 16.902344 25.71875 19.71875 21.359375 23.839844 C 21.300781 23.878906 21.238281 23.898438 21.199219 23.898438 Z M 19.179688 21.398438 C 20.460938 22.699219 21 23.21875 21.199219 23.417969 C 24.558594 20.21875 27.820312 16.941406 27.839844 14.679688 C 27.859375 14.160156 27.660156 13.640625 27.320312 13.242188 Z M 19.179688 21.398438 "/>
<path style=" stroke:none;fill-rule:nonzero;fill:rgb(100%,100%,100%);fill-opacity:1;" d="M 16.441406 18.960938 L 18.140625 20.660156 C 18.179688 20.699219 18.179688 20.738281 18.140625 20.78125 C 18.121094 20.800781 18.121094 20.800781 18.101562 20.800781 L 14.582031 21.558594 C 14.402344 21.578125 14.242188 21.460938 14.199219 21.28125 C 14.179688 21.179688 14.222656 21.078125 14.28125 21.019531 L 16.320312 18.980469 C 16.359375 18.941406 16.421875 18.921875 16.441406 18.960938 Z M 16.441406 18.960938 "/>
<path style=" stroke:none;fill-rule:nonzero;fill:rgb(100%,42.352941%,21.568627%);fill-opacity:1;" d="M 14.519531 21.757812 C 14.222656 21.757812 14 21.519531 14 21.21875 C 14 21.078125 14.0625 20.941406 14.160156 20.839844 L 16.199219 18.800781 C 16.320312 18.699219 16.480469 18.699219 16.601562 18.800781 L 18.300781 20.5 C 18.421875 20.601562 18.421875 20.78125 18.300781 20.898438 C 18.261719 20.941406 18.21875 20.960938 18.160156 20.980469 L 14.640625 21.738281 C 14.601562 21.738281 14.5625 21.757812 14.519531 21.757812 Z M 16.378906 19.179688 L 14.421875 21.140625 C 14.382812 21.179688 14.359375 21.238281 14.402344 21.300781 C 14.421875 21.359375 14.480469 21.378906 14.539062 21.359375 L 17.839844 20.640625 Z M 16.378906 19.179688 "/>
<path style=" stroke:none;fill-rule:nonzero;fill:rgb(100%,100%,100%);fill-opacity:1;" d="M 31.679688 8.164062 C 30.398438 6.921875 28.339844 6.960938 27.097656 8.261719 C 25.859375 9.5625 25.898438 11.601562 27.199219 12.839844 C 28.257812 13.859375 29.859375 14.042969 31.117188 13.28125 L 28.839844 11 Z M 31.679688 8.164062 "/>
<path style=" stroke:none;fill-rule:nonzero;fill:rgb(100%,42.352941%,21.568627%);fill-opacity:1;" d="M 29.4375 13.941406 C 27.539062 13.941406 26 12.402344 26 10.5 C 26 8.601562 27.539062 7.0625 29.4375 7.0625 C 30.316406 7.0625 31.179688 7.402344 31.816406 8.023438 C 31.859375 8.0625 31.878906 8.101562 31.878906 8.164062 C 31.878906 8.222656 31.859375 8.261719 31.816406 8.300781 L 29.117188 11 L 31.238281 13.121094 C 31.316406 13.203125 31.316406 13.320312 31.238281 13.402344 C 31.21875 13.421875 31.21875 13.421875 31.199219 13.441406 C 30.679688 13.761719 30.058594 13.941406 29.4375 13.941406 Z M 29.4375 7.480469 C 27.757812 7.480469 26.398438 8.84375 26.417969 10.523438 C 26.417969 12.203125 27.777344 13.5625 29.457031 13.542969 C 29.917969 13.542969 30.378906 13.441406 30.796875 13.222656 L 28.699219 11.140625 C 28.660156 11.101562 28.636719 11.0625 28.636719 11 C 28.636719 10.941406 28.660156 10.902344 28.699219 10.863281 L 31.378906 8.183594 C 30.839844 7.722656 30.15625 7.480469 29.4375 7.480469 Z M 29.4375 7.480469 "/>
<path style=" stroke:none;fill-rule:nonzero;fill:rgb(100%,100%,100%);fill-opacity:1;" d="M 31.738281 8.222656 L 31.699219 8.183594 L 28.839844 11 L 31.097656 13.261719 C 31.316406 13.121094 31.539062 12.960938 31.71875 12.78125 C 32.996094 11.523438 32.996094 9.480469 31.738281 8.222656 Z M 31.738281 8.222656 "/>
<path style=" stroke:none;fill-rule:nonzero;fill:rgb(100%,42.352941%,21.568627%);fill-opacity:1;" d="M 31.117188 13.480469 C 31.058594 13.480469 31.019531 13.460938 30.976562 13.421875 L 28.699219 11.140625 C 28.660156 11.101562 28.636719 11.0625 28.636719 11 C 28.636719 10.941406 28.660156 10.902344 28.699219 10.863281 L 31.539062 8.023438 C 31.617188 7.941406 31.738281 7.941406 31.816406 8.023438 L 31.878906 8.0625 C 33.21875 9.402344 33.21875 11.5625 31.898438 12.921875 C 31.699219 13.121094 31.476562 13.300781 31.238281 13.441406 C 31.179688 13.460938 31.136719 13.480469 31.117188 13.480469 Z M 29.117188 11 L 31.136719 13.019531 C 31.296875 12.921875 31.457031 12.78125 31.578125 12.660156 C 32.71875 11.523438 32.777344 9.660156 31.679688 8.460938 Z M 29.117188 11 "/>
<path style=" stroke:none;fill-rule:nonzero;fill:rgb(100%,100%,100%);fill-opacity:1;" d="M 27.558594 13.203125 C 27.078125 12.722656 26.300781 12.722656 25.820312 13.203125 L 18.28125 20.738281 L 19.539062 22 L 27.519531 15 C 28.039062 14.5625 28.078125 13.78125 27.636719 13.261719 C 27.597656 13.242188 27.578125 13.222656 27.558594 13.203125 Z M 27.558594 13.203125 "/>
<path style=" stroke:none;fill-rule:nonzero;fill:rgb(100%,42.352941%,21.568627%);fill-opacity:1;" d="M 19.519531 22.199219 C 19.460938 22.199219 19.421875 22.179688 19.378906 22.140625 L 18.121094 20.878906 C 18.039062 20.800781 18.039062 20.679688 18.121094 20.601562 L 25.660156 13.0625 C 26.21875 12.5 27.117188 12.5 27.679688 13.0625 C 28.238281 13.621094 28.238281 14.519531 27.679688 15.082031 C 27.660156 15.101562 27.636719 15.121094 27.617188 15.140625 L 19.640625 22.140625 C 19.621094 22.179688 19.578125 22.199219 19.519531 22.199219 Z M 18.558594 20.738281 L 19.539062 21.71875 L 27.378906 14.839844 C 27.820312 14.480469 27.859375 13.820312 27.5 13.382812 C 27.140625 12.941406 26.480469 12.902344 26.039062 13.261719 C 26.019531 13.28125 26 13.300781 25.957031 13.320312 Z M 18.558594 20.738281 "/>
<path style=" stroke:none;fill-rule:nonzero;fill:rgb(100%,100%,100%);fill-opacity:1;" d="M 12.5 29.316406 C 12.421875 29.359375 12.382812 29.4375 12.402344 29.519531 L 12.742188 30.957031 C 12.820312 31.15625 12.703125 31.398438 12.480469 31.457031 C 12.320312 31.519531 12.140625 31.457031 12.042969 31.339844 L 9.84375 29.160156 L 17.019531 21.980469 L 19.5 22.019531 L 21.179688 23.699219 C 20.78125 24.039062 18.359375 26.378906 12.5 29.316406 Z M 12.5 29.316406 "/>
<path style=" stroke:none;fill-rule:nonzero;fill:rgb(100%,42.352941%,21.568627%);fill-opacity:1;" d="M 12.339844 31.65625 C 12.179688 31.65625 12.019531 31.597656 11.921875 31.476562 L 9.742188 29.296875 C 9.703125 29.257812 9.683594 29.21875 9.683594 29.160156 C 9.683594 29.097656 9.703125 29.058594 9.742188 29.019531 L 16.921875 21.839844 C 16.960938 21.800781 17.019531 21.78125 17.058594 21.78125 L 19.539062 21.820312 C 19.601562 21.820312 19.640625 21.839844 19.679688 21.878906 L 21.359375 23.558594 C 21.398438 23.597656 21.417969 23.660156 21.417969 23.71875 C 21.417969 23.78125 21.398438 23.820312 21.339844 23.859375 L 21.199219 23.980469 C 19.082031 25.839844 16.199219 27.699219 12.621094 29.476562 L 12.960938 30.898438 C 13.019531 31.15625 12.902344 31.4375 12.660156 31.578125 C 12.542969 31.636719 12.441406 31.65625 12.339844 31.65625 Z M 10.140625 29.160156 L 12.203125 31.199219 C 12.261719 31.296875 12.382812 31.339844 12.480469 31.277344 C 12.582031 31.21875 12.621094 31.097656 12.5625 30.996094 L 12.222656 29.558594 C 12.179688 29.378906 12.261719 29.21875 12.421875 29.136719 C 15.960938 27.359375 18.820312 25.519531 20.917969 23.699219 L 19.441406 22.21875 L 17.140625 22.179688 Z M 10.140625 29.160156 "/>
<path style=" stroke:none;fill-rule:nonzero;fill:rgb(100%,100%,100%);fill-opacity:1;" d="M 8.140625 30.878906 L 9.863281 29.160156 L 12.421875 31.71875 L 8.34375 31.4375 C 8.164062 31.417969 8.042969 31.257812 8.0625 31.078125 C 8.0625 30.996094 8.082031 30.917969 8.140625 30.878906 Z M 8.140625 30.878906 "/>
<path style=" stroke:none;fill-rule:nonzero;fill:rgb(100%,42.352941%,21.568627%);fill-opacity:1;" d="M 12.421875 31.898438 L 8.320312 31.617188 C 8.023438 31.597656 7.820312 31.339844 7.84375 31.039062 C 7.863281 30.917969 7.902344 30.796875 8.003906 30.71875 L 9.722656 29 C 9.800781 28.917969 9.921875 28.917969 10 29 L 12.5625 31.558594 C 12.621094 31.617188 12.640625 31.699219 12.601562 31.777344 C 12.5625 31.859375 12.5 31.898438 12.421875 31.898438 Z M 9.863281 29.4375 L 8.28125 31.019531 C 8.222656 31.058594 8.222656 31.15625 8.28125 31.199219 C 8.300781 31.21875 8.320312 31.238281 8.363281 31.238281 L 11.902344 31.476562 Z M 9.863281 29.4375 "/>
<path style=" stroke:none;fill-rule:nonzero;fill:rgb(100%,42.352941%,21.568627%);fill-opacity:1;" d="M 16.320312 22.898438 C 16.199219 22.898438 16.121094 22.800781 16.121094 22.699219 C 16.121094 22.640625 16.140625 22.597656 16.179688 22.558594 L 18.121094 20.621094 C 18.199219 20.539062 18.320312 20.539062 18.398438 20.621094 L 19.660156 21.878906 C 19.71875 21.941406 19.738281 22 19.71875 22.078125 C 19.699219 22.140625 19.640625 22.199219 19.558594 22.21875 L 16.359375 22.898438 C 16.339844 22.898438 16.320312 22.898438 16.320312 22.898438 Z M 18.261719 21.039062 L 16.941406 22.359375 L 19.101562 21.898438 Z M 18.261719 21.039062 "/>
<path style=" stroke:none;fill-rule:nonzero;fill:rgb(100%,100%,100%);fill-opacity:1;" d="M 19.5 22.019531 L 17.300781 22.5 C 17.140625 22.539062 16.980469 22.441406 16.941406 22.28125 C 16.921875 22.179688 16.941406 22.078125 17.019531 22 L 18.242188 20.78125 Z M 19.5 22.019531 "/>
<path style=" stroke:none;fill-rule:nonzero;fill:rgb(100%,42.352941%,21.568627%);fill-opacity:1;" d="M 17.261719 22.699219 C 16.980469 22.699219 16.761719 22.480469 16.761719 22.199219 C 16.761719 22.058594 16.820312 21.941406 16.902344 21.839844 L 18.121094 20.621094 C 18.199219 20.539062 18.320312 20.539062 18.398438 20.621094 L 19.660156 21.878906 C 19.71875 21.941406 19.738281 22 19.71875 22.078125 C 19.699219 22.140625 19.640625 22.199219 19.558594 22.21875 L 17.359375 22.699219 C 17.320312 22.699219 17.28125 22.699219 17.261719 22.699219 Z M 18.261719 21.039062 L 17.179688 22.121094 C 17.140625 22.160156 17.140625 22.199219 17.160156 22.238281 C 17.179688 22.28125 17.21875 22.300781 17.28125 22.300781 L 19.121094 21.898438 Z M 18.261719 21.039062 "/>
<path style=" stroke:none;fill-rule:nonzero;fill:rgb(100%,42.352941%,21.568627%);fill-opacity:1;" d="M 31.757812 10.140625 C 31.71875 10.023438 31.578125 9.960938 31.457031 10 C 31.339844 10.042969 31.277344 10.183594 31.316406 10.300781 C 31.316406 10.320312 31.339844 10.339844 31.339844 10.363281 C 31.457031 10.601562 31.417969 10.902344 31.257812 11.121094 C 31.179688 11.222656 31.199219 11.363281 31.277344 11.441406 C 31.378906 11.523438 31.519531 11.5 31.597656 11.402344 C 31.898438 11.023438 31.957031 10.542969 31.757812 10.140625 Z M 31.757812 10.140625 "/>
</g>
</svg>
