<?xml version="1.0" encoding="UTF-8"?>
<svg xmlns="http://www.w3.org/2000/svg" xmlns:xlink="http://www.w3.org/1999/xlink" width="40px" height="40px" viewBox="0 0 40 40" version="1.1">
<g id="surface1">
<path style=" stroke:none;fill-rule:nonzero;fill:rgb(85.490196%,30.588235%,19.215686%);fill-opacity:1;" d="M 20 0 C 8.953125 0 0 8.953125 0 20 C 0 31.046875 8.953125 40 20 40 C 31.042969 40 40 31.046875 40 20 C 40 8.953125 31.042969 0 20 0 Z M 20 37.429688 C 16.855469 37.429688 14.308594 35.332031 14.308594 32.742188 L 25.683594 32.742188 C 25.683594 35.332031 23.136719 37.429688 19.992188 37.429688 Z M 29.40625 31.191406 L 10.597656 31.191406 L 10.597656 27.78125 L 29.40625 27.78125 Z M 29.339844 26.03125 L 10.652344 26.03125 L 10.46875 25.8125 C 8.542969 23.476562 8.089844 22.25 7.652344 21.015625 C 7.644531 20.972656 9.984375 21.492188 11.644531 21.867188 C 11.644531 21.867188 12.5 22.0625 13.746094 22.292969 C 12.546875 20.886719 11.835938 19.097656 11.835938 17.273438 C 11.835938 13.261719 14.910156 9.761719 13.800781 6.929688 C 14.882812 7.015625 16.035156 9.207031 16.113281 12.632812 C 17.261719 11.046875 17.742188 8.148438 17.742188 6.375 C 17.742188 4.535156 18.953125 2.398438 20.167969 2.324219 C 19.085938 4.105469 20.445312 5.632812 21.65625 9.417969 C 22.109375 10.84375 22.050781 13.234375 22.402344 14.753906 C 22.515625 11.601562 23.058594 7 25.058594 5.414062 C 24.175781 7.414062 25.191406 9.914062 25.882812 11.117188 C 27 13.058594 27.679688 14.53125 27.679688 17.304688 C 27.679688 19.171875 26.988281 20.925781 25.828125 22.304688 C 27.148438 22.058594 28.0625 21.835938 28.0625 21.835938 L 32.351562 20.996094 C 32.351562 20.996094 31.726562 23.558594 29.332031 26.027344 Z M 29.339844 26.03125 "/>
</g>
</svg>
