<?xml version="1.0" encoding="UTF-8"?>
<svg xmlns="http://www.w3.org/2000/svg" xmlns:xlink="http://www.w3.org/1999/xlink" width="55px" height="55px" viewBox="0 0 55 55" version="1.1">
<g id="surface1">
<path style=" stroke:none;fill-rule:nonzero;fill:rgb(85.490196%,30.588235%,19.215686%);fill-opacity:1;" d="M 27.5 0 C 12.3125 0 0 12.3125 0 27.5 C 0 42.691406 12.3125 55 27.5 55 C 42.683594 55 55 42.691406 55 27.5 C 55 12.3125 42.683594 0 27.5 0 Z M 27.5 51.464844 C 23.175781 51.464844 19.675781 48.582031 19.675781 45.019531 L 35.316406 45.019531 C 35.316406 48.582031 31.8125 51.464844 27.488281 51.464844 Z M 40.433594 42.886719 L 14.570312 42.886719 L 14.570312 38.199219 L 40.433594 38.199219 Z M 40.34375 35.792969 L 14.648438 35.792969 L 14.394531 35.492188 C 11.746094 32.28125 11.125 30.59375 10.523438 28.898438 C 10.511719 28.835938 13.726562 29.550781 16.011719 30.066406 C 16.011719 30.066406 17.1875 30.335938 18.902344 30.652344 C 17.25 28.71875 16.273438 26.257812 16.273438 23.75 C 16.273438 18.234375 20.5 13.421875 18.976562 9.527344 C 20.464844 9.648438 22.046875 12.660156 22.15625 17.371094 C 23.734375 15.1875 24.394531 11.203125 24.394531 8.765625 C 24.394531 6.234375 26.0625 3.296875 27.730469 3.195312 C 26.242188 5.644531 28.113281 7.746094 29.777344 12.949219 C 30.402344 14.910156 30.320312 18.195312 30.804688 20.285156 C 30.960938 15.953125 31.707031 9.625 34.457031 7.445312 C 33.242188 10.195312 34.636719 13.632812 35.589844 15.285156 C 37.125 17.957031 38.058594 19.980469 38.058594 23.792969 C 38.058594 26.363281 37.109375 28.773438 35.515625 30.667969 C 37.328125 30.332031 38.585938 30.023438 38.585938 30.023438 L 44.484375 28.871094 C 44.484375 28.871094 43.625 32.394531 40.332031 35.789062 Z M 40.34375 35.792969 "/>
</g>
</svg>
