<?xml version="1.0" encoding="UTF-8"?>
<svg xmlns="http://www.w3.org/2000/svg" xmlns:xlink="http://www.w3.org/1999/xlink" width="px" height="55px" viewBox="0 0 52 55" version="1.1">
<g id="surface1">
<path style=" stroke:none;fill-rule:nonzero;fill:rgb(100%,40%,0%);fill-opacity:1;" d="M 49.851562 21.980469 L 32.570312 21.980469 C 31.703125 21.980469 31 21.277344 31 20.410156 L 31 2.414062 C 31 1.082031 29.917969 0 28.585938 0 L 22.414062 0 C 21.082031 0 20 1.082031 20 2.414062 L 20 20.300781 C 20 21.230469 19.25 21.984375 18.320312 21.988281 L 12.65625 22.015625 C 11.722656 22.019531 10.960938 21.261719 10.960938 20.328125 L 10.996094 2.417969 C 11 1.082031 9.917969 0 8.582031 0 L 2.417969 0 C 1.085938 0 0.00390625 1.082031 0.00390625 2.414062 L 0.00390625 52.808594 C 0.00390625 53.996094 0.964844 54.953125 2.148438 54.953125 L 49.851562 54.953125 C 51.035156 54.953125 51.996094 53.996094 51.996094 52.808594 L 51.996094 24.125 C 51.996094 22.941406 51.035156 21.980469 49.851562 21.980469 Z M 41.746094 40.902344 C 41.746094 42.453125 40.488281 43.710938 38.9375 43.710938 L 34.0625 43.710938 C 32.507812 43.710938 31.25 42.453125 31.25 40.902344 L 31.25 36.03125 C 31.25 34.480469 32.507812 33.222656 34.0625 33.222656 L 38.9375 33.222656 C 40.488281 33.222656 41.746094 34.480469 41.746094 36.03125 Z M 41.746094 40.902344 "/>
</g>
</svg>
