<?xml version="1.0" encoding="UTF-8"?>
<svg xmlns="http://www.w3.org/2000/svg" xmlns:xlink="http://www.w3.org/1999/xlink" width="40px" height="40px" viewBox="0 0 40 40" version="1.1">
<g id="surface1">
<path style=" stroke:none;fill-rule:nonzero;fill:rgb(38.039216%,85.490196%,98.431373%);fill-opacity:1;" d="M 23.484375 20 C 23.484375 22.214844 21.925781 24.007812 20 24.007812 C 18.074219 24.007812 16.515625 22.214844 16.515625 20 C 16.515625 17.785156 18.074219 15.992188 20 15.992188 C 21.925781 15.992188 23.484375 17.785156 23.484375 20 Z M 23.484375 20 "/>
<path style="fill:none;stroke-width:1;stroke-linecap:butt;stroke-linejoin:miter;stroke:rgb(38.039216%,85.490196%,98.431373%);stroke-opacity:1;stroke-miterlimit:4;" d="M 10.998921 0 C 10.998921 -2.320127 6.073997 -4.200609 0 -4.200609 C -6.073997 -4.200609 -10.998921 -2.320127 -10.998921 0 C -10.998921 2.320127 -6.073997 4.200609 0 4.200609 C 6.073997 4.200609 10.998921 2.320127 10.998921 0 Z M 10.998921 0 " transform="matrix(1.699741,0,0,1.954702,20,20)"/>
<path style="fill:none;stroke-width:1;stroke-linecap:butt;stroke-linejoin:miter;stroke:rgb(38.039216%,85.490196%,98.431373%);stroke-opacity:1;stroke-miterlimit:4;" d="M 10.999756 0.000482391 C 11.000266 -2.31853 6.0748 -4.198967 0.0000645491 -4.200721 C -6.07582 -4.200484 -10.999246 -2.319495 -10.999756 -0.000482391 C -11.000266 2.31853 -6.0748 4.198967 -0.0000645491 4.200721 C 6.07582 4.200484 10.999246 2.319495 10.999756 0.000482391 Z M 10.999756 0.000482391 " transform="matrix(0.84987,1.692821,-1.472019,0.977351,20,20)"/>
<path style="fill:none;stroke-width:1;stroke-linecap:butt;stroke-linejoin:miter;stroke:rgb(38.039216%,85.490196%,98.431373%);stroke-opacity:1;stroke-miterlimit:4;" d="M 10.999756 -0.000482391 C 10.999246 -2.319495 6.07582 -4.200484 -0.0000645491 -4.200721 C -6.0748 -4.198967 -11.000266 -2.31853 -10.999756 0.000482391 C -10.999246 2.319495 -6.07582 4.200484 0.0000645491 4.200721 C 6.0748 4.198967 11.000266 2.31853 10.999756 -0.000482391 Z M 10.999756 -0.000482391 " transform="matrix(-0.84987,1.692821,-1.472019,-0.977351,20,20)"/>
</g>
</svg>
