<?xml version="1.0" encoding="UTF-8"?>
<svg xmlns="http://www.w3.org/2000/svg" xmlns:xlink="http://www.w3.org/1999/xlink" width="55px" height="55px" viewBox="0 0 55 55" version="1.1">
<g id="surface1">
<path style=" stroke:none;fill-rule:nonzero;fill:rgb(56.862745%,14.901961%,14.901961%);fill-opacity:1;" d="M 52.835938 42.234375 C 49.898438 44.015625 34.699219 51.289062 31.460938 53.253906 C 28.226562 55.21875 26.425781 55.199219 23.871094 53.777344 C 21.3125 52.355469 5.136719 44.75 2.222656 43.128906 C 0.765625 42.316406 0 41.632812 0 40.988281 L 0 34.519531 C 0 34.519531 21.0625 29.183594 24.460938 27.761719 C 27.859375 26.34375 29.039062 26.292969 31.933594 27.523438 C 34.828125 28.757812 52.128906 32.390625 54.988281 33.609375 L 54.988281 39.988281 C 54.988281 40.628906 54.328125 41.328125 52.835938 42.234375 "/>
<path style=" stroke:none;fill-rule:nonzero;fill:rgb(77.647059%,18.823529%,16.862745%);fill-opacity:1;" d="M 52.832031 35.804688 C 49.898438 37.585938 34.699219 44.859375 31.460938 46.824219 C 28.226562 48.789062 26.425781 48.769531 23.871094 47.34375 C 21.3125 45.925781 5.136719 38.316406 2.222656 36.695312 C -0.691406 35.074219 -0.753906 33.960938 2.109375 32.65625 C 4.972656 31.351562 21.0625 24.003906 24.460938 22.585938 C 27.859375 21.164062 29.039062 21.113281 31.933594 22.347656 C 34.828125 23.582031 49.9375 30.582031 52.796875 31.800781 C 55.65625 33.019531 55.769531 34.023438 52.832031 35.804688 "/>
<path style=" stroke:none;fill-rule:nonzero;fill:rgb(56.862745%,14.901961%,14.901961%);fill-opacity:1;" d="M 52.835938 31.769531 C 49.898438 33.550781 34.699219 40.824219 31.460938 42.789062 C 28.226562 44.75 26.425781 44.730469 23.871094 43.308594 C 21.3125 41.886719 5.136719 34.28125 2.222656 32.660156 C 0.765625 31.851562 0 31.167969 0 30.519531 L 0 24.050781 C 0 24.050781 21.0625 18.714844 24.460938 17.296875 C 27.859375 15.875 29.039062 15.824219 31.933594 17.058594 C 34.828125 18.292969 52.128906 21.925781 54.988281 23.144531 L 54.988281 29.523438 C 54.988281 30.160156 54.328125 30.863281 52.835938 31.769531 "/>
<path style=" stroke:none;fill-rule:nonzero;fill:rgb(77.647059%,18.823529%,16.862745%);fill-opacity:1;" d="M 52.832031 25.335938 C 49.898438 27.117188 34.699219 34.390625 31.460938 36.355469 C 28.226562 38.320312 26.425781 38.300781 23.871094 36.878906 C 21.3125 35.457031 5.136719 27.851562 2.222656 26.230469 C -0.691406 24.609375 -0.753906 23.492188 2.109375 22.1875 C 4.972656 20.882812 21.0625 13.535156 24.460938 12.117188 C 27.859375 10.699219 29.039062 10.648438 31.933594 11.878906 C 34.828125 13.113281 49.9375 20.113281 52.796875 21.332031 C 55.65625 22.554688 55.769531 23.558594 52.832031 25.335938 "/>
<path style=" stroke:none;fill-rule:nonzero;fill:rgb(56.862745%,14.901961%,14.901961%);fill-opacity:1;" d="M 52.835938 20.914062 C 49.898438 22.691406 34.699219 29.96875 31.460938 31.933594 C 28.226562 33.894531 26.425781 33.878906 23.871094 32.453125 C 21.3125 31.03125 5.136719 23.425781 2.222656 21.804688 C 0.765625 20.996094 0 20.3125 0 19.667969 L 0 13.195312 C 0 13.195312 21.0625 7.859375 24.460938 6.441406 C 27.859375 5.019531 29.039062 4.96875 31.933594 6.203125 C 34.828125 7.4375 52.128906 11.070312 54.988281 12.289062 L 54.988281 18.667969 C 54.988281 19.304688 54.328125 20.007812 52.835938 20.914062 "/>
<path style=" stroke:none;fill-rule:nonzero;fill:rgb(77.647059%,18.823529%,16.862745%);fill-opacity:1;" d="M 52.832031 14.484375 C 49.898438 16.261719 34.699219 23.539062 31.460938 25.5 C 28.226562 27.464844 26.425781 27.445312 23.871094 26.023438 C 21.3125 24.601562 5.136719 16.996094 2.222656 15.375 C -0.691406 13.753906 -0.75 12.636719 2.109375 11.332031 C 4.972656 10.027344 21.0625 2.683594 24.460938 1.261719 C 27.859375 -0.15625 29.039062 -0.207031 31.933594 1.027344 C 34.828125 2.257812 49.9375 9.257812 52.796875 10.476562 C 55.65625 11.695312 55.769531 12.703125 52.832031 14.484375 "/>
<path style=" stroke:none;fill-rule:nonzero;fill:rgb(100%,100%,100%);fill-opacity:1;" d="M 34.214844 8.1875 L 29.484375 8.761719 L 28.429688 11.722656 L 26.71875 8.417969 L 21.257812 7.847656 L 25.332031 6.136719 L 24.109375 3.511719 L 27.925781 5.246094 L 31.519531 3.878906 L 30.546875 6.589844 L 34.214844 8.1875 M 28.144531 22.570312 L 19.324219 18.308594 L 31.964844 16.050781 L 28.144531 22.570312 M 15.914062 9.835938 C 19.644531 9.835938 22.671875 11.203125 22.671875 12.886719 C 22.671875 14.570312 19.644531 15.933594 15.914062 15.933594 C 12.179688 15.933594 9.15625 14.570312 9.15625 12.886719 C 9.15625 11.203125 12.179688 9.835938 15.914062 9.835938 "/>
<path style=" stroke:none;fill-rule:nonzero;fill:rgb(38.431373%,10.588235%,10.980392%);fill-opacity:1;" d="M 39.800781 9 L 47.285156 12.441406 L 39.808594 15.878906 L 39.800781 9 "/>
<path style=" stroke:none;fill-rule:nonzero;fill:rgb(60.392157%,16.078431%,15.686275%);fill-opacity:1;" d="M 31.523438 12.8125 L 39.800781 9 L 39.808594 15.878906 L 38.996094 16.25 L 31.523438 12.8125 "/>
</g>
</svg>
