<?xml version="1.0" encoding="UTF-8"?>
<svg xmlns="http://www.w3.org/2000/svg" xmlns:xlink="http://www.w3.org/1999/xlink" width="40px" height="40px" viewBox="0 0 40 40" version="1.1">
<g id="surface1">
<path style=" stroke:none;fill-rule:nonzero;fill:rgb(64.313725%,11.764706%,6.666667%);fill-opacity:1;" d="M 38.433594 29.292969 C 36.296875 30.40625 25.242188 34.953125 22.886719 36.179688 C 20.53125 37.40625 19.226562 37.394531 17.363281 36.507812 C 15.503906 35.617188 3.738281 30.863281 1.617188 29.851562 C 0.558594 29.34375 0.00390625 28.917969 0.00390625 28.515625 L 0.00390625 24.472656 C 0.00390625 24.472656 15.320312 21.136719 17.796875 20.25 C 20.269531 19.363281 21.125 19.328125 23.230469 20.101562 C 25.335938 20.871094 37.921875 23.140625 40 23.90625 L 40 27.890625 C 40 28.292969 39.519531 28.738281 38.433594 29.296875 Z M 38.433594 29.292969 "/>
<path style=" stroke:none;fill-rule:nonzero;fill:rgb(84.705882%,17.254902%,12.54902%);fill-opacity:1;" d="M 38.433594 25.25 C 36.296875 26.363281 25.242188 30.910156 22.886719 32.136719 C 20.53125 33.363281 19.226562 33.351562 17.363281 32.460938 C 15.503906 31.574219 3.738281 26.820312 1.617188 25.808594 C -0.503906 24.792969 -0.546875 24.097656 1.535156 23.28125 L 17.792969 16.988281 C 20.265625 16.101562 21.125 16.066406 23.230469 16.839844 C 25.335938 17.609375 36.328125 21.984375 38.40625 22.757812 C 40.484375 23.53125 40.566406 24.144531 38.429688 25.261719 Z M 38.433594 25.25 "/>
<path style=" stroke:none;fill-rule:nonzero;fill:rgb(64.313725%,11.764706%,6.666667%);fill-opacity:1;" d="M 38.433594 22.699219 C 36.296875 23.8125 25.242188 28.359375 22.886719 29.585938 C 20.53125 30.8125 19.226562 30.800781 17.363281 29.914062 C 15.503906 29.023438 3.738281 24.269531 1.617188 23.257812 C 0.558594 22.75 0.00390625 22.324219 0.00390625 21.921875 L 0.00390625 17.878906 C 0.00390625 17.878906 15.320312 14.542969 17.796875 13.65625 C 20.269531 12.769531 21.125 12.738281 23.230469 13.507812 C 25.335938 14.277344 37.921875 16.546875 40 17.3125 L 40 21.296875 C 40 21.699219 39.519531 22.144531 38.433594 22.703125 Z M 38.433594 22.699219 "/>
<path style=" stroke:none;fill-rule:nonzero;fill:rgb(84.705882%,17.254902%,12.54902%);fill-opacity:1;" d="M 38.433594 18.65625 C 36.296875 19.769531 25.242188 24.316406 22.886719 25.542969 C 20.53125 26.769531 19.226562 26.757812 17.363281 25.871094 C 15.503906 24.980469 3.738281 20.226562 1.617188 19.214844 C -0.503906 18.199219 -0.546875 17.503906 1.535156 16.6875 L 17.792969 10.394531 C 20.265625 9.507812 21.125 9.476562 23.230469 10.246094 C 25.335938 11.015625 36.328125 15.394531 38.40625 16.152344 C 40.488281 16.914062 40.566406 17.542969 38.433594 18.65625 Z M 38.433594 18.65625 "/>
<path style=" stroke:none;fill-rule:nonzero;fill:rgb(64.313725%,11.764706%,6.666667%);fill-opacity:1;" d="M 38.433594 15.863281 C 36.296875 16.976562 25.242188 21.523438 22.886719 22.75 C 20.53125 23.976562 19.226562 23.964844 17.363281 23.078125 C 15.503906 22.1875 3.738281 17.433594 1.617188 16.421875 C 0.558594 15.914062 0.00390625 15.488281 0.00390625 15.085938 L 0.00390625 11.039062 C 0.00390625 11.039062 15.320312 7.703125 17.796875 6.816406 C 20.269531 5.929688 21.125 5.898438 23.230469 6.667969 C 25.335938 7.441406 37.921875 9.710938 40 10.472656 L 40 14.460938 C 40 14.859375 39.519531 15.308594 38.433594 15.863281 Z M 38.433594 15.863281 "/>
<path style=" stroke:none;fill-rule:nonzero;fill:rgb(84.705882%,17.254902%,12.54902%);fill-opacity:1;" d="M 38.433594 11.816406 C 36.296875 12.929688 25.242188 17.476562 22.886719 18.703125 C 20.53125 19.929688 19.226562 19.917969 17.363281 19.03125 C 15.503906 18.140625 3.738281 13.390625 1.617188 12.375 C -0.503906 11.363281 -0.546875 10.664062 1.535156 9.851562 L 17.792969 3.554688 C 20.265625 2.667969 21.125 2.636719 23.230469 3.40625 C 25.335938 4.179688 36.328125 8.554688 38.40625 9.3125 C 40.488281 10.074219 40.566406 10.703125 38.433594 11.816406 Z M 38.433594 11.816406 "/>
<path style=" stroke:none;fill-rule:nonzero;fill:rgb(100%,100%,100%);fill-opacity:1;" d="M 21 10.152344 L 19.746094 8.066406 L 15.742188 7.707031 L 18.730469 6.628906 L 17.832031 4.976562 L 20.628906 6.066406 L 23.265625 5.203125 L 22.550781 6.914062 L 25.238281 7.921875 L 21.773438 8.28125 Z M 14.324219 14.300781 L 23.589844 12.875 L 20.792969 16.980469 Z M 14.324219 14.300781 "/>
<path style=" stroke:none;fill-rule:nonzero;fill:rgb(100%,100%,100%);fill-opacity:1;" d="M 16.777344 10.882812 C 16.777344 9.820312 14.5625 8.960938 11.824219 8.960938 C 9.089844 8.960938 6.871094 9.820312 6.871094 10.882812 C 6.871094 11.945312 9.089844 12.804688 11.824219 12.804688 C 14.5625 12.804688 16.777344 11.945312 16.777344 10.882812 Z M 16.777344 10.882812 "/>
<path style=" stroke:none;fill-rule:nonzero;fill:rgb(47.843137%,4.705882%,0%);fill-opacity:1;" d="M 34.824219 10.601562 L 29.339844 12.769531 L 29.335938 8.433594 Z M 34.824219 10.601562 "/>
<path style=" stroke:none;fill-rule:nonzero;fill:rgb(67.843137%,12.941176%,8.235294%);fill-opacity:1;" d="M 29.339844 12.769531 L 28.746094 13 L 23.269531 10.835938 L 29.339844 8.433594 Z M 29.339844 12.769531 "/>
</g>
</svg>
