<?xml version="1.0" encoding="UTF-8"?>
<svg xmlns="http://www.w3.org/2000/svg" xmlns:xlink="http://www.w3.org/1999/xlink" width="55px" height="55px" viewBox="0 0 55 55" version="1.1">
<defs>
<filter id="alpha" filterUnits="objectBoundingBox" x="0%" y="0%" width="100%" height="100%">
  <feColorMatrix type="matrix" in="SourceGraphic" values="0 0 0 0 1 0 0 0 0 1 0 0 0 0 1 0 0 0 1 0"/>
</filter>
<mask id="mask0">
  <g filter="url(#alpha)">
<rect x="0" y="0" width="55" height="55" style="fill:rgb(0%,0%,0%);fill-opacity:0.14902;stroke:none;"/>
  </g>
</mask>
<clipPath id="clip1">
  <rect x="0" y="0" width="56" height="56"/>
</clipPath>
<g id="surface5" clip-path="url(#clip1)">
<path style=" stroke:none;fill-rule:nonzero;fill:rgb(0%,0%,0%);fill-opacity:1;" d="M 12.03125 22.34375 L 42.96875 22.34375 L 42.96875 30.9375 L 12.03125 30.9375 Z M 12.03125 22.34375 "/>
<path style=" stroke:none;fill-rule:nonzero;fill:rgb(0%,0%,0%);fill-opacity:1;" d="M 12.03125 12.03125 L 42.96875 12.03125 L 42.96875 20.625 L 12.03125 20.625 Z M 12.03125 12.03125 "/>
<path style=" stroke:none;fill-rule:nonzero;fill:rgb(0%,0%,0%);fill-opacity:1;" d="M 41.25 1.71875 L 13.75 1.71875 C 12.800781 1.71875 12.03125 2.488281 12.03125 3.4375 L 12.03125 10.3125 L 42.96875 10.3125 L 42.96875 3.4375 C 42.96875 2.488281 42.199219 1.71875 41.25 1.71875 Z M 41.25 1.71875 "/>
</g>
</defs>
<g id="surface1">
<path style=" stroke:none;fill-rule:nonzero;fill:rgb(70.588235%,80%,72.54902%);fill-opacity:1;" d="M 12.03125 51.5625 C 12.03125 52.511719 12.800781 53.28125 13.75 53.28125 L 41.25 53.28125 C 42.199219 53.28125 42.96875 52.511719 42.96875 51.5625 L 42.96875 32.65625 L 12.03125 32.65625 Z M 12.03125 51.5625 "/>
<path style=" stroke:none;fill-rule:nonzero;fill:rgb(70.588235%,80%,72.54902%);fill-opacity:1;" d="M 12.03125 22.34375 L 42.96875 22.34375 L 42.96875 30.9375 L 12.03125 30.9375 Z M 12.03125 22.34375 "/>
<path style=" stroke:none;fill-rule:nonzero;fill:rgb(70.588235%,80%,72.54902%);fill-opacity:1;" d="M 12.03125 12.03125 L 42.96875 12.03125 L 42.96875 20.625 L 12.03125 20.625 Z M 12.03125 12.03125 "/>
<path style=" stroke:none;fill-rule:nonzero;fill:rgb(70.588235%,80%,72.54902%);fill-opacity:1;" d="M 41.25 1.71875 L 13.75 1.71875 C 12.800781 1.71875 12.03125 2.488281 12.03125 3.4375 L 12.03125 10.3125 L 42.96875 10.3125 L 42.96875 3.4375 C 42.96875 2.488281 42.199219 1.71875 41.25 1.71875 Z M 41.25 1.71875 "/>
<use xlink:href="#surface5" mask="url(#mask0)"/>
<path style=" stroke:none;fill-rule:nonzero;fill:rgb(22.352941%,25.882353%,25.098039%);fill-opacity:1;" d="M 41.25 0 L 13.75 0 C 11.851562 0 10.3125 1.539062 10.3125 3.4375 L 10.3125 51.5625 C 10.3125 53.460938 11.851562 55 13.75 55 L 41.25 55 C 43.148438 55 44.6875 53.460938 44.6875 51.5625 L 44.6875 3.4375 C 44.6875 1.539062 43.148438 0 41.25 0 Z M 42.96875 51.5625 C 42.96875 52.511719 42.199219 53.28125 41.25 53.28125 L 13.75 53.28125 C 12.800781 53.28125 12.03125 52.511719 12.03125 51.5625 L 12.03125 32.65625 L 42.96875 32.65625 Z M 42.96875 30.9375 L 12.03125 30.9375 L 12.03125 22.34375 L 42.96875 22.34375 Z M 42.96875 20.625 L 12.03125 20.625 L 12.03125 12.03125 L 42.96875 12.03125 Z M 42.96875 10.3125 L 12.03125 10.3125 L 12.03125 3.4375 C 12.03125 2.488281 12.800781 1.71875 13.75 1.71875 L 41.25 1.71875 C 42.199219 1.71875 42.96875 2.488281 42.96875 3.4375 Z M 42.96875 10.3125 "/>
<path style=" stroke:none;fill-rule:nonzero;fill:rgb(22.352941%,25.882353%,25.098039%);fill-opacity:1;" d="M 36.953125 5.15625 L 18.046875 5.15625 C 17.570312 5.15625 17.1875 5.539062 17.1875 6.015625 C 17.1875 6.492188 17.570312 6.875 18.046875 6.875 L 36.953125 6.875 C 37.429688 6.875 37.8125 6.492188 37.8125 6.015625 C 37.8125 5.539062 37.429688 5.15625 36.953125 5.15625 Z M 36.953125 5.15625 "/>
<path style=" stroke:none;fill-rule:nonzero;fill:rgb(22.352941%,25.882353%,25.098039%);fill-opacity:1;" d="M 18.046875 17.1875 L 36.953125 17.1875 C 37.429688 17.1875 37.8125 16.804688 37.8125 16.328125 C 37.8125 15.851562 37.429688 15.46875 36.953125 15.46875 L 18.046875 15.46875 C 17.570312 15.46875 17.1875 15.851562 17.1875 16.328125 C 17.1875 16.804688 17.570312 17.1875 18.046875 17.1875 Z M 18.046875 17.1875 "/>
<path style=" stroke:none;fill-rule:nonzero;fill:rgb(22.352941%,25.882353%,25.098039%);fill-opacity:1;" d="M 18.046875 27.5 L 36.953125 27.5 C 37.429688 27.5 37.8125 27.117188 37.8125 26.640625 C 37.8125 26.164062 37.429688 25.78125 36.953125 25.78125 L 18.046875 25.78125 C 17.570312 25.78125 17.1875 26.164062 17.1875 26.640625 C 17.1875 27.117188 17.570312 27.5 18.046875 27.5 Z M 18.046875 27.5 "/>
<path style=" stroke:none;fill-rule:nonzero;fill:rgb(22.352941%,25.882353%,25.098039%);fill-opacity:1;" d="M 27.5 49.84375 C 28.925781 49.84375 30.078125 48.6875 30.078125 47.265625 C 30.078125 45.84375 28.925781 44.6875 27.5 44.6875 C 26.074219 44.6875 24.921875 45.84375 24.921875 47.265625 C 24.921875 48.6875 26.074219 49.84375 27.5 49.84375 Z M 27.5 46.40625 C 27.976562 46.40625 28.359375 46.789062 28.359375 47.265625 C 28.359375 47.742188 27.976562 48.125 27.5 48.125 C 27.023438 48.125 26.640625 47.742188 26.640625 47.265625 C 26.640625 46.789062 27.023438 46.40625 27.5 46.40625 Z M 27.5 46.40625 "/>
<path style=" stroke:none;fill-rule:nonzero;fill:rgb(22.352941%,25.882353%,25.098039%);fill-opacity:1;" d="M 34.375 49.84375 C 35.800781 49.84375 36.953125 48.6875 36.953125 47.265625 C 36.953125 45.84375 35.800781 44.6875 34.375 44.6875 C 32.949219 44.6875 31.796875 45.84375 31.796875 47.265625 C 31.796875 48.6875 32.949219 49.84375 34.375 49.84375 Z M 34.375 46.40625 C 34.851562 46.40625 35.234375 46.789062 35.234375 47.265625 C 35.234375 47.742188 34.851562 48.125 34.375 48.125 C 33.898438 48.125 33.515625 47.742188 33.515625 47.265625 C 33.515625 46.789062 33.898438 46.40625 34.375 46.40625 Z M 34.375 46.40625 "/>
<path style=" stroke:none;fill-rule:nonzero;fill:rgb(22.352941%,25.882353%,25.098039%);fill-opacity:1;" d="M 20.625 49.84375 C 22.050781 49.84375 23.203125 48.6875 23.203125 47.265625 C 23.203125 45.84375 22.050781 44.6875 20.625 44.6875 C 19.199219 44.6875 18.046875 45.84375 18.046875 47.265625 C 18.046875 48.6875 19.199219 49.84375 20.625 49.84375 Z M 20.625 46.40625 C 21.101562 46.40625 21.484375 46.789062 21.484375 47.265625 C 21.484375 47.742188 21.101562 48.125 20.625 48.125 C 20.148438 48.125 19.765625 47.742188 19.765625 47.265625 C 19.765625 46.789062 20.148438 46.40625 20.625 46.40625 Z M 20.625 46.40625 "/>
<path style=" stroke:none;fill-rule:nonzero;fill:rgb(27.058824%,66.666667%,72.156863%);fill-opacity:1;" d="M 21.484375 47.265625 C 21.484375 47.742188 21.101562 48.125 20.625 48.125 C 20.148438 48.125 19.765625 47.742188 19.765625 47.265625 C 19.765625 46.789062 20.148438 46.40625 20.625 46.40625 C 21.101562 46.40625 21.484375 46.789062 21.484375 47.265625 Z M 21.484375 47.265625 "/>
<path style=" stroke:none;fill-rule:nonzero;fill:rgb(96.862745%,42.745098%,34.117647%);fill-opacity:1;" d="M 28.359375 47.265625 C 28.359375 47.742188 27.976562 48.125 27.5 48.125 C 27.023438 48.125 26.640625 47.742188 26.640625 47.265625 C 26.640625 46.789062 27.023438 46.40625 27.5 46.40625 C 27.976562 46.40625 28.359375 46.789062 28.359375 47.265625 Z M 28.359375 47.265625 "/>
<path style=" stroke:none;fill-rule:nonzero;fill:rgb(97.647059%,92.156863%,69.803922%);fill-opacity:1;" d="M 35.234375 47.265625 C 35.234375 47.742188 34.851562 48.125 34.375 48.125 C 33.898438 48.125 33.515625 47.742188 33.515625 47.265625 C 33.515625 46.789062 33.898438 46.40625 34.375 46.40625 C 34.851562 46.40625 35.234375 46.789062 35.234375 47.265625 Z M 35.234375 47.265625 "/>
</g>
</svg>
