<?xml version="1.0" encoding="UTF-8"?>
<svg xmlns="http://www.w3.org/2000/svg" xmlns:xlink="http://www.w3.org/1999/xlink" width="40px" height="40px" viewBox="0 0 40 40" version="1.1">
<g id="surface1">
<path style=" stroke:none;fill-rule:nonzero;fill:rgb(25.098039%,70.196078%,87.843137%);fill-opacity:1;" d="M 20 0 C 8.953125 0 0 8.953125 0 20 C 0 31.046875 8.953125 40 20 40 C 31.046875 40 40 31.046875 40 20 C 40 8.953125 31.046875 0 20 0 Z M 20 0 "/>
<path style=" stroke:none;fill-rule:nonzero;fill:rgb(100%,100%,100%);fill-opacity:1;" d="M 29.730469 11.503906 L 26.160156 29.515625 C 26.160156 29.515625 25.660156 30.765625 24.285156 30.164062 L 16.042969 23.84375 L 13.046875 22.394531 L 8 20.699219 C 8 20.699219 7.226562 20.421875 7.148438 19.824219 C 7.074219 19.222656 8.023438 18.898438 8.023438 18.898438 L 28.082031 11.03125 C 28.082031 11.03125 29.730469 10.304688 29.730469 11.503906 "/>
<path style=" stroke:none;fill-rule:nonzero;fill:rgb(82.352941%,89.803922%,94.509804%);fill-opacity:1;" d="M 15.410156 29.3125 C 15.410156 29.3125 15.167969 29.289062 14.867188 28.339844 C 14.570312 27.390625 13.046875 22.394531 13.046875 22.394531 L 25.160156 14.703125 C 25.160156 14.703125 25.859375 14.277344 25.835938 14.703125 C 25.835938 14.703125 25.960938 14.777344 25.585938 15.125 C 25.210938 15.476562 16.066406 23.695312 16.066406 23.695312 "/>
<path style=" stroke:none;fill-rule:nonzero;fill:rgb(70.980392%,81.176471%,89.411765%);fill-opacity:1;" d="M 19.203125 26.269531 L 15.941406 29.242188 C 15.941406 29.242188 15.6875 29.433594 15.410156 29.3125 L 16.035156 23.789062 "/>
</g>
</svg>
