<?xml version="1.0" encoding="UTF-8"?>
<svg xmlns="http://www.w3.org/2000/svg" xmlns:xlink="http://www.w3.org/1999/xlink" width="40px" height="40px" viewBox="0 0 40 40" version="1.1">
<defs>
<linearGradient id="linear0" gradientUnits="userSpaceOnUse" x1="29.5" y1="19.006" x2="29.5" y2="46" spreadMethod="reflect" gradientTransform="matrix(0.625,0,0,0.625,0,0)">
<stop offset="0" style="stop-color:rgb(42.745098%,78.039216%,100%);stop-opacity:1;"/>
<stop offset="1" style="stop-color:rgb(90.196078%,67.058824%,100%);stop-opacity:1;"/>
</linearGradient>
<linearGradient id="linear1" gradientUnits="userSpaceOnUse" x1="29.5" y1="5.833" x2="29.5" y2="58.262" spreadMethod="reflect" gradientTransform="matrix(0.625,0,0,0.625,0,0)">
<stop offset="0" style="stop-color:rgb(10.196078%,42.745098%,100%);stop-opacity:1;"/>
<stop offset="1" style="stop-color:rgb(78.431373%,13.333333%,100%);stop-opacity:1;"/>
</linearGradient>
<linearGradient id="linear2" gradientUnits="userSpaceOnUse" x1="32" y1="5.833" x2="32" y2="58.262" spreadMethod="reflect" gradientTransform="matrix(0.625,0,0,0.625,0,0)">
<stop offset="0" style="stop-color:rgb(10.196078%,42.745098%,100%);stop-opacity:1;"/>
<stop offset="1" style="stop-color:rgb(78.431373%,13.333333%,100%);stop-opacity:1;"/>
</linearGradient>
</defs>
<g id="surface1">
<path style=" stroke:none;fill-rule:nonzero;fill:url(#linear0);" d="M 13.753906 22.03125 L 24.390625 15.625 L 16.882812 23.4375 L 23.464844 28.609375 C 24.644531 29.128906 25.074219 28.046875 25.074219 28.046875 L 28.089844 12.734375 C 28.089844 12.734375 28.140625 12.34375 28.117188 12.265625 C 27.902344 11.535156 26.726562 12.0625 26.726562 12.0625 L 9.503906 18.867188 C 9.503906 18.867188 8.6875 19.148438 8.753906 19.667969 C 8.816406 20.183594 9.484375 20.421875 9.484375 20.421875 L 13.753906 22.03125 "/>
<path style=" stroke:none;fill-rule:nonzero;fill:url(#linear1);" d="M 28.71875 12.089844 C 28.574219 11.597656 28.179688 11.296875 27.640625 11.257812 C 27.53125 11.25 26.914062 11.273438 26.5 11.484375 L 26.496094 11.480469 L 9.300781 18.277344 C 8.746094 18.46875 8.136719 18.917969 8.125 19.582031 C 8.125 19.632812 8.125 19.6875 8.132812 19.742188 C 8.242188 20.617188 9.167969 20.972656 9.261719 21.007812 L 13.25 22.507812 C 13.554688 23.492188 14.566406 26.742188 14.785156 27.4375 C 14.929688 27.902344 15.171875 28.503906 15.613281 28.671875 C 15.742188 28.722656 15.875 28.75 16.015625 28.75 C 16.402344 28.75 16.652344 28.554688 16.746094 28.46875 L 19.183594 26.039062 L 23.082031 29.101562 C 23.121094 29.132812 23.167969 29.160156 23.214844 29.179688 C 23.539062 29.324219 23.824219 29.375 24.070312 29.375 C 24.324219 29.375 24.535156 29.320312 24.691406 29.253906 C 25.359375 28.980469 25.625 28.347656 25.65625 28.277344 C 25.667969 28.242188 25.679688 28.207031 25.6875 28.167969 L 28.710938 12.816406 C 28.78125 12.292969 28.742188 12.171875 28.71875 12.089844 Z M 14.496094 22.3125 L 20.667969 18.597656 L 16.433594 23.003906 C 16.359375 23.082031 16.316406 23.179688 16.289062 23.28125 C 16.289062 23.289062 15.660156 26.050781 15.660156 26.050781 Z M 27.476562 12.617188 L 24.476562 27.847656 C 24.441406 27.910156 24.351562 28.042969 24.21875 28.097656 C 24.109375 28.144531 23.960938 28.132812 23.785156 28.0625 L 17.8125 23.371094 L 24.839844 16.058594 C 25.058594 15.832031 25.074219 15.480469 24.878906 15.234375 C 24.683594 14.992188 24.335938 14.929688 24.066406 15.089844 L 13.691406 21.339844 L 9.699219 19.835938 C 9.574219 19.789062 9.449219 19.699219 9.398438 19.632812 C 9.464844 19.574219 9.601562 19.496094 9.734375 19.449219 L 26.957031 12.644531 C 26.96875 12.640625 26.976562 12.636719 26.988281 12.628906 C 27.144531 12.5625 27.355469 12.511719 27.488281 12.503906 C 27.484375 12.566406 27.476562 12.617188 27.476562 12.617188 Z M 27.476562 12.617188 "/>
<path style=" stroke:none;fill-rule:nonzero;fill:url(#linear2);" d="M 20 36.25 C 11.039062 36.25 3.75 28.960938 3.75 20 C 3.75 11.039062 11.039062 3.75 20 3.75 C 28.960938 3.75 36.25 11.039062 36.25 20 C 36.25 28.960938 28.960938 36.25 20 36.25 Z M 20 5 C 11.730469 5 5 11.730469 5 20 C 5 28.269531 11.730469 35 20 35 C 28.269531 35 35 28.269531 35 20 C 35 11.730469 28.269531 5 20 5 Z M 20 5 "/>
</g>
</svg>
