<?xml version="1.0" encoding="UTF-8"?>
<svg xmlns="http://www.w3.org/2000/svg" xmlns:xlink="http://www.w3.org/1999/xlink" width="55px" height="55px" viewBox="0 0 55 55" version="1.1">
<g id="surface1">
<path style=" stroke:none;fill-rule:nonzero;fill:rgb(0%,0%,0%);fill-opacity:1;" d="M 1.074219 0.00390625 L 53.925781 0.00390625 C 54.519531 0.00390625 55 0.589844 55 1.3125 L 55 53.515625 C 55 54.238281 54.519531 54.824219 53.925781 54.824219 L 1.074219 54.824219 C 0.480469 54.824219 0 54.238281 0 53.515625 L 0 1.3125 C 0 0.589844 0.480469 0.00390625 1.074219 0.00390625 Z M 1.074219 0.00390625 "/>
<path style=" stroke:none;fill-rule:nonzero;fill:rgb(100%,100%,100%);fill-opacity:1;" d="M 6.066406 5.703125 C 5.882812 5.480469 5.660156 5.367188 5.402344 5.367188 C 5.140625 5.367188 4.917969 5.480469 4.734375 5.707031 C 4.550781 5.929688 4.457031 6.203125 4.457031 6.519531 C 4.457031 6.835938 4.550781 7.109375 4.734375 7.332031 L 7.621094 10.851562 L 4.734375 14.367188 C 4.550781 14.59375 4.457031 14.867188 4.457031 15.183594 C 4.457031 15.5 4.550781 15.769531 4.734375 15.992188 C 4.917969 16.214844 5.140625 16.328125 5.398438 16.332031 C 5.660156 16.332031 5.882812 16.21875 6.070312 15.992188 L 9.277344 12.078125 C 9.953125 11.261719 9.953125 10.441406 9.277344 9.621094 Z M 18.644531 14.375 C 18.460938 14.148438 18.234375 14.035156 17.972656 14.035156 L 11.777344 14.035156 C 11.515625 14.035156 11.292969 14.148438 11.105469 14.375 C 10.921875 14.601562 10.828125 14.871094 10.828125 15.191406 C 10.828125 15.511719 10.921875 15.785156 11.105469 16.011719 C 11.292969 16.238281 11.515625 16.351562 11.777344 16.351562 L 17.972656 16.351562 C 18.234375 16.351562 18.460938 16.238281 18.644531 16.011719 C 18.832031 15.785156 18.921875 15.511719 18.921875 15.191406 C 18.921875 14.871094 18.832031 14.601562 18.644531 14.375 Z M 18.644531 14.375 "/>
</g>
</svg>
