<?xml version="1.0" encoding="UTF-8"?>
<svg xmlns="http://www.w3.org/2000/svg" xmlns:xlink="http://www.w3.org/1999/xlink" width="40px" height="40px" viewBox="0 0 40 32" version="1.1">
<g id="surface1">
<path style=" stroke:none;fill-rule:nonzero;fill:rgb(0%,0%,0%);fill-opacity:1;" d="M 0.78125 0 L 39.21875 0 C 39.648438 0 40 0.34375 40 0.761719 L 40 31.136719 C 40 31.558594 39.648438 31.898438 39.21875 31.898438 L 0.78125 31.898438 C 0.351562 31.898438 0 31.558594 0 31.136719 L 0 0.761719 C 0 0.34375 0.351562 0 0.78125 0 Z M 0.78125 0 "/>
<path style=" stroke:none;fill-rule:nonzero;fill:rgb(100%,100%,100%);fill-opacity:1;" d="M 4.414062 3.320312 C 4.277344 3.1875 4.117188 3.125 3.929688 3.125 C 3.738281 3.125 3.578125 3.191406 3.441406 3.320312 C 3.308594 3.449219 3.242188 3.609375 3.242188 3.792969 C 3.242188 3.976562 3.308594 4.136719 3.441406 4.265625 L 5.542969 6.3125 L 3.445312 8.359375 C 3.308594 8.492188 3.242188 8.648438 3.238281 8.832031 C 3.242188 9.019531 3.308594 9.175781 3.441406 9.304688 C 3.578125 9.433594 3.738281 9.5 3.925781 9.503906 C 4.117188 9.503906 4.28125 9.4375 4.414062 9.304688 L 6.75 7.027344 C 7.238281 6.550781 7.238281 6.074219 6.75 5.597656 Z M 13.558594 8.363281 C 13.425781 8.230469 13.261719 8.164062 13.070312 8.164062 L 8.566406 8.164062 C 8.375 8.164062 8.210938 8.230469 8.078125 8.363281 C 7.941406 8.496094 7.875 8.652344 7.875 8.839844 C 7.875 9.023438 7.941406 9.183594 8.078125 9.316406 C 8.210938 9.449219 8.375 9.515625 8.566406 9.515625 L 8.566406 9.511719 L 13.070312 9.511719 L 13.070312 9.515625 C 13.261719 9.515625 13.425781 9.449219 13.558594 9.316406 C 13.695312 9.183594 13.761719 9.023438 13.761719 8.839844 C 13.761719 8.652344 13.695312 8.496094 13.558594 8.363281 Z M 13.558594 8.363281 "/>
</g>
</svg>
