<?xml version="1.0" encoding="UTF-8"?>
<svg xmlns="http://www.w3.org/2000/svg" xmlns:xlink="http://www.w3.org/1999/xlink" width="55px" height="55px" viewBox="0 0 55 55" version="1.1">
<g id="surface1">
<path style=" stroke:none;fill-rule:evenodd;fill:rgb(10.588235%,72.54902%,12.156863%);fill-opacity:1;" d="M 0 39.875 L 55 39.875 L 55 49.84375 C 55 52.691406 52.6875 55 49.84375 55 L 5.15625 55 C 2.308594 55 0 52.695312 0 49.84375 Z M 0 39.875 L 55 39.875 L 55 50.1875 L 0 50.1875 Z M 0 39.875 "/>
<path style=" stroke:none;fill-rule:evenodd;fill:rgb(23.529412%,23.529412%,23.529412%);fill-opacity:1;" d="M 28.53125 24.0625 L 28.53125 0 L 26.46875 0 L 26.46875 50.1875 L 28.53125 50.1875 L 28.53125 26.125 L 55 26.125 L 55 24.0625 Z M 0 5.160156 C 0 2.308594 2.3125 0 5.15625 0 L 49.84375 0 C 52.691406 0 55 2.3125 55 5.160156 L 55 50.1875 L 0 50.1875 Z M 0 5.160156 "/>
</g>
</svg>
