<?xml version="1.0" encoding="UTF-8"?>
<svg xmlns="http://www.w3.org/2000/svg" xmlns:xlink="http://www.w3.org/1999/xlink" width="40px" height="40px" viewBox="0 0 40 39" version="1.1">
<g id="surface1">
<path style=" stroke:none;fill-rule:nonzero;fill:rgb(36.862745%,27.45098%,30.196078%);fill-opacity:1;" d="M 39.476562 19.488281 C 39.476562 8.726562 30.734375 0 19.953125 0 C 9.167969 0 0.425781 8.726562 0.425781 19.488281 C 0.425781 30.25 9.167969 38.976562 19.953125 38.976562 C 30.734375 38.976562 39.476562 30.25 39.476562 19.488281 Z M 39.476562 19.488281 "/>
<path style=" stroke:none;fill-rule:nonzero;fill:rgb(100%,100%,100%);fill-opacity:1;" d="M 13.8125 36.769531 C 14.609375 37.039062 17.292969 37.898438 17.40625 37.058594 C 17.46875 36.59375 16.054688 36.121094 14.136719 35.121094 C 11.410156 33.699219 8.917969 31.882812 6.738281 29.726562 C 3.5625 26.652344 1.734375 22.46875 1.648438 18.078125 C 1.488281 12.183594 3.824219 7.417969 7.664062 4.339844 C 2.964844 7.917969 0.152344 13.398438 0.0078125 19.25 C -0.105469 23.515625 1.101562 27.109375 3.371094 30.378906 C 4.078125 31.277344 4.902344 32.078125 5.824219 32.761719 C 8 34.382812 11.179688 35.886719 13.8125 36.765625 "/>
<path style=" stroke:none;fill-rule:nonzero;fill:rgb(100%,100%,100%);fill-opacity:1;" d="M 39.746094 15.023438 C 38.535156 9.40625 34.773438 5.472656 29.738281 2.695312 C 33.597656 5.398438 39.011719 11.144531 35.8125 16.21875 C 33.105469 20.28125 26.527344 19.484375 22.921875 17.554688 C 18.644531 15.265625 13.289062 10.113281 18.570312 5.078125 C 21.992188 1.816406 32.882812 5.472656 30.964844 10.34375 C 29.847656 13.175781 25.496094 12.546875 23.539062 11.160156 C 22.09375 10.140625 20.878906 8.382812 21.523438 6.566406 C 21.730469 5.984375 21.699219 5.082031 20.867188 5.746094 C 20.253906 6.242188 19.933594 7.058594 19.824219 7.824219 C 18.914062 14.175781 30.382812 19.097656 33.789062 12.953125 C 35.554688 9.761719 32.691406 5.128906 29.089844 3.234375 C 26.382812 1.804688 23.5625 0.796875 20.109375 1.042969 C 14.585938 1.421875 9.953125 4.839844 9.371094 10.40625 C 8.789062 15.9375 12.539062 20.917969 16.953125 23.898438 C 21.597656 27.027344 27.835938 29.089844 33.542969 27.222656 C 38.660156 25.550781 40.777344 19.753906 39.746094 15.027344 "/>
<path style=" stroke:none;fill-rule:nonzero;fill:rgb(24.705882%,87.843137%,77.254902%);fill-opacity:1;" d="M 32.542969 10.71875 C 33.09375 7.078125 29.757812 4.578125 26.675781 3.445312 C 23.046875 2.109375 18.246094 2.691406 15.601562 5.660156 C 13.667969 7.839844 13.792969 11 14.789062 13.5625 C 16.300781 17.429688 19.703125 20.226562 23.667969 21.433594 C 26.488281 22.289062 29.894531 22.664062 32.746094 21.757812 C 36.910156 20.4375 38.265625 16.152344 37.40625 12.226562 C 37.222656 11.378906 36.9375 10.554688 36.5625 9.769531 C 36.039062 8.679688 34.425781 6.476562 36.648438 9.164062 C 36.878906 9.460938 37.09375 9.773438 37.289062 10.097656 C 37.746094 10.839844 38.109375 11.636719 38.371094 12.464844 C 39.582031 16.128906 38.628906 20.402344 35.277344 22.617188 C 32.703125 24.308594 29.429688 24.511719 26.441406 24.085938 C 22.441406 23.515625 18.667969 21.605469 16.042969 18.535156 C 13.648438 15.738281 12.015625 11.71875 13 8.042969 C 13.722656 5.355469 15.933594 3.347656 18.582031 2.507812 C 21.933594 1.4375 25.625 1.9375 28.640625 3.675781 C 30.152344 4.542969 31.539062 5.746094 32.316406 7.320312 C 32.664062 8.03125 32.851562 8.808594 32.867188 9.597656 C 32.875 9.917969 32.847656 10.238281 32.789062 10.550781 C 32.769531 10.664062 32.523438 10.988281 32.558594 10.722656 "/>
</g>
</svg>
