<?xml version="1.0" encoding="UTF-8"?>
<svg xmlns="http://www.w3.org/2000/svg" xmlns:xlink="http://www.w3.org/1999/xlink" width="40px" height="40px" viewBox="0 0 40 40" version="1.1">
<g id="surface1">
<path style=" stroke:none;fill-rule:nonzero;fill:rgb(45.098039%,63.137255%,98.431373%);fill-opacity:1;" d="M 39.09375 7.40625 C 38.464844 7.683594 37.820312 7.917969 37.160156 8.109375 C 37.941406 7.226562 38.535156 6.1875 38.898438 5.046875 C 38.980469 4.792969 38.898438 4.511719 38.6875 4.347656 C 38.476562 4.179688 38.1875 4.160156 37.957031 4.296875 C 36.554688 5.128906 35.042969 5.726562 33.457031 6.074219 C 31.859375 4.515625 29.6875 3.625 27.445312 3.625 C 22.710938 3.625 18.859375 7.476562 18.859375 12.210938 C 18.859375 12.585938 18.882812 12.957031 18.929688 13.320312 C 13.054688 12.804688 7.589844 9.917969 3.839844 5.316406 C 3.707031 5.152344 3.5 5.0625 3.289062 5.082031 C 3.078125 5.097656 2.890625 5.214844 2.78125 5.398438 C 2.023438 6.703125 1.621094 8.199219 1.621094 9.71875 C 1.621094 11.785156 2.359375 13.75 3.664062 15.285156 C 3.265625 15.144531 2.882812 14.972656 2.515625 14.769531 C 2.316406 14.660156 2.074219 14.660156 1.878906 14.773438 C 1.683594 14.886719 1.5625 15.09375 1.554688 15.320312 C 1.554688 15.355469 1.554688 15.394531 1.554688 15.433594 C 1.554688 18.523438 3.21875 21.304688 5.757812 22.816406 C 5.539062 22.796875 5.320312 22.765625 5.105469 22.722656 C 4.882812 22.679688 4.652344 22.757812 4.5 22.929688 C 4.351562 23.101562 4.300781 23.335938 4.371094 23.554688 C 5.308594 26.492188 7.730469 28.652344 10.660156 29.308594 C 8.230469 30.832031 5.453125 31.628906 2.539062 31.628906 C 1.929688 31.628906 1.320312 31.589844 0.722656 31.519531 C 0.421875 31.484375 0.140625 31.660156 0.0390625 31.945312 C -0.0625 32.226562 0.0429688 32.542969 0.296875 32.703125 C 4.042969 35.105469 8.371094 36.375 12.820312 36.375 C 21.5625 36.375 27.03125 32.253906 30.078125 28.792969 C 33.878906 24.480469 36.058594 18.773438 36.058594 13.132812 C 36.058594 12.898438 36.054688 12.660156 36.050781 12.421875 C 37.550781 11.292969 38.839844 9.925781 39.890625 8.355469 C 40.050781 8.113281 40.035156 7.800781 39.847656 7.578125 C 39.664062 7.359375 39.355469 7.289062 39.09375 7.40625 Z M 39.09375 7.40625 "/>
</g>
</svg>
