<?xml version="1.0" encoding="UTF-8"?>
<svg xmlns="http://www.w3.org/2000/svg" xmlns:xlink="http://www.w3.org/1999/xlink" width="55px" height="55px" viewBox="0 0 55 55" version="1.1">
<g id="surface1">
<path style=" stroke:none;fill-rule:nonzero;fill:rgb(0%,0%,0%);fill-opacity:1;" d="M 0.00390625 0 L 54.996094 0 L 27.496094 54.886719 L 0.00390625 0 "/>
<path style=" stroke:none;fill-rule:nonzero;fill:rgb(0%,67.843137%,80%);fill-opacity:1;" d="M 34.15625 14.589844 C 34.15625 15.5 33.460938 16.234375 32.601562 16.234375 C 31.742188 16.234375 31.046875 15.5 31.046875 14.589844 C 31.046875 13.679688 31.742188 12.945312 32.601562 12.945312 C 33.460938 12.945312 34.15625 13.679688 34.15625 14.589844 "/>
<path style=" stroke:none;fill-rule:nonzero;fill:rgb(0%,34.117647%,40%);fill-opacity:1;" d="M 34.15625 19.109375 C 34.15625 20.019531 33.460938 20.753906 32.601562 20.753906 C 31.742188 20.753906 31.046875 20.019531 31.046875 19.109375 C 31.046875 18.199219 31.742188 17.464844 32.601562 17.464844 C 33.460938 17.464844 34.15625 18.199219 34.15625 19.109375 "/>
<path style=" stroke:none;fill-rule:nonzero;fill:rgb(0%,84.705882%,99.607843%);fill-opacity:1;" d="M 34.15625 23.605469 C 34.15625 24.515625 33.460938 25.253906 32.601562 25.253906 C 31.742188 25.253906 31.046875 24.515625 31.046875 23.605469 C 31.046875 22.699219 31.742188 21.960938 32.601562 21.960938 C 33.460938 21.960938 34.15625 22.699219 34.15625 23.605469 "/>
<path style=" stroke:none;fill-rule:nonzero;fill:rgb(0%,55.294118%,65.098039%);fill-opacity:1;" d="M 24.824219 23.605469 C 24.824219 24.515625 24.128906 25.253906 23.269531 25.253906 C 22.410156 25.253906 21.714844 24.515625 21.714844 23.605469 C 21.714844 22.699219 22.410156 21.960938 23.269531 21.960938 C 24.128906 21.960938 24.824219 22.699219 24.824219 23.605469 "/>
<path style=" stroke:none;fill-rule:nonzero;fill:rgb(0%,84.705882%,99.607843%);fill-opacity:1;" d="M 24.824219 19.109375 C 24.824219 20.019531 24.128906 20.753906 23.269531 20.753906 C 22.410156 20.753906 21.714844 20.019531 21.714844 19.109375 C 21.714844 18.199219 22.410156 17.464844 23.269531 17.464844 C 24.128906 17.464844 24.824219 18.199219 24.824219 19.109375 M 24.824219 14.589844 C 24.824219 15.5 24.128906 16.234375 23.269531 16.234375 C 22.410156 16.234375 21.714844 15.5 21.714844 14.589844 C 21.714844 13.679688 22.410156 12.945312 23.269531 12.945312 C 24.128906 12.945312 24.824219 13.679688 24.824219 14.589844 "/>
<path style=" stroke:none;fill-rule:nonzero;fill:rgb(0%,34.117647%,40%);fill-opacity:1;" d="M 29.492188 14.589844 C 29.492188 15.5 28.792969 16.234375 27.9375 16.234375 C 27.078125 16.234375 26.378906 15.5 26.378906 14.589844 C 26.378906 13.679688 27.078125 12.945312 27.9375 12.945312 C 28.792969 12.945312 29.492188 13.679688 29.492188 14.589844 "/>
<path style=" stroke:none;fill-rule:nonzero;fill:rgb(0%,76.470588%,90.196078%);fill-opacity:1;" d="M 29.492188 19.109375 C 29.492188 20.019531 28.792969 20.753906 27.9375 20.753906 C 27.078125 20.753906 26.378906 20.019531 26.378906 19.109375 C 26.378906 18.199219 27.078125 17.464844 27.9375 17.464844 C 28.792969 17.464844 29.492188 18.199219 29.492188 19.109375 "/>
<path style=" stroke:none;fill-rule:nonzero;fill:rgb(0%,55.294118%,65.098039%);fill-opacity:1;" d="M 29.492188 23.605469 C 29.492188 24.515625 28.792969 25.253906 27.9375 25.253906 C 27.078125 25.253906 26.378906 24.515625 26.378906 23.605469 C 26.378906 22.699219 27.078125 21.960938 27.9375 21.960938 C 28.792969 21.960938 29.492188 22.699219 29.492188 23.605469 "/>
<path style=" stroke:none;fill-rule:nonzero;fill:rgb(0%,84.705882%,99.607843%);fill-opacity:1;" d="M 29.492188 28.171875 C 29.492188 29.078125 28.792969 29.816406 27.9375 29.816406 C 27.078125 29.816406 26.378906 29.078125 26.378906 28.171875 C 26.378906 27.261719 27.078125 26.523438 27.9375 26.523438 C 28.792969 26.523438 29.492188 27.261719 29.492188 28.171875 "/>
</g>
</svg>
