<?xml version="1.0" encoding="UTF-8"?>
<svg xmlns="http://www.w3.org/2000/svg" xmlns:xlink="http://www.w3.org/1999/xlink" width="55px" height="55px" viewBox="0 0 55 55" version="1.1">
<g id="surface1">
<path style=" stroke:none;fill-rule:nonzero;fill:rgb(14.117647%,53.72549%,79.215686%);fill-opacity:1;" d="M 1.570312 19.660156 C 1.570312 19.660156 0.269531 18.707031 1.832031 17.429688 L 5.472656 14.113281 C 5.472656 14.113281 6.515625 13 7.613281 13.972656 L 41.207031 39.867188 L 41.207031 52.289062 C 41.207031 52.289062 41.191406 54.238281 38.730469 54.023438 Z M 1.570312 19.660156 "/>
<path style=" stroke:none;fill-rule:nonzero;fill:rgb(6.27451%,43.921569%,70.196078%);fill-opacity:1;" d="M 10.230469 27.664062 L 1.570312 35.679688 C 1.570312 35.679688 0.683594 36.355469 1.570312 37.558594 L 5.589844 41.28125 C 5.589844 41.28125 6.546875 42.328125 7.957031 41.140625 L 17.136719 34.050781 Z M 10.230469 27.664062 "/>
<path style=" stroke:none;fill-rule:nonzero;fill:rgb(3.137255%,46.666667%,72.54902%);fill-opacity:1;" d="M 25.429688 27.730469 L 41.308594 15.386719 L 41.207031 3.03125 C 41.207031 3.03125 40.527344 0.335938 38.265625 1.738281 L 17.136719 21.324219 Z M 25.429688 27.730469 "/>
<path style=" stroke:none;fill-rule:nonzero;fill:rgb(23.529412%,60%,83.137255%);fill-opacity:1;" d="M 38.730469 54.039062 C 39.65625 55 40.773438 54.683594 40.773438 54.683594 L 53.144531 48.476562 C 54.730469 47.375 54.507812 46.011719 54.507812 46.011719 L 54.507812 8.933594 C 54.507812 7.304688 52.871094 6.738281 52.871094 6.738281 L 42.144531 1.476562 C 39.800781 0 38.265625 1.738281 38.265625 1.738281 C 38.265625 1.738281 40.242188 0.292969 41.207031 3.03125 L 41.207031 52.0625 C 41.207031 52.398438 41.136719 52.730469 40.996094 53.027344 C 40.710938 53.609375 40.097656 54.148438 38.628906 53.921875 Z M 38.730469 54.039062 "/>
</g>
</svg>
