<?xml version="1.0" encoding="UTF-8"?>
<svg xmlns="http://www.w3.org/2000/svg" xmlns:xlink="http://www.w3.org/1999/xlink" width="40px" height="40px" viewBox="0 0 40 40" version="1.1">
<g id="surface1">
<path style=" stroke:none;fill-rule:nonzero;fill:rgb(0%,39.607843%,66.27451%);fill-opacity:1;" d="M 36.261719 6.289062 L 29.054688 2.816406 C 28.222656 2.414062 27.222656 2.585938 26.570312 3.238281 L 2.976562 24.75 C 2.378906 25.289062 2.335938 26.210938 2.875 26.808594 C 2.90625 26.84375 2.9375 26.875 2.972656 26.90625 L 4.898438 28.65625 C 5.417969 29.128906 6.199219 29.164062 6.757812 28.738281 L 35.175781 7.1875 C 35.617188 6.855469 36.203125 6.800781 36.695312 7.042969 C 37.1875 7.289062 37.5 7.789062 37.5 8.339844 L 37.5 8.257812 C 37.5 7.417969 37.019531 6.652344 36.261719 6.289062 Z M 36.261719 6.289062 "/>
<path style=" stroke:none;fill-rule:nonzero;fill:rgb(0%,47.843137%,80%);fill-opacity:1;" d="M 36.261719 33.710938 L 29.054688 37.183594 C 28.21875 37.585938 27.222656 37.414062 26.570312 36.761719 L 2.976562 15.25 C 2.378906 14.710938 2.335938 13.789062 2.875 13.191406 C 2.90625 13.15625 2.9375 13.125 2.972656 13.09375 L 4.898438 11.34375 C 5.417969 10.871094 6.203125 10.835938 6.761719 11.261719 L 35.175781 32.8125 C 35.617188 33.144531 36.203125 33.199219 36.695312 32.957031 C 37.1875 32.710938 37.5 32.210938 37.5 31.660156 L 37.5 31.75 C 37.496094 32.585938 37.015625 33.347656 36.261719 33.710938 Z M 36.261719 33.710938 "/>
<path style=" stroke:none;fill-rule:nonzero;fill:rgb(12.156863%,61.176471%,94.117647%);fill-opacity:1;" d="M 29.054688 37.183594 C 28.21875 37.585938 27.222656 37.414062 26.570312 36.761719 C 26.9375 37.125 27.484375 37.230469 27.960938 37.03125 C 28.4375 36.835938 28.746094 36.371094 28.75 35.855469 L 28.75 4.144531 C 28.75 3.625 28.4375 3.160156 27.960938 2.960938 C 27.480469 2.761719 26.929688 2.875 26.5625 3.238281 C 27.21875 2.585938 28.214844 2.414062 29.050781 2.816406 L 36.257812 6.28125 C 37.015625 6.644531 37.5 7.410156 37.5 8.25 L 37.5 31.75 C 37.5 32.589844 37.019531 33.355469 36.261719 33.71875 Z M 29.054688 37.183594 "/>
</g>
</svg>
