<?xml version="1.0" encoding="UTF-8"?>
<svg xmlns="http://www.w3.org/2000/svg" xmlns:xlink="http://www.w3.org/1999/xlink" width="40px" height="40px" viewBox="0 0 40 40" version="1.1">
<g id="surface1">
<path style=" stroke:none;fill-rule:nonzero;fill:rgb(96.470588%,10.980392%,5.098039%);fill-opacity:1;" d="M 31.691406 5.847656 L 8.308594 5.847656 C 3.71875 5.847656 0 9.566406 0 14.15625 L 0 25.84375 C 0 30.433594 3.71875 34.152344 8.308594 34.152344 L 31.691406 34.152344 C 36.28125 34.152344 40 30.433594 40 25.84375 L 40 14.15625 C 40 9.566406 36.28125 5.847656 31.691406 5.847656 Z M 26.074219 20.570312 L 15.136719 25.785156 C 14.84375 25.925781 14.507812 25.710938 14.507812 25.390625 L 14.507812 14.628906 C 14.507812 14.300781 14.855469 14.089844 15.144531 14.238281 L 26.082031 19.78125 C 26.410156 19.945312 26.402344 20.410156 26.074219 20.570312 Z M 26.074219 20.570312 "/>
</g>
</svg>
