<?xml version="1.0" encoding="UTF-8"?>
<svg xmlns="http://www.w3.org/2000/svg" xmlns:xlink="http://www.w3.org/1999/xlink" width="55px" height="55px" viewBox="0 0 55 55" version="1.1">
<g id="surface1">
<path style=" stroke:none;fill-rule:nonzero;fill:rgb(96.470588%,10.980392%,5.098039%);fill-opacity:1;" d="M 43.574219 8.039062 L 11.425781 8.039062 C 5.113281 8.039062 0 13.152344 0 19.464844 L 0 35.535156 C 0 41.847656 5.113281 46.960938 11.425781 46.960938 L 43.574219 46.960938 C 49.886719 46.960938 55 41.847656 55 35.535156 L 55 19.464844 C 55 13.152344 49.886719 8.039062 43.574219 8.039062 Z M 35.851562 28.285156 L 20.8125 35.453125 C 20.410156 35.648438 19.949219 35.351562 19.949219 34.914062 L 19.949219 20.113281 C 19.949219 19.664062 20.425781 19.375 20.824219 19.578125 L 35.863281 27.199219 C 36.3125 27.425781 36.304688 28.0625 35.851562 28.285156 Z M 35.851562 28.285156 "/>
</g>
</svg>
